<svg id="Layer_1" data-name="Layer 1" xmlns="http://www.w3.org/2000/svg" viewBox="0 0 149.391 149.391"><defs><style>.cls-1{fill:#fff;}.cls-2{fill:#1dbddc;}.cls-3{fill:#1c1c1c;}</style></defs><title>AFT</title><circle class="cls-1" cx="74.598" cy="74.696" r="70.696"/><path class="cls-2" d="M74.6,149.391a74.7,74.7,0,1,1,74.7-74.7A74.781,74.781,0,0,1,74.6,149.391ZM74.6,8a66.7,66.7,0,1,0,66.7,66.695A66.772,66.772,0,0,0,74.6,8Z"/><circle class="cls-2" cx="58.39" cy="83.027" r="34.871"/><path class="cls-3" d="M56.668,109.877c1.71,3,3.838,6.73,5.123,9.11a1.309,1.309,0,1,0,2.3-1.243c-1.3-2.407-3.346-6-5.151-9.163l-.388-.68c-4.632-8.122-5.763-14.813-4.7-20.549a12.461,12.461,0,0,0,.426,1.363A14.806,14.806,0,0,0,61.2,96.21c.125.327.255.654.4.981,1.292,2.916,3.452,4.895,5.542,6.808.373.342.748.686,1.123,1.037.946.892.952,1.712.489,3.721-.653,2.831-.2,7.843,1.379,10.314a1.309,1.309,0,0,0,2.206-1.411c-1.168-1.825-1.544-6.1-1.033-8.315.4-1.748.955-4.142-1.246-6.214-.382-.36-.767-.712-1.149-1.062-1.978-1.811-3.847-3.522-4.916-5.938a14.494,14.494,0,0,1,1.555-15.023c5.9-8.413,18.547-13,26.857-12.431a16.341,16.341,0,0,1,15.455,14.582c1.528,12.253-.367,25.07-2.19,34.867a1.31,1.31,0,0,0,2.576.479c1.856-9.983,3.785-23.06,2.212-35.67a20.743,20.743,0,0,0-.682-3.276,102.768,102.768,0,0,0-1.36-17.7,1.277,1.277,0,0,0-.047-.245c-.052-.281-.1-.56-.16-.822-.166-.8-.34-1.6-.514-2.406-1.509-6.975-3.068-14.188-.578-20.814a1.31,1.31,0,0,0-2.452-.921c-2.76,7.348-1.118,14.943.47,22.287.011.055.022.108.034.162a33.359,33.359,0,0,0-28.753-3.3c2.3-9.534-3.576-19.248-3.658-19.38A1.309,1.309,0,0,0,70.536,37.9c.405.655,9.776,16.174-2.136,25.783C55.782,73.864,43.4,86.613,56.281,109.2Zm.21-30.244a1.247,1.247,0,0,0,.085-.266c3.127-5.174,7.992-9.538,13.081-13.644a18.375,18.375,0,0,0,5.239-6.554c2.169-1.057,15.8-6.94,30.632,3.666a96.051,96.051,0,0,1,1.145,11.174,19,19,0,0,0-14.47-7.943c-9.033-.625-22.756,4.378-29.181,13.54a17.254,17.254,0,0,0-3.23,12.768,11.052,11.052,0,0,1-3.439-4.566A11.735,11.735,0,0,1,56.878,79.633Z"/><path class="cls-3" d="M106.965,120.475a2.141,2.141,0,0,1-.389-.036,2.112,2.112,0,0,1-1.687-2.458c1.811-9.74,3.7-22.477,2.182-34.623A15.556,15.556,0,0,0,92.355,69.476c-8.11-.564-20.406,3.906-26.147,12.092a13.738,13.738,0,0,0-1.478,14.24c1,2.259,2.806,3.914,4.719,5.666.39.357.777.712,1.162,1.074,2.536,2.388,1.9,5.149,1.478,6.977-.468,2.026-.125,6.061.927,7.7a2.11,2.11,0,0,1-3.554,2.274c-1.735-2.711-2.175-7.934-1.485-10.926.451-1.953.35-2.385-.258-2.959q-.556-.52-1.114-1.029c-2.15-1.969-4.373-4-5.733-7.074-.111-.25-.214-.5-.313-.751a16.227,16.227,0,0,1-6.26-6.119c-.185,5.17,1.449,10.718,4.951,16.859l.452.792c1.786,3.132,3.809,6.681,5.1,9.068a2.108,2.108,0,0,1-.855,2.858,2.16,2.16,0,0,1-2.857-.855c-1.253-2.321-3.333-5.971-5.005-8.9l-.5-.87C42.394,86.463,55.024,73.448,67.9,63.064c11.371-9.173,2.347-24.109,1.958-24.741A2.109,2.109,0,0,1,73.444,36.1c.058.094,5.6,9.181,4.033,18.618A34.355,34.355,0,0,1,104.011,57.6c-1.482-6.956-2.729-14.1-.09-21.127a2.11,2.11,0,1,1,3.95,1.483c-2.407,6.407-.873,13.5.611,20.364.174.809.348,1.613.515,2.411.056.268.11.552.163.839a1.5,1.5,0,0,1,.057.317,102.491,102.491,0,0,1,1.366,17.665,21.676,21.676,0,0,1,.674,3.284c1.587,12.719-.353,25.875-2.22,35.915A2.109,2.109,0,0,1,106.965,120.475Zm-49.6-10.994.109.19c1.676,2.94,3.761,6.6,5.023,8.937a.522.522,0,0,0,.69.206.509.509,0,0,0,.206-.69c-1.279-2.37-3.3-5.912-5.079-9.035l-.451-.791c-4.419-7.748-5.986-14.647-4.791-21.092l.659-3.551.9,3.5a11.582,11.582,0,0,0,.4,1.277A14.057,14.057,0,0,0,61.6,95.514l.25.142.1.267c.121.315.246.629.385.943,1.225,2.764,3.323,4.685,5.351,6.543.376.344.753.69,1.13,1.044,1.342,1.264,1.157,2.6.721,4.484-.605,2.622-.18,7.431,1.274,9.7a.509.509,0,0,0,.858-.549c-1.3-2.034-1.687-6.546-1.138-8.926.4-1.731.851-3.694-1.015-5.452-.38-.357-.761-.706-1.141-1.054-2.045-1.873-3.971-3.638-5.107-6.2A15.246,15.246,0,0,1,64.9,80.649c6.061-8.643,19.025-13.356,27.566-12.77a17.123,17.123,0,0,1,16.194,15.28c1.541,12.365-.364,25.261-2.2,35.114a.51.51,0,0,0,.408.593.537.537,0,0,0,.594-.407c1.846-9.927,3.765-22.924,2.2-35.425a19.91,19.91,0,0,0-.656-3.15l-.034-.116,0-.122a102.666,102.666,0,0,0-1.347-17.541l-.046-.24c-.052-.276-.1-.549-.157-.807-.166-.794-.339-1.595-.513-2.4-1.533-7.088-3.118-14.417-.545-21.265a.508.508,0,0,0-.3-.655.51.51,0,0,0-.656.3c-2.677,7.126-1.061,14.6.5,21.833l.4,1.834-1.562-.819a32.794,32.794,0,0,0-28.07-3.224l-1.387.486.345-1.429c2.226-9.208-3.5-18.677-3.56-18.772a.51.51,0,0,0-.866.538c.42.68,10.142,16.778-2.314,26.826-12.361,9.97-24.5,22.453-11.928,44.491Zm3.92-15.174L59.673,93a11.881,11.881,0,0,1-3.679-4.9,12.391,12.391,0,0,1,.153-8.787h0a.583.583,0,0,0,.034-.109l.1-.248C59.548,73.545,64.585,69.1,69.542,65.1a17.679,17.679,0,0,0,5.015-6.27l.12-.257.255-.124c2.606-1.269,16.362-7.054,31.448,3.735l.267.191.056.322a96.81,96.81,0,0,1,1.156,11.273l.131,2.747-1.584-2.248a18.1,18.1,0,0,0-13.871-7.606c-8.821-.608-22.2,4.264-28.471,13.2A16.4,16.4,0,0,0,60.97,92.254ZM57.61,79.957a10.979,10.979,0,0,0-.124,7.562,9.526,9.526,0,0,0,1.7,2.793,18.253,18.253,0,0,1,3.564-11.166C69.342,69.752,83.4,64.619,92.645,65.268a20.126,20.126,0,0,1,13.469,6.3c-.21-3-.537-5.913-.932-8.276-13.812-9.7-26.325-4.911-29.3-3.526a19.317,19.317,0,0,1-5.335,6.576c-4.812,3.881-9.694,8.181-12.837,13.333a2.129,2.129,0,0,1-.1.278Z"/></svg>