<svg id="Layer_1" data-name="Layer 1" xmlns="http://www.w3.org/2000/svg" viewBox="0 0 149.391 149.391"><defs><style>.cls-1{fill:#fff;}.cls-2{fill:#1dbddc;}.cls-3{fill:#ffd4a4;}.cls-4{fill:#1c1c1c;}</style></defs><title>AFT</title><circle class="cls-1" cx="74.696" cy="72.939" r="70.696"/><path class="cls-2" d="M74.695,149.391a74.7,74.7,0,1,1,74.7-74.695A74.78,74.78,0,0,1,74.695,149.391ZM74.695,8a66.7,66.7,0,1,0,66.7,66.7A66.772,66.772,0,0,0,74.695,8Z"/><circle class="cls-3" cx="58.488" cy="83.027" r="34.871"/><circle class="cls-2" cx="92.543" cy="64.053" r="14.44"/><path class="cls-4" d="M69.422,47.365a.749.749,0,0,0,.462.16.684.684,0,0,0,.091-.006.75.75,0,0,0,.5-.282A27.527,27.527,0,0,1,74.4,43.169l.08-.066.079-.066-.465-.588h0l.43.407.066.132a.487.487,0,0,0,.044-.027l.008.007c.014-.01.068-.054.081-.066l0,0,.057-.042c.014-.01.027-.021.041-.033l.029-.023.016-.014.057-.045,0,0,.024-.019.017-.013.029-.023.037-.031.007,0,.036-.029.034-.026c.017-.013.034-.026.05-.04a.447.447,0,0,0,.041-.032.671.671,0,0,0,.058-.048l-.024.022.014-.012.034-.027.023-.016h0l.015-.012.036-.026c.018-.013.034-.026.05-.04l-.012.012.009-.008.013-.009.02-.017.012-.008.025-.02.019-.014.04-.03.029-.022h0l.012-.009a.753.753,0,0,0,.076-.057l.009-.007.015-.01c.243-.114.5-.041.342-.252l.018-.013.015-.01.006,0,.014-.01h0l0,0,.01-.007h0l.028-.02.019-.013.033-.024.045-.032c.014-.01.028-.019.04-.029l.017-.012h0l.011-.008.026-.019.009-.006.024-.017.011-.008h0l.005,0,.066-.046.12-.082-.425-.618.508.561c.231-.157.463-.311.7-.461a.751.751,0,0,0,.229-1.036l-1.71-2.68A.752.752,0,0,0,74.8,37.08a32.033,32.033,0,0,0-8.009,7.271.748.748,0,0,0,.128,1.053Z"/><path class="cls-4" d="M113.464,47.225l.083.106s.061.079.064.084l.029-.02a.931.931,0,0,0,.049.107l-.006,0c.013.019.027.039.042.057l.02.025c.01.014.02.027.031.04l.009.014.012.016.039.052h0l.048.066h0l.008.011c.013.019.026.037.04.054l.007.011.022.027c.012.019.024.036.033.048h0l.007.009.019.026.018.025.009.013.027.037,0,0,.023.032.036.05.012.015h0l.01.013,0,.007a.447.447,0,0,0,.037.053l0,.005.019.026.019.028.017.023c.009.014.018.026.025.036l0,.006.005,0a.383.383,0,0,0,.028.042h0l.011.016.007.011.018.025.021.03a.159.159,0,0,0,.045.065l.013.018.018.026c.01.016.021.031.032.046l.026.037.058.087h0l.006.008.059.089c0,.007.054.08.058.085a.421.421,0,0,0,.034.052l.007.012.026.038,0,.005h0l.017.026.013.018.014.02c.011.019.023.039.036.057s.033.051.034.054l0,0c.016.019.032.037.049.054l.214-.214.374-.227h0l-.584.478.055.085a27.394,27.394,0,0,1,2.241,4.312.75.75,0,0,0,.4.407.754.754,0,0,0,.575,0l2.941-1.208a.751.751,0,0,0,.409-.979,31.917,31.917,0,0,0-5.751-9.17.752.752,0,0,0-.517-.249.789.789,0,0,0-.542.19l-2.369,2.12a.751.751,0,0,0-.06,1.059C112.7,46.288,113.069,46.725,113.464,47.225Zm.686-.339Zm-.093.249H114l.221-.161Zm1.513,1.758Z"/><path class="cls-4" d="M120.982,75.648,118.059,74.4a.752.752,0,0,0-.985.394,27.454,27.454,0,0,1-3.117,5.441l.576.482-.64-.4.584.473-.649-.384-.058.088a.8.8,0,0,0-.08.094.311.311,0,0,0-.042.055l-.008.01-.033.043-.021.027-.019.025-.016.021-.021.027,0,0a.317.317,0,0,0-.021.027l-.014.017-.012.015-.019.026-.028.034-.027.035-.02.024c-.01.013-.02.025-.029.039l-.01.011a.289.289,0,0,0-.038.049l0,0-.025.029c-.009.012-.018.023-.027.036l-.006.006-.022.027-.013.017-.015.018,0,0-.023.03-.022.026-.009.011-.07.086-.072.087q-.46.555-.95,1.087a.747.747,0,0,0-.2.538.755.755,0,0,0,.241.522l2.338,2.154a.749.749,0,0,0,1.06-.043,31.934,31.934,0,0,0,5.886-9.083.751.751,0,0,0-.394-.984Zm-6.448,5.065Zm-.863,1.107Z"/><path class="cls-4" d="M100.639,33.269a.763.763,0,0,0-.571.068.749.749,0,0,0-.354.452l-.86,3.061a.751.751,0,0,0,.519.925q.823.231,1.627.513l.1.034.113.041.288-.693-.189.729.123.045c.011,0,.108.04.118.045l.007,0,.011,0,.012,0h0l.032.012.021.008.02.007.088.033c.029.012.058.024.071.028l.006,0,.032.013.1.039.012,0h0l.022.008.035.014c.018.008.043.018.064.025s.042.018.062.025l0,0,.061.025.014.005.027.011h0l.015.005.021.009a.4.4,0,0,0,.054.023l.018.007.041.017.038.015a.473.473,0,0,0,.047.02l.027.012.014.006.026.01h0l.04.017.063.027.051.023.037.015c.024.011.051.023.076.032l.046.02.031.015.04.016.025.012.032.014c.018.009.038.017.059.025a.382.382,0,0,0,.046.021l.021.009c.021.011.058.027.079.036l.046.021.074.034,0,0,.041.019h0l.057.026.009,0,0,0,.012.006.006,0,0,0,.022.01a.474.474,0,0,0,.087.037.965.965,0,0,0,.1.052l.029.013.033.017.04.019.061.029.036.017.042.021.028.013.019.01.031.015.008,0,.023.012a.338.338,0,0,0,.06.029l.049.024c.026.015.053.029.041.019a.6.6,0,0,0,.091.046.774.774,0,0,0,.07.037l.039.02h0c.019.011.043.023.066.034a.209.209,0,0,0,.051.027l.03.016.036.019.016.008.028.015.007,0,.016.008.007,0,.055.029.027.014.012.006.018.009.012.007.021.011.01.006a.317.317,0,0,0,.032.016l.033.015.026.016c.008.006.017.01.027.016l.054.028h0l.054.03.01.006.033.017v0l.006,0c.026.017.062.037.09.052h0l.04.021c.025.016.06.036.088.05.013.009.028.017.042.025a.188.188,0,0,0,.042.024l.03.016.046.027h0l.029.016.034.019.05.029.015.008.037.022.029.017.022.013a.4.4,0,0,0,.091.051.5.5,0,0,0,.044.027l.034.02.008.005h0c.023.015.046.028.072.042s.038.024.057.034l.019.012a.549.549,0,0,0,.066.039l.009.005.018.011a.7.7,0,0,0,.065.039l.024.016.027.016a.3.3,0,0,0,.061.038l.025.015.047.029a.436.436,0,0,0,.045.028l.053.034.022.013.02.012a.741.741,0,0,0,.069.042l.023.014c.017.013.036.026.055.038l.007,0,.016.01.043.028.016.01h0a.649.649,0,0,0,.06.037l.006,0a.507.507,0,0,0,.054.036l.031.021.019.012.029.019h0l.046.031.017.011h0l.029.02.016.011.021.014.011.007,0,0,.021.015.01.006.011.007.014.009.038.025a.437.437,0,0,0,.038.026l.01.007.034.022.017.013.009,0,.005,0,.018.012.021.014.022.015.028.019.019.013h0a.64.64,0,0,0,.059.042l.017.012,0,0,.01.007a.361.361,0,0,0,.073.05l.027.017,0,0h0l.034.024.028.019.05.035.009.007.007.006.016.011a.762.762,0,0,0,.444.144.743.743,0,0,0,.115-.009.75.75,0,0,0,.5-.307l1.836-2.6a.751.751,0,0,0-.179-1.046A31.8,31.8,0,0,0,100.639,33.269Zm.939,4.429Zm3.873,1.757Z"/><path class="cls-4" d="M108.421,86.781a.75.75,0,0,0-1.043-.194c-.682.466-1.393.908-2.167,1.34l-.136.075-.024.013-.045.025a.431.431,0,0,0-.047.026l0,0-.037.019-.016.012h0l.015-.01c-.024.01-.072.035-.093.047l-.017.009v0l-.044.021-.017.009-.007,0-.041.023-.018.009c-.015.007-.029.015-.043.023l-.029.015v0l-.039.02c-.022.009-.045.02-.068.031.018-.008.034-.016.053-.023a.436.436,0,0,0-.059.027l-.007,0h0l.007,0-.018.01-.016.008c-.106.012-.178.012-.157.081l-.012.007a.478.478,0,0,0-.087.045l-.032.016c-.019.007-.044.019-.066.03l-.007,0-.007,0-.049.023a.334.334,0,0,0-.09.046l0,0-.024.011-.017.009-.028.013-.026.013-.01.005-.03.015-.027.013-.005,0-.034.017-.016.007-.028.013-.041.021c-.028.012-.1.044-.112.052l-.018.009h0a.83.83,0,0,0-.084.038l-.026.013-.018.008c-.029.013-.057.027-.085.043l0,0,0,0a.723.723,0,0,0-.1.069l-.014-.022-.1.046a27.149,27.149,0,0,1-4.127,1.459.751.751,0,0,0-.533.917l.814,3.074a.751.751,0,0,0,.725.558.739.739,0,0,0,.192-.025,31.77,31.77,0,0,0,9.843-4.515.749.749,0,0,0,.2-1.043Zm-3.277,2.036-.047-.08-.058-.174Zm-1.619.539.092.216-.215-.338Z"/><path class="cls-4" d="M123.529,58.879a.744.744,0,0,0-.3-.488.759.759,0,0,0-.558-.132l-3.139.512a.75.75,0,0,0-.62.86,28.239,28.239,0,0,1,.323,3.025l0,.108c0,.015,0,.032,0,.048v.034l0,.036v.032l0,.043h0v.088l0,.038,0,.064V63.2c0,.027,0,.076,0,.093s0,.084,0,.109l0,.1v.032l0,.2c0,.019,0,.039,0,.058h0l0,.448c0,.021,0,.138,0,.159l.75,0-.751.1.749.039-.75.095c0,.021,0,.139,0,.16h.75l-.753.115a27.533,27.533,0,0,1-.412,3.956.749.749,0,0,0,.607.87l3.131.557a.737.737,0,0,0,.132.012.75.75,0,0,0,.737-.618,32.289,32.289,0,0,0,.08-10.816Z"/><path class="cls-4" d="M78.08,87.55A28.172,28.172,0,0,1,75.6,85.9c-.016-.014-.088-.066-.1-.078l-.114-.089-.045-.035-.029-.022-.046-.036-.011-.008-.03-.024-.009-.007-.019-.014-.017-.014-.027-.022-.017-.013-.023-.017-.044-.036-.023-.018-.014-.011-.009-.008a.331.331,0,0,0-.05-.038c-.01-.009-.022-.019-.033-.027l-.026-.021-.012-.01-.017-.013-.028-.022-.009-.007-.015-.013-.03-.024-.008-.007-.012-.009-.018-.015-.036-.029-.006,0-.012-.011-.03-.023-.006,0a.59.59,0,0,0-.059-.049l-.035-.029-.009-.007-.029-.025-.02-.016-.017-.014L74.472,85l-.019-.016-.011-.009-.008-.008-.029-.023-.043-.035h0l-.005,0a.647.647,0,0,0-.056-.05l-.029-.025-.024-.02-.031-.026-.02-.018-.02-.017,0,0c-.021-.018-.042-.037-.063-.052l-.029-.027-.019-.017a.248.248,0,0,0-.068-.058l0,0h0a.543.543,0,0,0-.076-.068.678.678,0,0,0-.075-.067c-.014-.013-.027-.027-.042-.039s-.031-.03-.048-.044a.473.473,0,0,0-.1-.087l-.076-.068c-.016-.016-.057-.054-.074-.069a.7.7,0,0,0-.075-.069c-.016-.016-.057-.055-.075-.07l-.065-.06-.01-.01-.076-.072h0l-.011-.011-.02-.02-.018-.017,0,0-.028-.026,0,0-.061-.059-.013-.013h0l-.017-.018a.581.581,0,0,0-.066-.065l-.026-.026a.253.253,0,0,0-.062-.059h0a.228.228,0,0,0-.065-.067l-.014-.014-.033-.033-.028-.028-.039-.037-.019-.02c-.011-.011-.022-.023-.034-.034l-.024-.024-.084-.086,0,0a.278.278,0,0,0-.064-.065h0l0,0-.024-.025h0L72.42,83.1l-.02-.021-.029-.03-.032-.033-.025-.026-.01-.01-.049-.052-.031-.031c-.014-.016-.029-.032-.044-.047l-.005,0-.021-.022c-.009-.011-.019-.021-.029-.031l-.015-.016-.014-.016-.029-.03-.054-.057c-.016-.018-.034-.038-.047-.051l-.033-.035c-.009-.01-.017-.02-.026-.029l-.011-.012-.032-.034h0l-.022-.023h0l-.023-.025-.017-.019-.03-.033-.007-.008-.022-.024-.026-.028-.015-.018-.028-.03-.01-.011h0l-.019-.021c-.011-.012-.022-.025-.033-.036l-.01-.012-.013-.015c-.012-.013-.024-.027-.037-.039h0l-.013-.015-.015-.017-.015-.017-.019-.021h0v0l-.015-.017h0l-.019-.023h0c-.012-.016-.026-.031-.039-.046l-.033-.038,0,0c-.007-.009-.073-.083-.08-.091l-.1-.112c-.008-.011-.054-.065-.073-.087l0,0-.074-.089-.016-.019a.749.749,0,0,0-1.052-.089l-2.438,2.041a.751.751,0,0,0-.094,1.057,32.015,32.015,0,0,0,8.243,7.006.75.75,0,0,0,1.028-.263l1.621-2.735a.751.751,0,0,0-.263-1.028ZM75.035,86.4Z"/><path class="cls-4" d="M67.633,76.414c-.172-.34-.338-.682-.5-1.029l-.075-.167-.039.016a.453.453,0,0,0-.006-.05.269.269,0,0,0-.006-.057l.008,0-.008,0a.356.356,0,0,0-.028-.081l-.011-.029c-.008-.021-.018-.042-.028-.062l0-.012-.012-.028a.532.532,0,0,0-.021-.05.3.3,0,0,0-.02-.045l-.016-.039-.015-.034-.01-.024a.325.325,0,0,0-.018-.043l-.014-.033,0-.01-.011-.027-.012-.027-.007-.015-.018-.044a.187.187,0,0,0-.017-.041c-.007-.019-.015-.038-.023-.056l-.015-.039a.235.235,0,0,0-.036-.088l-.009-.021h0l-.009-.022-.014-.033,0,0-.008-.022c0-.014-.01-.027-.016-.04v0a.845.845,0,0,0-.056-.1l.013-.007-.055-.138a27.2,27.2,0,0,1-1.605-6.318.751.751,0,0,0-.84-.647l-3.153.408a.749.749,0,0,0-.648.84,31.752,31.752,0,0,0,3.2,10.347.75.75,0,0,0,.436.374.771.771,0,0,0,.233.036.753.753,0,0,0,.34-.081l2.834-1.442A.75.75,0,0,0,67.633,76.414Zm-.9-1.119h.149l-.51.216Zm-.228,0h.087l-.269.108Zm-.663-1.048Z"/><path class="cls-4" d="M60.823,61.78l3.165.3a.6.6,0,0,0,.073,0,.75.75,0,0,0,.746-.677c.041-.423.091-.843.162-1.343l-.012,0c.011-.038.021-.078.028-.113h0l0-.025L65,59.9l0-.038,0-.029c0-.017.005-.034.007-.051s.012-.069.014-.08l0-.016.015-.093a.312.312,0,0,1-.009.044v-.011l.008-.033c0-.022.009-.045.012-.068l0-.022,0-.008a.35.35,0,0,0,.015-.1l.011-.061.017-.1c.007-.028.012-.055.018-.093l.006-.032h0l0-.02a.845.845,0,0,0,.021-.1v0l0-.03.01-.044a.485.485,0,0,0,.009-.055c0-.017.008-.035.012-.053l.007-.036.007-.039,0-.021a.273.273,0,0,0,.013-.065.415.415,0,0,0,.014-.069v-.007l.006-.031v0l0-.024,0-.024,0-.013a.2.2,0,0,0,.02-.1c0-.02.009-.039.012-.059l.022-.1c.005-.02.01-.04.013-.06l.01-.043,0-.013,0-.008h0c0-.016.007-.033.01-.05l.015-.064.024-.1-.731-.169h0l.76.046A27.142,27.142,0,0,1,67.24,52.5a.75.75,0,0,0-.361-1L64,50.153a.749.749,0,0,0-1,.361,31.728,31.728,0,0,0-2.853,10.448.75.75,0,0,0,.674.818Zm4.226-2.228,0,.012v-.012Zm-.815.362Zm0,0h0l.184.009.1.051Z"/><path class="cls-4" d="M92.871,91.332c-.238.007-.475.012-.782.014h-.1l-.013.75-.09-.747c-.022,0-.2-.005-.224-.005l0,.062c-.023-.009-.049-.018-.077-.026l0-.021-.038-.008v-.006c-.025,0-.1,0-.125,0h0l-.07,0v0c-.039,0-.074,0-.1,0v0l-.067,0c-.029,0-.09-.005-.122-.005h0a.378.378,0,0,0-.048,0,.928.928,0,0,0-.106-.007h-.02c-.032,0-.081,0-.119-.006l-.062,0c-.034,0-.076,0-.108,0a.651.651,0,0,0-.1-.006l-.056,0-.08,0a.463.463,0,0,0-.051,0l-.062,0c-.016,0-.032,0-.049,0a.444.444,0,0,0-.069-.005l-.024,0c-.016,0-.036,0-.055,0l-.061,0a.769.769,0,0,0-.107-.007h0l-.023,0-.069-.006-.019,0-.1-.008-.08.746h0l-.04-.756-.106-.01-.074.747-.034-.756-.135-.014-.1-.011-.112.743-.009-.755-.105-.012-.149-.018-.095.744h0l-.01-.756a27.3,27.3,0,0,1-4.9-1.067.75.75,0,0,0-.941.488l-.961,3.031a.75.75,0,0,0,.488.941,31.948,31.948,0,0,0,9.673,1.49q.525,0,1.047-.016a.748.748,0,0,0,.726-.774l-.1-3.178A.734.734,0,0,0,92.871,91.332Zm-1.218.348-.009.414h0l-.046-.359Zm-1.246.373Zm-1.88-.167Z"/><path class="cls-4" d="M93.5,32.116A32.225,32.225,0,0,0,81.305,33.9a.751.751,0,0,0-.457.957l1.061,3a.749.749,0,0,0,.707.5.743.743,0,0,0,.25-.043,27.339,27.339,0,0,1,6.241-1.407l.04,0,.036,0c.022,0,.043,0,.064-.007s.054,0,.08-.008l.035,0a.648.648,0,0,0,.077-.01l.056,0,.042,0h0l.046,0,.069-.007.062-.006a.532.532,0,0,0,.069,0c.022,0,.044,0,.065-.007l.059,0c.021,0,.042,0,.061-.006a1.054,1.054,0,0,0,.112-.008c.028-.011.042,0,.063,0l.048,0,.139-.01a.879.879,0,0,0,.113-.007h0l.047,0a.261.261,0,0,0,.04,0,1.209,1.209,0,0,0,.121-.008v0l.048,0,.087,0,.056,0a.973.973,0,0,0,.132-.007v0l.058,0h0c.025,0,.051,0,.076,0h0c.024,0,.046,0,.069,0l.179,0a.624.624,0,0,0,.1-.007v.005l.056,0h0a.672.672,0,0,0,.118-.01l.345.006q.034,0,.069,0l.151,0c.363,0,.723.013,1.082.029a.763.763,0,0,0,.784-.714l.149-3.176a.748.748,0,0,0-.714-.784Z"/></svg>