<svg id="Layer_1" data-name="Layer 1" xmlns="http://www.w3.org/2000/svg" xmlns:xlink="http://www.w3.org/1999/xlink" viewBox="0 0 149.391 149.391"><defs><style>.cls-1{fill:none;stroke-miterlimit:10;stroke-width:8px;stroke:url(#linear-gradient);}.cls-2{fill:url(#linear-gradient-2);}.cls-3{fill:#1c1c1c;}</style><linearGradient id="linear-gradient" y1="74.696" x2="149.391" y2="74.696" gradientUnits="userSpaceOnUse"><stop offset="0" stop-color="#aa5817"/><stop offset="0.615" stop-color="#e5a354"/><stop offset="1" stop-color="#9d6337"/></linearGradient><linearGradient id="linear-gradient-2" x1="23.617" y1="83.027" x2="93.359" y2="83.027" xlink:href="#linear-gradient"/></defs><title>Icons [Recovered]</title><circle class="cls-1" cx="74.696" cy="74.696" r="70.696"/><circle class="cls-2" cx="58.488" cy="83.027" r="34.871"/><path class="cls-3" d="M89.439,123.831a13.023,13.023,0,0,1-12.524-9.5L61.829,60.367a13,13,0,0,1,9.02-16.021l9.573-2.676a13.017,13.017,0,0,1,16.02,9.019l15.087,53.964a13.016,13.016,0,0,1-9.02,16.02l-9.574,2.677A13.006,13.006,0,0,1,89.439,123.831ZM83.92,45.189a8.975,8.975,0,0,0-2.421.333L71.926,48.2a9.009,9.009,0,0,0-6.245,11.09l15.087,53.964a9.008,9.008,0,0,0,11.09,6.244l9.574-2.676a9.012,9.012,0,0,0,6.245-11.092L92.59,51.767A9.017,9.017,0,0,0,83.92,45.189Z"/><path class="cls-3" d="M58.486,76.7a1.982,1.982,0,0,1-.946-.24c-7.333-3.95-6.423-11.266-4.918-14.582a2,2,0,0,1,3.646,1.645c-.284.644-2.58,6.319,3.169,9.416a2,2,0,0,1-.951,3.761Z"/><path class="cls-3" d="M54.507,82.714a1.986,1.986,0,0,1-.947-.24C42.005,76.248,43.439,64.72,45.811,59.5a2,2,0,0,1,3.644,1.65c-.229.515-5.1,11.824,6,17.808a2,2,0,0,1-.95,3.761Z"/><path class="cls-3" d="M112.027,75.913a2,2,0,0,1-1.642-3.14h0c.377-.546,9.084-13.5-3-23.952a2,2,0,1,1,2.618-3.025c14.826,12.833,3.776,29.1,3.662,29.26A2,2,0,0,1,112.027,75.913Z"/><path class="cls-3" d="M117.322,82.943a2,2,0,0,1-1.639-3.143c.692-1,16.169-23.964-5.33-42.571a2,2,0,1,1,2.619-3.024c24.262,21,6.179,47.615,5.993,47.881A2,2,0,0,1,117.322,82.943Z"/><rect class="cls-3" x="64.082" y="25.311" width="18.254" height="20.811" rx="5" transform="translate(-6.913 21.03) rotate(-15.619)"/></svg>