<svg id="Layer_1" data-name="Layer 1" xmlns="http://www.w3.org/2000/svg" viewBox="0 0 149.391 149.391"><defs><style>.cls-1{fill:#fff;}.cls-2{fill:#ffd119;}.cls-3{fill:#ffd4a4;}.cls-4{fill:#1c1c1c;}</style></defs><title>product-page-</title><circle class="cls-1" cx="74.696" cy="74.696" r="70.696"/><path class="cls-2" d="M74.7,149.391a74.7,74.7,0,1,1,74.695-74.7A74.78,74.78,0,0,1,74.7,149.391ZM74.7,8a66.7,66.7,0,1,0,66.695,66.695A66.771,66.771,0,0,0,74.7,8Z"/><circle class="cls-3" cx="58.488" cy="83.027" r="34.871"/><g id="Element"><path class="cls-4" d="M111.758,64.473,88.3,34.372a2.056,2.056,0,0,0-3.243,0L68.627,55.456a2.056,2.056,0,1,0,3.243,2.527l14.809-19L108.515,67a27.683,27.683,0,1,1-43.672,0A2.056,2.056,0,1,0,61.6,64.473a31.795,31.795,0,1,0,50.158,0Z"/><path class="cls-4" d="M94.7,106.216a2.047,2.047,0,0,0,1.027-.276,31.964,31.964,0,0,0,12.013-12.306,2.056,2.056,0,0,0-3.609-1.971A27.834,27.834,0,0,1,93.668,102.38a2.056,2.056,0,0,0,1.03,3.836Z"/></g></svg>