<svg id="Layer_1" data-name="Layer 1" xmlns="http://www.w3.org/2000/svg" viewBox="0 0 149.391 149.392"><defs><style>.cls-1{fill:#fff;}.cls-2{fill:#f25035;}.cls-3{fill:#1c1c1c;}</style></defs><title>Product-Page-</title><circle class="cls-1" cx="74.696" cy="74.696" r="70.696"/><path class="cls-2" d="M74.7,149.392a74.7,74.7,0,1,1,74.695-74.7A74.781,74.781,0,0,1,74.7,149.392ZM74.7,8a66.7,66.7,0,1,0,66.695,66.7A66.771,66.771,0,0,0,74.7,8Z"/><circle class="cls-2" cx="58.488" cy="83.027" r="34.871"/><path class="cls-3" d="M89.439,123.831a13.024,13.024,0,0,1-12.524-9.5L61.829,60.367a13.015,13.015,0,0,1,9.019-16.021l9.574-2.676a13.017,13.017,0,0,1,16.02,9.019l15.087,53.964a13.015,13.015,0,0,1-9.02,16.02l-9.573,2.677A13.013,13.013,0,0,1,89.439,123.831Zm-5.52-78.642a8.963,8.963,0,0,0-2.42.333L71.925,48.2A9.01,9.01,0,0,0,65.681,59.29l15.087,53.963a9.008,9.008,0,0,0,11.09,6.244l9.574-2.676a9.01,9.01,0,0,0,6.244-11.091L92.59,51.767A9.018,9.018,0,0,0,83.919,45.189Z"/><path class="cls-3" d="M58.486,76.7a1.992,1.992,0,0,1-.946-.239c-7.332-3.951-6.423-11.267-4.918-14.583a2,2,0,0,1,3.646,1.646c-.284.643-2.58,6.318,3.169,9.415a2,2,0,0,1-.951,3.761Z"/><path class="cls-3" d="M54.506,82.714a1.982,1.982,0,0,1-.946-.24C42.005,76.249,43.439,64.72,45.812,59.5a2,2,0,0,1,3.643,1.65c-.229.515-5.1,11.824,6,17.808a2,2,0,0,1-.951,3.761Z"/><path class="cls-3" d="M112.027,75.913a2,2,0,0,1-1.64-3.142c.4-.582,9.064-13.511-3-23.95a2,2,0,0,1,2.618-3.025c14.826,12.833,3.776,29.1,3.662,29.26A2,2,0,0,1,112.027,75.913Z"/><path class="cls-3" d="M117.322,82.943a2,2,0,0,1-1.639-3.143c.692-1,16.169-23.964-5.329-42.571a2,2,0,1,1,2.618-3.024c24.262,21,6.179,47.615,5.993,47.881A1.993,1.993,0,0,1,117.322,82.943Z"/><rect class="cls-3" x="64.082" y="25.311" width="18.254" height="20.811" rx="5" transform="translate(-6.913 21.03) rotate(-15.619)"/></svg>