<svg id="Layer_1" data-name="Layer 1" xmlns="http://www.w3.org/2000/svg" viewBox="0 0 149.391 149.391"><defs><style>.cls-1{fill:#fff;}.cls-2{fill:#f25035;}.cls-3{fill:#f19337;}.cls-4{fill:#1c1c1c;}</style></defs><title>Product-Page-</title><circle class="cls-1" cx="74.696" cy="74.696" r="70.696"/><path class="cls-2" d="M74.7,149.391a74.7,74.7,0,1,1,74.695-74.7A74.78,74.78,0,0,1,74.7,149.391ZM74.7,8a66.7,66.7,0,1,0,66.695,66.695A66.77,66.77,0,0,0,74.7,8Z"/><circle class="cls-3" cx="58.488" cy="83.027" r="34.871"/><path class="cls-4" d="M53.92,109.877c1.709,3,3.838,6.73,5.123,9.11a1.309,1.309,0,1,0,2.3-1.243c-1.3-2.407-3.346-6-5.152-9.163l-.388-.68c-4.632-8.122-5.762-14.813-4.7-20.549a12.256,12.256,0,0,0,.427,1.363,14.808,14.808,0,0,0,6.919,7.495c.125.327.256.654.4.981,1.291,2.916,3.452,4.895,5.542,6.808.373.342.748.686,1.122,1.037.947.892.953,1.712.489,3.721-.653,2.831-.2,7.843,1.379,10.314a1.309,1.309,0,0,0,2.206-1.411c-1.168-1.825-1.544-6.1-1.032-8.315.4-1.748.954-4.142-1.246-6.214-.383-.36-.767-.712-1.149-1.062-1.978-1.812-3.847-3.522-4.916-5.938a14.492,14.492,0,0,1,1.555-15.023c5.9-8.413,18.546-13,26.856-12.431a16.341,16.341,0,0,1,15.455,14.581c1.528,12.253-.367,25.071-2.189,34.868a1.31,1.31,0,0,0,2.576.479c1.856-9.984,3.785-23.06,2.212-35.671a20.868,20.868,0,0,0-.682-3.275,102.852,102.852,0,0,0-1.36-17.7,1.359,1.359,0,0,0-.047-.245c-.053-.281-.106-.56-.161-.823-.166-.8-.339-1.6-.514-2.405-1.508-6.975-3.067-14.188-.578-20.815a1.309,1.309,0,0,0-2.451-.92c-2.76,7.348-1.118,14.943.469,22.287.012.055.023.108.035.162a33.358,33.358,0,0,0-28.754-3.3c2.305-9.534-3.575-19.248-3.657-19.38A1.309,1.309,0,0,0,67.788,37.9c.4.655,9.776,16.174-2.136,25.783-12.618,10.178-25,22.927-12.12,45.511Zm.21-30.244a1.306,1.306,0,0,0,.085-.266c3.127-5.174,7.992-9.539,13.081-13.644a18.36,18.36,0,0,0,5.238-6.554c2.169-1.057,15.8-6.94,30.632,3.666a96.051,96.051,0,0,1,1.145,11.174,19,19,0,0,0-14.469-7.943c-9.033-.625-22.756,4.378-29.182,13.54a17.258,17.258,0,0,0-3.23,12.768,11.058,11.058,0,0,1-3.438-4.566A11.722,11.722,0,0,1,54.13,79.633Z"/><path class="cls-4" d="M104.216,120.475a2.055,2.055,0,0,1-.388-.037,2.111,2.111,0,0,1-1.688-2.457c1.812-9.74,3.7-22.476,2.182-34.624A15.556,15.556,0,0,0,89.606,69.476c-8.1-.56-20.4,3.906-26.147,12.092a13.738,13.738,0,0,0-1.478,14.24c1,2.259,2.807,3.914,4.72,5.666.39.358.777.712,1.162,1.074,2.534,2.387,1.9,5.147,1.478,6.974-.468,2.029-.126,6.063.926,7.707a2.109,2.109,0,1,1-3.553,2.273c-1.735-2.71-2.175-7.933-1.485-10.925.45-1.953.35-2.386-.258-2.958-.371-.348-.744-.69-1.115-1.03-2.149-1.968-4.373-4-5.733-7.074-.111-.25-.213-.5-.312-.751a16.237,16.237,0,0,1-6.261-6.119C51.366,95.814,53,101.363,56.5,107.5l.452.792c1.786,3.132,3.809,6.681,5.1,9.068a2.108,2.108,0,0,1-.855,2.858,2.161,2.161,0,0,1-2.858-.854c-1.261-2.338-3.355-6.01-5.037-8.961l-.464-.814c-13.191-23.129-.562-36.145,12.312-46.53,11.372-9.172,2.348-24.108,1.958-24.74A2.109,2.109,0,0,1,70.695,36.1c.057.092,5.613,9.146,4.034,18.618A34.355,34.355,0,0,1,101.263,57.6c-1.482-6.956-2.729-14.1-.09-21.127a2.11,2.11,0,0,1,3.95,1.483c-2.408,6.408-.873,13.5.61,20.364.175.808.349,1.613.516,2.411.055.268.109.552.163.839a1.5,1.5,0,0,1,.057.317,102.64,102.64,0,0,1,1.365,17.665,21.542,21.542,0,0,1,.675,3.283c1.586,12.722-.353,25.876-2.22,35.916A2.111,2.111,0,0,1,104.216,120.475Zm-49.6-10.994.076.134c1.687,2.958,3.786,6.639,5.056,8.992a.515.515,0,0,0,.69.206.508.508,0,0,0,.206-.689c-1.279-2.371-3.3-5.912-5.079-9.035l-.452-.791c-4.418-7.748-5.985-14.647-4.79-21.092l.658-3.551.9,3.5a11.582,11.582,0,0,0,.4,1.277,14.053,14.053,0,0,0,6.566,7.085l.25.141.1.268c.121.315.246.63.385.944,1.225,2.764,3.322,4.685,5.351,6.542q.564.516,1.129,1.044c1.342,1.263,1.157,2.595.722,4.484-.6,2.622-.18,7.432,1.274,9.7a.509.509,0,1,0,.857-.549c-1.3-2.034-1.687-6.547-1.137-8.926.4-1.733.85-3.7-1.016-5.452-.379-.357-.761-.707-1.141-1.054-2.044-1.873-3.971-3.638-5.106-6.2A15.243,15.243,0,0,1,62.15,80.649c6.061-8.643,19.024-13.357,27.566-12.77a17.123,17.123,0,0,1,16.194,15.28c1.543,12.366-.364,25.261-2.2,35.114a.511.511,0,0,0,.409.593.534.534,0,0,0,.594-.408c1.846-9.925,3.764-22.921,2.205-35.424a20.108,20.108,0,0,0-.656-3.15l-.034-.116,0-.122a102.8,102.8,0,0,0-1.347-17.541l-.046-.24c-.052-.276-.1-.55-.158-.807-.165-.794-.338-1.595-.513-2.4-1.532-7.087-3.117-14.416-.544-21.265a.509.509,0,0,0-.954-.357c-2.677,7.126-1.061,14.6.5,21.833l.4,1.834-1.562-.819A32.792,32.792,0,0,0,73.937,56.66l-1.388.486.346-1.429c2.23-9.222-3.5-18.676-3.56-18.77a.509.509,0,1,0-.866.536c.419.68,10.141,16.778-2.315,26.826-12.361,9.97-24.5,22.454-11.927,44.491Zm3.92-15.174L56.925,93a11.875,11.875,0,0,1-3.679-4.9,12.593,12.593,0,0,1,.153-8.788v0a.47.47,0,0,0,.032-.1l.1-.252C56.8,73.545,61.836,69.1,66.793,65.1a17.672,17.672,0,0,0,5.016-6.27l.12-.257.255-.124c2.6-1.27,16.361-7.056,31.448,3.735l.266.19.057.323a96.654,96.654,0,0,1,1.155,11.273l.131,2.747-1.584-2.248a18.1,18.1,0,0,0-13.87-7.606c-8.809-.614-22.2,4.263-28.472,13.2a16.4,16.4,0,0,0-3.093,12.189ZM54.862,79.955a11,11,0,0,0-.124,7.564,9.544,9.544,0,0,0,1.7,2.793,18.262,18.262,0,0,1,3.564-11.166C66.594,69.752,80.648,64.625,89.9,65.268a20.126,20.126,0,0,1,13.47,6.3c-.21-3-.536-5.912-.932-8.276-13.813-9.7-26.326-4.912-29.3-3.527A19.345,19.345,0,0,1,67.8,66.346c-4.811,3.881-9.693,8.181-12.836,13.332A2.029,2.029,0,0,1,54.862,79.955Zm0,0Z"/></svg>