<svg id="Layer_1" data-name="Layer 1" xmlns="http://www.w3.org/2000/svg" viewBox="0 0 149.391 149.391"><defs><style>.cls-1{fill:#fff;}.cls-2{fill:#ffd119;}.cls-3{fill:#f19337;}.cls-4{fill:#1c1c1c;}</style></defs><title>product-page-</title><circle class="cls-1" cx="74.696" cy="74.696" r="70.696"/><path class="cls-2" d="M74.7,149.391a74.7,74.7,0,1,1,74.695-74.7A74.78,74.78,0,0,1,74.7,149.391ZM74.7,8a66.7,66.7,0,1,0,66.695,66.695A66.771,66.771,0,0,0,74.7,8Z"/><circle class="cls-3" cx="58.488" cy="83.027" r="34.871"/><path class="cls-4" d="M53.92,109.877c1.709,3,3.838,6.73,5.123,9.11a1.309,1.309,0,1,0,2.3-1.243c-1.3-2.407-3.346-6-5.152-9.163l-.388-.68c-4.632-8.122-5.762-14.813-4.7-20.549a12.256,12.256,0,0,0,.427,1.363,14.8,14.8,0,0,0,6.919,7.495c.125.327.256.654.4.981,1.291,2.916,3.452,4.895,5.542,6.808.373.342.748.686,1.122,1.037.947.892.953,1.712.489,3.721-.653,2.831-.2,7.843,1.379,10.314a1.309,1.309,0,0,0,2.206-1.411c-1.168-1.825-1.544-6.1-1.032-8.315.4-1.748.954-4.142-1.246-6.214-.383-.36-.767-.712-1.149-1.062-1.978-1.811-3.847-3.522-4.916-5.938a14.492,14.492,0,0,1,1.555-15.023c5.9-8.413,18.546-13,26.856-12.431a16.341,16.341,0,0,1,15.455,14.582c1.528,12.253-.367,25.07-2.189,34.867a1.31,1.31,0,0,0,2.576.479c1.856-9.983,3.785-23.06,2.212-35.67a20.744,20.744,0,0,0-.683-3.276,102.77,102.77,0,0,0-1.359-17.7,1.359,1.359,0,0,0-.047-.245c-.053-.281-.106-.56-.161-.822-.166-.8-.339-1.6-.514-2.406-1.508-6.975-3.067-14.188-.578-20.814a1.309,1.309,0,1,0-2.451-.921c-2.761,7.348-1.118,14.943.469,22.287.012.055.023.108.035.162a33.361,33.361,0,0,0-28.754-3.3c2.305-9.534-3.575-19.248-3.657-19.38A1.309,1.309,0,0,0,67.788,37.9c.4.655,9.776,16.174-2.137,25.783-12.617,10.178-25,22.927-12.119,45.511Zm.21-30.244a1.306,1.306,0,0,0,.085-.266c3.127-5.174,7.992-9.538,13.081-13.644a18.36,18.36,0,0,0,5.238-6.554c2.169-1.057,15.8-6.94,30.632,3.666a96.051,96.051,0,0,1,1.145,11.174,19,19,0,0,0-14.469-7.943c-9.033-.625-22.756,4.378-29.182,13.54a17.258,17.258,0,0,0-3.23,12.768,11.058,11.058,0,0,1-3.438-4.566A11.722,11.722,0,0,1,54.13,79.633Z"/><path class="cls-4" d="M104.216,120.475a2.158,2.158,0,0,1-.389-.036,2.113,2.113,0,0,1-1.687-2.458c1.812-9.74,3.7-22.477,2.183-34.623A15.558,15.558,0,0,0,89.606,69.476C81.5,68.912,69.2,73.382,63.46,81.568a13.738,13.738,0,0,0-1.479,14.24c1,2.259,2.807,3.914,4.72,5.666.39.357.777.712,1.162,1.074,2.535,2.388,1.9,5.149,1.478,6.977-.468,2.026-.125,6.061.926,7.7a2.109,2.109,0,0,1-3.553,2.274c-1.735-2.711-2.175-7.934-1.486-10.926.452-1.953.351-2.385-.257-2.959-.371-.347-.744-.689-1.115-1.029-2.15-1.969-4.373-4-5.733-7.074-.11-.25-.213-.5-.312-.751a16.23,16.23,0,0,1-6.261-6.119C51.366,95.815,53,101.363,56.5,107.5l.452.792c1.786,3.132,3.809,6.681,5.1,9.068a2.108,2.108,0,0,1-.855,2.858,2.16,2.16,0,0,1-2.857-.855c-1.253-2.321-3.334-5.971-5.006-8.9l-.5-.87c-13.191-23.13-.561-36.145,12.312-46.529,11.372-9.173,2.348-24.109,1.958-24.741A2.109,2.109,0,0,1,70.695,36.1c.059.094,5.6,9.181,4.034,18.618A34.355,34.355,0,0,1,101.263,57.6c-1.482-6.956-2.729-14.1-.09-21.127a2.109,2.109,0,1,1,3.949,1.483c-2.406,6.407-.872,13.5.611,20.364.175.809.349,1.613.516,2.411.056.268.109.552.163.839a1.639,1.639,0,0,1,.057.317,102.593,102.593,0,0,1,1.365,17.665,21.558,21.558,0,0,1,.675,3.284c1.587,12.719-.353,25.875-2.22,35.915A2.11,2.11,0,0,1,104.216,120.475Zm-49.6-10.994.108.19c1.676,2.94,3.762,6.6,5.024,8.937a.521.521,0,0,0,.689.206.511.511,0,0,0,.207-.69c-1.279-2.37-3.3-5.912-5.079-9.035l-.452-.791c-4.418-7.748-5.985-14.647-4.79-21.092l.658-3.551.9,3.5a11.582,11.582,0,0,0,.4,1.277,14.053,14.053,0,0,0,6.566,7.085l.25.142.1.267c.121.315.246.629.385.943,1.224,2.764,3.323,4.685,5.351,6.543.375.344.753.69,1.13,1.044,1.342,1.264,1.156,2.6.72,4.484-.6,2.622-.179,7.431,1.274,9.7a.51.51,0,0,0,.859-.549c-1.3-2.034-1.688-6.546-1.138-8.926.4-1.731.851-3.694-1.016-5.452-.379-.357-.76-.706-1.141-1.054-2.045-1.873-3.971-3.638-5.107-6.2A15.248,15.248,0,0,1,62.15,80.649c6.061-8.643,19.025-13.356,27.566-12.77a17.122,17.122,0,0,1,16.194,15.28c1.542,12.365-.364,25.261-2.2,35.114a.509.509,0,0,0,.407.593.537.537,0,0,0,.595-.407c1.846-9.927,3.764-22.924,2.205-35.425a20.136,20.136,0,0,0-.656-3.15l-.034-.116,0-.122a102.768,102.768,0,0,0-1.347-17.541l-.046-.24c-.052-.276-.1-.549-.158-.807q-.249-1.191-.512-2.4c-1.533-7.088-3.118-14.417-.546-21.265a.509.509,0,1,0-.953-.357c-2.678,7.126-1.062,14.6.5,21.833l.4,1.834-1.562-.819a32.794,32.794,0,0,0-28.07-3.224l-1.387.486.345-1.429c2.227-9.208-3.5-18.677-3.56-18.772a.509.509,0,0,0-.865.538c.42.68,10.142,16.778-2.315,26.826C53.793,74.279,41.659,86.762,54.227,108.8Zm3.92-15.174L56.925,93a11.881,11.881,0,0,1-3.679-4.9A12.4,12.4,0,0,1,53.4,79.31h0a.517.517,0,0,0,.034-.109l.1-.248C56.8,73.545,61.837,69.1,66.794,65.1a17.69,17.69,0,0,0,5.015-6.27l.12-.257.254-.124c2.606-1.269,16.363-7.054,31.449,3.735l.266.191.056.322a96.577,96.577,0,0,1,1.157,11.273l.131,2.747-1.584-2.248a18.1,18.1,0,0,0-13.871-7.606c-8.822-.608-22.2,4.264-28.472,13.2a16.4,16.4,0,0,0-3.093,12.189Zm-3.673-14.35a10.972,10.972,0,0,0-.124,7.562,9.523,9.523,0,0,0,1.7,2.793,18.255,18.255,0,0,1,3.565-11.166C66.594,69.752,80.653,64.619,89.9,65.268a20.126,20.126,0,0,1,13.469,6.3c-.21-3-.537-5.913-.933-8.276-13.812-9.7-26.325-4.911-29.3-3.526A19.341,19.341,0,0,1,67.8,66.346c-4.812,3.881-9.694,8.181-12.837,13.333a2.29,2.29,0,0,1-.1.278Z"/></svg>