<svg id="Layer_1" data-name="Layer 1" xmlns="http://www.w3.org/2000/svg" viewBox="0 0 149.391 149.391"><defs><style>.cls-1{fill:#fff;}.cls-2{fill:#ffd119;}.cls-3{fill:#1c1c1c;}</style></defs><title>product-page-</title><circle class="cls-1" cx="74.696" cy="74.696" r="70.696"/><path class="cls-2" d="M74.7,149.392a74.7,74.7,0,1,1,74.695-74.7A74.781,74.781,0,0,1,74.7,149.392ZM74.7,8a66.7,66.7,0,1,0,66.695,66.7A66.771,66.771,0,0,0,74.7,8Z"/><circle class="cls-2" cx="58.488" cy="83.027" r="34.871"/><path class="cls-3" d="M89.439,123.831a13.025,13.025,0,0,1-12.524-9.5L61.828,60.367a13,13,0,0,1,9.02-16.021l9.574-2.676a13,13,0,0,1,16.02,9.019l15.087,53.964a13,13,0,0,1-9.02,16.02l-9.574,2.677A13.006,13.006,0,0,1,89.439,123.831Zm-5.5-78.645a9.048,9.048,0,0,0-2.437.336L71.926,48.2a9.009,9.009,0,0,0-6.245,11.09l15.087,53.964a9.009,9.009,0,0,0,11.09,6.244l9.574-2.676a9.01,9.01,0,0,0,6.245-11.091L92.59,51.767a9.013,9.013,0,0,0-8.654-6.581Z"/><path class="cls-3" d="M58.486,76.7a1.989,1.989,0,0,1-.947-.24c-7.332-3.95-6.422-11.266-4.917-14.582a2,2,0,0,1,3.646,1.645c-.284.644-2.58,6.319,3.169,9.416a2,2,0,0,1-.951,3.761Z"/><path class="cls-3" d="M54.507,82.714a1.986,1.986,0,0,1-.947-.24C42.005,76.248,43.439,64.72,45.811,59.5a2,2,0,0,1,3.644,1.65c-.23.515-5.1,11.824,6,17.808a2,2,0,0,1-.95,3.761Z"/><path class="cls-3" d="M112.027,75.913a2,2,0,0,1-1.642-3.14h0c.377-.546,9.084-13.5-3-23.952a2,2,0,0,1,2.619-3.025c14.826,12.833,3.776,29.1,3.662,29.26A2,2,0,0,1,112.027,75.913Z"/><path class="cls-3" d="M117.322,82.943a2,2,0,0,1-1.641-3.14h0c.671-.97,16.187-23.953-5.328-42.574a2,2,0,1,1,2.619-3.024c24.263,21,6.179,47.615,5.993,47.881A2,2,0,0,1,117.322,82.943Z"/><rect class="cls-3" x="64.082" y="25.311" width="18.254" height="20.811" rx="5" transform="translate(-6.913 21.03) rotate(-15.619)"/></svg>