<svg id="Layer_1" data-name="Layer 1" xmlns="http://www.w3.org/2000/svg" viewBox="0 0 294.068 206.314"><title>24-h-hydration</title><path d="M27.184,3.535l3.85,1.4L29.993,7.8c2.77,1.011,4.5,2.035,5.332,3.122.94,1.322.989,3.2.042,5.8a24.446,24.446,0,0,1-1.088,2.447L30,17.6l.3-.822c.5-1.385.683-2.545-1.005-3.161l-1.254-.457-1.231,3.374-3.851-1.4,1.232-3.374L7.787,5.775,9.743.409l16.4,5.982Z"/><path d="M16,14.137c6.617,1.431,10.227,6.312,8.728,13.244-1.45,6.707-6.838,9.83-13.5,8.39C4.7,34.359,1.062,29.38,2.531,22.582,4.011,15.74,9.2,12.668,16,14.137ZM14.76,19.854c-3.466-.749-7.01-.054-7.818,3.682-.778,3.6,2.132,5.832,5.508,6.563,3.556.768,7.113-.206,7.863-3.672C21.1,22.781,18.315,20.624,14.76,19.854Z"/><path d="M.326,39.517l21.52,1.23-.326,5.7-3.357-.192C20.7,47.833,21.934,49.7,21.8,52c-.016.276-.091.778-.166,1.282l-5.793-.332c.071-.457.178-1.511.2-1.879.188-3.311-1.558-5.026-5.145-5.23L0,45.218Z"/><path d="M14.885,68.812c5.1-.771,8.127,2.6,9.054,7.532,1.123,5.974.077,9.638-6.125,10.8l-10.636,2A4.855,4.855,0,0,0,4.114,90.8l-1.08-5.749a5.685,5.685,0,0,1,2.682-1.442C2.792,81.769,1.632,80.581,1,77.231A6.1,6.1,0,0,1,6.157,69.75c3.621-.682,6.2.8,7.672,4.416a73.544,73.544,0,0,1,2.462,7.363c2.941-.552,3.855-1.427,3.3-4.37-.416-2.218-1.642-3.252-3.722-3.1Zm-3.6,9.534c-.849-2.278-2.029-3.322-3.568-3.033-1.449.272-2.17,1.674-1.847,3.394.587,3.122,2.469,4.409,5.637,3.814l1.312-.247Z"/><path d="M11.518,112.268l26.3-13.319L40.371,104,30.8,108.851c2.971.87,4.559,1.46,6,4.3,2.455,4.848.021,8.094-4.17,10.216L20.3,129.6l-2.6-5.135,11.421-5.785c2.631-1.332,3.4-3.066,2.343-5.162-1.748-3.45-4.607-2.674-9.167-.364l-8.218,4.162Z"/><path d="M40.92,147.05c-4.68,2.15-8.077.757-11.2-3.293-4.159-5.4-2.4-10.82,2.778-14.81,5.254-4.046,11.023-4.479,15.21.957,3.906,5.073,2.867,10.291-3.008,14.815a7.361,7.361,0,0,1-.831.58l-8.514-11.055-.51.393c-2.262,1.742-3.474,4.245-1.732,6.507a3.411,3.411,0,0,0,4.206,1.236Zm2.22-8.742c2.057-1.933,2.4-3.826.939-5.723s-3.406-2.084-5.8-.589Z"/><path d="M50.682,145.41c3.594-3.7,8.039-2.851,11.762.515,4.509,4.075,5.9,7.625,1.664,12.3l-7.255,8.029a4.858,4.858,0,0,0-1.439,3.169l-4.338-3.921a5.7,5.7,0,0,1,1.263-2.77c-3.442.3-5.084.061-7.611-2.224a6.1,6.1,0,0,1-.427-9.074c2.471-2.733,5.418-3.11,8.78-1.128a73.932,73.932,0,0,1,6.415,4.371c2.006-2.221,2.2-3.47-.017-5.477-1.673-1.513-3.275-1.595-4.835-.212Zm2.905,9.764c-2.055-1.3-3.625-1.414-4.676-.253-.986,1.094-.713,2.645.585,3.819,2.357,2.13,4.633,2.015,6.795-.376l.9-.991Z"/><path d="M59.942,172.5l16.973-24.1,4.707,3.315-16.972,24.1Z"/><path d="M76.908,163.038,78.9,159.56l2.359,1.348,2.789-4.878L89,158.865l-2.788,4.878,3.118,1.783-1.989,3.479-3.118-1.784-5.739,10.036c-1.007,1.76-.367,2.126,1.393,3.132l.72.411-2.173,3.8c-1.324-.652-2.347-1.184-3.027-1.573-4.238-2.422-4.066-4.765-1.712-8.883l5.579-9.756Z"/><path d="M85.052,187.594l10.677-27.478,5.281,2.052-3.888,10c2.794-1.336,4.369-1.959,7.332-.809,5.066,1.969,5.423,6.012,3.721,10.391l-5,12.879L97.8,192.549l4.637-11.936c1.068-2.748.486-4.555-1.7-5.406-3.607-1.4-5.216,1.086-7.067,5.853l-3.337,8.586Z"/><path d="M113.147,175.164l6.065,1.138,1.234,12.647a41.9,41.9,0,0,1,.331,4.232,27.7,27.7,0,0,1,1.706-3.85l5.69-11.348,6.019,1.129-10.671,18.426c-2.708,4.692-4.573,7.388-5.694,8.114-1.02.7-2.545.835-4.582.452.045.009-.851-.207-2.78-.663l.831-4.434c.363.068,1.531.334,1.93.455a2.53,2.53,0,0,0,1.992-.376,6.79,6.79,0,0,0,1.433-2.4Z"/><path d="M146.772,183.411l-.2-4,2.713-.14-.287-5.611,5.7-.292.288,5.611,3.587-.185.2,4-3.587.184.593,11.543c.1,2.024.84,1.986,2.864,1.882l.827-.042.224,4.369c-1.467.168-2.614.272-3.4.312-4.875.251-6-1.814-6.238-6.55l-.576-11.223Z"/><path d="M162.949,185.5c-.823-5.095,2.515-8.152,7.439-9.129,5.963-1.183,9.637-.176,10.866,6.014L183.36,193a4.859,4.859,0,0,0,1.684,3.046l-5.737,1.139a5.705,5.705,0,0,1-1.468-2.667c-1.811,2.942-2.986,4.114-6.33,4.778a6.106,6.106,0,0,1-7.535-5.08c-.717-3.613.742-6.2,4.339-7.716a74.106,74.106,0,0,1,7.337-2.536c-.582-2.936-1.465-3.841-4.4-3.258-2.213.439-3.236,1.676-3.058,3.753Zm9.57,3.5c-2.27.872-3.3,2.063-3,3.6.288,1.446,1.7,2.153,3.413,1.813,3.117-.62,4.384-2.514,3.756-5.676l-.259-1.311Z"/><path d="M192.907,193.661l-8.024-20,5.3-2.126,1.2,2.991c.647-2.838,1.7-4.8,4.645-5.981,2.48-1,5.91-.733,7.681,1.334A13.512,13.512,0,0,1,206,173.97l4.989,12.438-5.342,2.144-4.819-12.011c-1.045-2.607-2.662-3.546-4.842-2.671-2.778,1.114-3.417,3.6-1.875,7.449l4.1,10.216Z"/><path d="M217.433,162.419l-2.358-3.24,2.2-1.6-3.307-4.545,4.618-3.36,3.308,4.544,2.9-2.115,2.358,3.241-2.905,2.114,6.8,9.348c1.193,1.639,1.788,1.205,3.428.012l.669-.488,2.576,3.539c-1.138.942-2.042,1.656-2.675,2.117-3.948,2.873-6.014,1.756-8.806-2.08l-6.613-9.087Z"/><path d="M243.15,165.067l-20.668-21.014,4.039-3.971,7.525,7.65c-.072-3.095.007-4.788,2.272-7.016,3.874-3.811,7.706-2.477,11,.872l9.689,9.85-4.105,4.037-8.978-9.127c-2.067-2.1-3.954-2.313-5.628-.665-2.759,2.712-1.15,5.2,2.434,8.845l6.459,6.567Z"/><path d="M249.744,137.351c-4.127-3.1-3.843-7.617-.973-11.736,3.475-4.987,6.821-6.809,12-3.2l8.878,6.186a4.854,4.854,0,0,0,3.327,1.026l-3.344,4.8a5.684,5.684,0,0,1-2.906-.9c.735,3.375.7,5.036-1.247,7.832a6.105,6.105,0,0,1-8.95,1.566c-3.022-2.106-3.768-4.983-2.225-8.567a73.863,73.863,0,0,1,3.526-6.915c-2.455-1.711-3.719-1.75-5.43.707-1.291,1.85-1.169,3.45.4,4.824Zm9.32-4.114c-1.028,2.2-.947,3.774.338,4.668,1.209.843,2.714.377,3.714-1.06,1.817-2.607,1.415-4.851-1.229-6.693l-1.1-.764Z"/><path d="M259.341,117.847l-3.577-1.8,1.223-2.427-5.017-2.53,2.572-5.1,5.018,2.53,1.617-3.207,3.578,1.8-1.617,3.208,10.322,5.207c1.81.912,2.142.254,3.053-1.555l.374-.74,3.907,1.971c-.581,1.356-1.059,2.405-1.411,3.105-2.2,4.358-4.547,4.31-8.783,2.172l-10.035-5.061Z"/><path d="M287.5,95.982,259.1,88.1l1.54-5.546,28.4,7.887Z"/><path d="M276.2,82.552c-5.079-.919-6.851-5.083-6.135-10.052.869-6.017,3.042-9.146,9.287-8.246L290.063,65.8a4.856,4.856,0,0,0,3.434-.575l-.836,5.789a5.712,5.712,0,0,1-3,.5c2.171,2.686,2.885,4.185,2.4,7.558a6.1,6.1,0,0,1-7.3,5.415c-3.648-.526-5.606-2.763-5.833-6.658a73.549,73.549,0,0,1,.049-7.764c-2.963-.427-4.11.106-4.537,3.069-.323,2.233.5,3.609,2.52,4.132Zm6.485-7.859c.069,2.43.847,3.8,2.4,4.022,1.46.21,2.594-.882,2.843-2.615.454-3.145-.91-4.97-4.1-5.431l-1.321-.19Z"/><path d="M286.8,58.894l-.2-5.754c2.333-.54,3.021-1.993,2.931-4.57s-.823-3.842-2.157-3.8c-1.289.045-1.3,1.15-1.847,2.6l-1.992,6.382c-.955,3.074-2.561,4.6-4.908,4.685-4.694.161-7.112-4.5-7.266-8.966-.189-5.478,2.011-8.5,6.908-9.454l.193,5.569c-2.058.44-2.665,1.566-2.591,3.729.084,2.44.816,3.659,2.105,3.614.461-.015.819-.35.981-.955L281.6,42.99a5.376,5.376,0,0,1,4.93-4.04c2.854-.1,5.8,2.427,6.72,5.114a14.724,14.724,0,0,1,.8,4.535C294.278,55.135,291.86,58.535,286.8,58.894Z"/><path d="M275.249,38.11l-3.947.684-.464-2.677-5.536.959-.976-5.627,5.537-.959-.615-3.54,3.948-.683.614,3.539L285.2,27.832c2-.346,1.872-1.072,1.525-3.069l-.141-.816,4.311-.747c.342,1.436.585,2.562.717,3.334.835,4.81-1.08,6.17-5.754,6.98l-11.072,1.918Z"/><path d="M282.755,20.025l-1.77-5.477c2.094-1.16,2.356-2.746,1.562-5.2S280.7,5.88,279.429,6.291c-1.226.4-.931,1.463-1.061,3l-.163,6.683c-.073,3.218-1.2,5.129-3.433,5.853-4.467,1.444-8.074-2.375-9.449-6.625-1.684-5.215-.4-8.728,4.048-10.988l1.713,5.3c-1.858.988-2.131,2.239-1.466,4.3.75,2.323,1.791,3.293,3.018,2.9a1.1,1.1,0,0,0,.68-1.188l.071-9.364a5.374,5.374,0,0,1,3.63-5.238c2.716-.879,6.241.742,7.866,3.072A14.754,14.754,0,0,1,286.9,8.136C288.909,14.358,287.519,18.292,282.755,20.025Z"/><path d="M101.159,65.039H58.274c0-7.215,2.642-13.516,7.825-19.207l14.43-12.093c5.284-4.471,7.724-9.045,7.724-13.617,0-6.2-2.643-9.35-7.927-9.35-6.2,0-8.739,3.659-9.146,12.7H59.087C59.087,9.044,65.692,0,80.123,0c12.3,0,21.239,7.418,21.239,20.629A20.893,20.893,0,0,1,96.18,34.654C94.351,36.889,90.59,40.04,85.1,44.1c-5.285,3.761-8.944,7.114-11.078,9.959h27.134Z"/><path d="M108.269,51.32V37.6l25-36.381h15.954V40.548h6.4V51.32h-6.4V65.039h-12.7V51.32Zm28.252-37.3L118.126,40.548h18.395Z"/><path d="M159.076,45.73V35.06h25.2V45.73Z"/><path d="M194.539,65.039V0h12.5V23.678c4.675-4.979,7.419-7.52,14.431-7.52,11.991,0,15.955,8.029,15.955,18.394V65.039h-12.7V36.788c0-6.5-2.643-9.756-7.826-9.756-8.536,0-9.857,6.4-9.857,17.682V65.039Z"/><path d="M77.791,102.083h-5.6v-9.75H63.9v9.75H58.274V78.734H63.9V88h8.291V78.734h5.6Z"/><path d="M89.451,88.869l4.3-10.135h6.078L92.305,93.7v8.387H86.6V93.7L79.09,78.734h6.047Z"/><path d="M101.526,102.083V78.734h7.521a11.059,11.059,0,0,1,5.565,1.4,9.866,9.866,0,0,1,3.857,3.961,11.947,11.947,0,0,1,1.4,5.733v1.074a12.047,12.047,0,0,1-1.354,5.75,9.915,9.915,0,0,1-3.817,3.977,10.815,10.815,0,0,1-5.493,1.451Zm5.629-19V97.753h1.956a4.377,4.377,0,0,0,3.721-1.724,8.447,8.447,0,0,0,1.3-5.124V89.9a8.382,8.382,0,0,0-1.3-5.1,4.456,4.456,0,0,0-3.785-1.716Z"/><path d="M131.435,93.824h-3.047v8.259h-5.629V78.734h9.189a10.263,10.263,0,0,1,6.5,1.841,6.248,6.248,0,0,1,2.341,5.207,7.575,7.575,0,0,1-.987,4.037,6.986,6.986,0,0,1-3.087,2.595l4.876,9.429v.24h-6.03Zm-3.047-4.33h3.56a3.2,3.2,0,0,0,2.414-.843,3.838,3.838,0,0,0-.008-4.727,3.164,3.164,0,0,0-2.406-.861h-3.56Z"/><path d="M157.447,97.721h-7.713l-1.348,4.362h-6.014l8.564-23.349h5.292l8.628,23.349H158.81Zm-6.366-4.346H156.1l-2.518-8.1Z"/><path d="M182.962,83.079h-7.008v19h-5.629v-19h-6.88V78.734h19.517Z"/><path d="M191.334,102.083h-5.613V78.734h5.613Z"/><path d="M215.021,90.889a13.782,13.782,0,0,1-1.267,6.047,9.365,9.365,0,0,1-3.6,4.049,10.023,10.023,0,0,1-5.316,1.419,10.163,10.163,0,0,1-5.291-1.371,9.335,9.335,0,0,1-3.6-3.921,13.371,13.371,0,0,1-1.356-5.853V89.943a13.826,13.826,0,0,1,1.26-6.053,9.339,9.339,0,0,1,3.608-4.05,10.682,10.682,0,0,1,10.64-.016,9.51,9.51,0,0,1,3.617,4.017,13.423,13.423,0,0,1,1.307,5.974Zm-5.725-.978a9.82,9.82,0,0,0-1.163-5.284,3.73,3.73,0,0,0-3.328-1.8q-4.233,0-4.474,6.351l-.016,1.715a10.109,10.109,0,0,0,1.138,5.277,3.726,3.726,0,0,0,3.384,1.844,3.679,3.679,0,0,0,3.288-1.812,9.825,9.825,0,0,0,1.171-5.212Z"/><path d="M237.425,102.083h-5.6l-8.275-14.529v14.529h-5.628V78.734h5.628l8.26,14.529V78.734h5.613Z"/></svg>