<svg id="Layer_1" data-name="Layer 1" xmlns="http://www.w3.org/2000/svg" viewBox="0 0 349.553 173.487"><defs><style>.cls-1{fill:#1dbddc;}</style></defs><title>brush-script</title><path class="cls-1" d="M35.75,159.914v-.17C35.409,159.573,35.92,161.1,35.75,159.914Z"/><path class="cls-1" d="M86.8,63.429c.17-.51.17-.85,0-.68a4.081,4.081,0,0,0-.511,1.191C85.778,65.131,86.289,64.791,86.8,63.429Z"/><path class="cls-1" d="M48.852,149.874c-1.7,1.531,3.234-1.532,1.7-1.191A14.757,14.757,0,0,0,48.852,149.874Z"/><path class="cls-1" d="M52.6,147.151c3.914-3.233-.511-.34-.681.511C52.086,147.662,52.427,147.321,52.6,147.151Z"/><path class="cls-1" d="M87.14,66.322c.681.341.851-1.191,1.021-1.7.681-.17,1.7-2.553,1.7-2.553-.51-.34-1.02,1.7-1.02,1.532-1.7-1.191.17-.171-1.362,2.042C87.31,65.812,86.97,66.152,87.14,66.322Z"/><path class="cls-1" d="M27.582,164v-.17C27.241,163.657,27.752,165.189,27.582,164Z"/><path class="cls-1" d="M31.325,162.636h-.34C27.752,162.636,29.794,164.167,31.325,162.636Z"/><path class="cls-1" d="M54.639,144.939c-.171.17-.511.511-.341.681C55.319,144.939,54.978,144.258,54.639,144.939Z"/><path class="cls-1" d="M96.669,52.539c-.17-.17,0-.17.171-.17s.34-.17.17-.17a6.611,6.611,0,0,1,.341-1.022c.339-.51.679-.85.679-1.02,0,0,.341-.681.852-1.532a16.057,16.057,0,0,0,.68-1.7c-.17-.17,0-.17.17-.17a5.588,5.588,0,0,0,1.192-2.722c-.171-.171,0-.171.17,0,.34.17.34,0,.17-.341,0-.17,0-.34.17-.34s.17-.341.17-.511c0-.34,0-.34.17-.34.34.17.34.17.17-.34,0-.341,0-.511.17-.511.171.17.341,0,.171-.17,0-.34,0-.511.17-.34.341.17.341.17.341-.171-.171-.34,0-.51.17-.51s.17-.17,0-.34c-.341-.341-.341-.511-1.7,2.552-1.191,2.382-3.913,7.488-5.446,10.38-2.892,5.105-5.785,10.04-9.018,15.145-1.362,2.042-8,12.422-8.508,13.784A229.884,229.884,0,0,0,96.669,52.539Z"/><path class="cls-1" d="M86.46,67.684c-.171,0-.171,0-.341.17C85.268,69.385,86.97,68.194,86.46,67.684Z"/><path class="cls-1" d="M82.546,70.406v-.34C81.694,70.406,82.546,72.108,82.546,70.406Z"/><path class="cls-1" d="M83.737,68.024c0,.17-.171.17-.171.511C82.716,70.577,84.417,66.833,83.737,68.024Z"/><path class="cls-1" d="M85.1,65.642c-.852,1.361-.171,2.382.339,0C85.438,65.3,85.438,65.3,85.1,65.642Z"/><path class="cls-1" d="M104.327,36.713a1.025,1.025,0,0,0-.17.681c.34.34.51.34.34-.17a.327.327,0,0,1,.17-.511c.17,0,.341,0,.17-.17C104.667,36.2,104.5,36.373,104.327,36.713Z"/><path class="cls-1" d="M102.966,39.1q-.511.255,0,.51c.51.341.51.341.34-.17a.366.366,0,0,1,.34-.34c.17,0,.17-.171.17-.341a.625.625,0,0,0-.51-.17c-.17,0-.17,0-.17.17C103.306,38.925,103.136,39.1,102.966,39.1Z"/><path class="cls-1" d="M95.818,46.923c-.17-.17-.85,1.021-2.212,3.744-1.021,2.212-2.042,4.424-2.212,4.765l-.34.68.51-.68a33.543,33.543,0,0,0,2.212-4.425,35.594,35.594,0,0,1,1.872-3.573c.17.17,1.021-1.191,2.042-3.233a15.326,15.326,0,0,0,1.7-3.744,26.345,26.345,0,0,1,2.212-4.765c2.212-4.254,2.723-5.445,1.872-4.084-.34.511-.51.681-.51.341s0-.341-.341,0a2.158,2.158,0,0,0-.17,1.021c.17.34,0,.34-.17.34-.171-.17-.341-.17-.171,0a23.061,23.061,0,0,1-1.871,4.254,31.829,31.829,0,0,0-1.583,3.525,1.166,1.166,0,0,0-.119.389h.013a.648.648,0,0,0-.013.341c0,.171,0,.341-.17.171-.341-.171-.851.51-.681,1.191.17.17.17.34,0,.17-.339,0-.339.17-.339.51.169.511,0,.511-.171.171s-.17-.171-.17.34c.17.34,0,.51-.17.51-.171-.17-.171,0-.171.341,0,.51,0,.51-.17.34-.34-.511-.681.17-.51,1.191C95.989,47.093,95.989,47.264,95.818,46.923Z"/><path class="cls-1" d="M105.008,36.033c0,.17.17.17.34,0a.53.53,0,0,0-.17-.341c-.17-.34-.341-.34-.341-.17S104.837,36.033,105.008,36.033Z"/><path class="cls-1" d="M26.391,164.508c-.851,1.021.34.17.34.17.51.851.51-.511,0-.511Z"/><path class="cls-1" d="M103.646,37.734c-.17,0-.17.171,0,.341a2.442,2.442,0,0,0,.511.34C104.327,38.075,103.986,37.564,103.646,37.734Z"/><path class="cls-1" d="M89.183,59.345v.341a27.289,27.289,0,0,0,1.7-3.914C90.714,55.6,89.183,59.005,89.183,59.345Z"/><path class="cls-1" d="M55.489,144.088c-.17.17-.511.511-.34.681C56.34,144.088,56,143.408,55.489,144.088Z"/><path class="cls-1" d="M87.991,61.728a11.666,11.666,0,0,1,.51-1.361q0-.511-.51.51a2.709,2.709,0,0,0-.511,1.361C87.48,62.409,87.65,62.238,87.991,61.728Z"/><path class="cls-1" d="M90.033,60.2c-.171.341-.171.511,0,.171a5.311,5.311,0,0,0,.681-1.022c.17-.51.17-.68-.17-.34A4.04,4.04,0,0,0,90.033,60.2Z"/><path class="cls-1" d="M56.34,143.237c-.34.511-.34.681.341.171C59.743,140.515,57.872,141.366,56.34,143.237Z"/><path class="cls-1" d="M66.72,132.857a.885.885,0,0,0-.34.681C68.252,131.836,68.933,130.305,66.72,132.857Z"/><path class="cls-1" d="M58.552,141.2c0,.171-.17.341,0,.341C59.573,140.344,59.233,139.834,58.552,141.2Z"/><path class="cls-1" d="M85.268,69.215c-.34.34-1.021,3.743.17.17C86.63,68.875,85.438,69.045,85.268,69.215Z"/><path class="cls-1" d="M19.414,81.807a1.16,1.16,0,0,0,.511-.85c0-.17-.17,0-.511.34a2.885,2.885,0,0,0-.341.851C18.9,82.318,19.244,82.148,19.414,81.807Z"/><path class="cls-1" d="M13.8,93.039c.006-.021.015-.045.022-.067C13.781,93.039,13.765,93.072,13.8,93.039Z"/><path class="cls-1" d="M20.434,80.276A46.557,46.557,0,0,0,23.5,74.831c-.17,0-3.064,4.934-3.4,5.615C19.925,80.616,20.1,80.616,20.434,80.276Z"/><path class="cls-1" d="M23.668,73.639c0-.17,0-.34-.17-.17a.367.367,0,0,0-.341.341C23.157,74.32,23.328,74.15,23.668,73.639Z"/><path class="cls-1" d="M11.416,99.5l1.532-3.062c0-.171-.171,0-.511.34a29.876,29.876,0,0,0-2.552,5.275C9.2,103.759,9.885,102.568,11.416,99.5Z"/><path class="cls-1" d="M72.847,20.888c.339-.511.679-.851.509-.851a3.485,3.485,0,0,0-.85.851c-.341.34-.681.681-.511.681A6.121,6.121,0,0,1,72.847,20.888Z"/><path class="cls-1" d="M60.765,32.459c0-.17.68-.68,1.361-1.361l1.191-1.191a1.555,1.555,0,0,1,.51-.851c.341-.511.341-.341-.34.17-.511.34-.851.681-.68.851q0,.255-1.022,1.021c-.511.34-1.02.851-1.02,1.021,0,.34-.17.34-.17.51-.511,0-1.192.341-1.022.681a3.468,3.468,0,0,1-.85.851c-.511.34-.851.851-.681.851C58.212,35.352,60.934,32.629,60.765,32.459Z"/><path class="cls-1" d="M96.669.979c.171-.171.341-.171.341-.341s0-.34-.17-.34-.341.17-.511.34C96.329.808,96.329.979,96.669.979Z"/><path class="cls-1" d="M95.138,1.319c.51-.17.851-.34.851-.511,0-.34-.171-.51-.341-.17a1.022,1.022,0,0,1-.68.17c-.34,0-.511,0-.511.341C94.457,1.319,94.628,1.489,95.138,1.319Z"/><path class="cls-1" d="M99.222.468c.51,0,1.021-.17,1.021-.341,0-.339-2.383.171-2.723.511-.169.17-.169.17.17.17A4.071,4.071,0,0,1,99.222.468Z"/><path class="cls-1" d="M30.985,61.728c3.234-5.275,4.424-6.977,2.893-3.914-1.192,2.212,0,.681,2.383-3.4,1.361-2.042,2.382-3.744,2.552-3.574A18.023,18.023,0,0,0,41.2,47.774a16.28,16.28,0,0,1,1.7-2.382c-.34.851.17.34,1.532-1.7a12.076,12.076,0,0,1,1.7-2.212c.17,0,.68-.681,1.361-1.531.511-.851,1.022-1.532,1.192-1.362A7.7,7.7,0,0,0,49.7,37.224c.51-.851,1.021-1.361,1.19-1.361,0,.17.341-.341.851-.851a15.031,15.031,0,0,1,1.361-1.7,40.864,40.864,0,0,0,3.405-3.744,16.237,16.237,0,0,0,1.7-1.7c.34-.511.85-1.021.85-1.192s.171-.17.171,0a.911.911,0,0,0,.68-.51,12.912,12.912,0,0,1,2.213-2.212A10.861,10.861,0,0,0,64,21.739c0-.17.171-.17.341-.17.17.17.511-.171.68-.511a4.94,4.94,0,0,1,.511-.681c0,.511,1.872-1.531,1.872-1.872,0-.17.17-.17.34,0q.255,0,.511-.51c.17-.51.34-.51.34-.34.171.17.341.17.51-.17s.34-.681.511-.511q.255,0,.511-.511c.17-.339.34-.51.34-.339.17,0,.34-.171.511-.341s.339-.34.51-.34c0,.17.34-.171.51-.681.17-.341.341-.511.341-.341,0,.341.511,0,1.872-1.191.34-.34.51-.51.51-.34a3.753,3.753,0,0,0,.851-.681,2.588,2.588,0,0,1,1.021-.68,2.42,2.42,0,0,1,.341-.511,2.122,2.122,0,0,1,.339-.51A1.555,1.555,0,0,0,78.632,10a2.923,2.923,0,0,1,.68-.511c0,.17.17,0,.511-.17,1.021-1.022,1.531-1.361,1.7-1.192.17,0,.17,0,.17-.169,0-.341.171-.341.341-.341.17.17.341.17.341,0a11.366,11.366,0,0,1,3.232-1.872c1.7-1.021,3.234-1.871,3.4-2.042,0-.17.171-.17.34-.17a2.718,2.718,0,0,0,1.7-.851c0-.34-.851-.34-1.192,0-.17.17-1.7.851-3.573,1.872a15.359,15.359,0,0,0-3.233,1.872c0,.17-.17.17-.34.17-.17-.17-.34,0-.34.17a.167.167,0,0,1-.171.17c-.17-.17-.34-.17-.34,0s-.681.681-1.532,1.191c-.851.341-1.531.851-1.531,1.021l-1.021.681c-.511.34-1.021.681-1.021.851-.17.17-.17.17-.34.17,0-.17-.341.17-.851.511-.341.34-.681.681-.681.51a3.592,3.592,0,0,0-1.362,1.021,7.431,7.431,0,0,1-1.02.851c0-.17-.851.51-2.382,1.7a3.059,3.059,0,0,1-1.191.85s-.17.17,0,.511c0,.17,0,.34-.17.17a10.712,10.712,0,0,0-2.553,2.042,16.291,16.291,0,0,1-2.553,2.042c-.17-.17-.17,0,0,.34,0,.171,0,.341-.17.341s-4.254,3.914-6.126,5.785c-.51.511-1.191,1.362-1.7,1.872a48.937,48.937,0,0,0-3.232,3.744.914.914,0,0,1-.682.51c-.17-.17-.17,0-.17.171.17.34.17.51,0,.34a.914.914,0,0,0-.681.51,4.258,4.258,0,0,1-1.19,1.362,1.487,1.487,0,0,0-.682,1.021c.171.34,0,.34,0,.34-.17-.17-.509.17-.85.681-.34.34-.851.85-1.021,1.021a.678.678,0,0,0-.341.68c.171.341.171.341,0,.171a2,2,0,0,0-1.02.85,7.346,7.346,0,0,1-1.531,1.7,4.654,4.654,0,0,0-.682,1.191c.171.341,0,.341-.17.341,0-.171-.681.51-1.191,1.361-.68.851-1.191,1.7-1.362,1.7s-.17,0-.17.171c.17.17,0,.34-.339.51-.17,0-.341.341-.341.511.171.34,0,.34,0,.34-.34-.17-2.723,3.063-3.913,5.275-.341.681-.682,1.021-.852,1.021,0-.17-.17,0,0,.17a.884.884,0,0,1-.34.681c-.17.17-.34.17-.17-.17a.528.528,0,0,0,.17-.341c-.34.171-10.89,17.017-11.06,17.528C23.839,73.3,27.241,68.024,30.985,61.728Zm8.168-11.912c.17-.17.34-.34.34-.17a2.875,2.875,0,0,1-.34.851c-.17.17-.34.17-.34,0Z"/><path class="cls-1" d="M93.1,2a1.023,1.023,0,0,1,.68-.17s.341-.341.341-.511c.17-.17,0-.34-.341-.17a1.021,1.021,0,0,1-.68.17c-.17,0-.34.34-.34.511C92.756,2.169,92.756,2.169,93.1,2Z"/><path class="cls-1" d="M91.734,2.68c.341-.17.681-.34.681-.511,0-.339-.17-.339-.51-.339s-.511.339-.681.51C91.224,2.68,91.394,2.85,91.734,2.68Z"/><path class="cls-1" d="M17.372,86.913c0-.171-.34.339-.851,1.02A7.62,7.62,0,0,1,15.5,89.465c-.17.17-.17.17,0,.17s.171,0,0,.17a9.056,9.056,0,0,0-1.679,3.167c.16-.269.861-1.292,1.679-2.656A28.2,28.2,0,0,0,17.372,86.913Z"/><path class="cls-1" d="M30.135,71.087c0-.17-.171,0-.341.34s-.17.511.17.17C30.135,71.427,30.305,71.087,30.135,71.087Z"/><path class="cls-1" d="M67.264,136.269q.471-.42.94-.842C67.468,135.5,67.216,135.948,67.264,136.269Z"/><path class="cls-1" d="M1.035,142.045h0C1.036,142.014,1.036,142.021,1.035,142.045Z"/><path class="cls-1" d="M1.036,150.044c0-1.018-.169-1.7-.338-1.7a6.469,6.469,0,0,1,.168-1.192,2.657,2.657,0,0,0,0-1.7c-.341-.341-.341-.851,0-2.042a9.364,9.364,0,0,0,.169-1.363c-.336.148.342-5.621.852-9.188.171-1.021.51-2.723.68-3.743a20.793,20.793,0,0,1,.681-2.723c.681-2.042.681-2.212.341-2.042-.341.34-.511.51.51-2.042.851-2.383,1.021-2.893.51-2.553-.17,0,.341-1.531,1.022-3.4,1.531-4.084,1.872-4.424,1.02-3.573l-.509.51.169-.51c.17-.341.851-2.213,1.7-4.084s1.531-3.744,1.7-4.084c.34-.511.34-.511-.171,0-.851.681-3.573,7.657-3.913,9.7-.171.851-.681,2.553-1.022,3.744-.85,2.212-1.19,3.573-.68,2.552.34-.681.34-.34,0,.511,0,.51-.17.68-.34.51,0-.17-.17,0-.17.511-.171.51-.341,1.531-.511,2.212-.341,1.021-.341,1.191,0,.851s.34-.341.17,0-.17.68-.341.85c0,.171,0,.171-.17,0s-.17,0-.34.511a11.442,11.442,0,0,1-.51,2.893c-.511,3.063-1.872,13.954-1.7,13.783.17,0,.17.681.17,1.532-.17,2.212,0,4.424.34,4.084.171,0,.171,0,0,.17-.17.34,0,4.254.341,4.084a2.065,2.065,0,0,1,.17.851c.17.34.17,1.191.34,1.7.171.68.171,1.02.341,1.02a19.636,19.636,0,0,0-.511-4.424A6.484,6.484,0,0,1,1.036,150.044Zm4.935-36.416c.171.17,0,.511,0,.511-.17.17-.17,0-.17-.341S5.971,113.458,5.971,113.628Z"/><path class="cls-1" d="M153.846,7.785c.339-.17.339-.34,0-.17-.341,0-.511.17-.511.341C153.165,8.3,153.335,8.3,153.846,7.785Z"/><path class="cls-1" d="M120.924,104.4c1.3-2.089,2.668-4.185,4.171-6.343C123.542,100.231,122.127,102.365,120.924,104.4Z"/><path class="cls-1" d="M146.528,73.81c.17-.171.681-.341.511-.681a1.372,1.372,0,0,0-.788.127c.572-.585,1.121-1.142,1.639-1.659,4.934-4.764,1.191-1.871-1.192.511-.17.17-6.637,7.828-5.1,5.275,2.722-3.914,0,0-1.362,1.191-2.552,2.042-.51,2.213-1.7,2.383-1.531.85-9.018,10.89-10.55,13.1-1.023,1.365-1.976,2.69-2.885,4a229.57,229.57,0,0,1,20.653-24.28C145.665,74.043,145.887,74.211,146.528,73.81Z"/><path class="cls-1" d="M132.915,85.891c.681.511,1.021-1.02.17-.34C133.085,85.721,133.085,85.721,132.915,85.891Z"/><path class="cls-1" d="M135.3,129.114a1.026,1.026,0,0,0,.17-.681C136.148,125.03,135.3,127.752,135.3,129.114Z"/><path class="cls-1" d="M128.491,91.507a.319.319,0,0,0-.511,0C127.3,92.188,128.661,92.017,128.491,91.507Z"/><path class="cls-1" d="M153.505,136.431c-.34.34-.34.51,0,.17a.6.6,0,0,0,.341-.511C153.846,135.92,153.675,136.09,153.505,136.431Z"/><path class="cls-1" d="M135.808,124.008c-.681,3.064.68-1.871.68-2.042.171-.85.511-1.531.681-2.382A44.058,44.058,0,0,0,135.808,124.008Z"/><path class="cls-1" d="M92.756,144.6a.321.321,0,0,0,.3-.126c-.431-.32-.812-.63-1.133-.923C92.059,144.144,92.321,144.526,92.756,144.6Z"/><path class="cls-1" d="M93.267,125.37c.169-.34,1.531-4.424.339-2.382-1.7,4.254-4.423,13.783-4.084,18.378,1.022-4.084,1.872-8.168,2.723-12.423Q92.756,127.157,93.267,125.37Z"/><path class="cls-1" d="M111.571,119.432c.451-.541,1.094-1.55,1.094-1.55C112.294,118.362,111.924,118.892,111.571,119.432Z"/><path class="cls-1" d="M142.614,105.8c-.34-.681-1.02.68-.34.51C142.444,106.141,142.784,105.971,142.614,105.8Z"/><path class="cls-1" d="M139.041,113.969c1.191-3.4,0-.341-.341.851-1.361,3.573-.51,1.7.171,0Z"/><path class="cls-1" d="M157.079,77.383V78.4C157.759,78.064,157.079,75.852,157.079,77.383Z"/><path class="cls-1" d="M141.764,107.5c.17-.169.34-.34.34-.51C141.764,106.311,140.913,107.672,141.764,107.5Z"/><path class="cls-1" d="M145.507,99.845a5.086,5.086,0,0,0-.68,1.362C143.466,104.269,145.848,99.845,145.507,99.845Z"/><path class="cls-1" d="M146.018,99.675h-.17C145.167,100.526,146.528,100.7,146.018,99.675Z"/><path class="cls-1" d="M115.728,116.011c-.195.325-.393.647-.6.963C116.17,115.538,117.268,113.879,115.728,116.011Z"/><path class="cls-1" d="M120.787,110.167c-.519.748-1.085,1.472-1.655,2.27-2.936,4.221-5.523,7.456-7.767,11.031.038-.05.075-.1.109-.14C114.744,118.968,117.772,114.56,120.787,110.167Z"/><path class="cls-1" d="M146.358,98.484c.17,2.382.17-1.532,0-.681C145.507,100.015,146.018,98.654,146.358,98.484Z"/><path class="cls-1" d="M142.754,80.451c-1.2,1.38-2.434,2.84-3.666,4.321.709-.8,1.689-1.923,3.016-3.475C142.316,81.015,142.537,80.733,142.754,80.451Z"/><path class="cls-1" d="M118.962,111.246l.309-.569-.457.638c-.253.546-.5,1.1-.7,1.633A7.988,7.988,0,0,0,118.962,111.246Z"/><path class="cls-1" d="M120.787,110.167c.077-.112.156-.224.231-.337Z"/><path class="cls-1" d="M114.2,118.2c-.058.064-.112.133-.173.194C114.073,118.347,114.132,118.279,114.2,118.2Z"/><path class="cls-1" d="M106.4,134.114c0,.022-.011.044-.013.065l.277-.509a.484.484,0,0,0-.125.037C106.5,133.844,106.45,133.975,106.4,134.114Z"/><path class="cls-1" d="M121.018,109.83q.553-.807,1.108-1.613l-.612.817C121.357,109.307,121.19,109.57,121.018,109.83Z"/><path class="cls-1" d="M114.2,118.2a9.163,9.163,0,0,0,.931-1.225C114.778,117.461,114.433,117.92,114.2,118.2Z"/><path class="cls-1" d="M101.776,137.09c.025-.1.051-.2.076-.3A.486.486,0,0,0,101.776,137.09Z"/><path class="cls-1" d="M153,85.891a.319.319,0,0,0,0,.511C153.335,87.593,153.335,85.041,153,85.891Z"/><path class="cls-1" d="M154.7,82.488v.341c-.511,1.191-1.361,1.871-1.191,2.722l.17.17C154.356,85.21,157.249,76.532,154.7,82.488Z"/><path class="cls-1" d="M151.293,90.146c1.02-2.213-.17-.341-.17-.341-.511-.17,0,1.192-.511,1.021-.17-.17-.17,0-.17.171-.341,2.381-.341-1.7-.51,1.191C149.762,93.719,151.123,90.656,151.293,90.146Z"/><path class="cls-1" d="M152.143,88.1v-.341C151.634,87.933,152.143,89.465,152.143,88.1Z"/><path class="cls-1" d="M156.738,79.255c.511.17-.17-2.552-.511.17C156.4,79.255,156.4,79.084,156.738,79.255Z"/><path class="cls-1" d="M153.846,89.125c0,.68,2.042-3.744,1.02-2.042C154.7,87.252,153.675,88.955,153.846,89.125Z"/><path class="cls-1" d="M193.494,75.852h-.341c-.51,0-.679.34-.679.51l.169.341C192.813,76.7,193.153,76.532,193.494,75.852Z"/><path class="cls-1" d="M189.58,80.616l-.17-.34q-.512.255-.511.511l.341.339C189.41,81.126,189.58,80.957,189.58,80.616Z"/><path class="cls-1" d="M188.39,81.978c.169,0,.509-.171.509-.341s0-.34-.17-.34a1.326,1.326,0,0,0-.68.681l.17.17Z"/><path class="cls-1" d="M189.751,80.276h.17l.17-.17-.511-.681-.17.34C189.41,80.106,189.58,80.276,189.751,80.276Z"/><path class="cls-1" d="M192.3,77.383l-.511-.17a.543.543,0,0,0-.51.51l.17.341C191.622,78.064,191.963,77.894,192.3,77.383Z"/><path class="cls-1" d="M187.538,83.679a.594.594,0,0,0,.17-.34l-.17-.51a.594.594,0,0,0,.341.17h.34c0-.341,0-.511-.34-.511-.681,0-.851.341-.851.511C187.2,83.339,187.368,83.679,187.538,83.679Z"/><path class="cls-1" d="M181.753,93.208V92.7a.544.544,0,0,0-.511-.51l-.17.17.17.34C181.583,93.208,181.583,93.208,181.753,93.208Z"/><path class="cls-1" d="M183.114,90.146c.17-.681,1.021-.852,1.021-1.362v-.17l-.34-.17c-.851,0-1.192,2.553-1.872,3.063l-.17.51C182.093,92.017,182.6,91.677,183.114,90.146Z"/><path class="cls-1" d="M187.2,84.02c-.17-.171-.17-.171-.341-.171a.794.794,0,0,0-.85.851C186.857,84.36,187.2,84.19,187.2,84.02Z"/><path class="cls-1" d="M185.326,86.572c.341-.51.511-.681.681-.681l.17.171-.17-.341c0-.511-.17-.68-.34-.68s-.341.85-.682,1.361c-.34.34-.34.511-.34.681A.911.911,0,0,0,185.326,86.572Z"/><path class="cls-1" d="M208.3,64.451l.34-.171c0-.51-.511-.51-.681-.51a.166.166,0,0,0-.17.17A.544.544,0,0,0,208.3,64.451Z"/><path class="cls-1" d="M207.277,64.451c-.34-.341-.68-.681-.85-.681l.51.51Z"/><path class="cls-1" d="M181.072,94.059l.34-.17v-.681c-.117,0-.335.247-.577.57C180.913,93.875,180.946,94.059,181.072,94.059Z"/><path class="cls-1" d="M180.731,93.719v.2l.1-.139A.129.129,0,0,0,180.731,93.719Z"/><path class="cls-1" d="M205.405,66.663h-.17l-.021.027C205.414,66.664,205.55,66.663,205.405,66.663Z"/><path class="cls-1" d="M197.408,71.427c.17-.17.34-.34.34-.51l-.17-.17c-.341,0-.681.51-.681.68l.17.17Z"/><path class="cls-1" d="M195.536,73.469h.17l.341-.34-.171-.171-.34-.169-.17.51C195.366,73.469,195.366,73.469,195.536,73.469Z"/><path class="cls-1" d="M201.492,67.173h.17l-.511-.51C201.151,67,201.321,67.173,201.492,67.173Z"/><path class="cls-1" d="M205.214,66.69c-.27.036-.659.117-.659.313l.171.34Z"/><path class="cls-1" d="M202.173,66.833c.17,0,.17,0,.17-.17,0-.341,0-.511-.17-.511-.341,0-.511.17-.511.341S202,66.833,202.173,66.833Z"/><path class="cls-1" d="M184.645,87.933c0-.34-.169-.34-.339-.34s-.341,0-.341.17l.341.341Z"/><polygon class="cls-1" points="190.091 143.578 189.921 143.578 190.091 143.748 190.091 143.578"/><path class="cls-1" d="M223.272,93.889c0,.17.17,0,.51-.34.171-.341.511-.851.511-.851,0-.17-.17,0-.511.341A1.55,1.55,0,0,0,223.272,93.889Z"/><path class="cls-1" d="M253.561,96.952c0,.51.511,0,.511-.17C255.093,95.591,253.731,96.271,253.561,96.952Z"/><path class="cls-1" d="M254.072,98.654a.166.166,0,0,0-.17.17C254.242,99.334,254.413,98.313,254.072,98.654Z"/><path class="cls-1" d="M260.879,89.294s.17-.339,0-.339C260.2,88.955,260.538,89.635,260.879,89.294Z"/><path class="cls-1" d="M224.8,91.677c.85-1.021.51,0-.511,1.531-.681.851-1.191,1.532-1.191,1.362-.17-.17-.17,0,0,.17a11.31,11.31,0,0,1-1.021,1.872c-1.022,1.872-3.063,5.615-3.063,5.956a43.073,43.073,0,0,0,3.233-5.276c1.872-3.063,3.4-5.785,3.574-5.956s.17-.339-.171-.169c-.511.169-.511.169,1.362-2.893a10.681,10.681,0,0,1,1.532-2.042,2.9,2.9,0,0,1-.341.851,1.052,1.052,0,0,0-.341.68,38.774,38.774,0,0,0,2.213-3.4c1.361-2.212,2.212-3.234,2.382-3.063s.171,0,.171-.51c-.171-.511,0-.681.17-.341s.34,0,.85-.851c.341-.68.851-1.191.851-1.021.17.171.511-.34.851-1.021.51-.68.851-1.021.851-.85.17.17.511-.171.681-.851.34-.511.68-.852.85-.852,0,.171.341-.169.681-.51.17-.51.34-.68.511-.68.34.17,1.02-.852,1.19-1.532,0-.34,0-.34.171.17s.17.341.511-.34q.255-.767.509-.511c.17.341.341.171.511-.34a.912.912,0,0,1,.681-.51c.34,0,.511-.17.511-.341a.543.543,0,0,1,.51-.51.768.768,0,0,0,.51-.511.366.366,0,0,1,.341-.34c.17.17.511,0,.511-.34.17-.511.17-.341-.511.17-.511.34-1.022.51-1.022.34-.169,0-.339.17-.51.34a.731.731,0,0,1-.68.681c-.171,0-.341.341-.511.511,0,.17-.171.34-.171.17h-.339c0,.17-.511.68-.851.851-.511.51-.851.851-.851,1.19-.17.171-.17.171-.34.171-.17-.171-.511.17-.851.681-.17.51-.511.68-.681.68,0,0-.171,0-.34.341s-.34.51-.51.51-.171.17-.171.34c.171.341,0,.511-.17.341s-.511.17-.681.51l-.68.681c-.17,0-.341.34-.17.681,0,.34,0,.51-.171.17s-.34-.17-.68.34-.682.851-.851.68c0,0-.17.341,0,.511,0,.341,0,.341-.17.17-.17,0-.681.511-1.362,1.532-.51.851-1.191,1.532-1.191,1.361-.17-.17-.34,0-.17.341.17.51,0,.68-.17.51-.341-.17-.681.34-3.574,5.105C224.293,91.847,223.782,93.039,224.8,91.677Zm4.254-6.467a1.285,1.285,0,0,1,.34-.68c.17-.17.34-.17.17,0,0,.17-.17.341-.341.511C229.058,85.381,228.888,85.381,229.058,85.21Z"/><path class="cls-1" d="M245.563,68.705c0-.341.341-.511.682-.511.17-.17.34-.34.34-.51s-.17,0-.511.17c-.511.17-.681.51-.681.681C245.393,69.045,245.393,69.045,245.563,68.705Z"/><path class="cls-1" d="M226.335,90.146c-.17.17-.34.34-.34.51s.17.17.34,0a1.29,1.29,0,0,0,.341-.681C226.676,89.805,226.505,89.805,226.335,90.146Z"/><path class="cls-1" d="M215.785,110.736c0,.34-.171.51,0,.51a63.036,63.036,0,0,0,3.913-8.508c-.17-.17-2.212,3.743-2.892,5.785C216.3,109.544,215.955,110.565,215.785,110.736Z"/><path class="cls-1" d="M260.2,109.2c0,.171,0,.51.171.34v-.68C260.2,108.694,260.2,108.694,260.2,109.2Z"/><path class="cls-1" d="M258.155,116.691c0,.511.17.681.17.511v-.851C258.325,116.011,258.155,116.181,258.155,116.691Z"/><path class="cls-1" d="M266.493,86.913c-.17-.171-.17,0,0,.51,0,.34,0,.681-.17.51-.341-.34-.681.851-.341,1.361,0,.341,0,.341-.17.171-.34-.171-.34-.171-.34.34.17.341.17.681,0,.511-.34-.17-4.765,14.8-4.765,16.506,0,.34,0,.34-.34,0s-.341-.341-.171,0a2.88,2.88,0,0,1,.171,1.191,26.772,26.772,0,0,0,1.361-4.595c2.042-7.147,2.552-9.018,2.552-8.337,0,.339,1.022-2.213,2.213-5.787s2.212-6.806,2.382-7.316.341-.852.511-.681a10.857,10.857,0,0,0,1.361-2.893c2.553-6.807,3.744-9.869,4.084-9.529.17,0,.17,0,0-.34a11.759,11.759,0,0,1,1.531-3.914,7.12,7.12,0,0,1-.51,1.531,7.533,7.533,0,0,0-.51,1.361c.17.171.51-.68.85-1.7,1.022-2.383,5.106-11.571,4.935-10.891-.17.34-.17.851-.34,1.021,0,.341.681-1.191,1.7-3.233a32.445,32.445,0,0,1,1.872-3.744c.17.17.681-.85,1.192-2.212a9.194,9.194,0,0,1,1.361-2.382c.17.17.17,0,0-.34,0-.341,0-.511.17-.341.17,0,.681-.681,1.191-1.872a4.009,4.009,0,0,1,1.021-1.871v-.341c-.17-.34-.17-.51,0-.34s.511-.17.681-.681a2.39,2.39,0,0,1,.51-.851c.17.171.17,0,.17-.34-.17-.34-.17-.511,0-.34.341.17.681-.341.851-1.191a12.467,12.467,0,0,1,.681-1.192c.17,0,.34-.34.68-.85.171-.511.341-.851.511-.681.171,0,.171-.17,0-.341-.17-.68-.511-.34-.511.341a.366.366,0,0,1-.34.34c-.17-.17-.34.17-.51.681-.34.51-.511,1.021-.681,1.021s-.17,0-.17.17c.17.17.17.34,0,.34s-.17.341-.17.511c.17.34,0,.51-.17.34-.171,0-.341.17-.511.681-.34.51-.51.851-.68.851a3.756,3.756,0,0,0-.681,1.191,2.9,2.9,0,0,1-.681,1.191c-.17,0-.17.17-.17.34.17.17,0,.341-.17.341s-.17,0,0,.17c0,.17,0,.34-.17.34s-.681.681-1.021,1.361c-.341.851-.682,1.532-.851,1.532a.235.235,0,0,0,0,.34c.169.17,0,.17-.17.17s-.17.171-.17.341c.17.17.17.34,0,.34s-.681.681-1.022,1.7l-1.02,1.7c-.171,0-.171.171-.171.341.171.17,0,.34-.17.34s-.17.17-.17.341c.17.17.17.34,0,.34a12.5,12.5,0,0,0-1.7,2.722,11.771,11.771,0,0,1-1.532,2.893c-.17,0-.17.171,0,.511s0,.51-.17.34-.341-.17-.17.17c.17.511.17.511-.171.341-.17-.171-.17,0,0,.34,0,.34,0,.511-.17.34a29.555,29.555,0,0,0-2.893,5.956c-1.531,3.233-2.892,5.956-2.892,5.786-.17,0-.17,0-.17.34.17.17,0,.681-.171,1.021-.17.17-.34.511-.17.681,0,0,0,.17-.341.17-.17,0-.17.17-.17.511.17.17.17.339,0,.17-.34-.17-1.02,1.7-.68,2.042,0,.34,0,.34-.17.169-.17,0-.851,1.192-1.532,3.234a72.455,72.455,0,0,0-3.063,8.508C266.833,86.913,266.663,87.083,266.493,86.913Zm-1.872,7.146c-.17.511-.17.511-.17.17a2.533,2.533,0,0,1,.17-1.021c.17-.34.17-.51.17-.169A2.529,2.529,0,0,1,264.621,94.059Zm20.59-47.646c.171-.34.171-.34.171-.17a1.017,1.017,0,0,1-.171.68c-.17.341-.34.341-.34.17A1.289,1.289,0,0,1,285.211,46.413Zm-3.573,6.806c.17-.34.51-.68.51-.51,0,.34-.34.681-.51,1.191-.17.341-.34.681-.34.511A6.961,6.961,0,0,1,281.638,53.219Z"/><path class="cls-1" d="M295.081,79.6c0,.17.17.17.51-.17a2.923,2.923,0,0,0,.51-.68C295.762,78.4,295.081,79.255,295.081,79.6Z"/><path class="cls-1" d="M298.143,73.98a91.446,91.446,0,0,1,12.933-10.891c.681-.51,1.192-.851,1.022-1.021s-4.084,2.553-4.935,3.4c-.341.171-.682.341-.852.171s-.339-.171-.169,0c.169.34-.511,1.021-1.532,1.7a9.273,9.273,0,0,0-2.213,1.872c-.339.17-1.02.851-1.531,1.191A129.654,129.654,0,0,0,288.444,84.19l-.85,1.531,1.531-1.7c.681-1.021,1.361-1.872,1.361-1.872,0-.341,1.192-1.361,1.362-1.022a.589.589,0,0,0,.17-.339c0-.341,0-.511.17-.511s.34-.34.51-.681c0-.34.17-.68.341-.511.17,0,.34-.169.681-.51a.909.909,0,0,1,.68-.51c.17,0,.34-.341.34-.681,0-.51.171-.68.171-.51C295.081,77.042,295.251,77.042,298.143,73.98Z"/><path class="cls-1" d="M309.715,14.251c-.34.681,1.7-1.7.68-.85C310.4,13.571,309.715,14.082,309.715,14.251Z"/><path class="cls-1" d="M320.1,156.851c-.17,0-.51,0-.51.17C319.925,157.531,320.435,157.021,320.1,156.851Z"/><path class="cls-1" d="M259.517,109.2c0,.171.169.51.169.34.17-.169.17-.34,0-.68C259.686,108.694,259.517,108.694,259.517,109.2Z"/><path class="cls-1" d="M312.948,10.508a5.861,5.861,0,0,0-1.361,1.532A5.877,5.877,0,0,0,312.948,10.508Z"/><path class="cls-1" d="M259.006,113.288a21.077,21.077,0,0,0,.511-3.063c0-.681-1.022,3.914-1.022,4.765C258.5,115.33,258.665,114.649,259.006,113.288Z"/><path class="cls-1" d="M319.074,156.851a.319.319,0,0,0-.511,0C318.9,157.361,319.415,156.851,319.074,156.851Z"/><path class="cls-1" d="M308.864,9.317c0,.17-.34.51-.34.85C308.353,11.188,309.886,8.125,308.864,9.317Z"/><path class="cls-1" d="M310.226,8.3a.627.627,0,0,0,.51-.17c1.191-1.191-.51-.85-1.021.341C309.2,9.827,310.056,8.466,310.226,8.3Z"/><path class="cls-1" d="M325.711,64.11l.17.341C326.731,65.982,326.222,64.791,325.711,64.11Z"/><path class="cls-1" d="M306.481,12.72c.171.51,1.192-1.532.171-.68-.171.169-.51.339-.68.68C305.461,13.741,306.481,12.55,306.481,12.72Z"/><path class="cls-1" d="M294.229,31.608c.171-.68,3.234-5.785,3.234-5.785.171.17.341-.17.511-.851.339-.68.51-1.021.68-1.021,0,.17.341-.17.511-.681a2.406,2.406,0,0,1,.51-.851c.171.17.341-.169.51-.51,0-.511.341-.851.341-.681.17,0,.17-.17.17-.34-.17-.341-.17-.511,0-.341a.544.544,0,0,0,.511-.51c.17-.34.34-.51.511-.34q.255,0,.509-1.021a2.311,2.311,0,0,1,.511-1.021c.17.17.341,0,.511-.341,0-.34.34-.68.51-.51,0,.17.171,0,.171-.17s-.171-.341-.341-.51a.166.166,0,0,0-.17.169,3.048,3.048,0,0,1-.851,1.192,2.032,2.032,0,0,0-.68,1.361c.17.17,0,.34-.17.17s-.341,0-.341.17a13.277,13.277,0,0,1-.681,1.191c-.511.341-.85,1.021-.68,1.192,0,.34,0,.34-.341.34-.17-.17-.17-.17-.17,0a3.047,3.047,0,0,1-.851,1.191c-1.02,1.361-1.02,1.531-1.02,2.042.17.17,0,.34-.171.17s-.34,0-.34.341c-.171.34-3.064,5.445-3.233,5.445s-.17,0-.17.17c.17.17.17.34,0,.34a.326.326,0,0,0-.17.511C293.72,32.629,293.89,32.459,294.229,31.608Z"/><path class="cls-1" d="M305.8,13.571c-.171-.17-.341-.341-.341-.341C305.291,13.911,306.311,14.421,305.8,13.571Z"/><path class="cls-1" d="M304.1,15.783c.169-.17.34-.34.34-.17.17,0,.34-.17.17-.341-.17-.51-.17-.51.17-.34.17,0,.34.17.34,0a1.692,1.692,0,0,1,.171-.681c.17-.34-.171-.34-.681.341-.51.51-.851,1.021-.68,1.191C303.93,15.953,304.1,15.953,304.1,15.783Z"/><path class="cls-1" d="M318.393,155.319a1.212,1.212,0,0,0,1.022.511C320.776,155.489,317.883,154.809,318.393,155.319Z"/><path class="cls-1" d="M278.234,113.8v.511a1.025,1.025,0,0,0,.17-.681C278.234,113.458,278.234,113.458,278.234,113.8Z"/><path class="cls-1" d="M323.669,157.021c-.17.17-.17.17-.17.34C324.519,157.7,324.179,156.34,323.669,157.021Z"/><path class="cls-1" d="M345.79,137.282c-1.531,2.892-2.893,6.636-6.807,8-6.465,2.383-12.082-.17-16.675-3.063-13.274-8.848-21.782-16.846-29.44-30.97a6.113,6.113,0,0,1,1.872-1.021,52.579,52.579,0,0,0,4.935-3.4c1.7-1.531,3.4-3.063,4.935-4.595,8.338-7.657,17.017-16.165,22.291-26.886,3.234-6.806,1.872-6.126-1.7-11.571-1.531-2.553-.34-.341-.85-1.021a4.945,4.945,0,0,1-.385-.349,3.214,3.214,0,0,1,.554,1.2c-1.361-1.532-.85-2.213-1.7-3.574-.679.511,0,0-.679.17-.852,0-.682-.51-.511-.68,1.361-.171-1.7-1.362-1.022-.511.851,1.021-.51-.17-.68-.51-1.021-2.212-8.168,2.382-9.36,3.233-1.361.851-2.892,2.212-2.722,2.382s.341.17.341,0c.51-.851,5.445-3.573,6.806-3.743,1.361-.341-.681.85-1.02,1.02-1.192.681-2.043,1.362-1.872,1.532s0,.34-.171.34c-.34-.17-3.913,2.553-3.743,2.893,0,.17,0,.17-.17.17S306.822,67,303.93,69.9c-1.872,1.7-7.829,8.338-7.829,8.508.171.17,1.533-1.362,3.234-3.063,3.914-4.084,8.679-8.678,8.679-8.168a4.789,4.789,0,0,1-1.362,1.362,136.453,136.453,0,0,0-9.7,9.869c-3.4,3.574-4.424,4.764-2.723,2.722a12.289,12.289,0,0,1,.682-1.19c-.171-.171-.511.34-2.553,2.893a2.862,2.862,0,0,0-.34.85c.17.17,0,.341-.17.511s-.17,0,0-.341c0-.17-.17,0-.511.341a2.143,2.143,0,0,0-.681,1.191,2.886,2.886,0,0,1-.34.851c-.51.34-.51.34-.171-.17.341-.341.171-.341-.339.17-.34.51-.681,1.02-.511,1.191s0,.34-.17.17c-.341-.341-2.042,2.212-1.7,2.723,0,.17,0,.34-.17.17,0-.17-.51.34-1.021,1.021-2.722,3.913-8,12.932-8.168,13.953a1.938,1.938,0,0,1-.51,1.021c-.34.341-.511.852-.34,1.021,0,.17,0,.17-.171.17a92.642,92.642,0,0,0-4.6,10.04c-.34.851-.68,1.532-.68,1.532-.17-.17,2.382-7.827,3.744-11.4,2.892-7.488,4.254-10.72,4.424-10.551s.17,0,0-.169c-.34-.681,6.977-17.358,13.273-30.8,2.382-4.764,2.723-5.445,3.4-5.615.851-.17.681.34,10.891-17.7,2.892-5.1,8.338-14.8,11.23-19.739,1.192-1.872,2.553-3.743,3.744-5.615.511-.851,1.873-2.383,1.532-3.4-.851-1.531.17-.85-.681-2.382-1.02-1.7-.851-2.042-2.552-2.552-.171-.681-.171-1.022-.681-1.361C317.2,5.743,313.97,10,312.437,12.209a22.4,22.4,0,0,1-2.042,3.4c-9.869,13.1-20.589,31.821-27.736,46.966-3.914,8.678-7.488,17.186-9.7,22.972-.681,1.872-1.191,3.063-1.361,2.893s-.17,0-.17.17c.34.341-.681,3.233-1.021,2.893-.171-.171-.171,0,0,.17a34.128,34.128,0,0,1-1.361,4.765c-1.783,5.07-3.416,10.208-4.829,15.108-.653.65-1.323,1.3-1.993,1.95a307.424,307.424,0,0,1,12.607-37.138c3.062-7.487,9.359-20.93,9.529-20.76s.34.17.17,0c-.34-.511.681-2.383,1.022-2.042.17,0,.17,0,.17-.17-.34-.511.51-2.383,1.021-2.042.17,0,.17,0,0-.171-.171-.51.34-1.7.68-1.531.171.17.341.17.171-.17s3.743-7.828,4.084-7.658c.17.171.34,0,.51-.17,0-.17,0-.34-.17-.17-.34.17-.34.17-.34-.17.17-.17.34-.341.51-.341s.34-.17.51-.34,0-.17-.17,0c-.34.17-.34.17-.17-.17.17-1.021,6.637-11.571,6.637-11.4.17,0,0,.51-.341,1.021-.68,1.191-1.02,1.531-.85,1.531s.68-.68,1.191-1.7c.68-1.021.851-1.7.68-1.362-.68.681-.68.17.341-1.361.51-.851,1.02-1.361,1.191-1.191.17,0,.17,0,0-.17,0-1.7,10.21-14.464,11.741-15.486a24.558,24.558,0,0,0,4.6-3.743c-2.723-1.021-3.914.681-5.786,2.723a90.443,90.443,0,0,0-9.189,11.741c-1.021,1.531-2.212,3.4-2.552,3.744-.511.68-5.957,10.039-8.849,14.974-4.084,6.977-8.849,16.336-13.613,26.717a305,305,0,0,0-17.223,48.939c-.971,1.076-2.17,2.3-3.025,3.3.441-.33,1.8-1.656,2.9-2.783-.047.192-.091.381-.136.571A23.689,23.689,0,0,1,258,118.415c-.007-.007-.009-.015-.017-.022,0-.34,0-.17-.17.17h0c-.849.849-.849.17-1.019.68a3.321,3.321,0,0,1-1.7,1.7.235.235,0,0,1-.34,0c-.17,1.191-1.192,1.02-1.531,1.7-.511,1.021-2.723,2.042-2.553,2.723,0,.34-.17.51-.34.51-.341,0-.511.17-.341.341q0,.255-.511.51c-.509.341-.509.341,0-.17.17-.17.341-.34.17-.34a5.662,5.662,0,0,0-2.041,2.382c.17.17,0,.34-.34.34-.17.171-.17.171,0-.17.169-.17.169-.17,0-.17l-.17.17c.17.341-.851,1.191-1.022,1.021-.17,0-.34,0-.17.17,0,.17,0,.341-.17.341s-.341,0-.171.17-.679.681-1.02.51c-.17-.17-.17,0,0,.171s.17.51,0,.51a25.4,25.4,0,0,0-2.893,2.042c-.51.51-1.021.851-1.532,1.361-1.531,1.191-4.254,2.893-5.615,4.084-.17.341-.681,1.191-.17.851a53.788,53.788,0,0,1,4.935-3.744c4.083-2.892,4.254-2.892.34.341a30.736,30.736,0,0,1-5.956,4.084c-.85,0-.17-.17-.17-.511-.34,0-3.914,2.212-5.786,1.192-3.232-2.213.17-15.316,1.022-18.208,4.084-13.1,11.741-28.248,21.44-38.628a55.654,55.654,0,0,1,6.637-6.3,17.943,17.943,0,0,1-.851,3.233c-.341,1.021-.851,1.872-.17,2.723.17.851-1.021,3.743-1.361,4.594a53.215,53.215,0,0,0-2.553,6.636c-1.7,4.765.851-.68,1.362-1.7l.509-1.361c.511-.681,0-.681.341-.851.851-.681-.17-1.361.851-1.872.511.34,1.191-3.744,1.191-2.722-.17,2.212,1.022-2.893,1.022-2.893.509-2.042.17.68.17,1.361.509-1.191.85-2.213,1.361-3.233,1.7-3.914,1.02-1.7.17.681a15.759,15.759,0,0,1-1.531,4.254c-1.192.68-1.192,2.382-1.532,3.573-.171,0-.681-.681-.34,0,1.191,2.212-.511,0-.341.511.341,1.7.851,1.531,0,3.233-2.041,3.743,1.532-1.361,1.872-1.872.171-.34.68-1.361.68-.681-.509,2.042-2.552,4.595-3.062,6.466.51,0,5.445-9.019,6.126-10.209.17-.341.17-.511.34-.852.51-1.361.51,1.362,1.191-1.871a3.985,3.985,0,0,1,.341-1.361,22.183,22.183,0,0,1,1.361-2.894c.17-.51,1.021-3.062,1.021-1.361-.511,3.064-2.723,8-4.084,10.891-1.531,2.722-3.064,4.935-4.765,7.657-2.553,4.595,1.192-.68,1.7-1.531,2.043-3.233,4.425-6.636,6.127-9.869l.17-.341c1.192-2.552,4.594-8,3.4-10.891-1.022-2.042-6.637-5.615-8.849-6.976-.681-.511-5.106-2.723-5.445-1.872,0,.17-.511.17-1.192,0a4.6,4.6,0,0,0-2.722.51c-1.873.851-4.765,2.893-4.765,3.4,0,.17-.17.17-.17,0a1.552,1.552,0,0,0-.851.51c-.34.511-1.7,1.872-2.893,3.233-1.361,1.362-3.743,3.914-5.1,5.616a124.311,124.311,0,0,0-14.465,24.333,21.07,21.07,0,0,1-1.7,3.744c-.17.34-.34.681-.17.851a.166.166,0,0,1-.17.17c-.17,0-.34,0-.34.171.17.169-.17,1.361-.681,2.892-.246.738-.611,1.874-.979,3.117-.782.661-1.59,1.341-2.416,2.03.106-.278.215-.571.332-.893.68-2.042,1.191-3.743,1.021-3.743-.131-.526-1.379,2.909-1.939,5.127-10.77,8.96-24.6,19.547-30.221,19.547l-1.022-.17c-.68-.171-1.02-1.022-1.02-2.383-.17-3.914,2.553-12.422,6.806-19.059,1.532-2.382,5.956-2.382,8.678-3.573a52.077,52.077,0,0,0,13.784-9.018c4.6-4.765,12.933-15.145,12.933-22.123v-.68c0-4.424-7.487-10.72-11.061-13.443a8.562,8.562,0,0,0-4.935-2.042h-.51c-1.361,0-1.872.34-1.872.681,0,.17.34.34.681.51v.341c0,.85-3.064,2.042-4.084,2.722-1.531,1.021-4.765,5.616-5.956,5.616h-.511c-.34,0,0,.51-1.021,1.361A40.559,40.559,0,0,0,189.41,83c-3.063,4.594-5.786,9.7-8.679,14.463a1.322,1.322,0,0,0-.17.511v.511c-1.361,1.531-3.062,5.615-3.914,7.657l-1.191,3.063c-1.265,3.211-2.917,7.256-4.261,11.181q-.777.925-1.556,1.839c.771-2.675,1.662-5.265,2.074-7.575.341-1.361.511-1.531.68-1.531h.17l.17-.681a8.945,8.945,0,0,0,.341-1.361h.17v-1.021l.341.34.17-.34.17-1.021h.17v-.34c0-.851.171-1.192.34-1.192v.341c.17,0,.17-.171.17-.51l.171-.681c.17,0,.34.34.34.34v-.34c0-.681,0-.851.17-.851l.17.17.171-1.191h.17l.341-.851h.17v-.17c0-1.021.339-1.021.339-1.021h.17V102.4c0-1.021,3.914-7.316,3.914-8.338v-.142c-.437.608-.917,1.4-1.02,1.5-.511.511-.851,2.042-1.022,2.042l-.339.341.169.34-.169.341c-.341.17-.171.34-.681,1.361-3.744,7.657-6.3,12.933-8.168,21.441-.145.548-.3,1.09-.455,1.628-6.2,7.218-12.394,13.607-16.392,15.729-.17-.17-.17-.17-.17,0,0,.34-.68.851-1.532,1.361a3.416,3.416,0,0,1-1.361.681c-.333-.033-.361-.219-.217-.48.014.029.206-.014.727-.2l.511-.17c.985-.739-.96.122-1.214.335.646-1.091,4.132-3.426,2.236-2.207-2.723,1.7-2.723.851-3.914,1.532l-.681.17c-1.532.34-.171-4.765,0-5.616,1.19-4.084,2.382-7.657,3.913-11.571,4.084-10.04,18.889-36.756,19.4-45.094.17-4.935-5.275-8.678-8.678-11.4-5.955-4.595-13.1,2.382-16.336,7.147,2.553-3.063,2.553-3.233,6.126-5.105,5.105-2.553,10.721-4.424,1.361.17-4.084,2.042,1.022-.51-1.19,1.191-8.85,7.488-15.486,16.166-22.292,25.525-2.553,3.744-9.19,13.784-11.741,16.336a38.52,38.52,0,0,1,3.323-6.849c-3.008,4.841-5.653,9.658-8.769,15.187-4.6,7.716-2.989,3.529-.584-.152-.416.5-.668.6-.1-.869,2.893-6.636,5.445-13.272,8.338-19.909,1.7-3.744,3.234-7.487,4.935-11.231,3.062-6.466,5.956-12.933,9.019-19.229,3.063-6.126,5.956-11.4,9.359-17.357,6.466-10.55,11.4-18.208,19.4-27.907,1.7-2.042,4.084-3.233,2.041-5.105-1.871-1.7,0-1.7-3.232-4.424-1.191-1.022.51-1.361-2.213-1.532,0,.34-.51.34-.34.171.17-.852.851.339.511-.681-.511-1.7-1.191-1.192-1.361-1.872,0-2.042-4.084,2.722-3.574,1.7,1.362-2.552-2.552,3.063-2.893,3.574a2.939,2.939,0,0,1-.511.681,17.714,17.714,0,0,0-3.743,4.424c-2.382,3.233-4.425,6.636-6.637,10.04-7.317,11.911-16.165,27.907-21.44,40.67,0,.17-.681,2.042-.681,2.042-.681,0-3.573,6.806-3.744,7.827-.511,2.042-1.021,1.532-1.7,3.914-.171,0-.341,1.872-.341,1.872-.546-.091-1.678,2.645-2.768,5.469-.467-1.5,1.428-4.043-1.705-.244.244-.608.482-1.211.73-1.822a485.223,485.223,0,0,1,25.014-51.9c4.254-7.487,12.082-19.568,12.592-19.4.17,0,.17,0,0,.17-1.191,1.872-2.212,4.6-1.7,3.914.34-.34,6.125-8.168,6.125-8.337s.511-.681.852-1.192a4.58,4.58,0,0,0,1.02-2.042,3.458,3.458,0,0,1,1.022-1.531c.51-.511.51-.341.17.34l-.341.851.681-.681c1.532-1.532,1.7-2.552-.51-1.191-.681.34-.851.34-.851.17.51-.85-.171-.85-.852-.17a3.912,3.912,0,0,1-1.191,1.191,25.234,25.234,0,0,0-2.723,4.594c-.339,1.362-1.531,2.723-1.871,2.213-.34-.341-.851.34-.68,1.191.17.341.17.341-.171.17-.17-.17-.17,0-.17.34.17.17,0,.341-.17.341s-.17.17-.17.34a.235.235,0,0,1,0,.34c-.17,0-.511.341-.681.681-.34.51-1.191,1.7-1.872,2.723a33.578,33.578,0,0,0-2.042,2.893,10.906,10.906,0,0,0-1.02,1.7,7.541,7.541,0,0,0-1.362,1.872A342.238,342.238,0,0,0,120.833,60.2c-.34.681-.681,1.191-1.021,1.872a11.962,11.962,0,0,1-1.021,1.532c0,1.871-.681.68-.681,1.191,0,1.021-5.275,11.912-6.466,14.634-2.061,4.85-4.291,10.214-6.328,15.423-1.419,1.636-2.906,3.3-4.443,4.988.208-.407.5-.955.9-1.693a11.093,11.093,0,0,0,1.532-3.4,4.981,4.981,0,0,1,.51-1.7c.171-.171,2.723-5.106,1.7-3.914-1.7,1.7,4.254-7.828,3.233-7.488-.851.341.851-2.382,1.021-2.892,1.872-3.4,2.893-5.616,2.553-5.446,0,.17-.17.17-.17,0,.17-.17,6.3-11.571,3.743-7.657-.68,1.191-.68.851,0-.511.341-.51.681-.851.851-.851.17.171.17.171.17,0-.17-.34,1.872-4.254,4.425-8.848,2.021-3.909,3.612-7.062,4.188-8.377l.066-.132,0-.011a2.182,2.182,0,0,0,.174-.5c-.17-.34,0-.34.17-.17s.17,0,.17-.341c-.17-.34,0-.51.17-.34s.17.17.17-.17c-.17-.341,0-.511.171-.341s.17.171.17-.34c-.17-.34-.17-.34.17-.17.171.17.171,0,.171-.34-.171-.341-.171-.511.17-.341.17.341.34,0,.34-.851,0-.34.169-.34.34-.34.34.34,1.021-1.021.851-1.7-.17-.34-.17-.34.17-.17.17.17.17,0,.17-.34-.17-.34-.17-.51.171-.34.17.17.17.17.17-.341-.17-.34-.17-.34.17-.17.17.17.17.17.34.17a74.127,74.127,0,0,1,5.105-9.019c.171.171.171,0,0-.34,0-.34,0-.51.171-.34s.679-.681,1.361-2.042a7.272,7.272,0,0,1,1.361-2.042c.17,0,.68-.681,1.021-1.532.341-.68.851-1.361,1.02-1.361s.171-.17,0-.34c0-.171,0-.341.171-.171.17,0,.511-.51.851-1.191s.681-1.19.851-1.19.51-.511.85-1.022a6.429,6.429,0,0,1,.852-1.361c.34,0,.68-.511.85-1.191.341-.51.511-.851.681-.851.17.17.511-.34.851-1.021.34-.851.68-1.361.85-1.191,0,.17.341-.341.682-.851.17-.68.509-.851.509-.68.17.339.17.169.17-.341-.17-.34,0-.681.171-.511s.34,0,.511-.34.34-.511.34-.34c.17,0,.511-.341.681-.851.34-.681.51-1.021.68-.851q.255,0,.511-.511c.17-.339.34-.51.34-.339.171,0,.341-.171.171-.511,0-.511,0-.681.34-.341.169.171.169.171.169-.17-.339-.51-1.361.511-1.191,1.022,0,.339,0,.339-.17.169h-.34c0,.17-.51.681-.851,1.021a2.486,2.486,0,0,0-.851,1.362c0,.17-.17.34-.17.17-.17-.17-.511.17-.68.681a6.1,6.1,0,0,1-.681.85c-.17,0-.17.17-.17.511.17.34,0,.51-.171.17q-.255-.255-.51.511c-.17.34-.34.51-.51.34a3.19,3.19,0,0,0-.511.68,6.071,6.071,0,0,1-.681.851c-.17,0-.17.171-.17.511.17.341,0,.51-.17.341s-.51.169-.68.68-.511.851-.681.851-.171,0-.171.17c.171.17,0,.341-.17.341s-.17.169-.17.51c0,.17,0,.34-.17.17a.629.629,0,0,0-.34.51,1.267,1.267,0,0,1-.511.511c-.17,0-.34.17-.17.341,0,.169,0,.339-.17.169-.17,0-.511.511-.851,1.192s-.68,1.191-.85,1.191-.341,0-.171.17a.6.6,0,0,1-.34.51,2.413,2.413,0,0,0-.341,1.021c0,.17,0,.341-.17.17,0-.17-.34.171-.68.681-.17.511-.511.851-.681.851a.235.235,0,0,0,0,.34c0,.17,0,.17-.17.17s-.341.171-.341.511c.171.34.171.34,0,.34-.17-.17-.511.511-1.02,1.191-.511.851-.852,1.532-1.022,1.532-.17-.17-.17.17,0,.51,0,.341,0,.341-.34.171-.17-.171-.34-.171-.17.17,0,.34,0,.51-.17.51s-.17.171-.17.341c.17.17,0,.34-.17.34-.171-.17-.171,0-.171.17a.235.235,0,0,1,0,.34c-.51,0-1.191,1.362-1.021,1.872a12.357,12.357,0,0,0-2.212,3.234,18.433,18.433,0,0,1-2.382,3.573c0-.17-.17,0,0,.17a22.565,22.565,0,0,1-1.532,3.063c-3.573,6.3-8.168,15.145-8.168,15.485.17.171,0,.341,0,.171-.17,0-.339,0-.51.34-.17.17,0,.34.171.34.169-.17.169,0,0,.17-.171.341-.341.341-.511.341,0-.171-.171,0,0,.34,0,.34,0,.511-.171.17-.34-.17-.34-.17-.34.17.17.171-.511,1.7-1.531,3.574-.852,1.872-1.7,3.4-1.531,3.743,0,.171,0,.341-.171.171s-.34,0-.34.34c-.171.17-.171.34,0,.17.17,0,.17.17,0,.341,0,.34-.171.34-.341.17-.17,0-.34,0-.17.17a13.4,13.4,0,0,1-1.531,3.4c-.852,1.7-1.531,3.4-1.7,3.744a18.378,18.378,0,0,1-1.532,3.743,10.549,10.549,0,0,0-1.191,3.234c-.17,1.531-.511-.17-.511.34-.34,2.042-2.212,4.765-2.212,5.786.171.169-.34,1.191-.85,2.382a10.861,10.861,0,0,0-1.022,2.552,14.854,14.854,0,0,1-1.02,2.553,15.169,15.169,0,0,0-.594,1.776c-9.224,10.081-20.146,20.948-29.016,31.406,6.978-6.977,12.933-13.273,19.74-20.419.43-.517,5.377-5.767,8.807-9.256-.04.131-.08.262-.129.407-.2.473-.365.891-.513,1.287A360.748,360.748,0,0,1,68.2,135.427a2.075,2.075,0,0,1,.218-.017l.17.17c-.659,1.318-1.263,1.124-1.328.689a317.134,317.134,0,0,1-31.173,24.5c-3.914,2.383-1.362,1.022,0,.511,2.041-.511.34.17.17.34-1.532,1.191-1.192.341-1.7.681-1.873,1.191-13.1,5.275-14.125,5.275-.169-.51,3.064-1.191,3.915-1.7,5.445-2.213-4.594.85-4.594.85-6.467-9.359-4.084-27.567-1.022-39.478a185.954,185.954,0,0,1,14.8-39.819A235.408,235.408,0,0,1,50.044,60.537a205.468,205.468,0,0,1,30.63-34.374,30.82,30.82,0,0,0,3.573-3.574c0-.17.17-.17.341-.17.511,0,1.531-.85,1.361-1.191,0-.17,0-.17.17-.17.17.17,1.191-.511,2.212-1.361a96.346,96.346,0,0,1,14.294-8.849c2.383-1.021,6.467-2.382,6.637-2.212a23.814,23.814,0,0,1-.341,3.743c-.51,4.935-.68,5.616-.851,5.446s-.17,0-.17.17c.17.171,0,1.021-.341,1.7a7.314,7.314,0,0,0-.509,1.7,6.393,6.393,0,0,1-.681,2.042c-.341.852-.681,1.7-.511,2.042,0,.171,0,.341-.17.171-.17,0-.34,0-.17.51,0,.34,0,.51-.34.34-.17-.17-.17-.17-.17.17.17.171-.341,1.192-.851,2.383-1.191,2.382-1.361,3.233-.171,1.021,1.362-2.553,2.553-5.105,2.212-4.935s-.34,0,.341-1.531c1.02-2.042,1.531-3.574,1.191-3.234q-.257.255,0-.51c1.021-2.212,1.191-3.063,1.021-2.893-.34.17-.34.17.341-1.7a7.685,7.685,0,0,0,.51-2.212c0-.34,0-.681.17-.51a11.518,11.518,0,0,0,.17-2.042c0-2.213.17-2.552.681-2.042.17.17.17,1.361-.17,3.913a38.481,38.481,0,0,1-2.383,10.21,11.091,11.091,0,0,0-.511,1.7,4.9,4.9,0,0,1-.679,1.871c-.341,1.021-.682,1.872-.511,2.042,0,.17,0,.34-.171.17s-.34,0-.34.511a39.986,39.986,0,0,1-1.7,4.254c-1.021,2.042-2.213,4.594-2.723,5.615s-1.021,2.383-1.361,2.893a38.634,38.634,0,0,0-3.233,6.467.235.235,0,0,1,0,.34c-.171-.17-.681.51-1.192,1.361-.34.851-1.531,3.063-2.381,4.595a14.592,14.592,0,0,0-1.7,3.233c.17.17.511-.511,1.021-1.361a7.872,7.872,0,0,1,1.191-2.213l.511-.68-.17.68c-1.191,2.213-1.872,3.4-2.553,4.425a22.572,22.572,0,0,0-1.02,2.042c-.171.68,1.361-1.872,3.062-4.935.511-.681,1.022-1.872,1.532-2.553.68-1.531,2.213-4.424,3.233-6.636a19.319,19.319,0,0,1,1.191-2.553c1.191-2.042,7.318-14.8,7.658-15.485a7.881,7.881,0,0,0,.339-.851c.171,0,.341-.34.341-.851a5.717,5.717,0,0,1,.851-2.381c.511-.511.511-.341,0,1.02-.17.511-.34.851-.51.681s-.171,0,0,.17c.34.51-.341,2.893-.851,2.552-.17,0-.17.171,0,.511,0,.681-.34,1.7-.681,1.531a4.165,4.165,0,0,0-.17,1.192,5.456,5.456,0,0,1-.341,1.021c-.17-.171-.34,0-.17.34,0,.511-.17.511-.34.511a.327.327,0,0,1-.17-.511c0-.34,0-.17-.34.34a13.516,13.516,0,0,1-.681,1.532c-.17.51-.17.34.34-.17.511-1.021.851-1.362.511-.511-.17.34-.17.681,0,.681.17.17.34,0,.17-.17,0-.171.17-.511.34-.511a10.962,10.962,0,0,0,1.362-2.382,10.354,10.354,0,0,1,.85-1.872c.171.51-6.3,14.464-8.338,18.208-.34.51-1.531,2.552-2.722,4.764-2.382,4.425-4.935,8.679-7.488,12.933-3.233,5.445-6.126,9.7-9.529,14.974-2.212,3.574-3.744,4.765-5.956,7.829-3.062,4.423-.34,4.934,3.064,3.743,18.207-9.189,28.077-32.331,36.755-49.348,8.338-16.847,11.061-28.078,8-33.863-.851-1.362-6.127-5.105-7.317-5.105l-1.7-.681C110.964,2.51,104.5.3,103.986.638c-.17.17-.17,0,0-.17,0-.17-.17-.341-.85-.341a6.6,6.6,0,0,0-2.723,0c0,.171.681,0,1.531.171l1.532.17h-1.7C97.351.979,93.946,2,88.672,4.722a91.633,91.633,0,0,0-8.849,5.1c0,.171-.511.51-1.021.851A29.984,29.984,0,0,0,75.059,13.4C60.6,24.631,45.62,41.648,32.177,62.068c-9.36,14.124-19.059,33.863-23.484,47.817C4.269,123.668,2.737,130.475,2.058,140c-.341,3.063-.511,6.466-.511,7.317a41.361,41.361,0,0,0,1.872,11.742c2.212,5.275,4.424,7.317,10.72,10.04s11.231,5.274,19.058,4.084c9.36-2.723,17.017-7.658,24.845-14.124a111.583,111.583,0,0,0,10.21-9.87L69.272,148c5.956-6.977,11.743-13.613,17.358-20.76,2.382-3.234,4.934-6.467,7.316-9.53q.738-.968,1.444-1.907c-.137.386-.278.793-.422,1.227-.681,1.7-1.192,3.233-1.192,3.233,0,.17,0,.17.171.17a22.547,22.547,0,0,0,1.531-3.573c.4-.969.716-1.789.972-2.479,1.233-1.662,2.4-3.271,3.521-4.853-2.685,7.806-5.224,15.827-7.215,23.668-.681,2.382-2.723,7.487-1.7,9.359a4.385,4.385,0,0,0,.868.993c-.823-3.589,3.118-15.189,3.556-16.649,1.873-6.466,4.084-12.252,6.3-18.378.371-1.085.755-2.149,1.136-3.217,1.3-1.9,2.558-3.8,3.827-5.747-1.226,3.044-2.916,8.9-3.771,11.177a249.209,249.209,0,0,0-8.849,29.1c-.148.743-.427,3.951-1.062,4.639,2.6,1.93,6.846,4.117,8.21,3.869,2.722-.51,6.465-10.38,7.657-13.1,1.361-2.723,2.552-5.276,4.084-7.828,10.72-17.187,26.546-38.968,42.2-51.39.511-.341,2.212-1.7,2.723-1.7.51.17-1.022,4.425.17,1.872s2.892-4.595,1.191-.34c-2.383,5.445-.341.17.34,1.871.341.851-.34-.51-.681,1.022-1.361,5.785-7.146,16.165-10.039,21.781-.852,1.7-5.616,10.891-2.043,3.233.511-1.362,6.637-13.613,6.637-13.784-.681.341-6.126,12.082-7.657,14.124,1.872-5.615,9.359-17.527,10.21-21.441-.34.341-5.446,10.55-6.3,11.912-.511,1.191-7.828,15.825-7.828,15.825-.851-1.191.34,2.212-.851,1.022-.34.51.681,5.445-.34,2.211-.511-1.872,0,.511-.341,1.021a30.585,30.585,0,0,0-3.573,11.572c-.681,6.806,2.893,14.294,8,18.718,8.848,6.977,15.145-.511,20.59-7.317,1.027-1.321,2-2.643,2.944-3.969a9.775,9.775,0,0,0,2.16,3.118c4.425,4.254,10.38,10.55,16.166,12.082a14.149,14.149,0,0,0,3.744-.511c9.359-3.176,17.237-12.256,23.482-19.35,0,2.89-.327,6.941,2.042,9.31l.681.681c3.4,3.4,9.359,6.3,14.124,7.828a8.954,8.954,0,0,0,5.956-.17c4.084-1.362,10.55-8.339,13.442-11.4,4.765-5.106,6.3-6.807,6.3-7.148a.367.367,0,0,1,.341-.34c0,.17.681-.51,1.191-1.021.038-.038.072-.076.107-.114-.205,1.437-.358,2.787-.449,4.028-.34,3.063-.68,5.615.17,8.679.681,2.552.681,4.594,3.4,4.934-1.532,1.532-1.532,0,.34,2.553.851,1.021,1.532,2.042,2.893,1.872,1.531-.171-.171,2.042,3.4,3.233,2.042.51,3.233,1.191,1.872-1.021-.851-1.361-.851-2.212-1.532-3.233-1.531-2.383-1.02-8.679-.51-11.742.17-.851.17-2.042.34-2.722.34-1.362.511.34.681.51a29.423,29.423,0,0,0,1.872-5.445c1.191-4.595-.681,1.871-1.191,2.382-.511.681-.34,1.191-.681,1.7-1.191,1.531,1.531-6.467,1.531-6.637.171-.17.681-1.7,1.362-3.4a96.17,96.17,0,0,1,5.786-13.443c1.361-2.893,1.531-2.893,1.531-1.7,0,.681-.17,1.021-.34,1.021,0-.17-.171,0-.171.17a.368.368,0,0,0,.341.341c.17.17,0,.681-.341,1.531-.511.851-.85,1.192-.85.851-.17-.17-.17,0-.17.341a22.347,22.347,0,0,1-1.532,4.423c-.851,1.872-1.532,3.4-1.532,3.4.171,0-.17.68-.34,1.191a18.7,18.7,0,0,0-1.532,3.914,112.358,112.358,0,0,0-3.4,10.72c-1.362,5.105,1.02-.51,1.361-1.7.68-1.7,1.191-1.021,1.021-2.893-.511-.851.68-2.553.85-3.744,0-1.361,3.914-11.231,6.3-15.485l.51-1.191.17,1.021c.341.851.341.851.171-.17a3.356,3.356,0,0,1,.17-1.531c.17-.341.17.169.34,1.02a3.972,3.972,0,0,1-.34,1.872,1.086,1.086,0,0,0,0,1.021c.17.34,0,.851-.17,1.532-.511.85-.511.85-.681.34-.341-.511-.341-.511-.17.17a15.56,15.56,0,0,1-1.191,3.914c-.852,1.7-1.872,4.084-2.383,5.445-.17.681-2.042,4.765-.851,1.191.341-.85.681-1.872.511-2.042,0-.34-.17.17-.511,1.021a12.666,12.666,0,0,1-1.872,4.084c-1.191,1.532-.51,1.7-.34,1.362a3.068,3.068,0,0,1-.34,1.7c-.408,1.223-.78,2.574-1.117,3.976-.076-.044-.129.007-.074.278,0,.006,0,.012,0,.018a66.132,66.132,0,0,0-1.536,9.682,76.559,76.559,0,0,1,3.573-12.592c2.043-5.1,3.914-10.21,6.127-15.145.34-.511-.851,2.212,1.021-2.212a20.884,20.884,0,0,1,3.063-1.362c0,.171,0,.341.17.341,4.594,13.613,11.4,24.5,22.291,33.693.151.15,2.15,1.753,2.388,1.9.172,1.136.507-.021.676.485.34,1.361,1.361.851,2.722,1.361,2.723,1.192.341,1.362,4.765,2.042.511.17-.34.851.34.341a1.773,1.773,0,0,1,.613-.29c-.266.187-.555.958.068.46.17,0,.17-.341.17-.341a.225.225,0,0,0-.09-.152c1.379-.27,3.153.719,3.153,1,.341,1.362,2.383,0,1.361,0-2.042.171.341-.851.852.171.85,1.7.17-.511,1.19-.341,2.212,0,.681.17.171.511-1.361.85,6.3-.511,6.807-.681,5.445-1.361,13.613-6.466,19.058-15.825C350.385,137.622,346.981,135.24,345.79,137.282ZM320.266,11.359c.169-.171.339-.851.68-.511C321.456,11.7,319.925,13.23,320.266,11.359ZM146.188,17.144c.17.17.34.341.17.341,0,.17,0,.17-.17.17a.366.366,0,0,1-.34-.341C145.848,17.144,146.018,16.974,146.188,17.144Zm-34.374,56.5c.17-.17.341-.17.341,0s-.171.341-.341.681c-.17.17-.34.341-.34.17A2.886,2.886,0,0,1,111.814,73.639ZM102.8,94.91a.366.366,0,0,1,.34-.34c0,.17,0,.34-.34.511C102.626,95.42,102.455,95.42,102.8,94.91ZM95.648,51.177a18.633,18.633,0,0,1-1.191,2.213c-.34.34-.34.51,1.021-2.213A18.856,18.856,0,0,1,96.5,49.135C96.669,49.135,96.159,50.157,95.648,51.177ZM114.366,34.5c.511-1.191,1.532-3.914,2.383-6.3.851-2.212,1.531-3.913,1.531-3.574a50.735,50.735,0,0,1-3.4,9.019c-.681,1.7-1.361,3.063-1.361,3.063C113.346,36.883,113.346,36.713,114.366,34.5Zm-5.615-5.956a1.787,1.787,0,0,1,.341-.85c.17-.341.17-.511.17-.171a1.786,1.786,0,0,1-.341.851C108.751,28.886,108.581,28.886,108.751,28.545Zm-4.084,13.614q.511-1.021.511-.511c-.341.851-1.192,2.383-1.192,1.872A4.856,4.856,0,0,1,104.667,42.159Zm-3.914,7.317c3.233-5.956,4.255-7.147,1.532-1.872-.851,1.872-2.042,3.914-2.383,4.765-.51.85-.85,1.7-1.19,1.872-.171,0-.171.17,0,.17s.17,0,0,.17c-.341.34-3.4,5.956-3.914,6.806-.391.52-2.766,4.612-4.169,6.439.028-.048.054-.085.085-.142A189.5,189.5,0,0,1,100.753,49.476Zm1.191,2.552c.341.171.341.171,0,.171a9.011,9.011,0,0,0-1.02,1.7c-.511,1.361-.341.17-.511.851l-.031.085a4.68,4.68,0,0,0-.65.936c-5.275,8.679,2.382-5.275,2.553-5.1s0,.34-.171.681C101.774,51.518,101.774,51.688,101.944,52.028ZM84.758,76.7c-.851,1.191-.681-.171,0-.511C85.949,76.192,85.1,76.192,84.758,76.7Zm1.7-3.4c.34-.17.34-.17.51-.17C86.63,74.661,84.928,74.49,86.46,73.3ZM88.5,71.6c-1.361,1.532.851-4.084,0-.85C88.5,71.257,88.842,71.087,88.5,71.6Zm1.021-1.531c-1.021-.17.34-1.872.34-.34A.366.366,0,0,1,89.522,70.066Zm.17-1.361c.562-2.386.2-.265.627-.5C90.036,68.54,89.812,68.734,89.692,68.705Zm15.486-20.931c.51-.851,1.02-1.872,1.191-2.042.511-.34.681-1.021.511-1.191a2.951,2.951,0,0,1,.51-.681,1.552,1.552,0,0,0,.51-.851.235.235,0,0,1,0-.34c.17,0,.511-.34.681-.68.511-.851.511-.341-1.361,3.4l-.34.681A198.875,198.875,0,0,1,95.989,65.642C87.65,78.574,105.008,48.115,105.178,47.774Zm1.361,2.553c-.17.17-.17.34-.17.17a1.291,1.291,0,0,1,.34-.681l.171-.17A1.294,1.294,0,0,1,106.539,50.327Zm.851.85s.51-.68.51-.51C108.07,51.007,106.028,53.39,107.39,51.177Zm1.361-1.871c-.17.51-.34.51-.34.17,0-.17.17-.341.34-.511C108.921,48.965,108.921,48.965,108.751,49.306Zm-.17-2.383c-.34.341-.511.681-.511.511a1.876,1.876,0,0,1,.511-1.021c.17-.34.511-.681.511-.511A5.637,5.637,0,0,0,108.581,46.923Zm.851-1.7c-.17.34-.34.34-.34.17a1.291,1.291,0,0,1,.34-.681c.17-.17.34-.34.34-.17A1.3,1.3,0,0,1,109.432,45.222Zm.85-1.7q-.51.766-.51.511a5.593,5.593,0,0,1,.51-1.022c.341-.34.511-.68.511-.51A5.543,5.543,0,0,1,110.282,43.52Zm1.361-2.723a5.579,5.579,0,0,1-.509,1.021c-.17.341-.341.341,0-.17a1.952,1.952,0,0,1,.509-1.191C111.814,40.117,111.814,40.287,111.643,40.8Zm-.679-12.082v-.34c0-.34.17-.51.17-.17A.625.625,0,0,1,110.964,28.715ZM112.5,16.8c0-.511.17-.68.17-.341a1.85,1.85,0,0,1-.17.851Zm.17,6.807c.17.17,0,.51,0,.51-.17.171-.17,0-.17-.34S112.665,23.44,112.665,23.611Zm-.511-5.276a16.471,16.471,0,0,1-.85,3.574c-.511,1.361-1.022,3.233-1.362,3.914-.68,1.361-.51,1.191.681-2.893.511-1.361,1.02-3.233,1.191-3.914C112.154,18,112.325,17.825,112.154,18.335Zm-2.892-4.084c-.17.17-.17,0-.17-.34s.17-.34.17-.17C109.432,13.911,109.262,14.251,109.262,14.251ZM90.714,16.293a1.321,1.321,0,0,1,.51-.169,3.208,3.208,0,0,1-.68.51,1.322,1.322,0,0,1-.511.17C90.033,16.634,90.373,16.463,90.714,16.293ZM16.181,123.668c-.17.681-.34.851-.17.34a7.489,7.489,0,0,1,.34-1.7c.17-.681.34-.851.34-.511A5.163,5.163,0,0,1,16.181,123.668Zm19.91-47.816a178.8,178.8,0,0,0-8,16.165c-3.064,6.637-7.828,18.548-9.36,23.483-.68,1.7-1.191,3.744-1.531,4.424-.17.681-.341,1.022-.341.851a72.966,72.966,0,0,1,2.383-8.338,13.741,13.741,0,0,1,.851-2.552,1.8,1.8,0,0,1,.339-.851.319.319,0,0,0,0-.511c0-.17.171-.34.341-.51.17,0,.17-.341.17-.68-.17-.341,0-.511.171-.511s.34-.341.17-.681c0-.34,0-.511.17-.34s.34,0,.17-.681c0-.51,0-.681.17-.34.341.34.341.17.341-.511-.17-.681,0-.851.17-.681s.17,0,.17-.51,0-.851.17-.681.34,0,.51-.34c.341-.681.171-.85-.17-.34-.34.34-.34.34-.17,0a2.425,2.425,0,0,0,.34-1.021c0-.17.171-.341.341-.17s.17,0,.17-.171c-.17-.34.341-1.7.511-1.531.17,0,.17-.17.17-.34-.17-.681,4.424-10.721,5.956-13.274a20.336,20.336,0,0,0,1.7-3.062c.17-.341.34-.681.51-.681a.367.367,0,0,0,.34-.341,4.952,4.952,0,0,1,.851-1.7,4.236,4.236,0,0,0,.681-1.361c-.17,0,0-.17.17-.511a4.489,4.489,0,0,0,.85-1.021c.171-.68,2.213-3.913,2.213-3.574A26.943,26.943,0,0,1,36.091,75.852ZM18.733,109.034c0-.34,0-.511.17-.17a.628.628,0,0,1-.17.511A.237.237,0,0,1,18.733,109.034Zm2.042-5.956c1.362-3.574,4.6-10.72,4.935-11.061v.341c-.17.34-1.192,2.723-2.382,5.275-1.021,2.722-2.383,5.955-2.894,7.317C18.9,108.523,19.244,106.992,20.775,103.078Zm5.786-13.1a2.872,2.872,0,0,1,.34-.85c.17-.17.34-.17.34,0l-.34.68A.527.527,0,0,1,26.561,89.975Zm34.713-45.6c-.34.34-.679.68-.85.68a3.01,3.01,0,0,1,1.191-1.191C61.785,43.86,61.445,44.031,61.274,44.371Zm.511-.851q-.255,0,.511-.511Q62.041,43.521,61.785,43.52Zm1.872-1.872a1.275,1.275,0,0,0-.511.511c-.339,0-.17-.341.341-.681S64,41.138,63.657,41.648ZM76.079,29.056c-2.553,2.382-3.062,2.552-.851.51,1.192-1.191,2.212-2.042,2.212-2.042C77.61,27.524,76.931,28.205,76.079,29.056ZM39.493,53.219c.852-1.361,1.532-2.042.682-.85A4.85,4.85,0,0,1,39.153,53.9C38.983,54.07,38.983,53.9,39.493,53.219ZM26.051,74.49l.68-1.361c1.7-3.233,10.38-16.846,11.061-17.527.17-.17-.17.51-.851,1.531C32.686,63.94,28.263,71.087,26.9,73.639a3.224,3.224,0,0,1-.68,1.022C26.051,74.831,25.88,74.661,26.051,74.49ZM15.841,95.42c1.871-4.423,2.552-6.3,4.084-8.848.509-1.191,1.02-2.212,1.02-2.382a8.442,8.442,0,0,1,.681-1.532,8.971,8.971,0,0,0,1.361-2.382,4.744,4.744,0,0,1,.852-1.531,5.745,5.745,0,0,0,.679-1.7.366.366,0,0,1,.341-.339c.17,0,.341-.341.511-.851s.34-.852.51-.852a40.509,40.509,0,0,1-2.552,5.446C21.8,83.509,19.244,88.955,17.542,92.7c-1.7,3.914-3.063,6.977-3.063,7.147C14.139,100.185,14.479,98.994,15.841,95.42Zm-1.7,4.935v.511c-.17.17-.17,0-.17-.34S14.139,100.185,14.139,100.355ZM5.971,158.382a2.4,2.4,0,0,1-.511-.851c-.17-.51-.34-.851-.17-.851a2.4,2.4,0,0,1,.511.851C5.971,158.042,6.142,158.382,5.971,158.382ZM4.95,140c-.681,6.126-.681,8.508,0,11.4.34,1.872.34,2.553-.17,1.532C3.759,150.384,4.1,140,5.631,132.006a139.929,139.929,0,0,1,4.934-19.058A201.74,201.74,0,0,1,25.54,78.4c.681-1.531,1.361-2.893,1.191-3.063,0-.17,0-.17.17,0,0,0,1.7-2.552,3.744-5.956a219.281,219.281,0,0,1,20.59-28.928c11.4-13.613,24.844-25.865,34.373-31.481,1.022-.51,1.7-.851,1.532-.681a11.908,11.908,0,0,1-1.7,1.192c-.85.34-1.361.85-1.361,1.021.17.17.17.17,0,.17-.34-.341-2.212,1.021-2.042,1.362a2.947,2.947,0,0,1-.511.68c-.34.34-.68.51-.68.34-.17-.17,0-.34.34-.51.51-.171.681-.51.51-.51-.17-.171-1.361.85-1.19,1.02a.624.624,0,0,1-.171.511c-.34.17-.34.17-.17-.17.17-.171.17-.341-.17-.171-.17,0-.34.341-.34.341,0,.17-.171.34-.51.34-.171,0-.511.171-.511.34,0,.341-.17.511-.34.511-.341-.17-.682.17-4.766,3.573-3.573,2.893-11.741,10.721-10.039,9.53.681-.511.681-.511.17,0a1.269,1.269,0,0,1-.511.51c-.339-.17-1.7,1.532-1.872,1.872a.366.366,0,0,1-.34.34c-.169,0-.339,0-.169.17,0,.171,0,.171-.17.171-.341,0-.511.34-.682.68s-.51.681-.68.681h-.171c.171.34-.51,1.021-.85.851a.166.166,0,0,0-.17.17c0,.511-.17.681-1.022,1.531-.509.511-.85.851-.85,1.022-.17.17-1.192,1.361-2.382,2.892-4.936,5.446-9.7,11.4-12.934,15.656-3.743,5.275-10.209,15.144-9.869,15.144.17,0,.511-.51,1.022-1.191,1.19-1.871,1.02-1.021-.511,1.362-2.383,4.084-4.765,8.168-5.445,9.529-.341.851-1.022,2.042-1.533,3.063a15.391,15.391,0,0,0-1.19,2.382c-.171.51-.341.851-.511.851s-.34.17-.17.17a15.419,15.419,0,0,1-1.361,2.893c-1.531,3.233-5.956,13.273-6.467,14.8-.17.681-.34.851-.34.341-.17-.51-1.191,2.042-3.233,8.508A131.091,131.091,0,0,0,4.95,140ZM53.106,40.287a1.27,1.27,0,0,1-.509.51Q52.342,40.8,53.106,40.287Zm-.85,1.191c-.34.34-.511.511-.681.511s0-.171.511-.681C52.6,40.967,52.6,40.967,52.256,41.478Zm-1.021,1.191a1.261,1.261,0,0,0-.51.511c-.341,0-.17-.341.34-.681S51.575,42.159,51.235,42.669ZM14.309,104.78a.628.628,0,0,1-.17.511.237.237,0,0,1,0-.341C14.139,104.61,14.139,104.439,14.309,104.78ZM9.885,137.792c-.17,0-.17,0-.17-.34s.17-.341.17-.17C10.055,137.452,9.885,137.622,9.885,137.792Zm.17-1.872q-.255.767,0-1.021c.171-1.021.171-1.361.171-.851A6.349,6.349,0,0,1,10.055,135.92Zm.68-3.744c-.17.511-.17.171,0-.85.17-.851.17-1.192.17-.681A4.224,4.224,0,0,1,10.735,132.176Zm.17-11.741c0,.17-.17,0-.34-.34v-.511c.17-.17.34,0,.34.17C11.076,120.1,11.076,120.435,10.905,120.435Zm0-1.7c0-.34.171-.68.341-.68s.17.17.17.34a.885.885,0,0,1-.34.681C10.905,119.074,10.905,118.9,10.905,118.733Zm.511,9.87c-.17.17-.17-.17,0-.511,0-.51,0-.68.171-.34A1.843,1.843,0,0,1,11.416,128.6Zm1.7-16.506c.17.51-.511,2.552-1.021,3.743a1.026,1.026,0,0,0-.17.681,1.3,1.3,0,0,1-.34.851c-.511.851.17-2.723,1.19-5.786,1.022-3.573,2.894-8.337,3.064-8.168.17,0,.17-.169.17-.68,0-.341,0-.511.17-.511.17.17.34,0,.17-.34,0-.511,0-.511.34-.511.17.17.17.17.17-.34-.17-.34,0-.51.171-.51s.34-.171.17-.511c0-.17,0-.511.17-.511.17-.17.34-.339.17-.51a.527.527,0,0,1,.17-.34c.341-.17.341-.341.341-.511-.17-.34,0-.51.17-.51s.17-.171.34-.341A54.33,54.33,0,0,1,21.116,91c.17-.171,1.191-2.383,2.212-4.595A193.133,193.133,0,0,1,37.792,61.217c2.042-2.892,5.615-7.827,6.126-8.338.17-.17,1.872-2.382,3.573-4.594a128.875,128.875,0,0,1,8.168-10.04c2.553-3.063,2.553-2.893,2.213-3.063a.236.236,0,0,0-.341,0c.17.17-.511.851-1.191,1.531-.681.851-1.7,1.7-2.042,2.212-1.192,1.192,2.042-2.722,4.595-5.445,1.191-1.361,2.381-2.552,2.552-2.723.681-.51.851-1.02.34-.68-.34.17-.34,0-.17-.17s.341-.341.341-.17c.34.17,2.552-2.042,2.552-2.383,0-.17,0-.34.171-.34,0,0,1.871-1.532,3.913-3.4,2.212-2.042,4.594-4.084,5.275-4.765a3.138,3.138,0,0,0,1.361-1.361c-.169-.171,0-.171.17-.171.171.171.681,0,1.022-.34,1.02-.85,1.531-1.191.681-.17-.511.34-.852.851-.681,1.021,0,.17,0,.17-.171,0-.34-.17-2.212,1.361-2.041,1.7.17.17,0,.17,0,.17a.594.594,0,0,0-.341.17c-.17.51-1.872,2.042-2.042,1.872s-.34,0-.511.34c0,.171-.17.34-.339.171-.171,0-.341.169-.341.51-.17.34-.34.51-.681.34-.17,0-.17,0-.17.17.17.341-3.743,4.425-4.254,4.425-.171,0-.341,0-.341.17a27.666,27.666,0,0,1-3.573,4.084C57.872,36.2,51.235,44.031,47.661,48.625c-2.552,3.233-7.827,10.38-7.827,10.72a2.479,2.479,0,0,1-.511.851,156.717,156.717,0,0,0-11.4,18.719c-4.766,9.018-11.062,22.972-13.1,28.928a28.338,28.338,0,0,1-1.531,3.913C13.118,111.586,13.118,111.927,13.118,112.1Zm.851,7.657s-.17,0,0-.34c0-.34,0-.34.17-.17A.625.625,0,0,1,13.969,119.754Zm.51-1.531c-.17.17-.17,0-.17-.341.17-.34.17-.51.17-.34A.518.518,0,0,1,14.479,118.223Zm.17-1.361c-.17.17-.17-.171,0-.851.511-1.362.681-1.532.511-.341C14.989,116.181,14.819,116.862,14.649,116.862Zm.511,10.55c-.171.17-.171.17-.171-.34.171-.341.171-.511.171-.341A.518.518,0,0,1,15.16,127.412Zm.34-13.954c.681-3.063,4.255-12.762,6.3-17.7,9.359-21.271,24.675-44.243,41.011-61.77,3.233-3.234,10.04-10.04,10.21-10.04A14.164,14.164,0,0,1,70.8,26.333,217.865,217.865,0,0,0,28.093,84.19c-3.234,6.466-9.36,20.59-11.232,26.205C15.5,114.139,15.16,114.99,15.5,113.458Zm0,12.082c0-.51.171-.681.171-.51.17.34,0,.51,0,.85C15.5,126.05,15.5,125.88,15.5,125.54ZM48.343,161.1c.17,0,.17,0,.34-.17C50.384,160.254,46.471,162.3,48.343,161.1Zm1.7-1.022s.17-.169.17,0C49.022,160.764,49.193,160.254,50.044,160.083Zm1.191-2.722c-4.254,3.914-1.361.511.51-.681Zm6.3-10.21c-3.573,3.4-14.974,12.422-13.783,11.061,2.552-2.042,4.935-4.084,7.487-6.126C51.916,151.576,62.976,141.706,57.531,147.151Zm8.168.511c-.17.51-4.254,2.892-.681.51C65.018,148,65.869,147.492,65.7,147.662Zm-1.872-7.488c.511-.51,1.531-2.212,2.213-2.212C66.38,138.813,62.976,141.536,63.827,140.174Zm36.3-37.359c.316-.64.632-1.282.88-1.811C103.528,98.488,104.44,97.794,100.127,102.815Zm34.489-13.18a9.519,9.519,0,0,1,1.022-1.361C135.977,88.614,133.936,91.167,134.616,89.635Zm-1.871,2.042.34-.341a142.128,142.128,0,0,1-9.7,12.933C125.258,100.355,129.682,94.74,132.745,91.677ZM114.707,115.16a15.581,15.581,0,0,1,1.361-2.212C117.6,111.246,112.665,118.223,114.707,115.16Zm-5.1-1.7a.594.594,0,0,1,.17-.34C110.112,112.607,109.6,114.649,109.6,113.458Zm1.192-3.233.17-.17C111.3,110.565,110.453,111.417,110.794,110.225Zm1.871-3.744c-.17.341-.51.852-.681,1.191C111.644,106.652,113.517,104.269,112.665,106.481Zm2.553-6.806c-1.872,4.084-.17-1.362.51-2.042l.17-.171A5.552,5.552,0,0,1,115.218,99.675Zm3.4-8c0,1.872-1.191.511,0-.341Zm.681-1.361c-.17.17-.34.51-.511.51C118.621,90.146,119.982,89.294,119.3,90.316Zm1.872-4.084c-.851,1.361-.511-.341.17-.511C121.514,85.891,121.344,86.062,121.174,86.232Zm1.19-2.383c-1.02,1.361-.51-.17,0-.51C122.535,83.509,122.364,83.849,122.364,83.849Zm.852-2.042c-1.362,2.723-.17-.681.51-1.531C123.9,80.616,123.386,81.467,123.216,81.807Zm2.722-5.955a25.726,25.726,0,0,1-1.531,3.063c.17-1.021,6.977-15.315,7.827-16.677C132.234,62.919,126.789,74.32,125.938,75.852Zm31.141-61.941c.17,0,.68-.51.51-.17C156.738,14.762,156.4,14.421,157.079,13.911Zm-1.191-2.042c0,.171-.341.681-.511.34C155.377,11.7,157.249,10.337,155.888,11.869Zm-1.532,5.616c1.532-2.213,1.191-1.361,0,.17C152.313,20.888,151.8,20.888,154.356,17.485Zm-2.213-.851c.17,0,0,.17-2.211,3.233-1.873,2.552-3.574,5.105-5.446,7.828-.85,1.361-2.892,4.594-3.743,5.615C141.594,31.268,150.612,17.655,152.143,16.634ZM141.594,44.711c3.062-5.615.17.511-1.022,2.382A14.4,14.4,0,0,1,141.594,44.711Zm-2.553,4.765c2.212-3.744.851-.851,0,.681C136.829,53.39,137.68,51.858,139.041,49.476Zm-2.723,4.765c.511-1.022,1.872-2.553.851-.681C137,53.56,135.977,55.432,136.318,54.241Zm-1.872,1.02-.51.511C133.766,54.921,135.127,54.241,134.446,55.261Zm-.51,1.362c-.17,0-.51.17-.681.17C132.745,56.283,134.446,55.942,133.936,56.623Zm-1.872-2.553c.17.171-.171.681-.171.851C130.532,56.963,131.554,54.411,132.064,54.07ZM130.7,56.793c0-.17.17-.17.17,0C130.532,58.154,129.342,57.644,130.7,56.793Zm-1.021-4.084c.17.17,0,.34,0,.51C128.831,54.581,129.342,52.709,129.682,52.709Zm-.17,6.466a.544.544,0,0,1-.511.511C129,59.005,130.192,58.325,129.512,59.175Zm-1.192-3.914c.171.171,0,.341,0,.511C127.3,57.133,127.98,55.261,128.32,55.261Zm0,4.084a2.974,2.974,0,0,1-.68.851C127.809,58.154,130.192,55.942,128.32,59.345Zm-1.531-1.361c.17-.17.17-.34.341-.17C126.448,59.345,125.768,59.005,126.789,57.984Zm-6.3,16.506c0-.17,0-.17.17-.34C120.493,75.341,119.812,75.341,120.493,74.49Zm-1.7,3.914a.627.627,0,0,1-.17.511C117.94,79.6,118.451,78.064,118.791,78.4Zm-1.531,3.744a1.813,1.813,0,0,1-.341,1.02C115.558,84.36,116.919,81.467,117.26,82.148Zm-1.021,1.872.17.34C115.9,86.062,115.048,85.041,116.239,84.02Zm-.511,1.871a2.424,2.424,0,0,1-.34,1.022c-.479.319-.469-.111-.308-.552.114-.208.2-.376.259-.506C115.5,85.63,115.672,85.552,115.728,85.891ZM96.5,139.834c2.383-12.592,6.637-23.313,10.891-35.224,1.872-4.935,4.254-9.529,5.956-14.294.171-.851.51-.511.51-.851a11.238,11.238,0,0,1,.681-1.872c0-.68.511-.341.341.34-3.064,6.977-5.786,13.1-8.339,20.42-2.382,6.977-5.274,13.784-7.146,20.931C99.222,129.964,95.989,142.9,96.5,139.834Zm.682,2.212c.509-2.382,1.02-4.764,1.7-7.147,1.191-4.594,2.552-8.849,4.084-13.443,2.552-7.147,5.445-15.315,8.508-22.462.34-.851.681-1.871,1.021-2.723,3.914-9.188,7.828-18.548,12.082-27.566.17-.17,6.3-12.763,3.573-6.637-4.764,10.551-9.7,20.931-14.294,31.651-3.573,8.508-6.3,16.676-9.7,25.185-3.233,8.508-3.744,15.144-6.126,23.653C96.5,147.321,96.329,146.47,97.181,142.046Zm3.573,4.254c-.681,2.553-1.022-.68,0-1.872C101.094,144.769,100.924,145.79,100.754,146.3Zm.68-3.573c.17.17.17.17.17.34C100.243,143.237,100.583,141.706,101.434,142.727Zm.851-4.935c-.341-.17-.511-.34-.511-.681l0-.021a42.152,42.152,0,0,1-3.064,8.87c-.511-10.04,6.976-27.4,10.55-37.266l.68-1.872c3.4-9.36,8.338-19.059,12.763-27.907,2.212-4.935,4.254-9.87,6.466-14.635.511-1.021,6.3-11.741,2.893-4.764-5.1,11.061-10.04,21.271-14.634,32.5-4.084,9.529-7.488,18.719-11.231,28.078-2.154,5.385-3.015,11.178-4.347,16.691C102.126,136.474,103.012,137.938,102.285,137.792Zm6.637-22.292v-.34C109.262,114.649,108.751,116.862,108.922,115.5Zm-1.022,2.212c0-.17.171-.51.341-.51C108.581,117.712,106.71,120.1,107.9,117.712Zm-.85,2.042c0-.17.17-.34.17-.51C107.56,118.733,107.05,120.946,107.05,119.754Zm-.851,2.723c-.85,1.872-.341-.34.17-.681C106.539,121.8,106.369,122.477,106.2,122.477Zm-2.723,7.317h.17C103.987,130.305,103.136,131.156,103.476,129.794Zm9.019-3.063c-1.531,2.553-6.807,15.826-8.338,16.677-.681-.681,4.084-10.381,4.765-11.572a27.551,27.551,0,0,1,1.7-3.063C111.474,127.412,115.728,120.435,112.5,126.731Zm8-12.082c-2.042,2.553-.851,0-.17-.68h.17A.517.517,0,0,1,120.493,114.649Zm3.789-6.408c-.174.071-.449.4-.726,1.3a15.419,15.419,0,0,1-1.872,2.723C128.15,100.7,136.659,92.7,145.167,82.829l1.531-2.042C146.538,82.713,126.539,104.629,124.282,108.241ZM147.72,79.6a7.411,7.411,0,0,0,1.02-1.191C151.8,75.511,146.018,82.148,147.72,79.6Zm-11.061,9.189a220.066,220.066,0,0,0-14.533,19.433c5.016-6.7,11.343-15.256,16.574-21.3,1.7-1.872,2.213-1.532,3.744-3.4-2.383,3.063-4.764,5.785-7.146,8.679-7.658,9.358-13.614,18.718-20.591,28.417a90.565,90.565,0,0,0-8.039,13.065c.249-.065.382.087.382.378.449,1.8-.813,1.222-.659.131l-.022.039c.012-.036.024-.068.035-.1a1.56,1.56,0,0,1,.135-.406h0a45.787,45.787,0,0,1,4.822-10.239c-1.307,1.71-5.065,7.014-1.593,1.391,2.88-4.736,5.914-9.167,9.042-13.544,1.564-3.37,3.548-6.346.457-.638,2.458-3.427,4.971-6.828,7.518-10.322,1.816-2.508,7.019-9.237,12.3-15.583-4.108,4.611,1.159-2.205,4.207-5.688a39.015,39.015,0,0,1,3.573-3.913c-1.32,1.76-2.76,3.52-4.114,5.28,3.769-4.343,7.165-7.9,8.88-8.854C146.358,77.213,141.594,83,136.659,88.784Zm25.184,5.786c-1.021,1.361-.51-.341,0-.511C162.014,94.229,161.843,94.57,161.843,94.57ZM163.886,81.3a.624.624,0,0,1,.17-.51C164.4,80.106,163.545,82.658,163.886,81.3Zm-.682-4.084c-.34.851-.51,1.361-.851,2.212C160.142,84.36,163.715,74.831,163.2,77.213Zm-1.531-1.532s0-.17.17,0C161.673,76.873,161.333,76.7,161.673,75.681Zm-1.192,7.658v-.51C160.992,82.148,160.142,84.7,160.481,83.339Zm-1.871-.51a.528.528,0,0,1,.17-.341C158.95,82.148,158.44,84.19,158.61,82.829Zm-.68,17.526.339-.851a100.888,100.888,0,0,1,6.637-13.613c2.042-3.913,0,1.022-.341,1.7a3.06,3.06,0,0,0-.679,1.362c-.511-.171-3.744,7.316-4.255,8.337C159.631,97.462,157.249,102.057,157.93,100.355Zm-1.362-13.442.851-1.532C157.249,86.742,155.036,90.146,156.568,86.913Zm-1.191,2.552.341-.34C155.888,89.805,154.185,91.167,155.377,89.465Zm-1.361,2.552.34-.34C154.526,92.358,152.824,93.719,154.016,92.017Zm-.851,1.532s.34-.341.34-.171C153.675,93.889,151.974,95.25,153.165,93.549Zm-.681,1.7c.17.17-.341.851-.341,1.021C150.612,98.654,151.8,95.761,152.484,95.25ZM151.123,97.8c.17,0,0,.34-.171.51C150.1,99.675,150.612,97.973,151.123,97.8Zm-.851,1.531c.17.17-.171.511-.171.511C149.081,101.207,149.932,99.334,150.272,99.334Zm-1.021,2.212-.34.681C147.379,105.46,149.591,99.165,149.251,101.546Zm1.021,1.7.17-.171c-.17,1.021-2.892,6.3-3.574,7.487C145.848,112.267,149.932,104.1,150.272,103.249Zm-11.231,17.867a26.466,26.466,0,0,1,.851-3.914C139.892,118.393,138.36,125.03,139.041,121.116Zm6.126-14.635c0,.171,0,.511-.17.511C145,105.971,145.507,105.46,145.167,106.481Zm-1.7,3.233c.34.171,0,1.532,0,.851A.757.757,0,0,1,143.466,109.714Zm1.02,19.91-.341,1.191c-1.7,5.786-.339.17.171-1.7C146.188,123.328,145.337,126.561,144.486,129.624Zm23.823,1.191c-.022-.357-.029-.716-.025-1.077q.358-.447.713-.9l.036,1.331q-.354.453-.709.9C168.321,130.985,168.309,130.9,168.309,130.815Zm3.574-9.7a2.679,2.679,0,0,1-.03.493c-.045.056-.091.113-.138.169l.168-1.173Zm1.713.534.2-.231c-.072.125-.144.257-.216.377A1.259,1.259,0,0,1,173.6,121.65Zm1.091-1.893c-.292.379-.612.782-.943,1.194.095-.368.227-.825.389-1.35.439-.461.855-.892,1.243-1.288Q175.034,119.062,174.687,119.757Zm-5.148,6.154c-.353.395-.692.769-1.015,1.118.067-.436.143-.871.232-1.307.39-.5.8-1,1.233-1.513Q169.742,125.079,169.539,125.911Zm-1.726,1.872a18.011,18.011,0,0,1-1.376,1.331,20.014,20.014,0,0,1,1.593-2.44Q167.906,127.232,167.813,127.783Zm-.117.849c-.034.31-.06.618-.07.924-2.418,2.768-4.489,5-4.762,5C162.864,134.559,165.081,131.805,167.7,128.632Zm.724-.877c.316-.382.636-.766.955-1.15-.094.417-.176.822-.249,1.219-.269.313-.537.625-.8.932C168.346,128.423,168.38,128.089,168.42,127.755Zm8.284-12.521q-1,1.473-2.115,2.946c.121-.368.251-.752.385-1.146.6-.664,1.2-1.332,1.806-1.986C176.755,115.111,176.729,115.172,176.7,115.234Zm4.708-8.072c0-.34.341-1.021.681-1.021l-.17.511Zm.681-1.532a.868.868,0,0,1,.68-.85c.171.68-.17,1.021-.51,1.021A.167.167,0,0,1,182.093,105.63Zm4.935-8.678c-.341.51-3.914,7.147-4.084,7.147l.851-2.042c4.764-11.571,13.783-25.525,24.333-33.182C199.109,75.852,192.474,87.423,187.028,96.952Zm20.93-26.886a7.424,7.424,0,0,1-1.531,1.872c-1.192,1.02-1.7,1.361-1.872,1.361A12.505,12.505,0,0,1,207.958,70.066Zm-21.1,36.415a3.283,3.283,0,0,1,1.362-2.042C187.708,105.971,187.028,106.481,186.857,106.481Zm1.362-2.893.85-1.531c.171,0,.682-.85.852-.85C189.751,101.887,188.559,103.588,188.219,103.588Zm3.063-4.594-1.021,1.532v-.171l.51-1.021.341-.51-.171-.34h.171c.68,0,.17-1.192,1.7-2.723l.17.17A16.39,16.39,0,0,1,191.282,98.994ZM210,102.227c-1.531,1.022-6.3,5.106-6.466,5.106l2.382-2.042c.511-.511,6.126-5.106,6.3-5.106Zm11.061-19.059c-2.893,9.02-11.912,19.059-19.229,25.185-2.893,1.7-3.913,3.064-7.487,3.233,3.574-.85,14.8-9.529,18.718-15.655Zm-14.2,14.684L216.992,82.71c-1.394,2.3-2.664,4.823-4.1,7.1A73.323,73.323,0,0,1,206.857,97.852Zm-6.215,5.226a11.006,11.006,0,0,1-3.234,2.382L198.6,104.1l1.021-.85c4.424-3.574,6.637-6.807,9.869-11.572,4.084-5.445,4.766-7.147,7.318-12.082C214.6,87.423,206.427,97.123,200.642,103.078Zm14.974-25.355.17-.34-.17.511Zm-2.043-1.191.171.171c0,.339-.851,1.871-2.553,5.275l-2.722,5.615c.34,0,4.254-5.786,6.465-7.657-4.253,7.147-13.953,20.249-20.079,24.333l-.68.851.34-1.021c3.063-5.275,4.935-9.359,8.508-14.634C204.044,87.933,212.553,76.532,213.573,76.532Zm-14.8,9.359c-.17,0-.17-.17-.17-.34.34-.851.681-1.191.851-1.191a.366.366,0,0,1,.34.34A1.243,1.243,0,0,1,198.769,85.891ZM209.149,75l-9.018,12.423-.511.51C200.981,85.21,206.6,77.042,209.149,75Zm-10.21,13.784A4.723,4.723,0,0,1,197.748,91v-.171l.171-.68Zm8-12.762c-1.532,1.7-2.211,2.382-2.382,2.382a26.858,26.858,0,0,1,3.914-4.594c1.02-.852,1.361-1.191,1.531-1.191A18.475,18.475,0,0,1,206.937,76.022Zm1.872-4.084c-7.147,6.3-12.082,13.953-16.676,21.951-.681,1.192-7.318,13.444-7.657,13.444,3.573-9.19,13.613-24.845,20.079-32.5,1.191-1.021,5.1-3.914,5.275-3.914A3.994,3.994,0,0,1,208.809,71.938Zm-15.145,5.785-.34.681c.681,0,1.021-1.531,1.361-1.872.851-.17.511-1.191,1.362-1.361a61.491,61.491,0,0,1-4.595,6.3ZM178.35,107.5l.339.17c.341,0,.171-1.871.341-1.871.681,0,7.147-13.273,7.488-14.634l.339.169c.681,0,.511-2.042.851-2.381,1.361-.681,1.361-2.383,1.7-2.383a.528.528,0,0,1,.17.341,2.872,2.872,0,0,1,.511-1.192c4.084-5.956,7.828-12.592,14.124-17.016.17-.17,3.4-2.042,4.424-2.042a.166.166,0,0,1,.17.17v.51c-.34.511-7.317,5.956-9.189,8.168-6.637,8.679-11.741,17.7-17.186,26.886l-1.7,2.894c-.887,1.979-1.8,4.342-2.744,6.736q-1.11,1.406-2.267,2.845C176.864,111.609,178.09,108.281,178.35,107.5Zm-7.626,14.3q-.294.909-.557,1.8-.617.695-1.246,1.376.178-.781.386-1.559Q170.015,122.6,170.724,121.8Zm-13.3,14.291c2.723-2.552,5.1-4.764,5.1-4.934a5.374,5.374,0,0,1,.851-1.022c1.8-2,3.565-4.016,5.33-6.034q-.23.794-.434,1.571c-1.967,2.107-3.971,4.165-5.747,6.335a63.678,63.678,0,0,1-4.594,4.425,34.289,34.289,0,0,1-4.765,3.913C152.654,140.685,154.526,138.643,157.419,136.09Zm-.851,5.446c-.171.17-.51.51-.51.51-.17-.17,0-.34.51-.68S157.079,141.025,156.568,141.536Zm4.765-2.383c-.681.681-2.383,1.7-3.4,2.723l-.511.51c-5.445,3.914-1.022.171.681-1.531a20,20,0,0,0,3.063-2.723,3.456,3.456,0,0,1,1.021-1.191c1.893-2.076,3.7-4.219,5.453-6.4a11.718,11.718,0,0,0,.161,1.191C165.689,134.352,163.5,136.856,161.333,139.153Zm7.292-5.867c.159-.225.316-.45.474-.676l.061,2.289A10.893,10.893,0,0,1,168.625,133.286Zm46.479-5.534c0-.067,0-.129.006-.19l.161-.2C215.243,128.229,214.942,129.537,215.1,127.752Zm-1.864-.784c.015-.217.029-.417.041-.6q.864-.828,1.743-1.681c-.023.157-.042.309-.064.464C214.377,125.779,213.805,126.381,213.24,126.968Zm4.58-7.741c.343-.221.681-.455,1.029-.664-.3.344-.7.757-1.156,1.213Q217.756,119.5,217.82,119.227Zm-2.323,2.618c-3.054,2.774-7.044,6.1-8.9,7.609-.681.51-6.977,4.764-7.317,4.764,0-.17.68-.85,2.382-1.871l.851-.511c4.189-3.491,8.5-7.768,13.2-11.171C215.638,121.07,215.563,121.473,215.5,121.845Zm1.573.851,1.174-1.148,0,.017c-.413.46-.815.9-1.214,1.342C217.041,122.837,217.056,122.767,217.07,122.7Zm6.2-12.811c0-.341,0-.51.17-.171,0,.049,0,.1,0,.147l-.232.2A.208.208,0,0,1,223.272,109.885Zm.34-1.021c0-.341.17-.511.17-.17.171.17,0,.34,0,.51C223.612,109.2,223.612,109.034,223.612,108.864Zm6.4-1.372c-.427.91-.825,1.8-1.119,2.563-2.185,4.68-2.218,4.342-.5-.072C228.789,109.415,229.388,108.5,230.007,107.492ZM227.7,115.84c-.17,0-.17-.17-.17-.51.17-.17.17-.34.17,0A.319.319,0,0,1,227.7,115.84Zm-.68-1.531a1.025,1.025,0,0,1-.17.681c0,.17-.17,0-.17-.341C226.846,114.309,226.846,114.139,227.016,114.309Zm-.17,3.573a.32.32,0,0,1,0,.511c-.17,0-.17-.17-.17-.511C226.676,117.712,226.846,117.542,226.846,117.882Zm.85,1.7c-1.191,3.233-1.361,3.063-.34-.17.681-2.212,1.362-3.914,1.362-3.233C228.718,116.351,228.207,117.882,227.7,119.584Zm.852-4.084c0-.17,0-.34.34-.51.17,0,.17.17.17.34C229.058,115.84,228.888,115.84,228.548,115.5Zm.51-1.191c-.17-.17,0-.34.169-.511s.341-.17.341.341C229.4,114.82,229.227,114.82,229.058,114.309Zm.51-.851c-.17-.17-.341-.17-.341-.34.171-.17.171-.17.341-.17l.341.34A.6.6,0,0,1,229.568,113.458Zm.511-1.7-.511.681.341-.681c.34-.85.51-1.02.68-.85A8.832,8.832,0,0,1,230.079,111.756Zm1.021-2.381a2.883,2.883,0,0,1-.34.85c-.171.34-.171.34-.171,0a2.871,2.871,0,0,1,.341-.85C231.1,109.034,231.27,109.034,231.1,109.375Zm1.191-2.383c-.511,1.021-1.021,1.7-1.021,1.531a16.82,16.82,0,0,1,1.021-2.212c.511-.851.851-1.531.851-1.361A17.608,17.608,0,0,1,232.291,106.992Zm1.02-2.723c0-.34.171-.51.341-.851.17-.169.341-.169.341,0C233.822,103.929,233.311,104.61,233.311,104.269ZM248.286,79.6c-6.466,6.467-11.4,14.294-16,23.143-.011.025-.026.055-.038.081a4.422,4.422,0,0,0-.951.5c1.856-3.823,3.91-7.51,5.414-9.939a17.162,17.162,0,0,1,1.531-2.211,101.333,101.333,0,0,1,6.466-8.849,21.982,21.982,0,0,1,2.893-2.553l1.7-1.191Zm2.723-2.722a4.737,4.737,0,0,1-1.362.85,2.839,2.839,0,0,1,1.022-.85,5.244,5.244,0,0,1,1.191-.851C252.03,76.022,251.519,76.362,251.009,76.873Zm-1.021-1.362c-7.657,6.637-13.954,15.145-19.569,26.035-.471.824-1.266,2.462-1.993,4.069a8.81,8.81,0,0,1-.729.526l-.014.013c5.543-12.493,14.8-25.613,22.646-31.664C252.881,72.619,252.541,73.129,249.988,75.511Zm-21.44,25.865c.17-.51.34-.68.34-.169,0,.169-.17.51-.17.68C228.377,102.057,228.377,101.887,228.548,101.376Zm1.19-2.382c.851-1.7,1.192-1.871.511-.34a9.8,9.8,0,0,1-.851,1.531C229.227,100.185,229.4,99.845,229.738,98.994Zm1.192-2.212c.17-.511.68-.851.68-.34-.17.17-.17.34-.34.681C230.93,97.292,230.93,97.292,230.93,96.782Zm.85-1.191c0-.341.17-.51.17-.341q.257,0,0,.511C231.78,96.271,231.61,96.1,231.78,95.591Zm1.192-1.362c0,.511-.511.681-.511,0,0-.34.171-.51.341-.51S232.972,94.059,232.972,94.229Zm.339-1.021c.171,0,.341,0,.171.17,0,.171-.171.171-.34.171l-.17-.171C232.8,93.208,232.972,93.039,233.311,93.208ZM234.673,91c0-.341.171-.511.341-.511.17.17,0,.511-.17.85C234.5,91.677,234.5,91.677,234.673,91Zm2.213-2.723c0,.17,0,.17-.17,0a1.7,1.7,0,0,0-.682.17c-.34.511-.34.34,0,0C236.375,87.933,237.056,87.933,236.886,88.274Zm.17-1.361c.339-.341.339-.341.17.339s-.17.681-.34.341C236.716,87.423,236.886,87.083,237.056,86.913Zm4.084-5.276c1.361-1.7,4.764-4.934,5.105-4.934,0,0-.852,1.02-2.043,2.212a52.851,52.851,0,0,0-4.084,4.594c-1.19,1.191-2.212,2.382-2.382,2.553C237.056,86.742,239.608,83.339,241.14,81.637ZM224.123,100.7c.681-1.531,1.361-2.723,1.531-2.553,0,.17.171,0,0-.17-.17-.511,1.7-3.573,1.872-3.233.17,0,.17,0,.17-.17-.34-.511.511-2.212.852-1.872.17,0,.17-.17.17-.34-.17-.17,0-.341.17-.341s.339-.17.17-.17c-.17-.511.34-1.191.68-1.021,0,.171.171,0,0-.17,0-.34,0-.51.171-.34a.366.366,0,0,0,.34-.341c-.17-.34,0-.51.17-.85.341-.17.511-.341.511-.511.17-.851.34-.851.51-.681.17,0,.17,0,.17-.17a1.3,1.3,0,0,1,.34-.85c.341-.171.511-.341.341-.511s1.02-1.7,1.361-1.531c.17,0,.17-.171.17-.341-.17-.17,0-.17.171-.17s.17-.17.17-.34c-.17-.171,0-.171.17-.171s.34,0,.17-.17.681-1.191,1.7-2.382c1.531-1.7,4.254-4.594,5.274-5.445.682-.511,1.022-.852.682-.852l.34-.339c.34-.171.681-.511.681-.681,0,0,1.531-1.191,3.4-2.383,3.744-2.382,4.254-2.722,4.934-2.892.511,0,.511,0,.171.17a.836.836,0,0,0-.171.51v.17a6.141,6.141,0,0,0-2.551,1.7c0,.17,0,.17-.171,0-.17,0-.34,0-.34.17a27.541,27.541,0,0,1-2.383,2.383,96.52,96.52,0,0,0-9.018,9.7,22.778,22.778,0,0,0-2.723,3.4s-.851,1.191-1.7,2.552c-2.553,3.574-5.616,8.848-5.616,9.7,0,.169-.34.68-.511,1.19a30.032,30.032,0,0,0-2.723,5.275c-.68,1.362-1.19,2.893-1.361,3.234a27.459,27.459,0,0,0-1.206,2.927c-.585.505-1.2,1.036-1.837,1.58A103.862,103.862,0,0,1,224.123,100.7Zm-37.946,38.968c1.191-1.532,11.4-7.147,13.783-8.508,5.616-3.744,10.211-8,15.656-11.572-8.339,8-17.527,16.166-28.929,19.91Zm2.382,1.7,9.019-5.276c6.766-3.96,11.621-8.4,17.651-12.7-.007.048-.014.091-.022.138q-.967.9-1.864,1.711c.01-.49-.052-.4-.206.184A161.494,161.494,0,0,1,199.28,136.26l-1.191.851c-.341.171-10.721,5.446-11.4,5.446Zm4.084,2.212a10.994,10.994,0,0,1-3.233.68l-.511-.17.17-.34.852-.17a4.078,4.078,0,0,1,1.361-.341h-.17L196.217,140a101.048,101.048,0,0,0,16.674-13.262c-.032.225-.06.451-.084.673A102.245,102.245,0,0,1,192.643,143.578Zm21.277-14.595.335-.38c.126-.152.246-.3.372-.453-.087,1.052-.154,2.178-.2,3.516C214.255,130.827,214.088,129.986,213.92,128.983Zm.844,2.853c0-.17.34-.34.34-.17a9.644,9.644,0,0,0,.51,3.063C216.806,138.983,214.253,133.368,214.764,131.836Zm1.872,2.893c.17.511.17,2.382-.17.681-.85-2.832-.4-6.481.065-9.59.384-.477.767-.954,1.144-1.429-.122.665-.241,1.333-.359,2A27.694,27.694,0,0,0,216.636,134.729Zm1.531-1.191c.17-.17.17.51.17.51C218.678,136.941,217.657,134.729,218.167,133.538Zm-.17-1.532c.17-1.7.34-4.084.681-5.956.118-1,.4-2.437.726-3.868l.42-.542c-.634,2.719-.684,5.229-1.146,8.154C218.508,130.134,217.657,135.41,218,132.006Zm5.956-1.531a21.385,21.385,0,0,1,.681-4.595c0-.17.17-.51.17-.68A19,19,0,0,1,223.953,130.475Zm1.531-7.487c-.17,0-.17-.171-.17-.341,0-.34.17-.34.17-.17A.32.32,0,0,1,225.484,122.988Zm.681.68c0-.34.17-.51.17-.34.17.17,0,.51,0,.68C226.165,124.179,226.165,124.008,226.165,123.668Zm18.037,8.679c.511-.171.511-.171.171.17-.341.17-.511.51-.681.51C243.522,132.857,243.692,132.687,244.2,132.347Zm.852,1.021a27.2,27.2,0,0,1-3.575,2.892,37.534,37.534,0,0,1,3.914-3.4C245.563,132.857,245.393,133.027,245.054,133.368Zm45.091-68.407c-5.955,12.252-14.8,33.012-16.675,39.649-.511,1.531-1.532,3.913-1.532,3.4s4.424-12.252,6.977-18.378c3.744-9.529,13.1-30.119,14.294-31.14C293.55,57.984,293.209,58.5,290.145,64.961Zm-19.568,43.9c0-.341,3.4-10.551,5.615-16,3.574-9.7,9.53-23.653,13.444-30.97,2.722-5.615,6.976-13.273,6.976-13.273.17.17-1.021,2.552-2.553,5.445a511.885,511.885,0,0,0-21.44,49.518C270.917,108.523,270.577,109.375,270.577,108.864Zm23.652-52.071a12.128,12.128,0,0,1-.679,1.191c-.171,0,0-.51.34-1.191a8,8,0,0,1,.68-1.361C294.74,55.432,294.57,55.942,294.229,56.793Zm1.022-2.212a2.1,2.1,0,0,1-.34.51c-.171,0,0-.17.17-.51l.34-.681C295.591,53.9,295.421,54.241,295.251,54.581Zm6.637-11.912c-1.7,2.893-3.745,6.466-4.425,7.828a7.592,7.592,0,0,1-1.531,2.382v-.17c2.892-5.445,11.4-20.08,12.082-20.93C308.353,31.268,305.291,36.713,301.888,42.669Zm-5.106,5.616s.17-.511.341-1.021c.34-.511.681-.851.851-.851a8.813,8.813,0,0,1-.511.851Zm4.084-7.318c.511-.85,4.765-8.338,5.276-8.848.51-.851-3.4,6.3-4.424,8C300.866,41.308,300.356,41.818,300.866,40.967Zm17.527-27.226c1.362-.17-2.382,4.084-2.552,4.254C316.351,16.8,317.372,14.421,318.393,13.741ZM313.459,15.1a.593.593,0,0,0-.171.341C311.927,17.655,311.927,16.124,313.459,15.1Zm-3.914,7.658a24.8,24.8,0,0,1,2.382-3.233c.51-.341,4.084-6.467,4.765-6.126-.171.85-5.105,6.976-5.956,8.508-.68,1.021-1.532,2.383-2.042,3.063C308.014,25.823,308.184,25.142,309.545,22.76Zm0,3.4c1.02-1.532,3.743-5.786,3.914-5.786s-1.022,2.383-3.064,5.616c-1.361,1.872-2.381,3.573-2.381,3.573A13.331,13.331,0,0,1,309.545,26.163ZM285.382,62.919c.34-.34.34-.34.17.17a.631.631,0,0,1-.341.511C284.871,63.6,284.871,63.429,285.382,62.919Zm-1.192,1.7c.34-.511.34-.511.17.17,0,.34-.17.851-.34.851C283.68,65.982,283.68,65.3,284.19,64.621Zm-1.872,4.254a7.033,7.033,0,0,1,1.532-2.723c.34,0-.17,1.021-.681,1.361a.628.628,0,0,0-.17.511c.17.17.17.34,0,.34s-.34,0-.34.171v.68a.367.367,0,0,1-.341.34C282.148,69.555,282.148,69.215,282.318,68.875Zm-4.594,10.89c.169-.51.851-2.212,1.531-3.743,1.872-4.425,2.722-6.126,2.893-6.126s0,.681-.51,1.531c-.851,2.042-3.063,7.147-4.595,10.721-1.021,2.893-1.7,4.084-1.7,3.573A53.234,53.234,0,0,1,277.724,79.765ZM273.47,90.826a36.242,36.242,0,0,1,1.7-4.594c.171.17-.17,1.191-.68,2.382C273.64,90.656,272.959,92.188,273.47,90.826Zm-.511,1.191c.171-.34.171-.51.341-.34a.843.843,0,0,1-.17.511C272.789,92.528,272.789,92.528,272.959,92.017Zm-.34,1.191c0-.34,0-.51.17-.169,0,.169,0,.51-.17.51C272.619,93.719,272.448,93.549,272.619,93.208ZM296.442,44.2c3.063-5.276,10.039-17.017,10.21-16.847s-4.084,7.658-6.806,12.082a371.058,371.058,0,0,0-30.888,68.638.859.859,0,0,0-.252-.572l-.047.035C274.945,87.947,284.89,65.284,296.442,44.2Zm-34.631,76.325a6.427,6.427,0,0,0-.591.59,14.173,14.173,0,0,0-1.139,1.293c.087-.413.179-.832.272-1.255l.185-.208.171-.341c.479-.528.986-1.084,1.493-1.654C262.066,119.485,261.94,120,261.811,120.526Zm1.442-5.542c-.676.7-1.344,1.371-1.9,1.924.064-.258.129-.518.195-.778.666-.718,1.325-1.442,1.986-2.169C263.436,114.306,263.346,114.643,263.253,114.984Zm-.843,2.218c.118-.153.239-.294.36-.434-.093.351-.181.695-.271,1.042-.656.763-1.3,1.493-1.865,2.1.062-.269.121-.533.185-.805C261.508,118.291,262.181,117.507,262.41,117.2Zm-2.666,6.84c.035-.009.069-.019.114-.034.17,0,.34,0,.17.171a.539.539,0,0,1-.343.162C259.7,124.242,259.725,124.142,259.744,124.042Zm.284-.714-.189.25c.031-.148.061-.3.092-.447.365-.357.607-.559.607-.484A2.928,2.928,0,0,1,260.028,123.328Zm2.043-9.245c.482-.533,1.26-1.336,2.02-2.092-.089.309-.177.618-.264.925-.566.528-1.161,1.033-1.757,1.563l-.138.14C261.978,114.441,262.024,114.263,262.071,114.083Zm-2.4,4.139c-.025.109-.047.215-.072.323C258.625,119.361,258.491,119.306,259.675,118.222Zm-2.03,4.425c0-.17.341-.34.341,0C257.815,123.5,257.306,122.988,257.645,122.647Zm-.509-1.531c-.171.17-.341.51-.511.51C256.284,121.626,257.136,120.775,257.136,121.116Zm-.682,3.063c0-.124.181-.338.345-.51.009.231.042.292.165.169V123.5h0c.511-.17.68-.17.171.17l-.682.681Zm-8.168,3.573c.682-.68,1.022-.851.511-.17a1.132,1.132,0,0,1-.851.681C247.776,128.433,247.946,128.092,248.286,127.752Zm-.34,7.147c-.17.17-.17,0,0-.17.34-.17.511-.511.851-.851,3.433-3.576,6.63-7.158,9.885-10.835-.075.406-.143.8-.211,1.2C255.267,127.638,248.209,134.768,247.946,134.9Zm9.36-8.508c-.511.681-1.022,1.191-1.192,1.191a19.5,19.5,0,0,1,2.042-2.552l.22-.247c-.044.264-.082.518-.122.777A5.334,5.334,0,0,0,257.306,126.391Zm1.7,9.529c-.341,4.935-.681,1.021-.681-1.021a61.8,61.8,0,0,1,1.273-10.105c.461-.337.76-.8.6-.956,0-.34,0-.34.34-.17.171.17.341.17.171-.17-.171-.17,0-.681.34-1.021a4.88,4.88,0,0,0,.387-.406A92,92,0,0,0,259.006,135.92Zm2.435-13.87c-.006-.018-.074.013-.221.087-.852.51-.682.17.17-.851.065-.066.182-.207.319-.346C261.619,121.313,261.528,121.684,261.441,122.05Zm.8,15.912a.626.626,0,0,1,.17.511C262.749,140.174,261.9,138.473,262.239,137.962Zm.34-4.084c-.17.17-.17,0-.17-.51,0-.341,0-.511.17-.341Zm.34-1.7c-.17.341-.17,0-.17-.51s0-.681.17-.34Zm1.872,6.126c0,.341.171.681.171,1.022C265.3,141.2,264.621,137.962,264.791,138.3Zm0-2.382c.171,0,.171.17.171.34C265.3,137.962,264.451,136.26,264.791,135.92Zm.171-1.531s0-.681.17-.511S265.132,135.41,264.962,134.389Zm.17-1.872c.17-.341.17-.341.17-.17C265.472,133.027,265.132,133.368,265.132,132.517Zm.51-1.021c-.17,0-.17-.17-.17-.511s.17-.34.17-.17C265.812,131.156,265.812,131.326,265.642,131.5Zm.51-2.723q-.255-.51,0-.51c0-.171.171,0,.171.34C266.663,129.114,266.493,129.114,266.152,128.773Zm.341-1.361a.626.626,0,0,1-.17-.511.367.367,0,0,1,.34.341C266.833,127.922,266.663,127.922,266.493,127.412Zm.17-1.191v-.511c0-.17.17,0,.34.34C267.174,126.561,267,126.731,266.663,126.221Zm.851-2.213a.366.366,0,0,1-.34-.34c0-.17.17-.17.34-.17a.594.594,0,0,0,.17.34A.166.166,0,0,1,267.514,124.008Zm0-1.191v-.51c0-.17.17,0,.34.34C268.024,123.158,267.854,123.328,267.514,122.817Zm-1.7-4.084c-.68,2.893-1.532,6.637-2.042,8.509-.34,1.872-.851,3.233-.851,2.892,0-.68,1.7-8.678,2.723-12.422.524-1.958,1.11-3.975,1.724-6.017.3-.535.579-1.075.83-1.64.082-.165.195-.36.308-.57C267.489,112.7,266.585,115.792,265.812,118.733Zm2.893,0c-.17-.17-.17-.51,0-.51,0-.17.17,0,.17.34C269.216,119.074,269.046,119.244,268.705,118.733Zm.341-1.021a.593.593,0,0,1-.171-.34c0-.17.171-.17.171,0a.594.594,0,0,1,.34.17C269.386,117.712,269.216,117.712,269.046,117.712Zm.68-1.872a.366.366,0,0,1-.34-.34c0-.17.17-.17.34-.17a.527.527,0,0,1,.17.34C269.9,115.84,269.9,115.84,269.726,115.84Zm.17-.85a.594.594,0,0,1-.17-.341c0-.17.17-.34.17-.17.17.17.34.17.34.341A.594.594,0,0,1,269.9,114.99Zm.681-2.212c-.17.17-.341.34-.341.17a2.885,2.885,0,0,1,.341-.851c.17-.17.17-.341.17-.17A1.854,1.854,0,0,1,270.577,112.778Zm.34-1.361a.167.167,0,0,1-.17-.171.366.366,0,0,1,.34-.34c.171,0,.171.17.171.34C271.087,111.417,271.087,111.417,270.917,111.417Zm.511-.852a.367.367,0,0,1-.341-.34c0-.17.171-.17.341-.17a.527.527,0,0,1,.17.34C271.6,110.565,271.6,110.565,271.428,110.565Zm.17-1.021c-.34,0-.34-.34,0-.85.34-.341.34-.341.34.17C271.768,109.375,271.768,109.544,271.6,109.544Zm8.168-2.382a2.131,2.131,0,0,0-.34.51c0,.341-.171,0-.171-.68a2.641,2.641,0,0,1,.341-1.362c.17,0,.17-.17.17-.339a.762.762,0,0,1,0-.852c.17-.51.17-.51.34,0C280.446,104.95,280.106,107.162,279.766,107.162Zm.17,5.786c0,.17-.17,0,0-.341,0-.34,0-.51.17-.17C280.106,112.607,280.106,112.948,279.936,112.948Zm1.362-1.7c-.171,0-.341.171-.511.681-.341.68-.341.68-.341-.341,0-.51,0-.85-.17-.85a6.575,6.575,0,0,1,.17-3.064c.17-.339.17-.17.341.511a4.234,4.234,0,0,1,.17,1.361c-.17.341-.17.681,0,.681.17-.17.341.17.341.511C281.468,111.246,281.3,111.417,281.3,111.246Zm12.422,7.487-.511-.851c-.681-1.02-4.765-7.487-1.361-2.382C292.018,115.67,295.421,120.946,293.72,118.733Zm3.4,9.7c3.233,4.765-.341,0-1.191-1.191C291.678,121.286,295.932,126.731,297.123,128.433Zm6.977,5.445c2.042,3.063-6.637-6.806-7.318-7.657C293.209,121.286,304.1,133.878,304.1,133.878Zm-6.637-.68.68.68C300.526,137.111,295.421,131.666,297.463,133.2Zm5.616-55.815A154.866,154.866,0,0,0,289.636,94.4a2.765,2.765,0,0,0-.681,1.531c.17.17.17.17,0,.17-.171-.17-.681.341-1.191,1.191l-1.021,1.362a.6.6,0,0,0-.341-.17c-.341-.171.341-1.361,2.893-5.106a16.572,16.572,0,0,1,1.872-2.552,111.63,111.63,0,0,1,7.657-9.359c1.532-1.7,3.573-3.914,4.595-4.935s1.7-1.871,1.7-1.7a.6.6,0,0,0,.511-.341C305.972,74.32,304.78,75.681,303.079,77.383Zm1.361,0c-.171.34-.51.681-.681.681a2.963,2.963,0,0,1,.51-.681,3.167,3.167,0,0,1,.511-.68C304.95,76.7,304.78,77.042,304.44,77.383Zm-4.424,4.765v.34c0,.341-.17.511-.341.511s-.68.51-1.191,1.021c-.68.68-.68.51.17-.511A8.455,8.455,0,0,1,300.016,82.148Zm-2.893,3.573-.851,1.021a7.96,7.96,0,0,1-.851,1.021c-.17,0,0-.34.851-1.191Zm-4.595,5.786c-.17.17,0-.171.511-.851a8.262,8.262,0,0,1,1.361-1.7c.34-.341.17,0-.341.68a4.776,4.776,0,0,0-.85,1.532v.169C293.039,91.167,292.868,91.336,292.528,91.507Zm-3.744,4.935v.34c0,.17,0,.341-.17.341s-.34-.171-.17-.341A.366.366,0,0,1,288.784,96.442Zm-1.02,2.212a2.03,2.03,0,0,0,.34-1.021c-.17-.171-.17-.171,0-.171.51.341,1.532-1.361,1.362-1.871s0-.51.17,0c.34.34.34.34.34-.171,0-.339.169-.51.34-.51s.17-.17,0-.34c0-.17,0-.341.17-.17s.341,0,.341-.511c0-.34.17-1.021.51-1.191.341-.34.681-.51.681-.17,0,.17.17.17.34-.17.51-.341.51-.341.17.17C291,95.081,290.145,96.1,289.976,96.1a.366.366,0,0,0-.34.341,4.953,4.953,0,0,1-.852,1.7C287.253,100.355,287.083,100.526,287.764,98.654Zm1.361,17.867a42.1,42.1,0,0,1,3.063,5.275C290.656,120.265,284.871,109.885,289.125,116.521Zm.341-12.422a.166.166,0,0,1,.17.17Zm.51,8.168.169-.17a.593.593,0,0,0,.171.34C290.145,112.437,290.145,112.267,289.976,112.267Zm1.872,13.613c.68,1.021,1.7,2.212,2.381,3.234,4.936,6.976-1.19-1.022-2.381-3.064Zm32.841-51.39a4.773,4.773,0,0,0-1.531,2.213,37.49,37.49,0,0,1-3.573,5.445c-.511.681-1.192.17-1.361,1.191-.147.38-.22.6-.256.721,0-.169-.176-.289-1.276.981a149.135,149.135,0,0,1-13.784,15.314c-.681.681-2.212,2.213-3.4,3.233-1.192,1.192-2.553,2.213-2.893,2.553-.511.511-.511.511,0-.17.34-.341,1.531-1.7,2.893-2.893,1.361-1.361,3.4-3.4,4.425-4.594,1.19-1.192,2.042-2.042,2.042-1.872a71.426,71.426,0,0,0,5.955-6.3c1.361-1.532,5.956-7.828,6.977-8.509.681-.34.17-.51,1.021-1.531a36.119,36.119,0,0,0,2.722-4.254,10.843,10.843,0,0,0,1.7-3.064c.321-.965.193-.109.61.275C324.424,73.976,324.555,73.28,324.689,74.49ZM312.778,88.1c-.17.17-.68,1.021-.851.851C311.757,88.444,313.288,87.423,312.778,88.1Zm1.021-1.532c2.042-2.212-.17.341-.681.851C312.268,88.1,313.8,86.572,313.8,86.572ZM325.54,72.278c-.205.38-.367.644-.5.838a13.546,13.546,0,0,1,1.689-5.432C326.9,69.385,326.222,70.747,325.54,72.278Zm.171-4.935c.85.511-.341.851-.341,0A.237.237,0,0,1,325.711,67.343Zm-.341.851h.17a6.49,6.49,0,0,1-.51,1.7C323.5,74.831,324.35,69.555,325.37,68.194Zm-.851-.681c1.192-1.7-.34,1.192-.34,1.7-.17.681-.68,1.362-.851,2.042a39.6,39.6,0,0,1-6.466,11.4c-5.445,7.147,1.021-2.042,1.871-3.574C320.1,76.362,322.817,69.9,324.519,67.513Zm-2.892,3.4c.17.17,0,.851-.171.851C320.266,75,320.946,71.427,321.627,70.917Zm.34-.851c.341-1.021.68,0,0,.34C321.8,70.406,321.8,70.236,321.967,70.066Zm-.681-9.529a3.55,3.55,0,0,1-.169.491.463.463,0,0,1,.51-.151c.85.34-.851,1.361-1.022-.17C321.286,60.026,321.456,59.686,321.286,60.537Zm1.191,7.147c-.169,1.871-6.466,11.061-8,12.932a37.446,37.446,0,0,1-4.084,4.765c-5.275,6.3-10.039,12.252-15.825,17.7-2.212,2.213-3.233,3.063-3.233,2.552a10.168,10.168,0,0,1,2.383-2.212,69.74,69.74,0,0,0,4.934-5.105,198.245,198.245,0,0,0,17.187-20.419,11.457,11.457,0,0,1,1.191-1.872C317.372,75.511,321.8,67.173,322.477,67.684Zm-2.722-8.509c0,.17.17.341,0,.341C318.9,59.686,319.415,58.5,319.755,59.175Zm-.681,7.658a16.893,16.893,0,0,0-2.042,3.744.883.883,0,0,1-.34.68c-.341,0-.171.17,0,.17a4.061,4.061,0,0,0,1.871-1.191l1.362-1.021-.681,1.191c-3.233,5.956-14.975,20.761-22.972,28.928-4.424,4.595-5.275,5.276-5.616,4.935-.34-.17-.34-.681-.34-1.191a1.967,1.967,0,0,0-1.7-1.7c-.34-.169-.68-.34-.68-.51s2.722-4.254,5.275-7.827a118.7,118.7,0,0,1,17.356-19.4C315.331,69.215,320.776,64.961,319.074,66.833ZM306.481,73.3c.341-.341.511-.51.682-.51,0,.169-.171.34-.341.68-.17.17-.341.511-.511.511S306.311,73.639,306.481,73.3Zm1.533-1.191c0-.34.85-1.191.85-1.021.17.17,0,.51-.34.681C308.184,72.108,308.014,72.278,308.014,72.108Zm1.531-1.7a.627.627,0,0,1,.511-.17c.17,0,.17,0,0,.17a.366.366,0,0,1-.341.341C309.545,70.747,309.375,70.577,309.545,70.406Zm1.02-.51a1.689,1.689,0,0,1,.171-.681,3.161,3.161,0,0,1,.511-.68,1.686,1.686,0,0,1-.171.68C310.906,69.555,310.736,69.9,310.565,69.9Zm1.872-1.532a.588.588,0,0,1-.339.171c-.511,0,.339-.851,1.872-1.872,1.19-.851.85-.341-.511.68C312.778,67.854,312.268,68.194,312.437,68.364Zm3.064-6.126c.17-.34.17-.51.34-.34a.843.843,0,0,1-.17.511C315.331,62.749,315.331,62.749,315.5,62.238Zm-7.148,4.595a46.1,46.1,0,0,1,5.787-4.424c1.191-.681.509-.171-1.532,1.361-1.021.851-2.043,1.7-1.872,1.872,0,.17,0,.17-.171,0a2.143,2.143,0,0,0-1.19.68C308.353,67.173,308.184,67.173,308.353,66.833ZM282.829,99.845c-.17-.511,1.531-3.233,5.615-9.019,1.532-2.042,1.7-2.382,5.615-6.977,5.106-6.3,14.8-15.825,18.719-18.548,2.212-1.531,3.743-2.382,3.573-2.042-.169.17-1.02.851-1.872,1.532a31.268,31.268,0,0,0-4.934,3.744c-5.105,4.084-15.316,14.974-14.805,15.825,0,.17,0,.17-.17.17-.341-.17-.85.511-3.573,4.254-1.7,2.383-3.4,4.935-4.765,6.977a19.614,19.614,0,0,1-1.532,2.382,11.633,11.633,0,0,0-.85,1.191Q283.083,100.866,282.829,99.845Zm3.232-.341c0,.851-.169.851-.339.341-.17-.341-.17-.68,0-.68C285.892,98.994,286.061,99.165,286.061,99.5ZM305.8,148c-.852.681-1.022-.681-.171-.34C305.972,147.662,306.142,147.832,305.8,148Zm6.806,2.382c-6.636-2.892-18.549-14.464-21.611-20.93-.681-1.532,0,0-.511-.34a3.963,3.963,0,0,1-.768-1.511c-1.5-2.51-3-5.175-4.336-7.679-2.723-6.3,0-2.552-1.022-5.785l.17-.17c6.467,16,13.1,23.993,26.717,35.054C311.757,149.534,314.649,151.235,312.608,150.384Zm-7.147-15.144c.341.17.681.34.681.68C305.12,136.26,304.61,134.9,305.461,135.24Zm9.188,8h-.17C312.437,142.216,315.841,143.748,314.649,143.237ZM321.8,146.3a80.938,80.938,0,0,1-25.865-24.5c-2.382-3.743,8.508,9.36,8.508,9.53,3.4,3.914,11.571,11.231,16.676,14.124l.511.17C323.158,146.641,324.35,147.662,321.8,146.3Zm3.4,1.362c-1.021,0-1.872-1.362-.34-.341C325.2,147.492,325.37,147.662,325.2,147.662Z"/><path class="cls-1" d="M268.535,134.559a1.019,1.019,0,0,0-.171.681C268.875,135.069,268.875,133.2,268.535,134.559Z"/><path class="cls-1" d="M291.507,93.719c.171-.341.511-.511.511-.68s-.34-.171-.511-.171a1.291,1.291,0,0,0-.34.681C291.167,93.889,291.167,93.889,291.507,93.719Z"/><path class="cls-1" d="M321.117,61.028c-.07.088-.064.14,0,0Z"/><path class="cls-1" d="M320.946,156.851c-.68.851.681.34.17-.171A.167.167,0,0,0,320.946,156.851Z"/><path class="cls-1" d="M292.7,102.057c-.34.34-.51.681-.34.681a3.191,3.191,0,0,0,.51-.681l.511-.511A.914.914,0,0,0,292.7,102.057Z"/><path class="cls-1" d="M289.718,127.6c.029.049.058.1.088.149C289.184,124.268,289.2,125.971,289.718,127.6Z"/><path class="cls-1" d="M310.823,153.978c.112-.125.083-.263-.258-.36-.17,0-.679-.171-.85.17-.336.67.646.532,1.025.263-.007.371,3.23,1.734,3.23,1.1a4.057,4.057,0,0,0-1.872-1.021A3.7,3.7,0,0,0,310.823,153.978Z"/><path class="cls-1" d="M316.521,156.34c-.17,0-.17.17,0,.17C317.2,156.17,317.032,155.319,316.521,156.34Z"/><path class="cls-1" d="M317.2,154.809l-.17.34C317.032,156.34,317.713,153.788,317.2,154.809Z"/><path class="cls-1" d="M317.883,154.809l-.17.34C317.2,156.17,318.9,154.809,317.883,154.809Z"/><path class="cls-1" d="M314.14,155.66h.339C314.99,154.979,313.629,155.149,314.14,155.66Z"/><path class="cls-1" d="M318.224,156.34c-.17.17-.341.34-.341.511C318.563,156.851,318.563,156,318.224,156.34Z"/><path class="cls-1" d="M299.353,144.93c.043-.022.036-.021,0,0Z"/><path class="cls-1" d="M323.965,62.4c-.107-.136-.134-.137,0,0Z"/><path class="cls-1" d="M308.864,152.937c-2.383-.511-.34-.511-1.531-1.021-2.553-.851-5.275-4.424-6.3-4.765-1.531-.681.341-1.191-1.19-1.531-1.361-.136-.658-.6-.493-.69l-.018.009c-.851.511,0-.851-1.361-.17.51-1.361.51-.341-.17-1.021-.852-.681-1.192.851-.511-.851-.511.511-.341-.17-.681-.34a1.339,1.339,0,0,0-.286-.11,4.2,4.2,0,0,0-.054-.571c-.426.107-1.317-.984-1.717-1.4a10.673,10.673,0,0,0-2.2-4.044c-.5-.355-.658-.319-.677-.164-1.442-2.883-7.069-14.135-7.661-15.321-.681-1.192-1.872-6.467-2.043-5.786a7.315,7.315,0,0,0,.682,2.382,80.987,80.987,0,0,0,4.764,12.082c2.213,4.594,2.043,4.084,4.765,7.828,1.7,2.382,1.362,1.021,1.871,2.552,1.022,3.233,5.446,5.786,5.957,6.466a18.233,18.233,0,0,0,4.934,4.595C310.906,155.319,309.886,153.107,308.864,152.937Z"/></svg>