<svg id="Layer_1" data-name="Layer 1" xmlns="http://www.w3.org/2000/svg" viewBox="0 0 473.349 281.955"><defs><style>.cls-1{fill:#f6b570;}</style></defs><title>brush-script</title><path class="cls-1" d="M.285,244.053l.3-1.2C3.3,232,9.023,208.8,10.228,210.006c0,.3-1.2,4.519-3.013,9.943-3.014,9.34-5.725,20.789-6.026,25.008C.888,247.668-.619,247.668.285,244.053ZM12.035,277.2c-1.2-2.712-.9,1.2-3.917-3.013A30.256,30.256,0,0,1,3.3,263.637a29.744,29.744,0,0,1-.9-7.231,43.076,43.076,0,0,1,.9-8.738,67.319,67.319,0,0,1,1.205-6.93c3.615-15.065,12.654-43.086,18.982-59.356a22.942,22.942,0,0,0,2.109-5.724c.3-.6,1.2-3.013,2.109-5.424,5.424-12.956,7.834-18.68,9.642-22.6,1.2-2.41,3.013-6.327,3.917-8.738,1.2-2.41,2.41-5.122,2.712-6.026a27.165,27.165,0,0,0,1.506-2.712,11.751,11.751,0,0,0,1.205-2.711c.6-.9.9-2.109,1.206-2.411a11.872,11.872,0,0,1,.6-1.808c4.218-7.231,7.533-14.161,7.231-14.763,0-.3,0-.6.3-.6.6.6,1.506-.9.9-1.807a.3.3,0,0,1,.3-.3c.3,0,1.807-2.712,3.615-5.725C68.982,84.063,89.47,50.016,95.8,41.88a29.616,29.616,0,0,1,2.11-3.012c.6-.905,2.41-3.315,3.917-5.123,1.2-1.807,3.012-3.916,3.313-4.82.3-.6.9-1.206,1.206-1.206s.3-.3.3-.6c-.3-.3,0-.6.3-.6s.6-.3.3-.6c0-.6,0-.9.3-.6.6.3.6.3.6-.3-.6-1.507.3-2.712.9-2.11.9.9,3.014-1.506,3.616-3.917.6-1.807,3.917-6.628,5.423-8.134a15.257,15.257,0,0,0,1.808-2.11c1.206-1.2,2.712-1.2,2.109.3-.3.3,0,.3,1.2-.3,4.219-2.41,3.917-.6,1.2,2.11-.6.6-1.2.9-1.506,1.205l.6-1.507c.6-1.2.9-1.506-.3-.6a6.134,6.134,0,0,0-1.808,2.711A39.97,39.97,0,0,1,119.6,16.27a5.4,5.4,0,0,0-1.507,2.109c0,.3-11.147,14.161-11.75,14.764-1.206,1.2.9-3.616,3.314-6.93v-.3c-1.206-.3-15.969,21.09-24.1,34.348-28.925,47.3-56.042,105.756-72.613,157.881-3.917,11.449-6.93,22.3-8.135,27.418-.9,5.123-2.411,12.956-1.206,18.078.6,2.712,2.411,4.218,2.109,0a41.044,41.044,0,0,1,1.205-12.052c2.11-8.737,4.822-17.776,7.534-26.514,3.313-10.244,9.641-29.226,11.449-34.047.6-1.205,1.506-3.917,2.108-5.423s2.11-5.424,3.315-8.437c1.205-3.314,2.411-6.628,2.712-7.532a4.5,4.5,0,0,1,.9-2.11c.3-.3.6-.6.3-.6s-.3-.3.3-.6c.3-.3.6-1.506,1.2-2.41a33.3,33.3,0,0,1,.9-3.314c.3-.3,1.808-3.917,3.616-7.834,1.506-3.917,3.013-6.93,3.314-6.629.3,0,.3,0,.3-.3-.6-.9,2.41-7.533,3.014-7.533.3,0,.6,0,.3-.3-.3-.6,1.807-5.122,5.724-13.257.905-1.507,1.808-2.712,2.11-2.712,0,.3.3,0,0-.3,0-.9,2.712-6.93,5.724-12.052.3-.9,3.013-5.725,5.725-10.847,13.859-26.514,31.637-55.138,43.086-70.2a48.983,48.983,0,0,1,7.231-7.833l1.2-1.206c.3-.9,7.834-10.847,5.423-6.327-.9,1.808,6.629-6.629,6.931-3.013,0,1.205,1.205.3,2.41,3.314.6,1.808-.6-.3-1.2,1.206,0,.3.6.3.6-.3,5.423.3,2.11.9,4.52,2.712,1.506,1.205,3.917,3.013,3.917,5.423,0,2.712,6.327,3.315,1.808,6.93-16.572,13.86-38.266,44.291-53.33,72.011-3.315,6.327-6.629,12.654-9.944,18.68-12.955,25.611-26.815,55.741-37.059,81.05-7.533,18.681-18.379,49.715-18.681,54.234a14.478,14.478,0,0,1-1.2,4.519c-.3.9-2.11,6.629,0,2.411,2.41-5.423,4.519-9.943,4.519-9.641a40.229,40.229,0,0,1-1.506,4.218A135.458,135.458,0,0,0,18.664,278.1c-1.507,4.519-.3,5.122-4.217,1.506C12.94,278.4,13.542,280.812,12.035,277.2ZM3.3,269.061A2.35,2.35,0,0,1,4.5,270.266C6.01,272.375,3,269.663,3.3,269.061Zm3.917.3a.3.3,0,0,0-.3.3C7.215,270.869,8.118,269.965,7.215,269.362Zm.3-7.834a3.271,3.271,0,0,0,.3,1.507v-.3C7.818,261.83,7.818,259.118,7.516,261.528Zm.6,4.219-.3-.905C7.818,268.157,10.228,272.375,8.118,265.747Zm.3-9.943c-.6.9,0,2.41.3.6C8.721,256.105,8.721,255.8,8.42,255.8ZM9.625,206.39s.9-2.711,2.11-5.724c2.41-6.629,4.217-10.245,4.519-9.341s-6.026,15.366-6.327,15.366S9.625,206.691,9.625,206.39Zm2.11,56.042q.45-2.259.9-4.519c1.206-5.424,3.616-14.162,6.328-23.5C28,201.871,50.9,147.034,71.09,109.07c4.821-9.039,5.122-10.244,3.616-7.532-1.807,2.41-12.353,22.9-19.283,37.662C38.852,173.85,24.691,210.91,15.35,243.149c-1.808,6.628-5.725,19.283-4.218,25.61C11.735,266.65,11.433,264.541,11.735,262.432Zm.3-14.462c0-.6-.3-.6-.3.3,0,.3,0,.6.3.6Zm2.412-8.136c.6-2.108,2.41-7.532,3.916-12.353,3.013-10.244,8.738-25.912,10.545-31.335a19.185,19.185,0,0,0,1.808-4.52c1.2-3.313,15.366-37.059,18.078-42.483.3-.6.3-.9-.3-.9-.3,0-.3,0-.3.3.3.3,0,.6-.3.9a.578.578,0,0,0-.3.905s0,.6-.3.6c-.3.3-.6.6-.3.9,0,.3,0,.3-.3.3s-.6.6-.9,1.507-2.11,4.82-3.917,9.039c-3.917,8.737-10.546,24.405-13.257,32.54-.905,1.808-2.411,6.327-3.617,9.642-2.41,6.628-6.929,20.488-8.737,27.117-.9,2.41-1.807,5.423-2.109,6.628a31.282,31.282,0,0,0-.9,3.616C13.24,242.848,13.844,241.944,14.447,239.834Zm1.505,16.874c7.834-29.227,22.9-69.6,39.772-106.058,2.109-4.52,4.519-9.943,5.424-11.751,2.712-6.628,3.615-8.436,4.217-9.34a17.487,17.487,0,0,0,1.507-3.314c3.013-5.725,9.944-19.585,12.655-24.707,2.109-3.314,3.616-6.328,3.616-6.93,0-1.2-9.039,15.667-15.969,29.829-2.109,3.917-3.917,7.532-4.219,8.135s-1.2,2.41-1.807,3.917c-.905,1.807-2.11,4.218-3.013,5.724-.6,1.507-1.507,3.616-2.109,4.821-2.411,5.424-7.232,15.366-8.135,16.571-.6.6-.9,1.507-.6,1.809a1.948,1.948,0,0,1-.6,1.506,2.053,2.053,0,0,0-.9,1.506,6.815,6.815,0,0,1-1.206,2.712c-2.711,4.52-13.86,32.842-19.585,50.016C21.376,232.3,16.254,247.97,14.145,259.72c-.6,2.411.3,11.149.3,2.712v-.3A36.365,36.365,0,0,0,15.952,256.708Zm.9-71.107c1.205-2.712,2.109-4.821,1.807-5.424a24.471,24.471,0,0,1,1.507-4.218c.9-1.808,1.808-3.616,1.506-3.917a17.616,17.616,0,0,1,1.507-3.917,26.223,26.223,0,0,0,1.807-4.52,13.55,13.55,0,0,1,2.11-4.519c.9-2.109,1.807-3.917,1.507-4.218a31.5,31.5,0,0,1,2.108-4.821c1.507-2.712,2.411-4.82,2.109-5.122s0-.3.3,0c.6.3.6.3.6-.6-.3-.6.9-3.012,2.41-6.026s2.712-6.025,3.013-6.628c0-.6,1.506-3.616,3.012-6.629,1.809-3.013,3.014-5.725,2.712-6.026,0-.3,0-.3.3-.3.3.3.9.3.9-.3.3-.3.3-.6,0-.6-.3.3-.6,0-.3-.3.3-.6.6-.9.9-.6s.3,0,.3-.3c-.3-.6,1.2-3.314,3.012-6.629a41.924,41.924,0,0,0,3.014-6.327c-.3-.6,0-.6.3-.3.6.6.6.3.3-.3,0-.6,0-.9.3-.6.3,0,.6,0,.905-.6,0-.3,0-.6-.3-.3-.3,0-.3-.3,0-.6a.59.59,0,0,1,.6-.6c.3.3.6,0,.3-.3,0-.6,8.437-16.27,15.667-27.418C72.6,69.9,73.8,67.491,73.5,67.189c0-.3,0-.6.3-.3.3,0,2.109-2.711,4.219-6.327,2.108-3.314,3.917-5.725,4.218-5.725.3.3.3.3.3,0-.3-.9.9-3.314,1.808-3.314a.418.418,0,0,0,0-.6c0-.3,0-.6.3-.3.3,0,.6-.3.3-.6,0-.3,0-.6.3-.6s.6-.3.3-.9c0-.6,0-.6.6-.3.3.3.6.3.3-.3s0-1.2,0-.9c.3,0,1.205-1.205,2.109-2.711.9-1.206,1.507-2.411,1.807-2.109.3,0,.3,0,.3-.6-.3-.6,0-.9.3-.9s.6,0,.3-.3c0-.3,0-.6.3-.6s.9-.6,1.205-1.506c.6-.9,1.206-1.507,1.506-1.2,0,.3.3,0,0-.3a4.284,4.284,0,0,1,.6-1.807c.6-.3.9-.9.6-.9,0-.3,0-.3.3-.3s1.2-.9,1.808-2.109,1.2-2.109,1.507-2.109c.3.3.6,0,.3-.3,0-.3,0-.6.3-.6s.6-.3.9-.9.6-.9.905-.9c.3.3.3,0,.3-.3-.3-.6,0-.9.3-.9s.6-.3.3-.6c0-.3,0-.3.3-.3s.9-.6,1.2-1.507c.6-.9,1.2-1.507,1.507-1.2s.3,0,.3-.6q-.451-.9,0-.9c.3,0,.9-.6,1.506-1.507.3-.6.905-1.205,1.2-1.205,0,.3.3,0,.6-.6.3-.9.6-1.2,1.206-.9.3.6.3.3.3-.3-.3-.6,0-.9,0-.9.3,0,.9-.6,1.507-1.507.3-.9.9-1.506,1.2-1.2s.3,0,.3-.3a9.843,9.843,0,0,1,1.808-2.41c.6-.6,1.506-1.507,1.506-1.809h.6c.3.3.3.3.3-.3-.3-.9,1.808-2.712,2.109-1.807.3.6.3.6-.3.3-.3-.6-.6-.3-.3.6,0,.6,0,.9-.3.9-.3-.3-.6,0-.9.6s-.6.9-.9.9c-.3-.3-.6.3-1.2,1.506-.3.9-.905,1.507-1.206,1.507-.3-.3-.6,0-.9.6s-.6.9-.9.6-.6.3-.3.9c0,.9,0,1.205-.3.6,0-.3-.6,0-1.2,1.205-.3.9-.9,1.807-1.2,1.506s-.9.6-1.507,2.109c-.6,1.206-1.2,2.109-1.5,1.808-.3,0-.905.6-1.206,1.506-.6,1.206-1.206,2.11-1.506,2.11a5.5,5.5,0,0,0-1.808,2.41c-.6.9-1.2,1.808-1.507,1.808s-1.2.9-1.807,2.109-1.2,2.109-1.507,2.109c-.3-.3-.3,0-.3.3.3.3,0,.6-.3.6L95.2,36.758c-.6,1.507-1.507,2.712-1.808,2.712s-1.507,1.507-2.41,3.615C89.47,45.5,88.566,47,88.265,46.7s-.6,0-.3.6v.6c-.3-.3-9.942,15.066-9.942,15.969a.934.934,0,0,1-.6-.3c-.3-.3-.6-.3-.3.3.3.9,0,.9-.3.6s-.6,0-.3.6,0,.9-.3.6-.6-.3-.3.3c.3,1.2-.9,3.616-1.807,3.014,0,0-.3,0-.3.6,0,1.506-.3,2.109-.9,1.506-.3-.3-.3,0-.3.6.3.6,0,.9-.3.6s-.6-.3-.3.3c.3.9,0,.9-.3.6s-.6,0-.3.6c0,.6,0,.6-.3.3s-.6,0-.3.6c0,.6,0,.9-.3.6-.6-.3-.6-.3-.3.3,0,.6-3.315,7.231-8.437,15.969-4.821,8.135-8.737,15.065-8.436,15.668.3.3,0,.3-.3,0-.3,0-.9.6-1.507,1.506-1.507,2.411-1.2,3.013,0,.9,2.41-3.615,1.2-.9-2.712,5.724-4.82,8.738-4.82,8.136-3.917,7.834.6-.3-1.205,3.616-4.82,9.642-2.712,4.821-3.014,5.725-2.411,5.423a.935.935,0,0,1,.6-.3c0,.6-3.013,6.026-5.424,9.943-1.506,3.013-2.109,4.218-1.205,3.616.9-1.205.9-1.205-.6,2.109a28.2,28.2,0,0,1-2.41,4.519A8.836,8.836,0,0,0,27.7,161.2a31.541,31.541,0,0,1-2.712,6.026,52.413,52.413,0,0,1-3.012,4.52c0,.3.3.3,1.205-.6l1.2-1.205-.6,1.205c0,.9-1.205,3.013-2.41,5.122-2.712,4.52-2.712,4.52-1.507,3.616.905-.6.905-.3.6.6-1.506,4.218-5.725,11.449-5.725,10.244A38.113,38.113,0,0,0,16.857,185.6Zm-.6,80.748c.3-1.808.9-3.616,1.2-5.423.6-2.11,1.205-5.424,1.808-6.93.9-2.411.6-4.219,0-2.712a109.294,109.294,0,0,0-4.218,24.1C15.35,272.375,15.952,269.362,16.254,266.349Zm3.917-17.777c-.3-.3-.3,0-.3.6-.3.9,0,1.2,0,.6A1.806,1.806,0,0,0,20.171,248.572Zm1.205-1.506c.3-.6,0-.9-.3-1.206s-.6,0-.6.6,0,1.205.3,1.205A.648.648,0,0,0,21.376,247.066Zm.3-4.218c0-.6-.3-.3-.3.3s0,.9.3.6C21.677,243.751,21.979,243.149,21.677,242.848Zm1.507-5.424c0-.3-.3-.3-.3.3s0,.9.3.9C23.184,238.328,23.485,238.027,23.184,237.424Zm1.2-1.808c-.3-.6-.3-1.205-.6-.6s0,2.109.3,2.109S24.389,236.521,24.389,235.616Zm.6-3.314c-.3-.3-.3,0-.6.6,0,.6.3.9.3.6A1.816,1.816,0,0,0,24.991,232.3Zm.6-2.109c0-.6-.3-.3-.3.3s0,.9.3.6Zm.6,21.392a13.364,13.364,0,0,0,.9-2.41c.3-.3.3-.3.3-.6a3.006,3.006,0,0,1,.3-1.205c.6-1.808,1.507-2.712,1.205-.9,0,.6-.6,1.507-.6,1.808a39.131,39.131,0,0,0-1.808,3.616c-.6,1.807-1.205,2.711-1.205,2.41A8.869,8.869,0,0,1,26.2,251.585Zm.3-24.1c-.3-.3-.3,0-.6.6,0,.9.3,1.2.3.9A3.28,3.28,0,0,0,26.5,227.481Zm.9-66.587c-.3,0-.6.3-.9.6-.3.9-.3.9.3.3C27.1,161.5,27.4,161.2,27.4,160.894Zm-.3,64.478c0-.3-.3-.3-.3.3s0,.9.3.9Zm.6-2.109c0-.3,0-.3-.3.3,0,.6,0,.9.3.9C28,224.167,28,223.866,27.7,223.263Zm1.205,26.514c.3-.6,1.808-3.917,3.616-7.231,9.641-19.283,23.5-41.579,37.663-60.862,5.423-6.93,15.366-19.284,18.68-23.2a13.5,13.5,0,0,0,2.11-3.012s.6-.6.9-.6c1.2-.6,1.507-2.109.3-2.109a11.435,11.435,0,0,0-1.507,1.808,27.079,27.079,0,0,1-3.013,3.615,15.165,15.165,0,0,0-1.808,2.411l-1.2,1.205c-.9.6-2.109,2.41-3.315,3.616a8.444,8.444,0,0,1-2.41,2.41,1.051,1.051,0,0,0-.3.6c0,.6-1.507,2.712-3.013,4.52-1.808,2.109-3.916,4.821-5.423,6.629-1.2,1.807-2.41,2.711-2.712,2.41s-.6-.3-.3.3c.3.3-.3,1.206-.9,2.11a26.07,26.07,0,0,1-2.11,3.012c-1.5,2.712-4.217,6.027-4.519,6.027s-.6.6-.6.9a11.232,11.232,0,0,1-1.807,3.013,5.389,5.389,0,0,0-1.507,2.109.648.648,0,0,1-.6.6,1.055,1.055,0,0,0-.6.3,9.529,9.529,0,0,1-2.109,3.917c-.3-.3-.3,0-.3.3.3.3,0,.6-.3.6s-.9.9-1.205,2.109C50,208.5,49.4,209.4,49.1,209.4c0-.3-.3,0,0,.3,0,.3,0,.6-.3.6-.6.3-3.917,5.423-4.218,6.629a2.054,2.054,0,0,1-.9,1.506c-.3.3-.6.9-.3,1.2,0,.3,0,.3-.3.3s-.6.3-.3.9c0,.6,0,.9-.3.6-.6-.6-2.109,2.411-1.808,3.315.3.3,0,.3-.3.3-.6-.6-.6-.3-.9,1.205a4.583,4.583,0,0,1-1.2,1.808,2.146,2.146,0,0,0-.9,1.808c0,.6,0,.9-.3.6-.3,0-.6,0-.9.6-.3,1.2-.3,1.2.3.9.3,0,.3.3,0,.6a.59.59,0,0,1-.6.6c-.6-.6-2.108,2.41-1.807,3.315.3.6.3.6-.3.3-.3-.3-.6-.3-.3.3a3.173,3.173,0,0,1-.6,1.506c-.6.6-.9,1.205-.6,1.507.3.6-.9,1.205-1.2.9-.9-1.206,16.269-31.034,25.61-45.195C63.257,185.6,63.86,185,65.365,182.889l1.809-2.41a15,15,0,0,1,1.808-2.411c2.108-3.013,3.012-3.917,4.217-5.725,1.507-2.41,17.476-21.994,18.983-23.5l1.808-1.808c.6-.6,1.2-1.2,1.505-.9s-.6,1.507-1.505,2.712c-3.013,3.013-3.315,3.314-3.013,3.314s2.108-1.807,4.218-4.218c11.148-12.052,21.693-20.488,35.252-29.829,6.628-4.82,2.41-2.41-1.206-.3a6.543,6.543,0,0,1-2.41,1.506,190.163,190.163,0,0,0-25.309,21.393l-.6.6c-4.82,4.82-7.532,6.327-3.314,1.506a226.53,226.53,0,0,1,25.008-22.3c8.436-6.328-.9-.3-3.315,1.2-3.615,2.41-7.532,4.821-10.847,7.231a6.426,6.426,0,0,1-2.711,1.808c-.3,0,1.206-1.205,3.013-2.41,5.725-4.821,6.629-5.424,6.629-6.026,1.506-2.11,16.571-11.45,19.283-12.655,7.533-1.506,12.052,1.808,17.475,6.629,2.411,2.109,9.039,7.532,9.642,10.545,1.808,7.231-6.026,27.419-9.34,34.951-2.11,4.821-4.219,9.34-6.629,14.161-8.437,16.571-18.078,33.444-29.828,47.907-4.52,5.122-7.232,9.039-12.354,13.86a46.432,46.432,0,0,1-5.724,5.122c-6.629,4.82-14.463,3.012-20.188.3-7.231-3.917-16.873-10.244-15.366-17.777.6-4.519,6.929-22,9.341-26.514-.6,7.833-2.712,21.392-2.712,22.6,0,.6,2.41-7.532,3.917-11.449.9,12.052,2.108,19.283,6.628,17.777,0-.3.3-.6.9-.3.6,0,6.026-4.218,12.353-10.545l2.109-2.109-1.506,2.109c-.9,1.2-2.109,3.013-3.014,4.218-1.2,1.205-1.807,2.109-1.506,2.109s7.533-8.738,7.533-9.34c0-.3-.3-.3-.6,0s-.6,0-.3-.3a1.489,1.489,0,0,1,.905-.3c1.2.9,19.885-26.514,29.226-42.784,1.506-3.014,3.615-6.328,3.917-7.232a23.272,23.272,0,0,0,1.2-2.109c0-.3,0-.6.3-.6a.648.648,0,0,0,.6-.6,28.241,28.241,0,0,1,1.205-3.013c3.013-4.821,11.45-23.5,12.353-27.117.3-1.808.3-1.808-.6.6-2.11,5.122-2.41,5.122-1.808,1.808l.6-3.616-1.507.9-1.506.9.6-2.411c.3-1.2.9-2.41,1.206-2.41a1.131,1.131,0,0,0,0-1.808c-.6,0-10.847,6.327-14.162,9.039-19.885,14.764-42.483,40.374-65.683,74.12-3.615,5.122-6.629,9.34-6.629,9.34a3,3,0,0,0-.3-1.205c0-.6.3-.9.6-.6s.3,0,.3-.6c-.3-.3,0-.9.3-.6.3,0,.3-.3.3-.6-.3-.3,0-.6.6-.6.3-.3.6-.6.6-.9-.3-.3,0-.6.6-.6.3,0,.9,0,.9-.3.3-1.506.6-2.41,1.2-2.711a.578.578,0,0,0,.3-.905,2.288,2.288,0,0,1,.6-1.205c.6-.3.905-.9.6-1.2,0-.3,0-.3.3,0,.6.3.6.3.6-.3-.3-.6,0-.9.6-1.2a.648.648,0,0,0,.6-.6c-.3-.6,0-.6.3-.6s.3-.3.3-.6c-.3-.3,0-.6.3-.6.3.3.3,0,.3-.6-.3-.3-.3-.3,0-.3.6.6,2.712-2.41,2.41-3.314-.3-.3,0-.3.3,0s.6.3.6-.3c-.3-.3,0-.9.6-1.205.6-.6.6-.6.3-.6q-.9.451,0-.9a4.578,4.578,0,0,1,1.809-1.205c.3,0,.3-.3,0-.6,0-.3,0-.6.6-.3.3,0,.3-.3.3-.6-.3,0,0-.6.9-.9a1.615,1.615,0,0,0,.9-1.205,2.054,2.054,0,0,1,.9-1.507c.9-.6.9-.9.6-.6-.9.3-.9.3,0-.6.3-.6.905-1.205,1.2-1.205.3-.3.905-1.206,1.808-2.411.9-1.808,1.2-2.712.9-3.314s-.6-.6-.6-.6c0,.3-.3.6-.3.9-.3.6-2.108,2.712-2.41,2.41a31.033,31.033,0,0,1,2.109-3.013,23.744,23.744,0,0,0,3.315-4.218,24.4,24.4,0,0,1,2.711-3.013c.9-.9,1.808-1.506,1.507-1.506-.3-.3,1.807-2.712,7.231-8.738,2.712-3.013,5.423-6.026,6.025-6.628a75.234,75.234,0,0,1,6.931-6.931l4.52-4.519c2.41-2.109,4.82-4.218,5.422-4.821.6-.3.905-.6.6-.9-.3,0,0-.3.3-.6s.9-.6,1.2-.3.6,0,.3-.3,0-.6.6-.6c.3,0,.6,0,.6-.3-.3-.6,1.808-2.41,2.109-1.808.3.3.3.3.3-.3a.647.647,0,0,1,.6-.6c.3,0,.6,0,.3-.3-.3-.6,1.809-2.109,2.411-1.808.3.6,7.231-4.218,7.833-5.122s-.3-2.109-.6-.6c-.3.6-.6.9-1.205.9a6.811,6.811,0,0,0-2.712,1.205,6.971,6.971,0,0,1-2.109,1.506c-.3.3-.6.9-.9,1.205,0,.3-.3.3-.6.3s-3.615,2.712-7.834,6.026c-3.916,3.314-7.23,5.725-7.23,5.423,0-.6,0-.6-.6,0-.3.6-.9.9-1.206.6,0-.3-.6.3-.9.9a5.2,5.2,0,0,1-1.808,1.807c-1.206.6-1.206.905-.6,1.206.6.6.3.9-1.808,3.013l-2.712,2.711,2.11-2.41c2.712-3.013,2.712-3.314.6-2.109-1.2.6-1.807,1.2-1.5,1.506s-1.809,2.11-2.11,1.507c-.3,0-.6,0-.3.3s0,.6-.3.6-.6.3-.3.6,0,.6-.6.3c-.6,0-.9.3-.6.3a1.613,1.613,0,0,1-.9,1.205c-.6.3-1.206.9-1.206,1.206,0,.6-.6,1.205-1.2,1.807-.6.3-1.205.9-1.205,1.2s-.9,1.205-1.807,2.11S89.47,161.2,89.47,161.5a.648.648,0,0,1-.6.6c-.3,0-.6.6-.9.9a2,2,0,0,1-1.506,1.205c-.6.3-1.206.6-1.206,1.507,0,.6-.3.9-.6.9-.3-.3-.6,0-.9.6-.3,1.2-2.712,3.917-3.013,3.616h0a2.605,2.605,0,0,1-.9,1.808,5.213,5.213,0,0,0-.9,1.2c.3.3,0,.3-.3.3a.648.648,0,0,0-.6.6c0,.9-2.411,3.013-2.712,2.41-.3-.3-.3,0,0,.6,0,.6,0,.9-.3.6-.6-.3-2.108,1.206-1.808,2.11.3.3,0,.6-.3.6-.6-.3-10.848,13.559-10.546,14.462,0,.3,0,.3-.3,0-.3,0-.9.6-1.506,1.808-.6.9-1.507,1.808-1.507,2.109-.9.3-2.712,3.315-2.712,4.219,0,.6-.3.9-.6.9a.648.648,0,0,0-.6.6,4.013,4.013,0,0,1-.9,1.506c-.6.3-.9.905-.6.905s.3,0,0,.3c-1.205.6-7.231,10.847-6.93,11.449,0,.6,0,.6-.3.3-.6-.6-9.642,15.367-15.366,27.118-2.712,5.122-3.014,6.026-3.014,4.82A4.678,4.678,0,0,1,28.908,249.777Zm-.3-28.623c-.3-.3-.3-.3-.3.3-.3.6,0,.9,0,.9C28.608,222.058,28.608,221.757,28.608,221.154Zm.6-2.109c0-.3-.3-.3-.3.3s0,.9.3.9C29.511,219.949,29.511,219.647,29.21,219.045Zm0,25.309c.3-.3.9,0,.9,0,.3.3,0,.3-.6.3S28.908,244.354,29.21,244.354Zm.9-1.808c.3,0,.3-.3.3-.6-.3-.3,0-.3.3-.3.6,0,.6,0,0,1.205-.3.9-1.506,1.2-1.205.3A.649.649,0,0,1,30.114,242.546Zm0-25.309c-.3-.6-.3-.6-.3.3a.416.416,0,0,0,0,.6A1.107,1.107,0,0,0,30.114,217.237Zm.6-2.109c0-.6-.3-.6-.3.3,0,.3,0,.9.3.6C30.716,215.73,31.018,215.429,30.716,215.128Zm.9-2.109c-.3-.6-.3-.3-.3.3-.3.3,0,.9,0,.6A1.108,1.108,0,0,0,31.62,213.019Zm.9-1.808a6.257,6.257,0,0,0,.6-1.808c0-.6-.3-.6-.6.3a3.231,3.231,0,0,0-.6,1.807C31.921,211.813,31.921,211.813,32.524,211.211Zm1.206-3.917c-.3-.6-.3-.6-.3.3a.417.417,0,0,0,0,.6A1.1,1.1,0,0,0,33.73,207.294Zm.6-2.109c0-.6-.3-.3-.3.3,0,.3,0,.9.3.6A.565.565,0,0,0,34.332,205.185Zm.9-1.808a6.239,6.239,0,0,0,.6-1.808c0-.6,0-.6-.3.3a4.286,4.286,0,0,0-.6,1.808C34.633,203.98,34.935,203.98,35.236,203.377Zm2.109-5.725c-.3-.3-.3-.3-.3.3-.3.6,0,.9,0,.9C37.345,198.557,37.345,198.255,37.345,197.652Zm1.507,44.894c.9-.9.9-.9.3,0a10.009,10.009,0,0,1-.9,1.808c-.3.9-.3.9-.3,0A9.883,9.883,0,0,1,38.852,242.546Zm-.3-48.509c0-.3,0-.3-.3.3,0,.6,0,.9.3.9C38.852,194.941,38.852,194.64,38.55,194.037Zm1.507,46.4a2.246,2.246,0,0,1,.9-.9c.3.3-.6,1.808-1.2,1.808C39.454,241.341,39.755,240.738,40.057,240.437Zm.6-51.522c0-.3,0-.3-.3.3,0,.6,0,.9.3.6C40.96,189.819,40.96,189.216,40.659,188.915Zm2.712-5.725a6.012,6.012,0,0,0,.9-2.41c0-.6-.3,0-.6.9a6.819,6.819,0,0,0-1.2,2.712C42.467,184.7,42.768,184.4,43.371,183.19Zm0,51.824c.9-.9.9-.9.3.3-.9,1.507-1.2,1.808-1.2,1.206A4.012,4.012,0,0,1,43.371,235.014Zm.3-109.975c.3-.6.6-.9.6-1.2s0-.3-.6,0a5.092,5.092,0,0,0-.6,1.507C43.07,125.642,43.371,125.341,43.672,125.039ZM45.48,231.7c.3-.905.9-1.206.6-.905a3.312,3.312,0,0,1-.9,1.809c-.3.9-.9,1.2-.9.9A18.289,18.289,0,0,1,45.48,231.7Zm1.205-2.712c.3-.6.6-1.205.9-1.205.3-.3.3.3,0,.9,0,.6-.6.9-.6,1.2C46.685,229.892,46.685,229.59,46.685,228.988ZM49.1,170.234c.9-2.109,1.506-3.917,1.205-3.917,0-.3-3.014,6.026-3.014,6.93C47.287,173.549,48.192,172.042,49.1,170.234Zm0,54.837a2.246,2.246,0,0,1,.9-.9c.3.3-.3.6-.9,1.205C48.192,226.276,48.192,226.276,49.1,225.071ZM50.3,145.829c.3-.6,0-.6-.3-.6a6.6,6.6,0,0,0-.9,1.506c0,.9.3.9.6.3A2.292,2.292,0,0,0,50.3,145.829Zm1.2-2.411c.3-1.506,0-1.807-.6-.3-.6.9-.6,1.507-.3,1.507A5.649,5.649,0,0,0,51.506,143.418Zm1.507-3.314c.6-.9.6-1.205,0-1.205-.6.3-1.809,2.411-1.206,2.411C52.109,141.31,52.711,140.707,53.013,140.1Zm1.205,76.832c0-.3,0-.6.3-.6.9,0,1.2.9.6,1.206C54.821,217.84,54.519,217.539,54.218,216.936Zm1.2-61.164c0-.6-.3-.3-.6.3-.6,1.507-.905,2.109,0,1.2A2.3,2.3,0,0,0,55.423,155.772Zm.6-22.9c.3-.6.3-.6,0-.6-.3.3-.6.6-.6.9C55.423,133.777,55.724,133.777,56.026,132.873Zm0,21.393a2.3,2.3,0,0,0,.6-1.206c.3-.3,0-.3-.3,0a6.541,6.541,0,0,1-.9,1.507C55.423,154.868,55.724,154.567,56.026,154.266Zm3.917-29.227c-.3,0-.6.3-.905.6-.3.9-.3.9.3.3C59.641,125.642,59.943,125.341,59.943,125.039Zm-.6,21.995c.6-.6.9-.9.9-1.2s-.3-.3-.6,0a5.108,5.108,0,0,0-.6,1.506C59.038,147.637,59.038,147.335,59.34,147.034Zm2.109-4.218a2.285,2.285,0,0,0,.6-1.205c0-.3,0-.3-.3.3a1.616,1.616,0,0,0-.9,1.2C60.846,143.418,61.148,143.418,61.449,142.816Zm1.506-3.315a27.089,27.089,0,0,0,1.507-2.711c.3-1.2.3-1.2-.6,0-.3.9-.905,2.109-1.2,3.013S62.353,140.707,62.955,139.5Zm2.712,56.042.9-.9c.3,0,0,.6-.3,1.205l-.905.9C65.065,196.749,65.365,196.146,65.667,195.543ZM73.8,118.712c4.219-8.135,7.532-15.065,7.532-15.366,0-.6-3.916,6.929-10.244,18.982-6.025,11.75-5.725,11.449-5.423,11.148C65.968,133.476,69.584,126.546,73.8,118.712Zm-4.82,72.613a2.247,2.247,0,0,1,.9-.9c.3.3-.3.6-.6,1.205C68.077,192.229,68.077,192.229,68.982,191.325Zm.3-114.795c.3-.3.6-.3.6,0,0,0-.3.6-.6,1.2-.3.3-.6.3-.6,0S68.982,77.133,69.282,76.53Zm2.11,111.481c.6-1.2,1.2-1.808,1.507-1.808v.9c0,.6-.3,1.206-.3.9-.3-.3-.9.3-1.507.9C70.187,189.819,70.187,189.518,71.392,188.011Zm.3-90.691a2.291,2.291,0,0,0,.6-1.206c0-.3-.3-.3-.6.3a2.282,2.282,0,0,0-.6,1.2C71.09,97.922,71.392,97.621,71.694,97.32ZM73.5,185.3c.6-.3.9,0,1.2,0,0,.3-.3.3-.9.3S73.2,185.3,73.5,185.3ZM75.309,97.32a11.205,11.205,0,0,0,.6-2.11c-.9.9-3.012,5.123-2.41,4.821A13.557,13.557,0,0,0,75.309,97.32Zm-.9-4.52a5.082,5.082,0,0,0,.6-1.507c0-.3-.3,0-.6.3-.3.6-.6.9-.6,1.2S74.1,93.1,74.405,92.8Zm.9,89.486h.9c.6.6.6.6-.3.6C75.309,182.889,75.309,182.587,75.309,182.286Zm2.109-7.532c-.3,0-.6.3-1.206.9-.6,1.205-.6,1.205.3.3A1.616,1.616,0,0,0,77.418,174.754Zm-.9-75.928a2.277,2.277,0,0,0,.6-1.2c0-.3-.3-.3-.6.3a2.283,2.283,0,0,0-.6,1.2C75.911,99.429,76.212,99.429,76.514,98.826Zm.3-10.847a2.288,2.288,0,0,0,.6-1.2c0-.3,0-.3-.3.3a1.614,1.614,0,0,0-.9,1.205C76.212,88.582,76.514,88.582,76.816,87.979Zm1.506,7.231a2.281,2.281,0,0,0,.6-1.2c0-.3,0-.3-.6.3a2.283,2.283,0,0,0-.6,1.2C77.719,95.813,78.021,95.813,78.322,95.21Zm8.135,130.463c-1.206,1.206-3.616,3.315-5.123,4.52a17.542,17.542,0,0,0-3.313,3.013l7.833-6.629C87.963,224.167,87.963,224.167,86.457,225.673Zm-8.135-1.506a3.234,3.234,0,0,1,.6-1.808c.6-.6.6-.6.6.3a10.03,10.03,0,0,1-.9,1.807C78.322,225.071,78.021,225.071,78.322,224.167Zm2.41-132.874c.3-.9.9-1.506.9-1.807s-.3,0-.9.6a3.316,3.316,0,0,0-.9,1.808C79.828,92.2,80.129,91.9,80.732,91.293Zm.3,128.656c.905-.9.905-.9.3.6-.6,2.11-1.506,3.013-1.2,1.507A3.256,3.256,0,0,1,81.033,219.949Zm.6-42.182a27.157,27.157,0,0,1,3.013-3.616c1.2-1.506,2.109-2.41,1.808-2.41,0,0,0-.3.6-.9a1.812,1.812,0,0,0,.3-1.2c-.3-.6-.3-.6.3-.3.6.6,1.808,0,1.506-.6a1.341,1.341,0,0,0-1.506,0,1.116,1.116,0,0,0-.9.6c.3.6-.9,2.41-1.507,2.108-.3-.3-.3,0-.3.6a3.91,3.91,0,0,1-1.506,2.109,3.543,3.543,0,0,0-1.506,1.808c.3.6,0,.6-.3.3-.3,0-.6,0-.6.6,0,.3-.3.9-.6.6-.3,0-.3.6-.3.9C80.431,179.575,80.732,179.575,81.636,177.767Zm3.013,44.894c3.013-3.616,9.039-11.45,13.86-17.777,2.712-3.917,3.917-5.122,1.808-2.109-.3.9-.9,1.808-.6,2.41,0,.3,0,.6-.6.6-.3-.3-.6,0-.6.6s0,.9-.3.6A3.546,3.546,0,0,0,96.4,208.5c-1.507,1.807-1.507,2.41-.6,2.108.3-.3.6-.3.3,0a2.282,2.282,0,0,1-1.206.6c-.3,0-.6.3-.9.6,0,.3,0,.6.6.3.3-.3.6,0,.3.3a1.811,1.811,0,0,1-1.2.3c-.6-.6-1.506,1.807-.9,2.41.3.3.3.3-.3,0-.6,0-.9,0-1.2.6a2.481,2.481,0,0,1-1.205,1.809c-.9.6-.9.6-.3.6.6-.3.9,0,.6.6-.3.3-.6.6-.9.6-.3-.3-1.808,1.2-4.821,4.218-3.315,3.315-4.218,3.917-3.616,3.315A26.75,26.75,0,0,1,84.649,222.661Zm3.314,6.327c5.424-4.821,8.738-9.039,15.366-17.777,2.712-3.615,5.122-6.628,5.725-6.93.3-.3.9-.9.9-1.205a18.774,18.774,0,0,1,1.2-1.808c1.2-1.205,12.956-19.584,17.476-28.021,8.436-15.366,18.078-35.854,19.886-43.086,1.507-5.122.9-4.82-.905.6-2.41,8.737-11.147,26.213-23.5,47.3A331.857,331.857,0,0,1,97,218.442,70.614,70.614,0,0,1,84.649,231.1c-2.41,2.109-3.616,3.615-3.013,3.013C82.54,233.809,85.251,231.4,87.963,228.988ZM82.54,171.439c.6-.6.9-.9,1.2-.9a1.615,1.615,0,0,1-.9,1.205C81.938,172.645,81.938,172.645,82.54,171.439Zm2.41,43.99c.3,0,.9-.9,1.507-2.109s1.205-2.109,1.506-1.808a13.631,13.631,0,0,0,1.808-2.41c1.206-2.109,1.808-2.712,2.109-2.109s.3.3.3-.3c.3-.9,3.917-7.231,4.218-6.929.3,0-1.808,4.519-3.013,6.628-.6.9-1.2,1.507-1.507,1.507s-1.2,1.205-1.807,2.41c-.9,1.808-1.507,2.712-1.808,2.411-.6-.3-.9.3-1.507,2.109-.9,2.109-1.507,2.712-2.109,1.506,0-.6-.3-.3-.3.3a6.825,6.825,0,0,1-1.2,2.712c-.6,1.2-.6,1.2-.6.3C82.54,218.141,84.348,215.128,84.95,215.429ZM84.649,93.1c0-.3-.3-.3-.6-.3-.3.3-.6.6-.6.9s0,.3.6.3C84.348,93.7,84.348,93.4,84.649,93.1Zm.6-1.507a2.283,2.283,0,0,0,.6-1.2c0-.3-.3-.3-.6,0a5.089,5.089,0,0,0-.6,1.506C84.649,92.2,84.95,91.9,85.251,91.6Zm1.809-3.616c.9-1.2.9-1.2,0-.3-.6.6-1.206,1.2-1.206,1.507C85.854,89.787,86.156,89.486,87.06,87.979Zm3.013,65.382c.3-.3-.3,0-1.206.905a5.38,5.38,0,0,0-1.506,2.109C87.361,156.676,89.47,154.567,90.073,153.361Zm2.41,82.255-.3.3c-.3.3-4.52,2.712-4.52,2.712C88.867,239.533,91.88,236.521,92.483,235.616ZM89.771,88.883a16.494,16.494,0,0,0,1.206-2.41c0-.3-.3.3-1.206,1.2a8.575,8.575,0,0,0-1.2,2.41C88.566,90.39,89.168,89.787,89.771,88.883Zm.6,78.338c.3-.3.6-.9.905-1.205.6-.3.6-.3.3-.3-1.206-.3-3.314,1.807-2.712,2.109A2.3,2.3,0,0,0,90.373,167.221Zm3.014,62.972.3-.3c3.917-3.917,12.956-14.162,15.969-18.681,2.109-3.314,1.506-2.711-3.616,3.917A168.428,168.428,0,0,1,90.675,232.3C86.457,236.219,92.784,230.8,93.387,230.193Zm-1.808-69.3c.9-.9,1.506-1.506,1.808-1.506a6.726,6.726,0,0,1-1.2,1.506,6.151,6.151,0,0,1-1.507,1.506C90.373,162.4,90.977,161.5,91.579,160.894Zm2.109-78.639a37.047,37.047,0,0,0,2.411-4.52c0-.3-.9,1.2-2.411,3.314a46.766,46.766,0,0,0-2.41,4.219C91.278,85.569,92.182,84.063,93.688,82.255Zm-1.2,82.556c0-.3,0-.6-.3-.6a.932.932,0,0,0-.6.3c-.3.3,0,.6.3.6A1.051,1.051,0,0,0,92.483,164.811Zm1.507-12.353c0-.3,0-.6-.3-.6s-.6.3-.3.6c0,.3.3.3.3.6C93.99,153.06,93.99,152.759,93.99,152.458Zm.6,5.423h0c-.6.9-1.2,1.205-1.2.6ZM97,149.143a1.051,1.051,0,0,0-.3-.6c-.3.3-.6.6-.3.9,0,.3-.3.6-.6.3-.6,0-.9.3-.6.6C95.5,151.252,96.7,150.349,97,149.143Zm1.507,4.52c.3-.3-.3.3-1.2,1.506-1.809,2.109-2.712,2.411-.9.3C97.3,154.567,98.207,153.663,98.509,153.663Zm.9-81.05c1.507-2.41,2.412-4.218,2.412-4.218-.3-.3-5.424,7.834-5.424,8.436C96.1,77.434,96.7,76.831,99.412,72.613ZM97,208.8q.453-.9.905-.9a2.33,2.33,0,0,1-.3.9c-.6.6-.9,1.205-1.2,1.205Zm2.41-13.258c2.412-4.218,2.412-3.013-.3,2.109-1.808,3.616-3.013,5.424-2.411,3.014A45.854,45.854,0,0,1,99.412,195.543Zm-.9-48.208c-.3-.3-.6,0-.6.3,0,.9,0,.9.6.3C98.81,147.637,98.81,147.335,98.509,147.335Zm.6-11.147c1.2-.9,2.41-2.11,3.012-2.411.6-.6.3,0-.9,1.205a11.443,11.443,0,0,1-3.014,2.712C97.907,138,98.207,137.393,99.112,136.188Zm6.628-93.7c3.616-5.423,8.436-11.449,10.245-13.86C120.2,23.2,120.5,22.9,119.9,22.9S107.246,38.566,101.522,47.3C96.1,55.74,98.207,53.33,105.74,42.483Zm-5.725,109.372c.9-.6.9-.6,0,.3-.6.6-1.2.9-1.2.6S99.412,152.156,100.015,151.855Zm.3-5.725c.9-.9.9-.9,0-1.2-.3,0-.6.3-.3.3,0,.3-.3.6-.6.9C98.509,147.335,99.112,147.034,100.317,146.13Zm.3,57.549.905-.9c.3,0,0,.6-.3,1.2l-.9.9C100.015,204.884,100.317,204.281,100.617,203.679Zm1.207-59.959c.6-.6.6-.9.6-.9a2.751,2.751,0,0,0-1.507.9c-.3.3-.6.6-.3.6A2.29,2.29,0,0,0,101.824,143.72Zm.3,9.641c-.3,0-.6,0-.9.6-.3.9-.3.9.3.3C101.824,153.964,102.124,153.663,102.124,153.361Zm-.3,39.772c.9-2.109,4.82-9.039,4.82-8.436,0,1.2-3.917,9.039-4.52,9.34C101.522,194.037,101.522,193.736,101.824,193.133Zm.6,8.135a2.254,2.254,0,0,1,.9-.9c.3,0,0,.3-.3.9s-.905,1.206-.905.9C101.824,202.172,102.124,201.871,102.426,201.268Zm2.41-60.862c1.2-1.206,1.507-1.808.6-1.206-1.2.9-3.615,3.013-3.315,3.013S103.329,141.31,104.836,140.406Zm-2.109,58.452c.3-.3,1.2-1.808,2.41-3.616.9-1.807,1.809-3.314,2.109-3.314s-.6,1.808-1.807,3.615a31.156,31.156,0,0,1-2.41,3.616A.3.3,0,0,1,102.727,198.858Zm1.507-5.122c.3-.3.6,0,.3.3-.6.9-.9,1.2-.9.3A.648.648,0,0,1,104.234,193.736Zm3.917-50.318q.45,0,0-.9c0-.6,0-.9.3-.6,0,.3.6.3.905,0,1.807-1.205.6.6-1.2,2.109-1.507,1.206-1.808,1.206-1.507.6C107.246,144.021,107.849,143.418,108.151,143.418Zm4.82,31.336c.3.3-3.917,8.135-4.82,9.642l-.905,1.506.3-1.506C108.451,182.587,112.67,174.754,112.971,174.754ZM109.356,24.405l-.6-.6c-.3-.3-.3,0-.6.3a.648.648,0,0,0,.6.6C109.054,24.707,109.356,24.707,109.356,24.405Zm.3,163.908c.9-1.809,2.411-4.52,2.711-4.52s-2.41,5.122-3.012,5.423C109.054,189.518,109.356,188.915,109.657,188.313Zm.9-53.331q.9-.9.9-.9a2.751,2.751,0,0,0-1.507.9c-.6.6-.9.9-.6.9A5.2,5.2,0,0,0,110.561,134.982Zm1.807,4.218c.3-.6,0-.6,0-.3a1.1,1.1,0,0,1-.9.3c-.3-.3-.3,0-.6.3C110.863,140.1,112.068,139.8,112.368,139.2Zm-.3,68.4a4.594,4.594,0,0,0,1.2-1.808c.3-.6-.6.3-1.808,2.109C111.163,208.5,111.163,208.5,112.068,207.6Zm.6-26.515c.3-.6.6-.9.9-.6a1.069,1.069,0,0,1-.6.9C112.368,181.684,112.368,181.684,112.67,181.081Zm2.712-4.519c.9-1.206,1.506-2.109,1.506-1.808s-.9,1.506-1.506,2.711c-.9,1.507-1.507,2.11-1.507,1.808A8.41,8.41,0,0,1,115.382,176.562Zm.6-45.5c.6,0,.9,0,.9-.3a1.07,1.07,0,0,1,.6-.9q.453-.9-.9,0c-.6.6-1.507.9-1.507,1.2ZM119,165.112c0,.9-1.2,3.013-2.109,4.821-1.2,1.506-1.808,2.41-1.506,1.808C115.985,169.632,119.6,163.6,119,165.112Zm-.9-43.688c1.2-.6,2.411-1.507,2.411-1.808s-1.206.3-2.411,1.2a18.491,18.491,0,0,0-2.41,1.507A13.364,13.364,0,0,0,118.093,121.424Zm-1.506,82.255c0-.6-.3-.3-.3.3s0,.9.3.6C116.888,204.583,116.888,203.98,116.587,203.679Zm.9-28.624c.6-.6.905-.9.905-.6a4.663,4.663,0,0,1-.905,1.807c-.3.6-.9.9-.9.6S117.19,175.959,117.49,175.055Zm3.014,23.8c1.2-1.808,2.41-3.616,3.013-3.917,1.2-.9,10.244-16.572,13.859-23.5,3.616-7.231,7.533-15.968,7.232-16.27s-.6.3-.905.9c-1.5,3.917-15.366,28.323-18.981,33.746a6.817,6.817,0,0,0-1.507,3.013c0,.6-.3,1.205-.6,1.205s-.3,0-.3.3c.3.3,0,.6-.3.6s-.6.3-.3.6c0,.3,0,.6-.3.6-.6,0-3.615,5.423-3.314,5.725S118.093,202.474,120.5,198.858Zm1.808-33.444c.3,0,0,.6-.6,1.807-1.2,2.11-2.411,3.616-2.109,3.013A18.317,18.317,0,0,1,122.312,165.414Zm1.506-139.5c2.411-3.616,3.616-5.424,1.206-2.411s-4.219,5.424-4.219,5.424C121.107,28.925,122.312,27.418,123.818,25.912Zm-.3,131.366c0,.9-.9,2.411-1.507,3.616-.9,1.2-1.2,1.808-.9,1.2C121.709,159.99,124.119,155.772,123.517,157.278Zm-.3-150.348c.9-.3.6,0,0,.3-.6.9-.9.9-.9.3C122.312,7.231,122.613,6.93,123.215,6.93Zm.3,156.073c.3-.3.6-.6.9-.6,0,.3,0,.6-.6.9C123.215,163.907,123.215,163.907,123.517,163Zm1.507-37.964c.3-.3,0-.6-.3-.6a.648.648,0,0,0-.6.6,1.051,1.051,0,0,0,.3.6Zm1.807,32.541c.3,0-.3.9-.6,2.109-1.2,1.808-1.809,2.41-1.507,1.808C124.722,160.894,126.53,157.58,126.831,157.58Zm.6,38.265c0-.6-.3-.3-1.2,1.205-.905,1.2-.905,1.2,0,.3C126.831,196.749,127.434,196.146,127.434,195.845ZM126.53,185a9.886,9.886,0,0,0,.9-1.808l-.9.9a3.316,3.316,0,0,0-.9,1.808Q125.626,186.354,126.53,185Zm.3-34.348c.6-.9.9-1.507.9-.9a5.239,5.239,0,0,1-.9,2.109c-.6.9-.9,1.506-.9,1.205S126.53,151.554,126.831,150.65Zm.6-136.188c2.109-2.712-1.2-.3-.9.6C126.53,15.667,127.434,14.764,127.434,14.462Zm3.314,111.783a10.861,10.861,0,0,1-1.507,1.2l-1.807,1.2,1.506-1.507C129.844,126.245,130.748,125.943,130.748,126.245Zm0,24.1a14.685,14.685,0,0,1-1.2,3.314c-1.206,3.013-2.411,4.218-1.507,1.808C128.639,153.663,130.447,150.349,130.748,150.349Zm-.9-34.952c-.3-.6-2.712,1.206-.9.905C129.241,116,129.844,115.7,129.844,115.4Zm.3-97.621c.6-.6-.3.3-.6.3C128.036,18.981,128.639,19.584,130.146,17.776Zm-.3,161.5c-.3-.3-.6,0-.6.6-.6.6-.3.9.3.3A1.488,1.488,0,0,0,129.844,179.273Zm.9-1.2a5.108,5.108,0,0,0,.6-1.506c0-.3-.3,0-.6.3a2.285,2.285,0,0,0-.6,1.205C130.146,178.369,130.146,178.369,130.748,178.068Zm1.506,9.641c.6-1.205,1.507-2.41,1.507-2.711s-.6.6-1.507,1.808a8.41,8.41,0,0,0-1.506,2.712C130.748,189.819,131.351,189.216,132.254,187.709Zm.3-40.976a24.448,24.448,0,0,1,1.506-3.013c.3.6-1.808,5.423-2.41,6.026C131.351,150.047,131.652,148.541,132.556,146.733Zm7.834,26.213c4.82-9.341,10.847-21.694,10.545-22s-.6.3-.9.9c-.3.9-.6,1.205-.905,1.205-.3-.3-.3,0-.3.9.3.6,0,.9-.3.6s-.3,0-.3.3c.3.9-4.82,11.449-10.244,21.392-4.218,7.834-4.821,9.039-3.013,6.327C135.569,181.684,138.281,177.164,140.39,172.946ZM136.171,140.1a2.3,2.3,0,0,1-.6,1.507c-.3.6-.6.6-.6.3C135.268,141.008,136.171,139.2,136.171,140.1Zm2.11,23.8c0-.3-.3,0-.6.6s-.3.6.3.3C138.281,164.51,138.581,163.907,138.281,163.907Zm.9-1.507a2.276,2.276,0,0,0,.6-1.205c0-.3-.3,0-.6.3a2.283,2.283,0,0,0-.6,1.2C138.581,163,138.883,163,139.184,162.4Zm1.206-2.41a2.285,2.285,0,0,0,.6-1.205c0-.3-.3-.3-.6,0a5.073,5.073,0,0,0-.6,1.507C139.787,160.593,140.088,160.292,140.39,159.99Zm1.205-2.712c.6-.3.6-.9.9-1.2,0-.3-.3-.3-.6.3a2.283,2.283,0,0,0-.6,1.205C141.293,157.881,141.293,157.881,141.6,157.278Zm5.122-10.846c1.2-2.712,7.232-17.175,6.327-19.886l-.6,1.506c-.3,1.507-1.205,4.219-1.808,6.327a166.627,166.627,0,0,1-7.231,18.38q-.453.9,0,.9S144.909,150.65,146.717,146.432Zm-1.205-34.047c-.3.3,0,.6.3.9C146.415,113.289,146.415,111.782,145.512,112.385Zm.6,13.257c0-.3-.3,0-.3.9,0,.6,0,.9.3.6Zm.9-3.616c0-.3-.3,0-.3.6,0,.9,0,1.2.3.9Zm4.519,27.418a10.025,10.025,0,0,1,.905-1.807c0-.6-.3-.6-.6.3a3.224,3.224,0,0,0-.6,1.808C151.237,150.047,151.237,150.047,151.537,149.444Zm3.014-7.833c0-.6-.3,0-.9,1.506a28.33,28.33,0,0,0-1.2,3.013C152.442,147.034,154.249,142.816,154.551,141.611Zm.6-3.315c-.3-1.2-.3-1.807-.6-1.506V138.6C154.852,140.707,155.454,140.406,155.154,138.3Zm.9-1.807c-.3-.3-.3-.3-.6.6,0,.6.3.9.3.6A1.812,1.812,0,0,0,156.057,136.489Zm.6-3.315c0-.3-.3,0-.3.6,0,.9,0,1.205.3.9A1.343,1.343,0,0,0,156.659,133.174Z"/><path class="cls-1" d="M149.425,235.616a16.515,16.515,0,0,1-5.122-11.148c-.3-5.122,1.808-10.545,3.314-16.27,3.315-15.065,7.834-24.4,14.463-37.964.9-1.808.6-2.109,1.2-2.41l.3-.6-.3-.6.6-.6c.3,0,.9-2.712,1.808-3.616.3-.3,2.41-3.917,3.012-3.917v1.206l-.6.3c-.3,0-.3-.6-.6-.6v.6c0,1.808-6.929,12.956-6.929,14.764v.6h-.3s-.6,0-.6,1.808v.3h-.3l-.6,1.507h-.3l-.3,2.109-.3-.3c-.3,0-.3.3-.3,1.506v.6s-.3-.6-.6-.6l-.3,1.206c0,.6,0,.9-.3.9v-.6c-.3,0-.6.6-.6,2.109v.6h-.3l-.3,1.809-.3.6-.6-.6v1.807h-.3a15.859,15.859,0,0,1-.6,2.41l-.3,1.206h-.3c-.3,0-.6.3-1.206,2.711-1.506,8.437-6.628,18.982-6.026,28.624a18.2,18.2,0,0,0,1.507,7.231l-.3-11.148c1.507-9.943,7.533-24.4,11.45-34.348l2.109-5.424c1.507-3.615,4.519-10.846,6.93-13.558v-.9a2.336,2.336,0,0,1,.3-.9c5.122-8.436,9.944-17.475,15.366-25.61,3.014-4.52,5.424-8.135,9.341-12.052,1.808-1.507,1.2-2.411,1.808-2.411h.9c2.109,0,7.833-8.135,10.545-9.943,1.808-1.2,7.232-3.314,7.232-4.82v-.6c-.6-.3-1.206-.6-1.206-.9,0-.6.9-1.2,3.315-1.2h.9c3.315,0,6.327,1.807,8.738,3.615,6.328,4.821,19.584,15.969,19.584,23.8v1.205c0,12.353-14.763,30.733-22.9,39.169a92.22,92.22,0,0,1-24.4,15.969c-4.822,2.109-12.656,2.109-15.366,6.328-7.534,11.75-12.354,26.815-12.053,33.745,0,2.41.6,3.917,1.808,4.219l1.808.3c15.969,0,69.3-48.208,77.735-55.44,2.411-1.506,6.026-5.423,8.437-6.026-.3,2.109-5.725,10.847-7.533,13.258-8.135,11.449-15.667,21.693-24.706,32.54-11.149,12.655-25.31,29.226-42.183,34.951a25.07,25.07,0,0,1-6.628.9C167.805,254.3,157.259,243.149,149.425,235.616Zm2.411-27.719v-.9l-.3,2.109C151.836,209.1,151.836,208.5,151.836,207.9ZM167.5,179.876l3.013-5.122c9.641-16.271,18.681-32.239,30.432-47.606,3.314-3.917,15.667-13.558,16.27-14.462v-.9a.3.3,0,0,0-.3-.3c-1.807,0-7.532,3.314-7.834,3.615-11.147,7.834-17.776,19.585-25.008,30.131a5.087,5.087,0,0,0-.9,2.108.931.931,0,0,0-.3-.6c-.6,0-.6,3.013-3.012,4.218-.6.6-.3,4.218-1.507,4.218l-.6-.3c-.6,2.41-12.051,25.912-13.257,25.912-.3,0,0,3.314-.6,3.314l-.6-.3c-.9,2.711-8.436,22.9-8.436,25.309C159.368,201.569,163.586,188.614,167.5,179.876Zm-6.629,22.3-.3,1.205v.3C160.874,203.679,161.176,203.076,160.874,202.172Zm1.809-4.821v-.3l-.3.9v.3C162.683,198.255,162.984,197.954,162.683,197.351Zm2.711-5.725-.3-.6-.3.3.3,1.205C165.394,192.53,165.394,192.229,165.394,191.626Zm3.013-34.046-.3-.6.3-.3a.962.962,0,0,1,.9.9v.9C169.01,158.483,169.01,158.483,168.407,157.58Zm1.206,24.706.3-.9c-.6,0-1.205,1.2-1.205,1.808Zm3.314-32.239.6.3v.3c0,.9-1.507,1.2-1.808,2.41-.9,2.712-1.809,3.315-2.411,3.315l.3-.9C170.818,154.567,171.42,150.047,172.927,150.047Zm-1.808,28.925a1.538,1.538,0,0,0-1.206,1.507.3.3,0,0,0,.3.3C170.818,180.78,171.42,180.177,171.119,178.972Zm7.533-13.86c9.641-16.873,21.392-37.361,37.361-49.715-18.681,13.559-34.649,38.266-43.086,58.754l-1.507,3.616C171.722,177.767,178.049,166.016,178.652,165.112Zm-4.822-16.571c.3,0,.6,0,.6.6l-.6.3-.6-.6C173.228,148.541,173.53,148.541,173.83,148.541Zm13.861,11.148c8.134-14.161,16.872-27.72,29.527-38.868a7.078,7.078,0,0,0,1.808-1.808c-.3,0-7.232,5.122-9.34,6.93-11.45,13.558-29.227,41.278-35.554,57.549C174.735,183.492,186.486,161.8,187.691,159.689Zm-12.656-13.257c.6-.9.905-2.411,1.206-2.411s.6.3.6,1.206l.3.6-.3-.3c-.3,0-.6.3-1.2,1.205a1.617,1.617,0,0,1-1.206.9C174.433,147.335,174.433,147.034,175.035,146.432Zm3.315-4.52c.3,0,.3,0,.6.3,0,.3-.6.6-2.108,1.205A1.4,1.4,0,0,1,178.35,141.912Zm50.92,63.273c-9.642,6.327-17.777,13.86-27.72,20.488-4.218,2.411-22.3,12.354-24.4,15.065l.9-.3C198.236,233.809,214.506,219.346,229.27,205.185Zm-31.034,31.034,2.109-1.507c12.354-9.039,18.681-13.558,29.227-23.5-11.149,7.834-19.886,15.969-32.24,23.2l-15.968,9.34-3.315,2.109C179.254,245.86,197.633,236.521,198.236,236.219Zm-17.475-57.85a5.807,5.807,0,0,0-2.411,3.616C178.652,181.985,179.857,181.081,180.761,178.369Zm-2.109-37.963c0-.3.3-.905,1.505-.905.6,0,.6.3.6.905h-.6a1.054,1.054,0,0,1-.6-.3l.3.9a1.05,1.05,0,0,1-.3.6C179.254,141.611,178.952,141.008,178.652,140.406Zm3.012-3.013c.3,0,.3.3.3.6s-.6.6-.9.6l-.3.3-.3-.3A2.354,2.354,0,0,1,181.664,137.393Zm2.11,35.252c-.3,0-1.205,1.506-1.507,1.506l-1.506,2.712C181.364,176.863,183.472,173.85,183.774,172.645Zm-.905-37.06.3.6c0,.6-.3.9-.6.9l-.6-.6Q181.966,136.037,182.869,135.585Zm5.725,112.083c20.188-12.956,29.829-21.693,45.5-39.168-12.956,12.654-22.9,22.6-39.169,32.841l-9.039,5.725h.3a7.244,7.244,0,0,0-2.41.6l.3.3v-.3h-.3l-1.507.3-.3.6.9.3A19.437,19.437,0,0,0,188.594,247.668Zm-5.725-112.987.3-.6.9,1.206-.3.3h-.3C183.171,135.585,182.869,135.284,182.869,134.681ZM189.2,163.3l-.3-.3c-2.712,2.712-1.808,4.821-3.013,4.821h-.3l.3.6-.6.905-.9,1.807v.3l1.808-2.711S189.2,164.208,189.2,163.3Zm-2.109-33.143.9.3c-.6.9-1.205,1.205-1.505,1.205l-.3-.6A.963.963,0,0,1,187.088,130.161Zm7.532-3.615c-1.506.3-.9,2.109-2.41,2.41-.6.6-1.205,3.315-2.411,3.315l.6-1.206-3.917,6.629A108.915,108.915,0,0,0,194.62,126.546Zm-5.122,1.2h.6c-.6,1.2-1.205,1.506-1.507,1.506l-.3-.6C188.293,128.354,188.594,127.751,189.5,127.751Zm38.567,7.231c-3.917,3.314-10.847,13.559-11.45,13.559l4.821-9.943c3.013-6.026,4.519-8.738,4.519-9.341l-.3-.3c-1.809,0-16.873,20.187-18.681,22.9-6.327,9.34-9.642,16.571-15.066,25.912l-.6,1.808,1.2-1.507C203.358,170.837,220.532,147.637,228.065,134.982Zm-23.2,50.317c12.956-10.846,28.924-28.623,34.046-44.592L224.75,163.3c-6.929,10.847-26.815,26.214-33.142,27.72C197.935,190.723,199.742,188.313,204.865,185.3Zm-11.45-62.068.3-.9.6.3.3.3-.6.6h-.3C193.415,123.533,193.415,123.533,193.415,123.231Zm3.917-4.519.3.3c0,.3-.3.6-.6.9l-.6.3-.3-.3C196.127,119.616,196.73,118.712,197.332,118.712Zm5.423,57.247c10.244-10.545,24.707-27.72,28.624-41.58-4.519,8.738-5.724,11.751-12.956,21.393-5.724,8.436-9.641,14.161-17.475,20.488l-1.808,1.507-2.109,2.41C197.633,180.177,201.55,177.465,202.755,175.959Zm-3.013-25.309-1.807,2.41-.3,1.206v.3A8.377,8.377,0,0,0,199.742,150.65Zm1.507-7.232a.647.647,0,0,0-.6-.6c-.3,0-.905.6-1.507,2.109,0,.3,0,.6.3.6A2.2,2.2,0,0,0,201.249,143.418Zm23.2,9.04c3.616-5.725,6.628-12.354,10.545-17.476l-25.007,37.361c-5.122,5.122-6.93,7.232-6.93,7.533,0,0,.6,0-2.712.3C210.589,170.837,216.916,163.907,224.449,152.458Zm-11.148,70.2c4.82-3.917,17.776-14.764,21.693-19.284-10.545,6.328-19.885,15.969-28.924,23.5l-1.507.9c-3.013,1.807-4.218,3.012-4.218,3.314C200.948,231.1,212.1,223.564,213.3,222.661Zm-11.449-74.422,15.969-21.994c-4.52,3.615-14.463,18.077-16.873,22.9Zm1.807-36.758.9.9h-.3C203.96,112.385,203.659,112.083,203.659,111.481Zm.9-.3c0-.3.3-.6.9-.6.3,0,.3.3.3.9,0,.3,0,.3-.3.3S204.563,111.481,204.563,111.18Zm14.764,63.273,3.916-3.616c-.3,0-10.244,8.135-11.147,9.039l-4.219,3.616C208.179,183.492,216.615,176.26,219.327,174.453Zm-8.135-62.972h-.3l-.9,1.205-.3-.6C209.686,111.481,211.794,111.481,211.192,111.481Zm1.807,9.34a13.107,13.107,0,0,0,2.712-3.314c-1.506.6-6.025,5.122-6.025,5.724C209.987,123.231,210.891,122.629,213,120.821Zm.905,7.231c.9-.6,5.423-5.423,5.423-6.026-.3,0-.9.6-2.712,2.109s-6.929,7.533-6.929,8.136C209.987,132.271,211.192,131.065,213.9,128.052Zm0-20.789-.905-.9c.3,0,.905.6,1.507,1.2Zm1.506-.6a.3.3,0,0,1,.3-.3c.3,0,1.2,0,1.2.9l-.6.3A.962.962,0,0,1,215.41,106.66Zm9.943,61.465-2.11,1.507Zm4.219-37.662-.3.6v.3Zm3.313,12.353v0Z"/><path class="cls-1" d="M234.991,246.463c-4.217-3.314-7.231-6.629-9.339-11.449-1.808-4.52-3.014-8.738,2.712-3.616,4.519,4.218,9.038,7.533,15.667,6.026,1.506-.3,1.807-.3,1.2.3a8.924,8.924,0,0,1-3.616.9c-1.506.3-3.012.6-3.012.9,0,.9,9.641.3,10.244-.6a7.169,7.169,0,0,1,2.108-.9c2.411-.9,10.847-6.93,12.053-8.437.6-.9,1.205-1.205,1.506-1.205,0,.3.3,0,.3-.3.3-.3.3-.6.6-.3s-1.507,2.711-3.917,5.423c-1.807,1.808-2.41,3.013-1.2,2.41.6-.3.3,0-.3.6-1.807,1.205-1.205,1.205,2.411-.3,2.411-1.205,2.711-1.506,2.711-2.711,0-.9.3-1.808.6-1.808.6-.3.6-.3.3.3-.6.6-.6.6,0,.3,2.109-1.808,4.519-14.462,3.917-21.091-.3-3.314-3.013-12.655-3.617-12.655,0,0,.3,1.205.6,3.013,2.711,8.738,2.711,14.161,0,19.283-.9,1.507-.9,1.507-1.206.9-.3-.9,0-.9.3-.9.3.3.6,0,.3-.9,0-.6,0-1.2.3-.9.6.3,1.205-6.026.9-9.943-4.218-31.938-22.9-41.58-3.616-77.133,1.507-2.712.6-2.712,3.315-5.122.9-.9,0-1.205,2.109-2.712,1.205-1.808,10.847-12.654,12.654-9.642,1.2,1.808-5.422,6.931-3.615,3.315.6-1.507,0-1.507-.3-.3,0,0-4.217,3.314-4.519,3.615-1.2,1.2-2.41,2.712-3.615,3.917l-.3.3c-1.506,3.013-2.711,3.315-4.52,6.629-1.506,3.314-1.506,2.109-2.711,6.026-.6,2.109-.6-2.109-1.206,3.917-.3,2.109-.3-3.616-.9,0,0,.6-3.314,8.135-1.507,7.231s1.808-6.93,2.41-4.821,2.11-9.039,4.219-6.628c.3.3-3.616,8.436-2.109,7.231.9-.6,4.218-8.738,5.424-10.546,1.807-3.013,11.147-18.681,15.064-16.27,1.2.6-1.205.6,1.507-1.205,5.122-3.314.3,4.218-.3,5.725,7.533-5.122,10.848-1.2,18.38,2.41,1.808.9,2.41-2.109,3.917-4.218,2.108-3.314,11.75-21.393,13.257-22.3,1.807-1.507-2.41,4.82-2.41,4.82-1.808,2.712-3.013,4.52-4.52,7.231,0,.3-10.546,19.284-7.532,16.572,4.519-3.917,15.064-27.72,18.077-28.021,1.206-.3-1.2.6.6-.3,2.41-.9.3,3.013,2.41,1.2.6-.6,1.807-.6-.3,1.2-1.808,1.507-10.545,19.283-12.052,22.3,1.808-3.314,12.654-25.309,17.174-21.392,4.821,4.219-.6,5.725,2.712,4.219,3.917-1.507,1.808,1.506,4.519,3.012,7.533,3.917,3.315,6.93-.9,13.559-2.41,3.616-5.122,7.231-7.23,10.847-7.533,12.654-20.79,38.566-21.091,51.823,0,2.41.6,4.821-2.712,3.014-10.847-6.328-16.571-12.354-14.161-25.31,2.108-2.109,5.122-12.353,6.628-15.969,1.206-2.712,3.314-6.628,3.616-9.34-3.314,3.013-3.314,6.327-6.327,10.545-.3.3,0,.9-.6,2.411a6.407,6.407,0,0,0-.9,2.109c-.3.6-3.314,12.353-2.109,4.821a93.607,93.607,0,0,1,4.821-14.764c1.506-.3-.3-.3.9-1.506.9-.6,2.411-5.424,2.411-5.424.3-.3,2.109-.6.6-1.507,0,0-11.751-2.41-16.572,8.738-23.5,53.632,27.419,80.146-5.122,107.263C264.821,263.637,247.647,257.31,234.991,246.463Zm11.45-9.34c0-.3,0-.6.6-.6.3,0,.3.3.3.6s0,.6-.3.6Zm2.109-1.206c-.3-.3,0-.6.3-.6a.647.647,0,0,1,.6.6,1.055,1.055,0,0,1-.3.6A.649.649,0,0,1,248.55,235.917Zm6.026,6.328c3.315-1.205,3.315-1.205,2.712-.3-.3.6-.3.6.3.3.3-.3.6-.6.3-1.205-.3-.3,0-.3.6,0,.6,0,.9,0,.9-.3s1.507-1.506,3.616-3.012,4.519-3.917,6.025-5.122c1.2-1.507,2.11-2.411,2.411-2.411a1.761,1.761,0,0,0,.3-1.205c.3-1.507.3-1.205-1.507.6-2.108,2.712-7.532,7.232-10.244,9.039a37.838,37.838,0,0,1-4.82,2.109,13.182,13.182,0,0,0-4.52,1.507l-1.2.9h1.2A13.585,13.585,0,0,0,254.576,242.245Zm-1.2-9.34c1.2-.6,1.2-.6.9.3-.3.6-.6.6-.9.6a.416.416,0,0,0-.6,0c0,.3-.6.9-1.507,1.506-.6.3-1.205.6-1.205.3C250.057,235.014,251.563,233.809,253.371,232.905Zm1.808-88.583,3.013,6.629c-1.507,3.315-1.2,8.738.3,1.507C258.493,152.156,259.1,150.047,258.192,150.951Zm.9,6.629c0-2.712-.9,1.808-.3,2.109A5.118,5.118,0,0,0,259.1,157.58Zm-.3-21.694c.6-1.507.905,1.507,0,.9C258.493,136.79,258.794,135.886,258.794,135.886ZM274.763,232c-3.013,3.013-2.41,2.711-6.327,4.52a13.387,13.387,0,0,0-3.315,2.41,15.019,15.019,0,0,1-4.217,3.615l-2.11,1.205,1.808-.3C267.532,241.341,270.846,237.123,274.763,232Zm-14.462-4.52c.3-.6.9-1.2,1.2-1.2s.6-.3.3-.6c0-.6,0-.6.3-.3s.6.9.3,1.2a1.2,1.2,0,0,1-1.206.6c-.3-.3-.3,0-.3.3.3.6,0,.9-.6.9S259.7,228.084,260.3,227.481Zm1.2-78.94c-2.109,6.628-1.2,7.834.3.6C262.109,147.938,262.109,147.034,261.506,148.541Zm1.205,85.569c.6-.6,1.2-1.205,1.507-1.205a5.237,5.237,0,0,1-.9,1.205c-.9.6-1.507,1.2-1.808,1.2A3.6,3.6,0,0,1,262.711,234.11Zm3.315-98.525c1.2.3-.905,1.506-.905.3C265.121,135.585,265.724,135.585,266.026,135.585Zm.3,7.532c-2.108.9.9,1.808.3.3C266.628,143.117,266.628,143.117,266.326,143.117Zm2.712-4.519c-.6,0,3.617-7.231.6-2.712a18.264,18.264,0,0,0-3.315,6.327S271.75,137.393,269.038,138.6Zm-1.807,15.668c-.3,0-.3.3-.3.6C267.231,156.073,269.038,154.868,267.231,154.266Zm1.507-3.315c-.3-.3-.9.9-.9,1.205C267.231,153.964,270.243,151.252,268.738,150.951Zm2.41,95.211c-.905.3-1.808.9-2.712,1.2C266.93,248.572,271.148,247.066,271.148,246.162Zm.3-110.577c0-.3-.6.6-.9.6C268.436,139.2,272.052,136.489,271.449,135.585Zm-.9,89.185c0-.9,0-.3-.3,1.2q-.45,2.712,0,1.808A10.231,10.231,0,0,0,270.545,224.77Zm0-3.917c0-.6-.3-.3-.3.3-.3.6,0,.9,0,.9A1.808,1.808,0,0,0,270.545,220.853Zm2.41,20.187c-.9.6-2.41,1.808-2.109,3.013l.3-.3C275.065,241.643,278.379,235.917,272.955,241.04ZM283.8,119.314h-.3c-3.616,3.014-9.341,10.847-11.449,14.764C273.558,132.572,284.1,120.52,283.8,119.314Zm-9.642,35.554c-1.205.9-1.505,4.821-1.505,6.327C272.655,164.51,275.065,156.375,274.16,154.868Zm-.6-3.616c0-1.506-1.506,1.206-.3.9C273.558,152.156,273.558,151.554,273.558,151.252Zm2.712-6.025c.9-2.712-2.41,2.711-2.41,4.519C274.763,149.444,275.968,146.13,276.27,145.227Zm3.917,97.319h-.3c-1.506,2.411,0,3.917.6.9C280.488,242.848,280.488,242.848,280.187,242.546Zm8.135-121.122a1.657,1.657,0,0,0-.6,1.506l.3.3C290.129,122.328,290.431,118.712,288.322,121.424Zm3.013,34.047v.3C290.129,154.868,292.239,153.964,291.335,155.471Zm.6-3.315c.3,0,.3,0,.6.3C292.841,153.663,291.033,153.361,291.938,152.156Zm3.012-8.135c.3.3-.6,2.109-.9,2.411C292.54,149.746,293.745,144.322,294.95,144.021Zm1.206,23.8c0-.3,1.807-9.039,2.41-11.148.6-1.2,4.218-11.449,3.917-12.052-2.712,5.423-7.533,17.475-7.533,22.9v.6h.3C296.156,167.522,294.649,167.824,296.156,167.824Zm0,2.41v-.3C294.348,172.946,296.156,173.549,296.156,170.234Zm-.6-26.816,2.41-6.327h.3c0,2.41-3.315,5.725-.9,1.2A4.421,4.421,0,0,1,297.963,137.091Zm-.3,27.419c-.3-1.507-1.2.9-.3,1.205A2.28,2.28,0,0,0,297.662,164.51Zm4.52-32.541c0-.3-.6,0-.6,0C300.675,132.873,302.784,133.174,302.182,131.969Zm.9,34.348c0-1.506-.9.9,0,1.2Zm0-23.5a1.107,1.107,0,0,0-.3.9C303.085,144.925,304.29,142.515,303.085,142.816Zm0-9.34M304.29,163.3l-.3-.6C302.784,164.208,303.99,165.112,304.29,163.3Zm.3-27.719c-2.109.3-.6,3.615.3,1.2C305.2,136.188,304.893,135.886,304.592,135.585Zm.6,25.008c-.3-1.507-1.2.9-.3,1.205A1.808,1.808,0,0,0,305.2,160.593Zm.6,16.571-.3-.3C303.99,179.876,305.8,180.479,305.8,177.164Zm8.135-37.663a95.9,95.9,0,0,0-7.532,17.175l.3-.6S320.863,128.052,313.932,139.5Zm-2.41,20.188c-1.808,1.808-5.122,11.148-5.122,13.558l.3-.3C307.907,169.933,310.919,162.4,311.522,159.689Zm-2.11-31.335c.905-1.206-.9-1.507-.6,0C308.81,128.655,309.112,128.354,309.412,128.354Zm.6,3.013c-.3,0-.3,0-.6.3C308.207,132.873,310.016,132.873,310.016,131.367Zm2.108-3.917c-.3.3-.6.6-.6.9C311.522,130.764,313.329,126.546,312.124,127.45Zm.9,27.719c-1.2.9.3,2.411.3.9A1.111,1.111,0,0,0,313.029,155.169Zm2.711-4.519c.9-1.206-1.206-1.206-.9,0C315.138,150.951,315.439,150.65,315.74,150.65Z"/><path class="cls-1" d="M326.586,216.333c.6-.9-.9,8.437-.6,4.218C326.284,219.045,326.284,217.539,326.586,216.333ZM346.17,257.31c.9,2.109,1.2,2.41-1.506.9-2.411-1.2-6.629-2.41-7.834-4.52-1.506-3.917-8.436-2.711-10.244-14.161-2.41-14.763,9.34-49.112,15.065-63.875q1.807-4.972,3.616-9.943c4.218-11.148,10.545-25.912,11.449-26.515.3-.3-.9,2.712-2.41,6.629-8.738,19.886-17.175,44.894-19.283,56.042-.3,2.41.6.3,2.108-5.424a282.5,282.5,0,0,1,10.546-30.732c7.834-20.488,18.981-44.291,31.034-67.491a9.3,9.3,0,0,1-3.013.3c-5.423,9.943-11.148,20.187-13.257,24.706-3.013,6.629-3.616,7.232-1.2,1.206,1.807-4.52,6.929-14.764,12.956-25.912-8.739.3-17.175.9-26.213,1.506-4.52.3-4.219-2.109-1.809-3.012s6.327-1.206,9.039-1.507c7.232-1.2,14.764-1.808,22-2.41l.6-1.206c-1.808.3-3.917.3-5.725.6-8.737.9-18.078,1.808-26.815,3.615C351.9,92.5,355.511,92.8,362.139,92.2c5.424-.6,10.848-.9,16.27-1.507l.3-.3c-10.244.9-20.187,2.712-30.431,3.615-7.533.9,7.834-2.41,8.134-2.41a151.524,151.524,0,0,1,22.9-2.41l.3-.9c-9.04.9-18.379,1.807-27.418,3.615-11.149,2.109,0-1.808,3.314-2.711,8.135-1.808,16.873-2.712,25.61-3.616l.905-1.808c-6.931.6-12.656,1.507-19.585,2.712-3.917.6-7.232,1.506-11.149,2.41-5.122,1.507,1.507-1.506,3.014-2.109,9.039-2.41,18.981-3.615,28.623-4.519l1.205-1.808c-7.532.9-13.859,1.506-22,3.013l-3.615.9c-6.93,1.506,7.231-2.109,7.834-2.109,5.724-1.206,12.051-2.109,18.379-3.013,6.93-12.956,13.257-23.2,13.558-22.9.3,0,.3-.3.3-.6-.3-.6,0-.9.3-.9s.6,0,.3-.3a1.109,1.109,0,0,1,.3-.9c.3,0,1.507-2.109,3.014-4.519,1.2-2.712,2.41-4.52,2.711-4.52,0,.3.9-1.2,1.808-2.712.9-1.807,1.506-3.314,1.808-3.012.3,0,.9-.905,1.506-2.11a9.138,9.138,0,0,1,1.507-2.109c.3.3.3,0,.3-.9,0-.6,0-.9.3-.6.3,0,.9-.9,1.507-2.109.9-1.2,1.506-2.109,1.506-2.109.3.3.9-.9,1.507-2.11.9-1.205,1.507-2.108,1.807-2.108,0,.3.6-.6,1.206-1.507.6-1.507.9-1.808,1.206-1.2s.3.6.3-.3c0-.6,0-1.205.3-1.205s.9-.9,1.2-1.808c.3-1.2.9-1.807,1.2-1.807,0,.3.6-.3,1.2-1.507.3-.9.905-1.507,1.205-1.507.3.3.6-.6,1.206-1.506.3-.9.9-1.808,1.205-1.506.3,0,.6-.6,1.206-1.507.3-1.2.9-1.808,1.205-1.507q.451,0,.9-.9t.9-.9c0,.3.6-.3.6-.9.3-.9.6-1.2.9-1.2.3.6-.9,3.314-1.506,3.013-.3,0-.9.9-1.2,1.807-.3,1.206-.6,1.507-.9.6,0-.6-.3-.3-.9,1.507-.6,1.506-1.206,2.41-1.507,1.807,0-.3-.6.6-1.2,1.808-.3,1.205-.9,1.808-1.2,1.507,0-.6-.6,0-1.2,1.506-.3,1.2-.905,1.808-.905,1.506-.3-.3-.9.6-1.507,2.11-.9,1.506-1.5,2.41-1.807,2.41,0-.3-.9.6-1.507,2.109-.6,1.205-1.205,2.109-1.506,1.808a13.339,13.339,0,0,0-1.507,2.712c-.6,1.506-1.2,2.41-1.507,1.808,0-.3-.6.6-1.5,2.41s-1.808,3.013-1.808,2.712c-.3,0-.9,1.2-1.809,2.711-.9,2.109-1.505,2.712-1.807,2.109s-.3-.6-.3.3c.3.9,0,1.2,0,1.2-.3-.3-1.205,1.2-2.411,3.615-.9,2.11-2.109,3.917-2.41,3.917-.3-.3-2.11,3.014-4.218,6.931-3.917,7.231-4.821,9.038-3.917,6.628.3-1.2.3-1.2-.6,0a4.816,4.816,0,0,0-.9,2.41c.3.3.3.6,0,.6-.3-.3-.6-.3-.9.3a54.816,54.816,0,0,1-5.424,10.546l-.6.9a10.234,10.234,0,0,1,3.013-.3c14.463-25.61,28.925-48.81,40.978-64.478a55.9,55.9,0,0,0,5.423-7.231c0-.3.9-1.2,1.506-2.109C438.971,3.615,441.683-.6,443.49.9c2.11,1.807.6.6,2.11.6.6,1.507-6.629,6.93-8.136,11.45,0,.6-.3,1.205-.6,1.205-.3.3-.3,0,0-.3.6-1.807,0-1.2-3.917,3.917-2.109,2.712-4.218,5.424-4.821,6.026-.3.3-1.807,2.411-3.012,4.219-1.507,1.808-2.412,3.314-2.712,3.314,0-.3,1.205-2.41,7.23-10.847,1.809-2.41,3.315-5.122,3.014-5.423-.3,0-.9,1.205-2.11,2.711-.9,1.205-3.314,4.52-5.422,7.533-5.424,6.93-16.873,25.008-16.573,25.912,0,.3,0,.6-.3.3-.6-.3-3.917,5.423-3.315,6.026,0,.3,0,.6-.3.3s-.6,0-.9.3c-.3.6-.3.9,0,1.2s.6.6.6.9c0,.6-.3.3-.905,0-.3-.6-.6-.3-1.2.9l-.6,1.808c.3.3,0,.3-.3.3s-.6,0-.3.3a5.254,5.254,0,0,1-.9,2.109c-.6.9-3.314,5.725-6.026,10.546l-1.2,2.109c1.2,0,2.711-.3,3.917-.3.3-.3.3-.6.6-.9,4.519-8.135,16.872-28.925,19.886-33.746a88.4,88.4,0,0,0,5.422-9.039c1.206-2.109,2.11-3.616,2.412-3.616.3-.3.3-.6.6-.9,0-.6,9.34-14.463,10.244-15.065.6-.6.6-.3.3.6-.9,2.109,2.109-1.507,3.616-4.519,2.109-4.821,3.314-3.616,3.314-3.917.3-.3-.6-1.2.3-1.2,1.808.3,4.821-5.122,6.328-1.206.9,2.109.3-.9,1.807,1.206.3.3.3-.3.9.9,1.505,1.808,2.109-.6,0,4.821,2.109-1.506,2.41-3.013,4.519,1.808.3,1.507-2.109,1.205.3,2.109,3.314.9-.3,4.52-1.506,6.327-1.809,2.411-3.616,4.52-5.122,6.93-9.642,14.161-20.188,30.432-30.432,47.606,3.917-.3,19.585-1.507,20.489-.9.6.6.6-.9,1.807-.3.6.3,3.014-.3,4.52,0,1.807.3,2.411-.9,4.218,0,1.808.3,3.616-1.2,3.013,0-.6.9,0-.3,2.11-.3,1.807,0,.6-.6,3.314,0,1.506,0,1.2-.9,3.013-.3,1.507.6,5.724-.6,8.737,1.2-.3,0-3.314.3-4.52.3.905-.9.6-.6-1.807-.6-.6,0-4.52.3-4.218,0,0,0-10.244.6-11.148.6a22.176,22.176,0,0,0-4.52,0c-1.507.3-1.2-.3-3.314,0-.6,0-8.437.6-8.437.3-.9-.6,1.507-.9-1.205,0,0,0-8.135.6-8.436.6a17.047,17.047,0,0,0-3.917,0l-1.206,1.808c9.944-.3,20.188-.6,29.83-.9,5.724,0,12.353-.6,18.078-.6,2.41,0,7.532-.3,6.327,3.615-.3.9-8.437,1.507-9.34,1.507-.3-.9,4.218-.9-4.821-1.206,0,0-20.188,0-10.847-.6,2.109,0,12.956-.3,14.161-1.2-4.821,0-11.449,0-16.27.3-6.327,0-14.462,0-20.789.9-1.809.6-2.712-.3-5.424,0a19.194,19.194,0,0,0-2.11.6h0l-1.5,2.411c10.244-.3,21.09-.6,31.334-1.2l.9-.3c2.109,0,13.86-.6,14.463,0-.6,1.206-2.11,1.206,1.507.6,3.012-.3,2.71-.6,5.724,0,.6.3.3-1.2,2.109,1.2-.9,4.218-5.423,8.738-5.423,9.039,0,.6,1.807.3-1.808,3.616-6.026,5.725-7.834,3.615-14.764,3.013-12.052-.6-23.5-.9-35.553-1.2h-7.232c-8.436,14.763-16.27,29.527-22.9,43.086-6.629,13.257-72.915,152.457-11.449,92.2a12.973,12.973,0,0,1,2.41-2.109c-.9,1.507,2.109-1.2,5.122-4.519a12.068,12.068,0,0,1,3.917-3.315c0,.3.3,0,0-.3,0-.9.9-2.109,1.807-1.808.3,0,3.616-3.314,7.232-7.532s6.93-7.834,7.23-7.834c1.507-1.205-.3-2.41,1.507-.9,1.2.6,6.629-7.834,4.52-3.616-.3.3.6,0,.9-1.506.6-1.2,1.2.9,1.2-1.808,0-.9.6.9,2.109-1.808,1.206-2.109,3.916-4.519,5.725-6.929,4.82-6.629,9.642-12.956,14.462-19.284a284.868,284.868,0,0,1-20.79,29.226l-1.2,1.507c-1.808,2.41-3.615,4.519-5.122,6.93-2.109,2.41-4.821,5.725-6.327,7.833-2.712,3.014-4.218,5.123-3.616,4.52,3.013-2.711,9.34-10.847,12.052-14.462.3,0,17.476-22.3,10.847-12.353-4.218,6.025-9.039,12.051-13.559,17.776-5.122,6.328-10.244,12.353-15.667,18.681-1.507,1.808-2.712,3.314-2.411,3.314,2.712-2.411,18.983-21.694,21.694-25.309,1.206-1.808.9-.3-.3.9-3.917,6.026-9.642,12.654-14.161,18.078-5.423,6.628-25.611,29.527-31.637,31.937,0,0-7.231,1.205-3.013.9,2.11,0,.3.9-1.507,1.206H353.4C349.786,260.323,348.882,259.72,346.17,257.31ZM329.9,202.775c.9-3.013.9-3.315.3-.9-.9,4.218-1.807,8.135-3.012,12.353C328.092,210.307,328.7,206.691,329.9,202.775Zm1.2,40.073c-.6-2.712-1.507-14.161-1.2-4.219.3,1.808.3,3.315.6,5.122C331.708,247.066,332.311,247.066,331.106,242.848Zm1.506-23.5c-.9,3.315-2.411,8.437-2.711,11.449l.3-.6C332.009,226.577,332.311,223.564,332.612,219.346Zm-1.506-21.694c0-.6.3-.9.3-.6v1.507C331.106,198.858,331.106,198.557,331.106,197.652Zm1.506-4.82c.6-1.507.6-1.507.3-.3a11.19,11.19,0,0,1-.6,2.712c-.3.9-.6.9-.3.3A11.2,11.2,0,0,1,332.612,192.832Zm7.231,14.764c.9-2.712,1.507-5.424,2.41-7.834,1.507-4.821,2.712-9.039,3.014-9.642s.3-.6-.3,0c-.3.3-.3,0-.3-1.506.3-1.206.6-2.11.9-1.808a1.323,1.323,0,0,0,.3-.9c-.3-.6,0-1.2.3-1.2s.3-.3.3-.9a.577.577,0,0,1,.3-.9c.3-.3.3-.6.3-1.205,0-.3,0-.9.3-.9.3-.3.6-.6.3-.9a1.808,1.808,0,0,1,.3-1.205,4.353,4.353,0,0,0,.6-.9c0-.3,0-.6.3-.6a3,3,0,0,1,.3-1.2c.3-2.41,10.847-26.816,16.269-38.566,3.315-7.533,9.341-20.187,10.546-22.3.6-.9,3.013-5.724,5.423-10.244l3.315-6.628h-2.411c-18.378,35.553-40.374,82.255-47.906,114.494-1.808,7.532-1.808,14.462-1.808,21.994C334.42,225.673,337.433,216.634,339.843,207.6Zm-6.327-17.476c0-.9,0-.9.3-.3a1.106,1.106,0,0,1-.3.9C333.516,191.024,333.214,190.421,333.516,190.12Zm.6,16.27c0-.6,0,0-.3.9,0,1.206,0,1.507.3.9C334.118,207.9,334.42,206.993,334.118,206.39Zm0-18.681c0-.6.3-.6.3-.3.3.6,0,.905,0,1.206C334.118,188.614,334.118,188.313,334.118,187.709Zm.905-2.108c0-.6,0-.6.3-.3,0,.6,0,.9-.3,1.2C335.023,186.5,334.721,186.2,335.023,185.6Zm.6-2.109c0-.6.3-.6.3-.3V184.4C335.625,184.4,335.625,184.094,335.625,183.492Zm.6,47.3c-.6,2.411-.9,9.341.9,10.848v-.3C337.131,238.629,337.433,233.206,336.228,230.8Zm0-49.413c.3-.6.3-.6.3-.3a.917.917,0,0,1,0,1.205C336.228,182.286,336.228,181.985,336.228,181.382Zm1.506,40.375c-1.2,3.013-1.506,11.449-.3,1.506C337.433,222.962,337.734,222.058,337.734,221.757Zm-.6-42.484c0-.6,0-.6.3-.3,0,.3,0,.9-.3.9C337.131,180.177,336.83,179.876,337.131,179.273Zm1.205,72.614c-.6.3,1.507,2.41,2.11,2.711C341.048,255.2,339.542,252.489,338.336,251.887Zm1.206-28.323c-.6.9-.3,2.411,0,.3Zm1.205,27.419c-.6-1.206-1.205.9,0,.9C341.048,251.887,340.747,251.284,340.747,250.983Zm0-32.239c-.6.6-.3,3.917,0,.9C340.747,219.346,341.048,218.744,340.747,218.744Zm1.808,36.155c-.9-2.41-2.109-1.205-.9,0C341.952,255.2,342.555,255.2,342.555,254.9Zm-1.2-38.867v1.2C341.35,219.045,341.952,214.827,341.35,216.032Zm1.2-3.314c-.3-.3-.3.9-.3.9C342.253,215.429,342.856,213.019,342.555,212.718Zm.3-18.681c-.3-.9-.3-.9.3-.3a1.485,1.485,0,0,1,.3.9C343.157,194.941,342.856,194.338,342.856,194.037Zm.6,16.27c-.3-.6-.3-.3-.6.3,0,.6.3.9.3.6C343.459,211.211,343.459,210.608,343.459,210.307Zm.9-47c0-.6.3-.6.3-.3.3.6,0,.9,0,1.205C344.363,164.208,344.363,163.907,344.363,163.3Zm1.2,36.156c0-.3-.3-.6-.6-.3a1.566,1.566,0,0,0-.6,1.205c0,.9,0,.9.6.3C345.267,200.063,345.568,199.46,345.568,199.46Zm12.956-71.408c0,.3-2.41,6.93-5.725,15.065-6.327,15.969-7.834,19.585-7.834,18.982C344.965,160.292,358.223,127.45,358.524,128.052Zm-12.956,94.006c-.9,1.808.6,1.506.3.3A.3.3,0,0,0,345.568,222.058Zm1.506-27.72a.417.417,0,0,0-.6,0,1.565,1.565,0,0,0-.6,1.205c0,.9,0,.9.6.3A5.092,5.092,0,0,0,347.074,194.338Zm-.6,24.707c0,.3-.3.6-.3.9C346.472,221.757,347.074,218.141,346.472,219.045Zm1.205-26.515a5.6,5.6,0,0,1,.6-2.109c.6-1.506.6-1.2-.6,0-.3.9-.9,1.808-.6,2.109C347.375,193.133,347.677,193.133,347.677,192.53Zm2.109-6.026c.6-1.506.9-3.012.6-3.314a.3.3,0,0,1,.3-.3,23.2,23.2,0,0,0,2.411-5.725c2.711-6.628,12.352-29.829,16.269-38.265,3.617-7.231,9.944-20.488,11.45-22.9.3-1.2,2.411-5.122,4.519-9.039.9-1.808,2.712-5.122,4.821-8.737h-1.807a27.312,27.312,0,0,1-1.507,2.711,23.9,23.9,0,0,0-1.507,3.013,16.747,16.747,0,0,1-2.41,4.219,36,36,0,0,0-2.109,4.519,8.6,8.6,0,0,1-1.2,2.41c-.6.9-1.506,3.013-2.411,4.821s-3.615,7.533-6.026,12.956c-2.711,5.423-5.423,11.148-6.025,13.257-.905,1.808-1.808,3.917-2.11,4.52s-1.2,2.41-1.807,3.917a32.383,32.383,0,0,1-2.11,4.519,8,8,0,0,0-.9,3.013,12.51,12.51,0,0,1-.9,2.411,32.807,32.807,0,0,0-2.712,6.327,2.3,2.3,0,0,1-.6,1.506,7.218,7.218,0,0,0-.9,2.11c-.3.9-.9,2.41-1.206,3.314a12.332,12.332,0,0,0-.6,2.109,3.32,3.32,0,0,1-.9,1.808,6.217,6.217,0,0,0-.6,1.808c.3.3,0,1.506-.6,2.41s-.9,2.109-.6,2.411S349.184,188.011,349.786,186.5Zm3.013,10.245c8.135-24.707,23.5-59.356,37.964-86.775,1.808-3.314,4.218-7.532,6.629-11.75h-1.507c-5.725,10.545-12.353,22.3-15.969,29.226-10.846,21.994-22.6,50.919-28.322,69.6-2.109,7.834-3.917,15.065-2.41,10.546C349.485,206.691,350.991,201.569,352.8,196.749Zm3.917-112.686-.9.3C350.69,86.171,359.126,83.159,356.716,84.063Zm4.218-1.206c.6.6-3.013.6-1.205,0C360.031,82.556,360.633,82.857,360.934,82.857Zm-.6,41.58c.3-.6.3-.6.3-.3a2.3,2.3,0,0,1-.6,1.206c-.3.6-.6.6-.6.3C359.729,125.341,360.031,124.738,360.331,124.437Zm12.053,115.4c.9-1.205,2.41-2.108,3.314-3.615.6-.6-.9.3-2.711,2.109,0,0-15.368,15.065-7.834,8.738A54.647,54.647,0,0,0,372.384,239.834Zm-8.136-1.506c18.681-16.571,32.842-35.252,49.413-53.932,6.328-7.232,2.11-2.11,0,.9-3.314,4.821-7.23,9.341-10.846,14.161-1.2,1.507-2.41,2.712-3.616,4.219a8.417,8.417,0,0,0-1.506,2.41c-.3.3-.3.6-.6.6s-.6.6-.9.905a9.183,9.183,0,0,1-1.506,2.109c-.6.6-1.808,2.108-3.013,3.615-1.206,1.205-3.616,4.219-5.424,6.026-1.807,2.109-3.917,4.218-4.217,5.122-.6.6-1.507,1.205-1.809.9s-.3,0-.3.3c.3.3-.3,1.206-1.2,2.11-1.205,1.205-1.808,1.506-1.507,1.205,1.2-1.808-1.2-.3-5.423,3.917a89.385,89.385,0,0,1-6.93,5.724C363.043,239.533,363.043,239.533,364.248,238.328Zm.6-84.364a2.058,2.058,0,0,0,.9-1.506c.3-.9-.9.3-1.2,1.506S364.248,155.169,364.851,153.964Zm1.807-2.712a1.052,1.052,0,0,0-.3-.6.934.934,0,0,0-.6.3c-.3.3,0,.6.3.6S366.658,151.554,366.658,151.252Zm2.712-6.628c4.52-9.943,14.463-28.322,24.406-46.4H392.27c-1.507,2.711-2.712,4.82-3.616,6.628-9.039,16.873-22.9,45.195-21.392,43.99C367.563,148.541,368.467,146.432,369.37,144.624Zm9.039,83.159s0-.3-.6-.3c-.3,0-.6,0-.3.3a1.051,1.051,0,0,0,.3.6S378.109,228.084,378.409,227.783ZM381.724,92.8l.6-1.2c-.9,0-2.109.3-3.012.3l-.6,1.206A10.227,10.227,0,0,1,381.724,92.8Zm1.2-2.109.3-.6a9.275,9.275,0,0,0-3.014.3l-.3.3Zm.9-1.808.6-.9h-3.014l-.3.9Zm0,146.131c.6-.6,1.2-1.205.9-1.205a11.693,11.693,0,0,0-1.506,1.205c-.9.9-1.2,1.2-1.2,1.2C382.326,236.219,382.929,235.917,383.833,235.014Zm1.808-149.746,1.2-1.808c-1.2,0-2.109.3-3.013.3l-.9,1.808A8.351,8.351,0,0,1,385.641,85.268Zm2.109-3.616.9-1.808-.9.3h-2.109l-.9,1.807Zm.6,10.847.6-1.206h-3.013l-.6,1.206Zm5.122,119.918c.6,0,0,.9-3.917,5.122-2.712,3.615-3.616,4.218-3.315,3.314A96.727,96.727,0,0,1,393.475,212.417ZM389.558,90.088l.3-.3h-3.314v.6A10.227,10.227,0,0,0,389.558,90.088Zm1.2-1.807.6-.9h-.3c-.9,0-2.109.3-3.314.3l-.3.9C388.353,88.582,389.558,88.281,390.763,88.281Zm2.109-3.616,1.2-2.109c-1.2.3-2.41.3-3.917.6l-.9,1.807A14.687,14.687,0,0,0,392.872,84.665Zm2.41-3.917a6.307,6.307,0,0,1,1.206-1.808c-1.507,0-3.013.3-4.218.3l-.9,2.109C392.571,81.049,393.776,81.049,395.282,80.748ZM393.776,92.2l.6-1.206h-1.2l-.9,1.206Zm1.2-2.11.3-.9-1.2.3-.3.6Zm1.2-2.109.3-.9h-.9l-.6.9Zm.9,4.219.9-1.507-1.506.3-.6,1.206Zm-.6,116.6a10.849,10.849,0,0,1,1.2-1.507c.6,0-.9,2.109-1.507,2.411C395.885,210.006,395.885,209.4,396.488,208.8Zm1.506-124.437,1.506-2.411h-.6c-.3.9-.9,1.507-1.205,1.507s-.3,0-.3.3a2.325,2.325,0,0,1-.3.9Zm.6,5.423.3-.6h-1.506l-.3.6Zm1.205-2.41.3-.6-1.2.3-.6.6Zm.9-7.231,1.206-2.109-1.206.3c-.3.6-.9,1.506-1.2,2.109Zm.3,11.75.6-1.2H400.1l-.6,1.2Zm.6-7.532,1.506-2.712h-1.2l-1.506,2.712Zm.6,5.122.6-.6h-1.506l-.6.9Zm-1.2,117.507c0-.6-.3-.3-.3.3v.6C401.007,207.9,401.007,207.294,401.007,206.993ZM404.02,74.12c1.507-2.712,1.808-3.917,1.507-3.917,0,0-2.411,3.917-4.52,7.231h1.2A32.781,32.781,0,0,1,404.02,74.12Zm-.3,12.956.3-.3h-1.506l-.3.6A3.28,3.28,0,0,1,403.719,87.076Zm-.6,115.7c1.506-1.206-.9,3.013-.9.9A1.358,1.358,0,0,1,403.116,202.775Zm-.3-140.708c.3-.3.6-.9.9-.9.3.3.3.6-.3.9-.3.3-.6.905-.9.905A1.492,1.492,0,0,1,402.815,62.067Zm1.2,17.777,1.205-2.109h-.9l-1.507,2.109Zm3.917-15.969c2.41-4.218,4.519-7.833,4.519-8.135s-2.109,2.712-4.519,6.93-4.52,7.834-4.52,8.135C403.116,71.106,405.225,68.094,407.937,63.875Zm-2.41,20.188,1.506-2.712c-.6,0-.9.3-1.506.3a16.755,16.755,0,0,0-1.507,2.411Zm7.231-19.284c3.615-6.026,6.327-10.846,6.025-10.846,0-.3-6.929,10.846-14.161,23.2h1.206C408.239,72.613,410.649,68.4,412.758,64.779Zm-6.026-9.641c.6-.9,1.2-1.808,1.507-1.808s.3.3.3.6c-1.506,2.41-2.108,3.314-2.41,3.012C405.828,56.945,406.129,56.343,406.732,55.138Zm.9,12.051c.3-.6-.3-.3-.6.3-1.205,1.808-1.205,2.712-.3,1.507A3.322,3.322,0,0,0,407.636,67.189Zm.6,12.354.9-1.808h.3l.3-.6h-.3c-.905,0-1.507.6-1.808.6q-.453.9-.9,1.808Zm1.807-3.013c8.437-14.161,17.174-28.322,22-35.553a89.016,89.016,0,0,1,6.026-9.039l1.2-2.109-1.506,1.506a16.521,16.521,0,0,0-2.109,2.712c-.6.9-1.808,2.711-2.712,3.916-5.423,7.533-12.353,18.079-18.982,29.226-2.41,4.219-4.519,8.437-5.424,9.341l-.3.3C408.841,76.831,409.444,76.53,410.046,76.53Zm1.507-15.969c-.3-.3-.9.9-1.507,2.109-1.807,3.013-1.507,3.013.3.3Zm-1.507-10.244a.648.648,0,0,1,.6-.6c.3,0,.3.3,0,.6a.648.648,0,0,1-.6.6Zm.9-2.109c0-.6.3-1.206.9-1.206s.6,0,0-.3c-.3-.6-.3-.6.3-.9h1.2c.3.3,0,.3-.3.3s-.6.3-.3.6c0,.3-.3.6-.6,1.2-.6.3-.905.905-.6.905,0,.3,0,.6-.3.3C410.95,49.112,410.649,48.811,410.95,48.208Zm.9,42.182-.6,1.2c12.354,0,25.008,0,37.662.3C438.067,90.088,424.81,89.787,411.854,90.39Zm1.807-33.445c1.2-1.807,1.2-2.109.6-1.807s-2.108,3.615-1.808,3.615S413.059,57.85,413.661,56.945Zm7.232,31.637c7.532-.6-5.725-.3-6.027-.3h-1.807l-.3.9C415.469,88.883,418.181,88.883,420.893,88.582Zm-6.327,4.52a3.265,3.265,0,0,0-1.808.3C414.566,93.7,419.989,92.8,414.566,93.1Zm-.3-6.931-.3.6.9-.3C416.675,86.473,415.771,86.171,414.264,86.171Zm2.109-45.8a1.105,1.105,0,0,0,.3-.9.648.648,0,0,1,.6-.6c.6,0,0,.9-.905,2.41-2.109,3.013-3.314,3.616-1.507.9C415.469,41.278,416.073,40.374,416.373,40.374Zm4.219,44.592h-5.424l-.3.3C417.88,85.268,420.29,85.268,420.592,84.966Zm-2.411-17.475a9.151,9.151,0,0,0-1.506,2.109c-1.809,3.013-1.507,3.315.3.3A16.445,16.445,0,0,0,418.181,67.491ZM419.386,47.3s-.9,1.2-2.108,3.013c-2.412,3.917-2.11,4.218.6.3C418.783,48.811,419.688,47.605,419.386,47.3Zm-.9,131.065a2.289,2.289,0,0,1-.6,1.206C416.073,181.684,416.976,178.671,418.483,178.369Zm2.712-92.5c-5.122,0-3.617,1.206,0,.3C421.8,86.171,421.2,85.87,421.2,85.87Zm-.6-4.821c.3,0,1.506,0,1.506.3C422.1,82.556,414.866,81.351,420.592,81.049Zm-.9,107.565c3.012-4.218,8.436-11.751,11.751-15.367-.6,1.507-9.944,14.161-11.751,15.969C418.181,191.024,419.386,189.216,419.688,188.614Zm-.3-152.76a8.26,8.26,0,0,1,1.206-2.109c.3-1.2.9-1.807,1.205-1.807s0,.9-.9,2.109c-.6,1.205-1.2,2.109-1.507,2.109S419.085,35.854,419.386,35.854Zm2.411,25.31s-.6.9-1.507,2.109c-1.807,3.013-1.205,3.314.6.3C421.5,62.369,422.1,61.465,421.8,61.164Zm.6-17.777a23.832,23.832,0,0,1,2.712-3.917c.3,0,.6-.3.3-.6,0-.3,0-.6.3-.6s.6,0,.6-.3c-.3-.3,0-.9.6-1.506s1.205-1.2,1.205-1.506a2.354,2.354,0,0,1,.9-1.206,18.7,18.7,0,0,0,1.206-1.807c0-.3,0-.3.3-.3.6,0,1.507-1.807,1.507-2.711,0-.3.6-.6.9-.9.6-.3.9-.6.6-.6s.3-.6.9-1.2a2.756,2.756,0,0,0,.9-1.506c-.3-.3,0-.6.6-.6.3-.3.6-.6.6-.9-.3-.3,0-.6.3-.6s.6-.3.9-1.205c.6-.6,1.506-2.411,2.712-3.616,2.108-3.012,2.711-4.82.6-2.711-2.712,2.711-7.834,9.943-14.763,20.789C422.7,41.579,419.688,46.1,419.688,46.4,419.688,47,420.29,46.4,422.4,43.387Zm-.9-1.507c.9-1.506,1.507-2.711,1.507-2.711-.3,0-1.2,1.205-2.109,2.711-.6,1.2-1.2,2.411-1.2,2.411A13.589,13.589,0,0,0,421.5,41.88ZM423.605,47a8.509,8.509,0,0,0,.9-1.807c-.3,0-.9.9-1.2,1.807a4.394,4.394,0,0,0-.9,1.507C422.7,48.509,423.3,47.906,423.605,47Zm4.519,39.169c4.52,0-3.616-.9-4.821,0A12.94,12.94,0,0,0,428.124,86.171Zm-2.41-5.122c.9.3-.6,1.206-.6.3C425.112,81.049,425.412,81.049,425.714,81.049Zm1.808-39.771.6-1.808c-.3,0-.6.9-1.205,1.808a4.414,4.414,0,0,0-.9,1.506C426.317,42.784,426.919,42.182,427.522,41.278Zm1.2,39.771c.3.3,1.507-2.109,1.507.3,0,.6,0-.6-1.206,0-.9.3-.9-.3-2.109.3C426.015,81.953,427.522,79.543,428.727,81.049Zm1.205-43.688c.3-.6.9-1.507.6-1.507a11.744,11.744,0,0,1-1.2,1.507c-.6.9-.9,1.808-.6,1.808Zm2.109,50.92c-2.109-.6-5.724.9-.6.3C431.74,88.582,432.041,88.582,432.041,88.281Zm22.3-1.507c.3.3,0,0,.6,0,8.738.6,14.463-1.2,1.807-1.506-8.134,0-18.68-.3-26.513.6,0,.6,6.628.3,7.532.6s.9-.9,1.2,0c0,0,6.327-.3,7.231.3A36.756,36.756,0,0,1,454.337,86.774Zm-21.693-53.33c.3-.6.6-1.205.3-1.205,0,0-.6.6-.9.9-.3.6-.6,1.2-.3,1.2A2.252,2.252,0,0,0,432.644,33.444Zm3.615,47.3h.6c.6-.3,1.506.6-2.11.6C429.329,81.049,433.246,80.447,436.259,80.748Zm1.507,3.917c-3.616-.9-9.642,1.2-.9.3C437.163,84.966,437.766,84.966,437.766,84.665Zm-.9-57.247c1.2-2.41,0-1.2-1.808,1.507-.6,1.2-.9,1.506-.3.9A17.185,17.185,0,0,0,436.862,27.418Zm1.2,60.863c-2.109-.6-5.725.9-.6.3C437.766,88.582,438.067,88.582,438.067,88.281Zm-2.109-85.57c.6-.9.6-.9.6-.3a6.267,6.267,0,0,1-.6,1.808c-.3.6-.6.6-.6.3C435.657,3.917,435.657,3.013,435.958,2.711ZM437.766.9c1.2-1.507.3.9,0,1.506-.6.6-.6.6-.6,0A2.3,2.3,0,0,1,437.766.9Zm2.109,87.377c-3.616.3,1.506.6,1.808.3C441.683,88.281,440.478,88.281,439.875,88.281ZM439.272,0V.3C439.574,2.41,438.368.6,439.272,0Zm1.808,27.418c.3-.6.6-1.2.3-1.2a5.605,5.605,0,0,0-.9,1.2c-.3.6-.6.9-.3.9A2.245,2.245,0,0,0,441.08,27.418Zm-.6,53.33c2.108-.6,7.532,0,1.2.3C441.08,81.351,440.779,81.351,440.478,80.748Zm3.615-57.85.6-.9-.905.9a9.166,9.166,0,0,0-1.506,2.11l-.6,1.205.9-1.205A9.172,9.172,0,0,0,444.093,22.9Zm.3,65.383c-.3,0-.6,0-.9.6C445,89.185,446.805,87.979,444.4,88.281Zm.9-80.448a3.189,3.189,0,0,0-.6,1.507C445.3,9.642,446.805,6.327,445.3,7.833Zm3.615,80.749h0C451.927,88.883,453.433,88.582,448.913,88.582Zm3.315,3.013h-1.2C448.913,91.9,451.927,92.8,452.228,91.6Zm2.712.3h-1.507C450.42,92.5,460.664,91.9,454.94,91.9Zm13.558-6.93c-.3.3-.3.3,0,.6C469.7,85.87,470.005,83.761,468.5,84.966Zm2.41-9.039,2.411-.3c.3.9-1.808,1.2-.6,0A.418.418,0,0,1,473.319,75.626Zm-.3.9"/></svg>