<?xml version="1.0" encoding="utf-8"?>
<!-- Generator: Adobe Illustrator 22.0.0, SVG Export Plug-In . SVG Version: 6.00 Build 0)  -->
<svg version="1.1" id="Layer_1" xmlns="http://www.w3.org/2000/svg" xmlns:xlink="http://www.w3.org/1999/xlink" x="0px" y="0px"
	 viewBox="0 0 783 512" style="enable-background:new 0 0 783 512;" xml:space="preserve">
<style type="text/css">
	.st0{fill:#4DC3FF;}
	.st1{fill:#3AACE6;}
	.st2{fill:#2B9FD9;}
	.st3{fill:#D7EBFF;}
	.st4{fill:#BDDEFF;}
	.st5{fill:#FFCC99;}
	.st6{fill:#E6563A;}
	.st7{fill:#FFE14D;}
	.st8{fill:#FFFFFF;}
	.st9{fill:#FFFFFF;stroke:#E6E6E6;}
	.st10{fill:#E7001A;}
	.st11{fill:#F49B1C;}
	.st12{opacity:0.3;fill:#E7001A;enable-background:new    ;}
	.st13{fill:#27337A;}
	.st14{fill:#FFFFFF;stroke:#C6C6C4;stroke-width:2;}
	.st15{clip-path:url(#SVGID_2_);}
</style>
<g>
	<path class="st14" d="M119.1,7h515.5c43.4,0,78.8,35.6,78.8,79.8v339.9c0,44.2-35.4,79.8-78.8,79.8H119.1
		c-43.4,0-78.8-35.6-78.8-79.8V86.8C40.3,42.6,75.7,7,119.1,7z"/>
	<path class="st10" d="M329.1,417.6c74.4,0,134.8-61,134.8-136.3c0-75.3-60.4-136.3-134.8-136.3s-134.8,61-134.8,136.3
		C194.3,356.6,254.7,417.6,329.1,417.6z"/>
	<path class="st11" d="M490.9,417.6c74.4,0,134.8-61,134.8-136.3c0-75.3-60.4-136.3-134.8-136.3s-134.8,61-134.8,136.3
		C356.1,356.6,416.4,417.6,490.9,417.6z"/>
	<path class="st12" d="M410,172.3c32.7,24.9,53.9,64.4,53.9,109c0,44.6-21.2,84.2-53.9,109c-32.7-24.9-53.9-64.4-53.9-109
		C356.1,236.7,377.2,197.2,410,172.3z"/>
</g>
<g>
	<defs>
		<polygon id="SVGID_1_" points="30.3,508 30.3,-4 752.7,-4 		"/>
	</defs>
	<clipPath id="SVGID_2_">
		<use xlink:href="#SVGID_1_"  style="overflow:visible;"/>
	</clipPath>
	<g class="st15">
		<path class="st13" d="M629.2,4.1H122.9c-46.6,0-84.4,37.8-84.4,84.4V426c0,46.6,37.8,84.4,84.4,84.4h506.3
			c46.6,0,84.4-37.8,84.4-84.4V88.5C713.6,41.9,675.8,4.1,629.2,4.1z"/>
		<path class="st8" d="M370.1,196.9c-0.3,26.9,23.2,42,41,50.9c18.2,9.2,24.4,15,24.3,23.2c-0.1,12.5-14.6,18.1-28.1,18.3
			c-23.5,0.4-37.2-6.6-48.1-11.8l-8.5,41c10.9,5.2,31.1,9.7,52.1,9.9c49.2,0,81.4-25.1,81.6-64c0.2-49.3-66.1-52.1-65.7-74.1
			c0.2-6.7,6.3-13.8,19.9-15.6c6.7-0.9,25.2-1.6,46.2,8.4l8.2-39.6c-11.3-4.2-25.8-8.3-43.9-8.3C403,135.1,370.4,160.6,370.1,196.9z
			 M572.3,138.6c-9,0-16.6,5.4-19.9,13.7L482,325.5h49.2l9.8-27.9h60.1l5.7,27.9h43.3l-37.8-187H572.3z M579.2,189.1l14.2,70.2
			h-38.9L579.2,189.1z M310.5,138.6l-38.8,187h46.9l38.7-187H310.5z M241.1,138.6l-48.8,127.3l-19.7-108.2
			c-2.3-12.1-11.5-19.1-21.6-19.1H71.3l-1.1,5.4c16.4,3.7,35,9.6,46.2,15.9c6.9,3.9,8.9,7.2,11.1,16.4l37.4,149.2h49.5l75.9-187
			H241.1z"/>
	</g>
</g>
</svg>
