<?xml version="1.0" encoding="utf-8"?>
<!-- Generator: Adobe Illustrator 22.0.0, SVG Export Plug-In . SVG Version: 6.00 Build 0)  -->
<svg version="1.1" id="Layer_1" xmlns="http://www.w3.org/2000/svg" xmlns:xlink="http://www.w3.org/1999/xlink" x="0px" y="0px"
	 viewBox="0 0 783 512" style="enable-background:new 0 0 783 512;" xml:space="preserve">
<style type="text/css">
	.st0{fill:#4DC3FF;}
	.st1{fill:#3AACE6;}
	.st2{fill:#2B9FD9;}
	.st3{fill:#D7EBFF;}
	.st4{fill:#BDDEFF;}
	.st5{fill:#FFCC99;}
	.st6{fill:#E6563A;}
	.st7{fill:#FFE14D;}
	.st8{fill:#FFFFFF;}
</style>
<path class="st0" d="M-614.1-114.3h-411.8c-27.6,0-50.1-22.5-50.1-50.1v-267.1c0-27.6,22.5-50.1,50.1-50.1h411.8
	c27.6,0,50.1,22.5,50.1,50.1v267.1C-564-136.8-586.5-114.3-614.1-114.3z"/>
<g>
	<path class="st1" d="M-614.1-481.7H-820v367.3h205.9c27.6,0,50.1-22.5,50.1-50.1v-267.1C-564-459.2-586.5-481.7-614.1-481.7z"/>
	<path class="st1" d="M-1025.9-147.7c-9.2,0-16.7-7.5-16.7-16.7v-267.1c0-9.2,7.5-16.7,16.7-16.7h411.8c9.2,0,16.7,7.5,16.7,16.7
		v267.1c0,9.2-7.5,16.7-16.7,16.7H-1025.9z"/>
</g>
<path class="st2" d="M-614.1-448.3H-820v300.5h205.9c9.2,0,16.7-7.5,16.7-16.7v-267.1C-597.4-440.8-604.9-448.3-614.1-448.3z"/>
<g>
	<path class="st3" d="M-953.6-181.1H-987c-9.2,0-16.7-7.5-16.7-16.7s7.5-16.7,16.7-16.7h33.4c9.2,0,16.7,7.5,16.7,16.7
		S-944.3-181.1-953.6-181.1z"/>
	<path class="st3" d="M-853.4-181.1h-33.4c-9.2,0-16.7-7.5-16.7-16.7s7.5-16.7,16.7-16.7h33.4c9.2,0,16.7,7.5,16.7,16.7
		S-844.2-181.1-853.4-181.1z"/>
</g>
<g>
	<path class="st4" d="M-753.2-181.1h-33.4c-9.2,0-16.7-7.5-16.7-16.7s7.5-16.7,16.7-16.7h33.4c9.2,0,16.7,7.5,16.7,16.7
		S-744-181.1-753.2-181.1z"/>
	<path class="st4" d="M-653-181.1h-33.4c-9.2,0-16.7-7.5-16.7-16.7s7.5-16.7,16.7-16.7h33.4c9.2,0,16.7,7.5,16.7,16.7
		S-643.8-181.1-653-181.1z"/>
</g>
<path class="st5" d="M-653-314.7h-100.2c-9.2,0-16.7-7.5-16.7-16.7v-66.8c0-9.2,7.5-16.7,16.7-16.7H-653c9.2,0,16.7,7.5,16.7,16.7
	v66.8C-636.3-322.2-643.8-314.7-653-314.7z"/>
<path class="st3" d="M-820-247.9h-167c-9.2,0-16.7-7.5-16.7-16.7c0-9.2,7.5-16.7,16.7-16.7h167c9.2,0,16.7,7.5,16.7,16.7
	C-803.3-255.4-810.8-247.9-820-247.9z"/>
<g>
	<path class="st4" d="M-803.3-264.6c0-9.2-7.5-16.7-16.7-16.7v33.4C-810.8-247.9-803.3-255.4-803.3-264.6z"/>
	<path class="st4" d="M-653-247.9h-100.2c-9.2,0-16.7-7.5-16.7-16.7c0-9.2,7.5-16.7,16.7-16.7H-653c9.2,0,16.7,7.5,16.7,16.7
		C-636.3-255.4-643.8-247.9-653-247.9z"/>
</g>
<path class="st6" d="M-953.6-314.7c-27.6,0-50.1-22.5-50.1-50.1s22.5-50.1,50.1-50.1s50.1,22.5,50.1,50.1S-925.9-314.7-953.6-314.7z
	"/>
<path class="st7" d="M-903.5-314.7c-27.6,0-50.1-22.5-50.1-50.1s22.5-50.1,50.1-50.1s50.1,22.5,50.1,50.1S-875.9-314.7-903.5-314.7z
	"/>
<path class="st8" d="M749,27H34c-11,0-20,8.9-20,20v417.1c0,11,9,19.9,20,19.9h715c11,0,19.9-8.9,19.9-19.9V47
	C769,35.9,760.1,27,749,27z M729.1,333.9c-56.8,8.8-101.5,53.4-110.2,110.2H164.2c-8.8-56.8-53.4-101.5-110.2-110.2V177.1
	c56.8-8.8,101.5-53.4,110.2-110.2h454.7c8.8,56.8,53.4,101.5,110.2,110.2L729.1,333.9L729.1,333.9z"/>
<path class="st8" d="M223.3,201.9c0.1,1.6,0.1,3.3,0.1,4.9c0,22.9-9.8,34-30.8,34c-12.4,0-21.1-4-26.5-12.3
	c-4.7-7.2-5.3-19.4-5.3-37.3s0.6-30,5.3-37.3c5.3-8.1,13.9-12.3,26-12.3c20.9,0,31.1,11.5,31.1,34.5v0.9h-21.4
	c-0.1-12.3-2.4-17.6-9.2-17.6c-9.2,0-9.3,9.2-9.3,30v1.8c0,22.2,0,31.8,9.3,31.8c7.2,0,8.9-5.2,8.9-17v-4.1L223.3,201.9L223.3,201.9
	z"/>
<path class="st8" d="M251.7,143.9h26.2l20.4,94.6h-22l-2.8-18.2H256l-2.7,18.2H231L251.7,143.9z M271.1,203.3l-6.4-41.4l-6.4,41.4
	L271.1,203.3L271.1,203.3z"/>
<path class="st8" d="M324.3,206.4v2.8c0,9.8,1.9,14.2,8.1,14.2c4.6,0,7.5-3.4,7.5-9c0-7.8-5.2-10.1-12.3-14.9
	c-8.1-5.3-14.3-9.5-17.7-14.2c-3.1-4.6-4.7-10.4-4.7-17.2c0-16.6,10.2-26.5,26.9-26.5c18.3,0,28.2,9.5,28.2,27.1
	c0,0.9-0.1,1.9-0.1,3h-20v-1.2c0-8.3-2.5-12.6-7.5-12.6c-4,0-6.8,3.1-6.8,8.3c0,6.8,5.6,9.3,13.8,14.6c7.4,4.9,13.6,8.3,17.3,14
	c2.7,4.1,4.1,9.6,4.1,16.3c0,19.1-10.2,29.6-28.4,29.6c-19.2,0-28.8-9.8-28.8-29.1c0-1.6,0-3.4,0.1-5.2L324.3,206.4z"/>
<path class="st8" d="M373.1,143.9h22.2v35.8h17.2v-35.8h22.2v94.6h-22.2v-39.3h-17.2v39.3h-22.2V143.9z"/>
<path class="st8" d="M487.2,153.9c5.3-8.3,14-12.3,26.5-12.3c12.3,0,20.9,4,26.3,12.3c4.7,7.2,5.3,19.5,5.3,37.3s-0.6,29.9-5.3,37.3
	c-5.5,8.3-14.2,12.3-26.3,12.3c-12.4,0-21.1-4-26.5-12.3c-4.7-7.2-5.3-19.4-5.3-37.3S482.4,161,487.2,153.9z M522.7,182.6
	c0-15.4,0-23.2-9.2-23.2c-9,0-9,7.8-9,23.2v17.2c0,15.5,0.1,23.1,9.2,23.1c8.9,0,9-7.5,9-23.1V182.6z"/>
<path class="st8" d="M558.7,143.9h23.1l18.3,58.4c-1.3-18.8-2.2-33.3-2.2-43.6v-14.8h19.8v94.6h-23.1L576,178.3
	c1.6,14.7,2.5,29.4,2.5,44.2v16h-19.8V143.9z"/>
<path class="st8" d="M162.2,274.1h22.4c13.6,0,22.3,1.4,27.6,9.4c5,7.3,5,18.3,5,34.1s0,26.8-5,34.1c-5.3,8-14,9.4-27.6,9.4h-22.4
	V274.1z M182.7,345.1c0.9,0.1,1.9,0.2,2.9,0.1c4.2,0,7.2-1.1,9-3.8c1.9-2.6,2-10.5,2-23.8v-3.9c0-10.9-0.3-17.4-1.9-20
	c-1.8-2.6-4.9-3.7-9.4-3.7c-0.9,0-1.7,0-2.6,0.1V345.1z"/>
<path class="st8" d="M229.6,274.1h47.3v16.8h-27v16h25v17.4h-25v19h27V361h-47.3L229.6,274.1L229.6,274.1z"/>
<path class="st8" d="M289.5,361v-86.9h20.4v69.4h24.3V361H289.5z"/>
<path class="st8" d="M343.3,274.1h20.4V361h-20.4V274.1z"/>
<path class="st8" d="M371.7,274.1h21.5l7.5,45.6c0.3,1.5,1.2,7.7,2.4,18.9c1-8.3,1.6-14.5,2.3-18.7l7.7-45.8h21.5L414.7,361h-23.6
	L371.7,274.1z"/>
<path class="st8" d="M442.6,274.1h47.3v16.8h-27v16h25v17.4h-25v19h27V361h-47.3V274.1z"/>
<path class="st8" d="M502.5,274.1h22.8c11.7,0,19.4,0.4,24.6,4.6c5.2,4.1,7.3,10,7.3,18.2c0,9.9-3.3,16.4-10.7,20.9
	c9.5,4.1,9.6,9.9,9.9,20.1c0.4,11.1-0.4,18.7,5,23.1h-23.8c-1.1-3.9-1.6-8-1.5-12.1c0-3.8,0.1-6.7,0.1-8.8c0-10.1-1.9-13.9-9.5-13.9
	h-4.2V361h-20.1v-86.9H502.5z M525.2,310.4c8.3,0,11.5-3,11.5-11.1c0-7.5-3.3-10.2-11.5-10.2c-0.8,0-1.6,0.1-2.6,0.1v21.1
	C523.6,310.2,524.4,310.4,525.2,310.4z"/>
<path class="st8" d="M580.2,324.1l-20-50h21.9l8.4,27.4l8.4-27.4H621l-20,50v37h-20.9L580.2,324.1L580.2,324.1z"/>
<path class="st8" d="M733.3,13.2H49.8C25.4,13.2,5.6,33,5.6,57.4v396.4c0,24.4,19.8,44.2,44.2,44.2h683.5
	c24.4,0,44.2-19.8,44.2-44.2V57.3C777.4,32.9,757.6,13.2,733.3,13.2z M737.7,462.6H45.3V48.5h692.3v414.1H737.7z"/>
</svg>
