<svg id="Layer_1" data-name="Layer 1" xmlns="http://www.w3.org/2000/svg" viewBox="0 0 341.135 319.172"><defs><style>.cls-1{fill:#e81224;}.cls-2{fill:#fefefe;}.cls-3{fill:#020101;}.cls-4{fill:#cb1829;}.cls-5{fill:#1a0606;}.cls-6{fill:#ee6850;}.cls-7{fill:#e3443b;}</style></defs><title>1_heart-emoji</title><polygon class="cls-1" points="177.265 71.806 222.656 32.153 256.569 32.153 308.221 62.936 320.743 112.501 307.699 150.066 275.352 183.458 177.265 71.806"/><path class="cls-2" d="M341.135,319.172H.354V.354H341.135ZM172,52.089c-2.952-2.719-5.924-5.57-9.016-8.284-21.738-19.081-46.95-26.672-75.528-22.158C65.3,25.148,46.848,35.69,32.4,52.854c-16.438,19.527-23.451,42.233-21.3,67.6,1.872,22.12,11.115,40.889,26.823,56.572q63.647,63.551,127.2,127.2c2.314,2.316,4.555,4.7,6.848,7.078.552-.526.812-.763,1.06-1.011Q240.1,243.217,307.158,176.125A87.62,87.62,0,0,0,332.9,122.749c2-17.685-.482-34.785-8.7-50.649-16.521-31.886-42.753-49.433-78.752-51.543-22.695-1.33-42.856,5.709-60.416,20.1C180.566,44.312,176.347,48.262,172,52.089Z"/><path class="cls-3" d="M172,52.089c4.344-3.827,8.563-7.777,13.023-11.433,17.56-14.39,37.721-21.429,60.416-20.1,36,2.11,62.231,19.657,78.752,51.543,8.219,15.864,10.7,32.964,8.7,50.649a87.62,87.62,0,0,1-25.737,53.376q-67,67.147-134.136,134.166c-.248.248-.508.485-1.06,1.011-2.293-2.374-4.534-4.762-6.848-7.078q-63.585-63.612-127.2-127.2c-15.708-15.683-24.951-34.452-26.823-56.572-2.147-25.368,4.866-48.074,21.3-67.6C46.848,35.69,65.3,25.148,87.459,21.647c28.578-4.514,53.79,3.077,75.528,22.158C166.079,46.519,169.051,49.37,172,52.089ZM292.236,162.578l0,.006.728.012.237,1.53,1.171-1.388-1.41-.14-.028-.767,5.013-5.911,2.857-3.932c.143-.1.334-.168.421-.3a72.636,72.636,0,0,0,12.11-40.424,67.368,67.368,0,0,0-3.437-21.247c-.935-2.8-2.256-5.48-3.4-8.213q-2.151-3.908-4.3-7.813a3.056,3.056,0,0,0-.239-.657,67.929,67.929,0,0,0-58.091-32.62,62.823,62.823,0,0,0-22.971,2.9c-6.234,2.118-12.3,4.628-17.564,8.749-3.471,2.718-7.276,5.057-10.5,8.038-5.936,5.5-11.545,11.347-17.3,17.038-1.191,1.178-2.431,2.307-3.484,3.3-4.43-4.4-8.529-8.647-12.831-12.681-4.808-4.508-9.576-9.107-14.76-13.156a64.307,64.307,0,0,0-32.079-13.609c-15.04-1.869-29.381.087-42.833,7.3-4.455,2.389-8.927,4.788-12.5,8.493l-2.575,2.029c-2.948,3.119-6.23,5.991-8.759,9.419A102.824,102.824,0,0,0,37.961,81.28,61.077,61.077,0,0,0,31,108.628a92.1,92.1,0,0,0,1.434,17.723c.743,4.394,2.634,8.594,4.014,12.88l1.871,4.588a13.336,13.336,0,0,1,.845,1.293,65.3,65.3,0,0,0,12.246,16.713Q79.74,190.21,108.1,218.562q21.411,21.444,42.8,42.914c7.03,7.037,14.107,14.026,21.268,21.141,1.3-1.371,2.64-2.847,4.048-4.253q17.805-17.787,35.633-35.553,13.956-13.925,27.912-27.849c7.105-7.057,14.282-14.042,21.382-21.1,2.834-2.82,5.52-5.789,8.321-8.642,3.249-3.31,6.542-6.576,9.833-9.845,2.878-2.859,5.78-5.694,8.671-8.54l4.168-2.293-.607-1.253,0,0Z"/><path class="cls-1" d="M57.042,57.088c3.571-3.7,8.043-6.1,12.5-8.493,13.452-7.214,27.793-9.17,42.833-7.3A64.307,64.307,0,0,1,144.452,54.9c5.184,4.049,9.952,8.648,14.76,13.156,4.3,4.034,8.4,8.285,12.831,12.681,1.053-.995,2.293-2.124,3.484-3.3,5.757-5.691,11.366-11.54,17.3-17.038,3.219-2.981,7.024-5.32,10.5-8.038,5.264-4.121,11.33-6.631,17.564-8.749a62.823,62.823,0,0,1,22.971-2.9,72.351,72.351,0,0,1,12.782,1.2A74.343,74.343,0,0,1,301.95,73.33a3.056,3.056,0,0,1,.239.657l-.717,1.487a22.377,22.377,0,0,0,1.519,2.4c1.116,1.352,2.329,2.624,3.5,3.929,1.145,2.733,2.466,5.409,3.4,8.213a67.368,67.368,0,0,1,3.437,21.247,72.636,72.636,0,0,1-12.11,40.424c-.087.136-.278.2-.421.3-1.43.143-2.841,2.084-2.857,3.932l-5.013,5.911-.7.753,0-.006-.717.711,0,0-3.561,3.546c-2.891,2.846-5.793,5.681-8.671,8.54-3.291,3.269-6.584,6.535-9.833,9.845-2.8,2.853-5.487,5.822-8.321,8.642-7.1,7.063-14.277,14.048-21.382,21.1q-13.986,13.893-27.912,27.849-17.817,17.775-35.633,35.553c-1.408,1.406-2.746,2.882-4.048,4.253-7.161-7.115-14.238-14.1-21.268-21.141q-21.416-21.438-42.795-42.914-28.334-28.379-56.688-56.737a65.3,65.3,0,0,1-12.246-16.713,13.473,13.473,0,0,0-.845-1.294l-.514-5.18-1.357.593c-1.38-4.286-3.271-8.486-4.014-12.88A92.1,92.1,0,0,1,31,108.628a61.077,61.077,0,0,1,6.96-27.348,102.824,102.824,0,0,1,7.747-12.744c2.529-3.428,5.811-6.3,8.759-9.418C55.569,58.75,57.044,58.856,57.042,57.088Zm44.59,58.4c.011-5.825.03-11.65.021-17.474a6.236,6.236,0,0,0-.291-1.332c.815-9.091-8.66-17.069-16.99-15.7-7.3,1.2-13.076,7.432-13.1,14.233-.031,9.475.4,18.952.639,28.428.252,2.278.5,4.556.764,6.9l1.3.16a45.15,45.15,0,0,0,10.292,16.1q25.288,25.275,50.574,50.555a14.871,14.871,0,0,0,18.466,2.451c4.848-2.795,7.717-8.618,7.449-13.231-.278-4.791-2.41-8.654-5.855-12.065-16.352-16.19-32.571-32.514-48.863-48.765A14.262,14.262,0,0,1,101.632,115.493Z"/><path class="cls-4" d="M306.492,81.8c-1.172-1.3-2.385-2.577-3.5-3.929a22.377,22.377,0,0,1-1.519-2.4l.717-1.487Q304.34,77.893,306.492,81.8Z"/><path class="cls-4" d="M36.449,139.231l1.357-.593c.129,1.295.321,3.238.514,5.18Z"/><path class="cls-5" d="M287.962,166.83l3.561-3.546.607,1.253Z"/><path class="cls-4" d="M297.942,155.92c.016-1.848,1.427-3.789,2.857-3.932Z"/><path class="cls-4" d="M57.042,57.088c0,1.768-1.473,1.662-2.575,2.03Z"/><path class="cls-5" d="M292.957,162.6l1.41.14-1.171,1.388-.237-1.53Z"/><path class="cls-5" d="M292.231,162.584l.7-.753c.009.256.019.511.028.767l0,0Z"/><path class="cls-5" d="M291.519,163.289l.717-.711Z"/><path class="cls-6" d="M71.912,123.647c-.235-9.476-.67-18.953-.639-28.428.023-6.8,5.8-13.034,13.1-14.233,8.33-1.368,17.805,6.61,16.99,15.7-.016,5.885-.038,11.77-.034,17.655a4.671,4.671,0,0,0,.3,1.151,14.262,14.262,0,0,0,4.405,10.254C122.329,142,138.548,158.322,154.9,174.512c3.445,3.411,5.577,7.274,5.855,12.065.268,4.613-2.6,10.436-7.449,13.231a14.871,14.871,0,0,1-18.466-2.451Q109.535,172.1,84.266,146.8a45.139,45.139,0,0,1-10.291-16.1Q72.943,127.176,71.912,123.647Z"/><path class="cls-7" d="M101.632,115.493a4.671,4.671,0,0,1-.3-1.151c0-5.885.018-11.77.034-17.655a6.236,6.236,0,0,1,.291,1.332C101.662,103.843,101.643,109.668,101.632,115.493Z"/><path class="cls-4" d="M71.912,123.647q1.032,3.528,2.063,7.057l-1.3-.161C72.416,128.2,72.164,125.925,71.912,123.647Z"/></svg>