<svg id="Layer_1" data-name="Layer 1" xmlns="http://www.w3.org/2000/svg" viewBox="0 0 805.416 290.031"><title>VYBE_logo</title><path d="M0,0H71.584L96.525,152.284c.884,4.982,4.058,25.83,8.156,62.989,3.174-27.676,5.425-48.52,7.711-62.545L138.222,0H209.81L143.647,290.031H64.8Z"/><polygon points="275.822 166.751 209.18 0 282.167 0 310.247 91.549 338.327 0 412.202 0 345.599 166.751 345.599 290.03 275.822 290.03 275.822 166.751"/><path d="M428.044,0h72.947c30.371,0,53.47.448,72.507,11.33,20.849,12.693,31.734,33.541,31.734,61.621,0,24.946-9.518,43.5-31.29,62.1,25.83,13.137,38.966,35.352,38.966,67.047,0,26.753-9.962,50.331-25.35,66.2-18.6,19.481-43.059,21.732-78.851,21.732H428.044Zm72.024,113.285c26.313,0,39.006-10.407,39.006-34.429,0-19.925-12.693-31.255-36.272-31.255H496.01v65.684Zm1.811,125.529c28.116,0,42.62-13.581,42.62-39.885,0-24.467-14.06-35.313-43.948-35.313H496.01v75.2Z"/><polygon points="647.709 0.002 805.416 0.002 805.416 56.198 715.235 56.198 715.235 109.669 798.588 109.669 798.588 167.672 715.235 167.672 715.235 231.105 805.416 231.105 805.416 290.031 647.709 290.031 647.709 0.002"/></svg>