<svg id="Layer_1" data-name="Layer 1" xmlns="http://www.w3.org/2000/svg" viewBox="0 0 80.063 51.183"><defs><style>.cls-1{fill:#f19337;}.cls-2{fill:#c0edf5;}.cls-3{fill:#1c1c1c;}</style></defs><title>Icons [Recovered]</title><circle class="cls-1" cx="25" cy="25.592" r="25"/><circle class="cls-2" cx="54.472" cy="25.592" r="24.11"/><path class="cls-3" d="M54.472,0a25.527,25.527,0,0,0-8.54,1.46l.87,2.457A22.835,22.835,0,0,1,51.976,2.74h0l.045-.005h0l.018,0h0l.026,0h.02l.026,0h0l.014,0h0l.015,0h.058l.015,0h0l.014,0h0l.025,0h.021l.015,0h2.171V0ZM40.726,4a25.636,25.636,0,0,0-6.411,5.821l2.051,1.607A23.194,23.194,0,0,1,39.689,7.99h0L39.7,7.98h0l.012-.009h0l.023-.02h0l.012-.009h0l.011-.009h0l.023-.019h0L39.8,7.9h0l.011-.009h0l.034-.028h0l.011-.009h0l.011-.009h0l.023-.019h0l.011-.009h0l.011-.009h0l.011-.01h0l.012-.009h0l.01-.009,0,0,.01-.008h0l.011-.009h0l.011-.009h0l.01-.008,0,0,.01-.008,0,0,.011-.008h0l.011-.009h0l.011-.009h0l.01-.009h0l.01-.009h0l.012-.009h0l.01-.008,0,0,.01-.008h0l.01-.008,0,0,.01-.008,0,0,.008-.007,0,0,.01-.008,0,0,.01-.007,0,0,.01-.008,0,0,.01-.008h0l.009-.008,0,0,.009-.007,0,0,.01-.008,0,0,.01-.007,0,0,.008-.007h0l.01-.008,0,0,.01-.008,0,0,.01-.008h0l.01-.008h0l.01-.008,0,0,.009-.007,0,0,.01-.007,0,0,.008-.007,0,0,.008-.007,0,0,.009-.007,0,0,.009-.007,0,0,.01-.007v0l.009-.007,0,0,.009-.007,0,0,.009-.006,0,0,.009-.006,0,0,.009-.006,0,0,.009-.006,0,0,.009-.007,0,0,.009-.007,0,0L40.5,7.34l0,0,.008-.006,0,0,.009-.007,0,0,.009-.006,0,0,.008-.006,0,0,.007,0,0,0,.009-.007,0,0,.008-.006,0,0,.009-.007,0,0,.007-.006,0,0,.008-.006,0,0,.009-.007,0,0,.009-.007,0,0,.007,0,0,0,.007,0,0,0L40.68,7.2l0,0,.009-.006,0,0,.009-.007,0,0,.008-.006,0,0,.01-.008,0,0,.009-.007,0,0,.009-.008,0,0,.009-.006,0,0,.01-.007,0,0,.009-.007,0,0L40.8,7.11l0,0,.009-.007,0,0,.009-.006,0,0,.009-.008,0,0,.009-.007,0,0,.01-.007,0,0,.008-.006,0,0,.009-.007,0,0,.009-.007,0,0,.009-.006,0,0,.008-.006,0,0,.009-.007,0,0L40.95,7l0,0,.01-.007,0,0,.01-.006,0,0,.009-.006,0,0L41,6.966l0,0,.009-.007,0,0,.01-.007h0l.009-.007h0l.011-.008,0,0,.01-.007,0,0,.01-.007,0,0,.01-.007h0l.01-.008h0l.011-.008,0,0,.01-.007,0,0,.011-.007h0l.01-.007,0,0,.011-.007,0,0,.01-.007,0,0,.01-.007,0,0,.01-.007h0l.01-.007,0,0,.01-.008h0l.01-.008h0l.011-.008h0l.01-.008h0l.01-.008h0l.011-.008h0l.011-.008h0l.01-.007h0l.01-.008h0l.011-.008h0l.011-.008h0l.012-.008h0l.012-.008h0l.012-.008h0l.011-.008h0l.025-.016h0l.012-.008h0l.012-.008h0l.038-.026h0l.012-.008h0l.012-.008h0l.026-.017h0c.194-.133.389-.262.588-.388L40.726,4ZM31.281,14.755A25.436,25.436,0,0,0,29,23.117l2.595.249q.051-.534.126-1.06h0l.009-.061v0l.006-.043v0l0-.016h0l0-.026h0l0-.016v0l0-.026h0l0-.015v0l0-.014v0l0-.026v0l0-.015v0l0-.016h0l0-.026v0l0-.014v0l0-.026v0l0-.015v0l0-.015h0l0-.026v0l0-.015v0l0-.015V21.83l0-.013v0l0-.012v-.016l0-.013v0l0-.012v0l0-.013v0l0-.008v0l0-.012v0l0-.012v-.018l0-.01v0l0-.012v0l0-.012v-.017l0-.012v0l0-.012v-.021l0-.007v-.006l0-.01v-.015l0-.008v-.015l0-.007v-.006l0-.01V21.46l0-.006v-.007l0-.009v-.007l0-.009V21.4l0-.009v-.006l0-.009v-.013l0-.01v-.006l0-.008v-.008l0-.007v-.007l0-.009V21.3l0-.01v-.014l0-.007v-.014l0-.01v-.006l0-.011v0l0-.009v-.006l0-.009v0l0-.011v-.005l0-.011v0l0-.009v-.005l0-.011v0l0-.011v-.005l0-.01v0l0-.012v0l0-.012v0l0-.013v0l0-.011v0l0-.012v0l0-.012v0l0-.011v0l0-.012v0l0-.012v0l0-.012v0l0-.012v0l0-.012v0l0-.012v0l0-.012v0l0-.012v0l0-.013v0l0-.013v0l0-.012v0l0-.013v0l0-.012v0l0-.012v0l0-.012v0l0-.013v0l0-.013h0l0-.013v0l0-.013v0l0-.013v0l0-.013h0l0-.013v0l0-.013v0l0-.013v0l0-.013h0l0-.013v0l0-.014v0l0-.013h0l0-.013v0l0-.013v0l0-.013h0l.006-.028v0l0-.014h0l.01-.044h0l0-.014h0l.01-.044h0l.01-.044h0l0-.015h0l.01-.044h0a22.86,22.86,0,0,1,1.54-4.424l-2.361-1.1Zm.4,13.812-2.585.334a25.4,25.4,0,0,0,2.558,8.282L33.973,36q-.217-.427-.418-.866h0c-.021-.046-.042-.092-.062-.138h0l-.006-.013h0l-.018-.04h0l-.006-.013h0L33.45,34.9h0l-.006-.013v0l0-.012h0l-.011-.026v0l0-.012v0l-.006-.012v0l0-.011v0l0-.012v0l-.006-.012v0l0-.012h0l-.005-.011v0l-.005-.011,0,0,0-.011v0l0-.009,0,0,0-.01,0,0,0-.01,0,0,0-.011v0l0-.01v0l-.005-.01,0,0,0-.011,0,0,0-.01,0,0,0-.01v0l-.005-.011,0,0,0-.011v0l0-.01,0,0,0-.011,0,0,0-.011,0,0-.005-.011v0l0-.009v0l-.005-.01,0-.005,0-.01,0,0,0-.008,0-.007,0-.007,0-.005,0-.01,0-.005,0-.009,0-.005,0-.008,0-.007,0-.007,0-.006,0-.008,0-.006,0-.006,0-.01,0,0,0-.008,0-.007,0-.006,0-.007,0-.008,0-.005,0-.01,0-.005,0-.007,0-.008,0-.006,0-.006,0-.01,0,0-.005-.013v0l-.009-.023v0l-.005-.011,0,0-.005-.013v0l0-.008h0l-.006-.015v0l0-.012v0l-.009-.023v0l-.006-.014v0l-.005-.014v0l-.009-.023h0l-.006-.015v0l-.009-.023h0L33.075,34v0l-.006-.014h0l-.016-.04h0l-.022-.056h0a22.876,22.876,0,0,1-1.352-5.322ZM36.841,40.34l-2,1.674a25.67,25.67,0,0,0,6.6,5.608l1.329-2.242a23.238,23.238,0,0,1-2.049-1.367h0L40.71,44h0l-.036-.027h0l-.012-.009h0l-.011-.008h0l-.023-.017h0l-.011-.009h0l-.012-.009h0l-.011-.008h0l-.012-.008h0l-.011-.008h0l-.011-.009h0l-.012-.008h0l-.022-.017h0l-.011-.009h0l-.011-.008h0l-.023-.018h0l-.011-.008h0l-.011-.008,0,0-.011-.008h0l-.011-.009h0l-.011-.008h0l-.01-.009h0l-.011-.008h0l-.01-.008h0l-.01-.008,0,0-.01-.008,0,0-.01-.008h0l-.01-.008h0l-.01-.008h0l-.01-.008,0,0-.01-.008v0l-.011-.008h0l-.01-.008h0l-.01-.008,0,0-.009-.008,0,0-.01-.008h0l-.009-.008h0l-.01-.008,0,0-.01-.007,0,0-.009-.007,0,0-.009-.008h0l-.009-.008,0,0-.01-.007,0,0-.009-.007,0,0-.01-.008h0l-.009-.008,0,0-.009-.007,0,0-.009-.007,0,0-.01-.008,0,0L40.06,43.5l0,0-.01-.008,0,0-.01-.007,0,0-.009-.007,0,0-.008-.007,0,0L40,43.451l0,0-.009-.007,0,0-.009-.008,0,0-.007-.007-.005,0-.007-.006,0,0-.009-.007,0,0-.008-.007,0,0-.009-.007,0,0-.008-.006,0,0-.009-.008,0,0-.008-.008,0,0-.009-.008,0,0-.008-.006,0,0-.008-.007,0,0-.009-.007,0,0-.008-.007,0,0-.008-.007,0,0-.007-.006,0,0-.009-.007,0,0-.008-.007,0,0-.008-.007,0,0-.007-.006,0,0-.008-.006,0,0-.009-.007,0,0-.008-.007,0,0-.006-.006L39.7,43.2,39.7,43.2l0,0-.008-.007,0,0-.007-.006,0,0-.006,0-.005-.005-.007-.005,0,0-.008-.006,0,0-.008-.006,0,0-.007-.006,0-.005-.006,0-.006-.006-.006,0,0,0-.008-.007-.005,0-.006,0-.006-.005,0,0-.007-.005,0-.005-.006,0-.006-.005-.005,0-.007-.007-.005,0-.006-.005-.006,0,0,0-.006-.006-.006-.005-.005,0-.007-.007-.005,0L39.463,43l-.005,0-.006-.005,0,0-.007-.006,0,0-.008-.007,0,0-.008-.007,0,0-.005-.005-.007-.006,0,0-.005,0-.007-.007-.005,0-.007-.006-.005,0-.005-.005-.007-.006-.005,0-.006-.005-.006-.006-.005,0-.007-.006-.005,0-.005-.005-.007-.006-.005,0-.007-.006,0-.005-.005,0-.008-.006,0,0-.007-.006-.006-.005,0,0-.007-.007,0,0-.007-.006,0-.005-.005,0-.007-.006-.005,0,0-.005-.007-.006,0,0-.006-.006-.005-.005-.005,0-.007-.006-.005-.005-.006,0-.006-.005,0-.005-.006-.006-.006,0-.005,0-.007-.006-.005,0-.007-.007,0,0-.006-.005-.006-.005-.005,0,0-.005-.007-.006,0,0-.007-.006,0-.005-.005,0-.007-.006,0-.005-.007-.006-.005,0,0-.005-.007-.006,0,0-.008-.007,0,0-.006,0,0-.005-.006,0,0,0-.008-.007,0,0-.008-.007,0,0-.006-.005-.006-.006-.005,0-.006-.006-.006-.005,0,0-.008-.007,0,0-.006-.005-.006-.006-.005,0L38.9,42.5l0-.005-.005,0-.007-.007-.005,0-.005-.005-.006-.006,0,0-.008-.007,0,0-.005-.005-.007-.006,0-.005-.008-.006,0,0-.005-.005-.006-.006-.006,0,0,0-.007-.007,0,0-.007-.007,0,0-.006,0-.006-.006,0,0-.006-.006-.006,0,0,0-.007-.007-.005,0-.006-.006,0-.005-.006,0-.005-.005-.006-.006,0,0-.008-.007,0,0-.007-.006-.005-.005-.005,0-.006-.006,0-.005-.005,0-.007-.006,0,0-.007-.007,0,0-.007-.006,0,0-.007-.006,0,0-.008-.007,0,0-.007-.008,0,0-.008-.007,0,0-.006-.006-.005-.005-.006-.006,0,0-.007-.008,0,0-.008-.007,0,0,0-.005-.006-.005-.006-.006,0,0-.008-.008,0,0-.007-.007,0,0-.007-.006-.005-.005-.006-.005,0,0-.007-.007,0,0-.007-.007,0,0-.008-.008,0,0-.006-.006-.005,0-.006-.007,0,0-.008-.008,0,0L38.4,42.02l0,0-.006-.006-.005,0L38.375,42l0,0-.008-.007,0,0-.007-.007,0,0-.007-.007,0,0-.006-.006-.005-.005-.006-.006,0,0-.008-.008,0,0-.008-.007,0,0-.006-.006,0-.005-.006-.006,0,0-.008-.008,0,0-.007-.007,0,0-.006-.006,0,0-.006-.007,0,0-.008-.008,0,0-.008-.008,0,0-.007-.007,0,0-.006-.006,0,0-.007-.007,0,0-.008-.008,0,0-.007-.007,0,0-.006-.006,0-.005-.007-.006,0,0-.008-.007,0,0-.008-.008,0,0-.006-.006,0-.005L38.1,41.72l0,0-.006-.006,0,0-.008-.008,0,0-.007-.006,0,0-.006-.006,0,0-.007-.007,0,0-.007-.007,0,0-.007-.008,0,0-.006-.007,0,0L38,41.621l0,0-.008-.008,0,0-.008-.007,0,0-.007-.007,0,0-.006-.006,0,0-.008-.007,0,0-.007-.008,0,0-.008-.008,0,0-.006-.006,0,0-.007-.007,0,0-.007-.008,0,0-.007-.008,0,0-.007-.008,0,0-.008-.007,0,0-.008-.008,0,0-.008-.008,0,0-.008-.008,0,0-.006-.007,0,0-.007-.008,0,0-.008-.008,0,0-.008-.008,0,0-.006-.008,0,0-.007-.008,0,0-.008-.008,0,0-.008-.008,0,0-.007-.007,0,0-.007-.007,0,0-.008-.009,0,0-.008-.008,0,0-.008-.009,0,0-.007-.008,0,0-.008-.009,0,0-.008-.009,0,0-.008-.008,0,0-.008-.008,0,0-.008-.009,0,0-.008-.008,0,0-.008-.009,0,0L37.6,41.2v0l-.008-.008,0,0-.008-.009,0,0-.008-.008,0,0-.008-.008,0,0-.008-.009,0,0-.008-.009,0,0-.008-.008,0,0-.009-.009,0,0-.007-.008,0,0-.008-.009,0,0-.008-.009,0,0-.009-.009,0,0-.008-.009v0l-.009-.009,0,0-.008-.009,0,0-.009-.009,0,0-.008-.01h0L37.413,41h0l-.009-.009,0,0-.008-.009,0,0-.009-.009v0l-.009-.009h0l-.009-.01,0,0-.008-.01,0,0-.009-.01h0l-.009-.01h0l-.008-.009,0,0-.009-.01,0,0-.008-.01,0,0-.009-.01h0l-.008-.009,0,0-.008-.01h0l-.009-.01v0l-.009-.01h0l-.009-.01h0l-.009-.01v0l-.009-.01,0,0-.008-.01h0l-.008-.01h0l-.009-.01v0l-.009-.01,0,0-.009-.01h0l-.009-.01v0l-.009-.009h0l-.009-.011h0l-.009-.011h0l-.009-.01v0l-.009-.01h0l-.009-.011h0l-.009-.011h0l-.009-.01v0l-.019-.021h0l-.009-.011h0l-.009-.01v0l-.009-.011h0l-.01-.011h0l-.009-.011h0L37,40.527h0l-.01-.011h0l-.019-.023h0l-.009-.011h0l-.009-.011h0l-.019-.022h0l-.009-.01,0,0-.009-.011h0l-.029-.034h0l-.009-.011h0l-.009-.011h0l-.019-.022Zm10.676,7.166L46.73,49.99a25.564,25.564,0,0,0,7.742,1.193q.42,0,.839-.013l-.084-2.605q-.3.009-.6.011h-1.4l-.025,0h-.45l-.025,0h0l-.025,0h0l-.026,0h-.183l-.013,0h-.015l-.026,0h0l-.027,0h0l-.027,0h-.014l-.013,0h-.071l-.026,0h0l-.027,0h0l-.027,0h0l-.026,0h0l-.026,0h0l-.027,0h0l-.027,0h0l-.027,0h0l-.041,0h0l-.026,0h0l-.027,0h0l-.027,0h0l-.027,0h0l-.027,0h0l-.028,0h0l-.068-.007h0l-.027,0h0l-.027,0h0l-.027,0h0l-.028,0h0l-.027,0h0a22.871,22.871,0,0,1-4.13-.9Zm19.928-2.938q-.862.591-1.781,1.105h0l-.037.021h0l-.015.008h0l-.037.02h0l-.014.007h0l-.037.02h0l-.013.008h0l-.014.008h0l-.022.013h0l-.013.007h0l-.014.007h0l-.007,0,0,0-.011.006,0,0-.011.006,0,0-.036.019,0,0-.011.006,0,0-.013.007h0l-.007,0h0l-.012.007,0,0-.011.006h0l-.013.007h0l-.008,0h0l-.013.008h0l-.011.006,0,0-.011.006,0,0-.007,0,0,0-.012.006,0,0-.01.005-.005,0-.011,0,0,0-.007,0,0,0-.01.005,0,0-.01,0-.005,0-.007,0-.007,0-.007,0,0,0-.01.005,0,0-.01,0-.005,0-.006,0L65.059,46l-.006,0-.007,0-.007,0-.006,0-.008.005-.006,0-.006,0-.008,0-.006,0-.007,0-.008,0,0,0-.009.005,0,0-.006,0-.008.005-.006,0-.008,0-.006,0-.006,0-.008,0-.006,0-.006,0-.009,0,0,0-.008,0-.006,0-.007,0-.007,0-.007,0,0,0-.009.005,0,0-.009,0-.005,0-.007,0-.006,0-.008,0-.005,0-.01,0-.005,0-.008.005,0,0-.008,0-.006,0-.008,0,0,0-.009.005-.005,0-.009,0,0,0-.008,0-.005,0-.009,0,0,0-.01.005,0,0-.01,0,0,0-.008,0,0,0-.009.005,0,0-.011.005,0,0-.01.005,0,0-.009,0,0,0-.011,0,0,0-.01.005,0,0-.011.005,0,0-.009,0,0,0-.011,0,0,0-.01.005,0,0-.011.005h0l-.01.005h0l-.011.006h0l-.011.006h0l-.012.006h0l-.012.006h0l-.011.005,0,0-.011.005,0,0-.012,0h0l-.01,0h0l-.012.006h0l-.011,0,0,0-.012.005h0l-.011.005h0l-.011.006h0l-.011.006h0l-.012,0h0l-.012,0h0l-.011.006h0l-.012.006h0l-.012.005h0l-.012.005h0l-.012.006h0l-.012.006h0l-.012,0h0l-.012,0h0l-.012.006h0l-.012.005h0l-.013.006h0l-.013.006h0l-.012.005h0l-.012.006h0l-.026.012h0l-.013.006h0l-.012,0h0l-.026.012h0l-.013.006h0l-.013.006h0l-.041.019h0l-.014.006h0l-.056.025h0a22.77,22.77,0,0,1-3.476,1.229l.668,2.52a25.415,25.415,0,0,0,7.877-3.614l-1.473-2.15Zm8.165-9.934a22.931,22.931,0,0,1-2.586,4.529h0l-.035.048h0l-.025.035h0l-.01.013v0l-.035.047h0l-.01.013h0l-.015.021h0l-.01.013v0l-.009.012h0l-.025.034h0l-.009.012v0l-.009.012h0l-.015.019,0,0-.008.01,0,0-.008.012h0l-.015.02v0l-.008.011,0,0-.007.01,0,0-.007.009,0,0,0,.006,0,0-.007.009,0,0-.007.009,0,0-.007.01,0,0,0,.006,0,0-.007.009,0,0-.007.008,0,0-.007.009,0,0,0,.006,0,.005-.006.008,0,0-.007.008,0,.005-.006.008,0,0,0,.006-.006.007,0,.005,0,.006-.006.007,0,0,0,.007,0,.006,0,0-.006.008,0,0-.006.007,0,0,0,.006,0,.006-.005.007,0,0-.007.008,0,0-.007.009,0,0,0,.007-.005.006,0,.007,0,0-.007.009,0,0-.007.008,0,0-.005.007,0,0-.006.007,0,0-.007.009,0,0-.008.009,0,0-.007.009,0,0-.006.008,0,0-.008.009,0,0-.008.01,0,0-.007.009,0,0-.006.008,0,0-.008.01,0,0-.008.01,0,0-.008.011v0l-.009.01h0l-.008.011,0,0-.008.01,0,0-.008.01,0,0-.008.01h0l-.008.01v0l-.009.01v0l-.009.01h0l-.018.023h0l-.009.011v0l-.009.01h0l-.028.035h0l-.01.012h0l-.039.046h0q-.388.468-.8.915L73.3,42.93a25.529,25.529,0,0,0,4.711-7.27l-2.4-1.026ZM79.729,21.45l-2.572.419a23.123,23.123,0,0,1,.267,2.475h0v.027h0v.018l0,.026v.046h0v.119h0V25.3h0v.073h0v.073h0v.149h0v.015h0v.048h0v.129h0v.064h0V25.9h0v.015h0v.048h0v.015h0v.048h0v.016h0v.032h0v.015h0v.016h0v.015h0v.016h0l0,.048h0v.015h0v.048h0v.016h0v.048h0a23.261,23.261,0,0,1-.346,3.332l2.565.457a25.834,25.834,0,0,0,.064-8.658ZM73.55,8.534l-1.942,1.738q.481.539.928,1.105h0l.037.048h0l.01.012h0l.028.035h0l.009.011h0l.028.035h0l.009.011h0l.009.012h0l.018.023h0l.008.011v0l.009.011h0l.018.024h0l.009.012h0l.009.011h0l.018.024h0l.008.011h0l.008.011h0l.009.012h0l.009.011h0l.009.011h0l.008.011v0l.008.011h0l.008.01v0l.008.01,0,0,.008.011h0l.008.011v0l.008.01h0l.008.011v0l.008.01v0l.009.011h0l.009.011h0l.008.011h0l.007.011,0,0,.008.011h0l.008.011h0l.008.01,0,0,.007.011,0,0,.008.01v0l.008.011h0l.007.01,0,0,.007.01,0,0,.008.01,0,0,.007.01h0l.007.01,0,0,.007.01,0,0,.008.01,0,0,.007.01v0l.007.009,0,0,.007.01,0,0,.007.01,0,0,.008.01,0,0,.006.01,0,0,.007.01,0,0,.007.01,0,0,.007.01,0,0,.006.008,0,0,.006.009,0,0,.006.009,0,0,.007.009,0,0,.006.009,0,0,.006.008,0,0,.007.009,0,0,.007.009,0,0,.006.008,0,.005.006.008,0,0,.007.01,0,0,.006.009,0,0,.006.01,0,0,0,.006,0,.005.006.008,0,0,.006.009,0,.005,0,.007,0,.006,0,.006,0,.006,0,.007,0,0,.006.009,0,0,.006.009,0,0,0,.007,0,.006,0,.006,0,.005.006.008,0,.005.006.008,0,.005,0,.006,0,.007,0,.006,0,.006,0,.007,0,0,.006.008,0,0,0,.007,0,.006,0,.006,0,.006,0,.007,0,.005.006.008,0,.005,0,.006,0,.007,0,.006,0,.007,0,.006,0,0,.005.008,0,.005.005.008,0,.005,0,.006,0,.007,0,.006,0,.005,0,.008,0,.006,0,.007,0,.006,0,.006,0,.007,0,.006,0,.005.005.008,0,.005.006.008,0,0,0,.006.005.007,0,.006.005.007,0,.006,0,.006,0,0,.006.008,0,0,.006.009,0,.005.006.009,0,0,0,.006,0,.008,0,.006,0,0,.006.009,0,0,.006.009,0,0,.007.011,0,0,0,.006,0,0,.007.01,0,0,.007.011,0,0,.008.012h0l0,.007h0l.008.013,0,0,.007.012,0,0,.008.013h0l0,.007h0L73.7,13l0,0,.008.012v0l.008.012v0l.014.021h0l.008.013h0l.009.014h0l.014.022h0l.008.014h0l.009.013h0l.023.036h0l.032.051h0l.009.015h0a22.93,22.93,0,0,1,1.887,3.632l2.411-.99a25.537,25.537,0,0,0-4.6-7.34ZM61.408.952l-.7,2.509q.693.2,1.37.432h0l.043.015h0l.015,0h0l.057.021h0l.014,0h0l.029.01h0l.014.005h0l.014,0h0l.028.01h0l.014,0h0l.014,0h0l.027.01h0l.014,0h0l.014,0h0l.028.01h0l.013.005h0l.013,0h0l.027.01h0l.013,0h0l.013,0h0l.027.01h0l.012,0h0l.013,0h0l.013,0h0l.013,0h0l.013,0h0l.013,0h0l.012,0h0l.013,0h0l.012,0h0l.012,0h0l.012,0h0l.012,0h0l.013,0h0l.012,0h0l.013,0h0l.013.005h0l.012,0h0l.012,0h0l.012,0h0l.012,0h0l.012,0h0l.012,0h0l.012,0h0l.011,0h0l.012,0h0l.012.005h0l.012,0h0l.012,0h0l.012,0,0,0,.011,0,0,0,.011,0h0l.012,0,0,0,.012,0h0l.012,0h0l.011,0h0l.011,0h0l.012,0h0l.011,0h0l.01,0h0l.011,0h0l.011.005h0l.011,0h0l.01,0,0,0,.01,0h0l.011,0h0l.011,0h0l.011,0h0l.011,0,0,0,.011,0,0,0,.011,0,0,0,.01,0h0l.009,0,.005,0,.01,0,0,0,.011,0h0l.011,0,0,0,.01,0,0,0,.011,0,0,0,.011,0,0,0,.01,0,0,0,.01,0h0l.01.005h0l.011,0h0l.01,0h0l.011,0,0,0,.01,0,0,0,.01,0,0,0,.008,0,0,0,.009,0,.005,0,.009,0,.005,0,.011,0,0,0,.009,0,0,0,.009,0,0,0,.01.005,0,0,.009,0,.005,0,.008,0,.007,0,.007,0,.005,0,.01,0,.005,0,.01,0,.005,0,.007,0,.006,0,.008,0,0,0,.01,0,.005,0,.01,0,0,0,.008,0,.007,0,.007,0,.005,0,.01,0,0,0,.01,0,0,0,.007,0,.006,0,.008,0,.005,0,.01,0,.005,0,.01,0,0,0,.008,0,.006,0,.008,0,0,0,.01,0,0,0,.01,0,0,0,.008,0,.006,0,.008,0,.005,0,.009,0,0,0,.01,0,.005,0,.007,0,.007,0,.008,0,.005,0,.009,0,.005,0,.01,0,.005,0,.007,0,.007,0,.007,0,.005,0,.01,0,0,0,.009,0,.006,0,.006,0,.008,0,.007,0,0,0,.009,0,0,0,.01,0,0,0,.007,0,.007,0,.007,0,.005,0,.01,0,.005,0,.008,0,.007,0,.006,0,.008,0,.006,0,.006,0,.009,0,0,0,.01,0,0,0,.007,0,.007,0,.006,0,.006,0,.009,0,.006,0,.007,0,.007,0,.006,0,.009,0,0,0,.007,0,.008,0,.006,0,.009,0,0,0,.007,0,.007,0,.007,0,.006,0,.008,0,.006,0,.007,0,.008,0,.005,0,.009,0,.006,0,.007,0,.007,0,.006,0,.008,0,.007,0,.006,0,.007,0,.007,0,.005,0,.01,0,0,0,.008,0,.006,0,.007,0,.008,0,.006,0,.006,0,.009,0,0,0,.008,0,.006,0,.007,0,.007,0,.007,0,.005,0,.009,0,.006,0,.007,0,.007,0,.006,0,.009,0,0,0,.007,0,.008,0,.006,0,.009,0,0,0,.006,0,.008,0,.006,0,.006,0,.009,0,0,0,.009,0,0,0,.007,0L64.7,5l.007,0,0,0,.009,0,.006,0,.007,0,.007,0,.006,0,.008,0,.006,0,.006,0,.009,0,0,0,.008,0,.007,0,.006,0,.007,0,.007,0,.005,0,.009,0,0,0,.009,0,.006,0,.006,0,.007,0,.007,0,.005,0,.009,0,.006,0,.008,0,.006,0,.007,0,.007,0,.006,0,.006,0,.009,0,0,0,.009,0,.005,0,.007,0,.006,0,.008,0,0,0,.009,0,0,0,.008,0,.007,0,.005,0,.008,0,.006,0,.006,0,.009,0,0,0,.008,0,.006,0,.007,0,.007,0,.006,0,.006,0,.009,0,0,0,.008,0,.006,0,.007,0,.007,0,.006,0,.006,0,.009,0,0,0,.008,0,.006,0,.007,0,.006,0,.007,0,.006,0,.008,0,.006,0,.007,0,.007,0,.006,0,.008,0,.006,0,.007,0,.007,0,.006,0,.007,0,.007,0,.006,0,.007,0,.007,0,.005,0,.009,0,.005,0,.009,0,0,0,.007,0,.006,0,.008,0,0,0,.009,0,.005,0,.008,0,.006,0,.007,0,0,0,.008,0,.005,0,.01,0,0,0,.009.005,0,0,.007,0,.006,0,.008,0,0,0,.009,0,.005,0,.009,0,0,0,.007,0,.007,0,.007,0,.005,0,.009,0,0,0,.009,0,0,0,.008,0,0,0,.008,0,.005,0,.009.006,0,0,.009.005,0,0,.007,0,0,0,.008,0,0,0,.01,0,0,0,.009.006.005,0,.007,0,.006,0,.008,0,0,0,.009,0,0,0,.01.006,0,0,.007,0,.006,0,.007,0,0,0,.009,0,.005,0,.009,0,0,0,.007,0,.006,0,.007,0,.005,0,.01,0,0,0,.009,0,0,0,.008,0,0,0,.008,0,.005,0,.009.005,0,0,.008.005.006,0,.007,0,0,0,.008,0,0,0,.009.006,0,0,.01.006,0,0,.009,0,0,0,.009.005,0,0,.01.006,0,0,.009.006,0,0,.008,0,.006,0,.007,0L66,5.7,66,5.7l0,0,.009,0,.005,0,.008,0,0,0,.008,0,0,0,.009.006.005,0,.008,0,.006,0,.006,0,.007,0,.007,0,0,0,.009,0,.005,0,.008,0,0,0,.007,0,.006,0,.007,0,0,0,.009,0,0,0,.01,0,0,0,.007,0,.006,0,.007,0,0,0,.009,0,.005,0,.009.006,0,0,.008,0,0,0,.009,0,0,0,.009.006,0,0,.01.006,0,0,.008,0,0,0,.009,0,0,0,.009.006.005,0,.009.006,0,0,.008,0,0,0,.01.006,0,0,.009.006,0,0,.01.006h0l.009.006,0,0,.01,0,0,0,.009.006,0,0,.01.006,0,0,.009,0,0,0,.009.006,0,0,.009.006,0,0,.009.006,0,0L66.5,6l0,0,.009.006,0,0,.01.006,0,0,.009,0,0,0,.008,0,0,0,.009.006,0,0,.009.006,0,0,.01.006,0,0,.009.006,0,0,.009.006,0,0,.01.006,0,0,.01.007,0,0,.009,0,0,0,.01.006,0,0,.009.006,0,0,.01.006,0,0,.008,0,0,0,.009,0,0,0,.009.006,0,0,.01.006,0,0,.008,0,0,0,.009,0,0,0,.01.006,0,0,.01.006,0,0,.009,0,0,0,.009.006,0,0,.01.007,0,0,.01.006,0,0,.01.006h0l.011.007,0,0,.01.006,0,0,.01.007,0,0,.008,0,0,0,.009,0,0,0,.01.006,0,0,.01.007,0,0,.009.005,0,0,.01.007,0,0,.01.006,0,0,.01.007,0,0,.009,0,0,0,.01.007,0,0,.009.006,0,0,.011.007,0,0,.009.006h0l.01.007,0,0,.01.007h0l.01.007,0,0,.009.006h0l.01.007,0,0,.01.007,0,0,.01.007h0l.01.007h0l.01.007,0,0,.01.006,0,0,.01.007h0l.011.007h0l.01.007,0,0,.011.007,0,0,.011.007h0l.01.007h0l.011.007,0,0,.01.007h0l.011.008h0l.01.006,0,0,.01.007,0,0,.01.007h0l.01.007,0,0,.01.007h0l.01.007h0l.01.008h0l.01.007,0,0,.01.007h0l.01.007,0,0,.01.007h0l.01.008h0l.01.007h0l.011.007,0,0,.01.007,0,0,.011.007h0l.009.007h0l.01.007,0,0,.01.007,0,0,.011.007h0l.01.007,0,0,.011.007,0,0,.01.007,0,0,.01.007h0l.01.007h0l.01.007,0,0,.01.007,0,0,.01.007,0,0,.01.007h0l.011.007,0,0,.01.007,0,0,.01.007,0,0,.008.006,0,0,.01.007h0l1.5-2.128A25.447,25.447,0,0,0,61.408.952ZM54.472,0V2.606h.186c.3,0,.608.011.91.025l.122-2.6Q55.084,0,54.472,0Z"/></svg>