<svg id="Layer_1" data-name="Layer 1" xmlns="http://www.w3.org/2000/svg" viewBox="0 0 74.879 51.57"><defs><style>.cls-1{fill:#c0edf5;}.cls-2{fill:#1c1c1c;}</style></defs><title>Icons</title><circle class="cls-1" cx="25" cy="26.57" r="25"/><g id="Element"><path class="cls-2" d="M70.667,19.374,55.956.5a1.288,1.288,0,0,0-2.033,0l-10.3,13.222A1.289,1.289,0,1,0,45.652,15.3L54.939,3.387,68.633,20.959a17.361,17.361,0,1,1-27.387,0,1.289,1.289,0,0,0-2.034-1.585,19.939,19.939,0,1,0,31.455,0Z"/><path class="cls-2" d="M59.969,45.553a1.278,1.278,0,0,0,.644-.174,20.043,20.043,0,0,0,7.533-7.717,1.289,1.289,0,1,0-2.263-1.236,17.454,17.454,0,0,1-6.561,6.721,1.29,1.29,0,0,0,.647,2.406Z"/></g></svg>