<svg id="Layer_1" data-name="Layer 1" xmlns="http://www.w3.org/2000/svg" viewBox="0 0 75.309 50"><defs><style>.cls-1{fill:#c0edf5;}</style></defs><title>Icons [Recovered]</title><circle class="cls-1" cx="25" cy="25" r="25"/><path d="M53.712,2.205l0,45.608a2.792,2.792,0,0,0,1.222.221,2.518,2.518,0,0,0,1.228-.238L56.162,2.188a2.771,2.771,0,0,0-1.223-.222A2.5,2.5,0,0,0,53.712,2.205Z"/><path d="M34.974,13.513a2.446,2.446,0,0,0-.391,1.151l39.5,22.8a2.712,2.712,0,0,0,.818-.977,2.417,2.417,0,0,0,.391-1.152L35.8,12.541A2.527,2.527,0,0,0,34.974,13.513Z"/><path d="M74.9,13.513a2.531,2.531,0,0,0-.829-.971L34.57,35.35a2.741,2.741,0,0,0,.405,1.138,2.482,2.482,0,0,0,.835.973l39.5-22.81A2.725,2.725,0,0,0,74.9,13.513Z"/><path d="M49.817,5.272a2.529,2.529,0,0,0-.829.972A2.431,2.431,0,0,0,48.6,7.4l5.116,2.949V7.521Z"/><path d="M60.062,5.272,56.167,7.521v2.822L61.3,7.382a2.726,2.726,0,0,0-.4-1.139A2.54,2.54,0,0,0,60.062,5.272Z"/><path d="M60.074,44.466a2.771,2.771,0,0,0,.817-.978,2.455,2.455,0,0,0,.392-1.152l-5.116-2.949V42.21Z"/><path d="M49.823,44.567l3.889-2.25V39.494l-5.129,2.962a2.75,2.75,0,0,0,.405,1.138A2.482,2.482,0,0,0,49.823,44.567Z"/><path d="M35.511,19.7a2.75,2.75,0,0,0,.4,1.138,2.48,2.48,0,0,0,.835.974l5.112-2.957-2.445-1.411Z"/><path d="M43.345,10.98a2.763,2.763,0,0,0-1.221-.222A2.506,2.506,0,0,0,40.9,11l.005,4.491L43.345,16.9Z"/><path d="M72.643,27.927l-5.117,2.954,2.443,1.411,3.908-2.256a2.733,2.733,0,0,0-.405-1.138A2.522,2.522,0,0,0,72.643,27.927Z"/><path d="M66.533,39.011a2.769,2.769,0,0,0,1.222.222,2.509,2.509,0,0,0,1.227-.238l0-4.492-2.445-1.412Z"/><path d="M40.9,39.012a2.79,2.79,0,0,0,1.223.221,2.5,2.5,0,0,0,1.226-.238l0-5.9L40.9,34.5Z"/><path d="M36.009,29.107a2.44,2.44,0,0,0-.392,1.151l3.9,2.243,2.444-1.411-5.118-2.954A2.522,2.522,0,0,0,36.009,29.107Z"/><path d="M68.977,10.993a2.765,2.765,0,0,0-1.222-.222,2.5,2.5,0,0,0-1.227.239l0,5.9L68.977,15.5Z"/><path d="M72.881,21.95a2.756,2.756,0,0,0,.819-.978,2.433,2.433,0,0,0,.391-1.152L70.2,17.578l-2.446,1.411Z"/></svg>