<svg id="Layer_1" data-name="Layer 1" xmlns="http://www.w3.org/2000/svg" viewBox="0 0 74.879 51.57"><defs><style>.cls-1{fill:#f19337;}.cls-2{fill:#1c1c1c;}</style></defs><title>Product-Page</title><circle class="cls-1" cx="25" cy="25.948" r="25"/><path class="cls-2" d="M70.667,19.374,55.956.5a1.288,1.288,0,0,0-2.033,0l-10.3,13.222A1.289,1.289,0,1,0,45.652,15.3L54.939,3.387,68.633,20.959a17.361,17.361,0,1,1-27.387,0,1.289,1.289,0,0,0-2.034-1.585,19.939,19.939,0,1,0,31.455,0Z"/><path d="M67.211,31.62,61.976,24.9a.989.989,0,0,0-1.507,0l-3.5,4.486c-.709.808-1.8,2.307-1.845,2.37l-.125.1.011.07a7.588,7.588,0,1,0,12.2-.306ZM56.745,32.787l.04-.057c.4-.539,1.035-1.343,1.457-1.875l2.98-3.812L65.7,32.794a5.682,5.682,0,1,1-8.959-.007Z"/></svg>