<svg id="Layer_1" data-name="Layer 1" xmlns="http://www.w3.org/2000/svg" viewBox="0 0 82.196 55.543"><defs><style>.cls-1{fill:#f19337;}.cls-2{fill:#ffbe83;}.cls-3{fill:#fff;}</style></defs><title>Product-page</title><circle class="cls-1" cx="25" cy="27.783" r="25"/><path class="cls-2" d="M3.366,29.844a39.826,39.826,0,0,0-.7-6.754C2.4,21.541,2.105,20,1.806,18.455a24.982,24.982,0,0,0,1.56,21.85V29.844Z"/><path class="cls-2" d="M10.272,41.6c-.008-2.037-.037-4.073-.057-6.109-.019-1.9-.031-3.8-.011-5.7a31.772,31.772,0,0,0-.978-7.141C8.536,19.514,7.711,16.412,7,13.283c-.17-.745-.353-1.511-.525-2.287a25.035,25.035,0,0,0-2.5,3.275c.639,2.833,1.352,5.65,1.958,8.491a33.83,33.83,0,0,1,.936,7.055V42.091c0,.947-.038,1.909-.023,2.866a25.123,25.123,0,0,0,4.081,3.486c-.089-.231-.177-.461-.252-.7C10.042,45.771,10.28,43.647,10.272,41.6Z"/><path class="cls-2" d="M16.766,41.076c-.363-2.433-.873-4.841-1.322-7.259a45.7,45.7,0,0,1-.887-6.647c-.072-1.979-.016-3.968.015-5.946.033-2.1.082-4.19.117-6.285.037-2.158-.143-4.4.075-6.548a8.46,8.46,0,0,1,1.815-4.15,24.936,24.936,0,0,0-6.517,3.494,48.833,48.833,0,0,0,.8,6.331c.4,2.657.851,5.307,1.238,7.966a44.807,44.807,0,0,1,.657,6.785c-.016,2.027.147,4.053.33,6.071.2,2.159.428,4.316.569,6.48s-.091,4.4.512,6.507a19.768,19.768,0,0,0,1.146,2.962,24.8,24.8,0,0,0,3.176,1.085,28.869,28.869,0,0,1-1.105-4.047C16.979,45.638,17.1,43.333,16.766,41.076Z"/><path class="cls-2" d="M23.975,44.558a25.205,25.205,0,0,0-.756-3.816c-.789-3.014-1.836-5.955-2.776-8.923-1.186-3.749-3.14-8.453-.686-12.079.793-1.171,1.856-2.126,2.692-3.264a8.751,8.751,0,0,0,1.488-4.6c.4-3.453,2.833-6.049,4.884-8.807A25.205,25.205,0,0,0,25,2.783c-.385,0-.768.012-1.149.029-1.791,2.353-3.815,4.6-4.2,7.6a28.394,28.394,0,0,1-1,5.459c-.493,1.506-1.1,2.972-1.568,4.487a13.56,13.56,0,0,0-.748,5.029,41.725,41.725,0,0,0,1.489,7.272c.72,2.694,1.52,5.371,2.129,8.094A28.2,28.2,0,0,1,20.6,44.68c.084,1.062.019,2.131.093,3.2.109,1.556.341,3.095.594,4.632a25.251,25.251,0,0,0,2.826.254c-.06-1.672-.113-3.343-.114-5.015C24,46.685,24.082,45.615,23.975,44.558Z"/><path class="cls-2" d="M27.383,39.662c-.376-2.515-.86-5.012-1.3-7.516-.394-2.238-.771-4.487-.956-6.753a8.889,8.889,0,0,1,1.224-5.124C27.288,18.55,28.5,17,29.476,15.305a13.1,13.1,0,0,0,1.116-2.373,14.193,14.193,0,0,0,.472-3.017,21.025,21.025,0,0,1,1.911-5.833c-.778-.274-1.551-.466-2.366-.667-1.757,2.509-3.83,5.311-4.287,8.375a12.14,12.14,0,0,1-.469,2.815A7.023,7.023,0,0,1,24.777,16.4c-.937,1.173-2.122,2.127-3.012,3.34A6.13,6.13,0,0,0,20.6,24.214a43.167,43.167,0,0,0,1.8,7.562c.877,2.915,1.847,5.807,2.594,8.76a29.505,29.505,0,0,1,.753,3.815,27.572,27.572,0,0,1,.047,3.176c0,1.714.042,3.521.1,5.234.9-.041,1.758-.1,2.7-.24-.278-1.957-.574-4.166-.685-6.137C27.781,44.118,27.72,41.916,27.383,39.662Z"/><path class="cls-2" d="M33.1,37.221a41.637,41.637,0,0,1,2.108-4.074,13.261,13.261,0,0,0,1.547-4.385c.149-1.068.157-2.132.377-3.195a34.657,34.657,0,0,1,1.147-4.031c1.028-3.043,2.268-6.008,3.34-9.036.284-.8.6-1.666.893-2.553A25.085,25.085,0,0,0,38.07,6.471c0,.17,0,.341,0,.511.049,5.026-3.028,9.423-4.872,13.927a17.075,17.075,0,0,0-1.391,6.236c-.045,1.851-.182,3.7-.341,5.543-.346,4-1,8.156-.417,12.157a62.187,62.187,0,0,0,1.51,6.772,25,25,0,0,0,2.365-.886,65.384,65.384,0,0,1-2.215-7.44A9.915,9.915,0,0,1,33.1,37.221Z"/><path class="cls-2" d="M39.485,37.339a27.286,27.286,0,0,1,3.033-3.564,7.912,7.912,0,0,0,2.117-4.014c.16-1.074.188-2.151.4-3.223.29-1.478.686-2.934,1.1-4.381.477-1.662.993-3.313,1.514-4.962a24.988,24.988,0,0,0-2.1-3.648c-.937,2.822-1.926,5.628-2.795,8.472a45.982,45.982,0,0,0-1.177,4.47c-.215,1.084-.209,2.171-.37,3.256a6.223,6.223,0,0,1-2.236,3.722,19.994,19.994,0,0,0-3.22,3.005c-1.28,1.781-1.091,3.836-.6,5.868a55.242,55.242,0,0,0,2.38,7.073,25.064,25.064,0,0,0,2.727-1.832A39.107,39.107,0,0,1,38.936,43.3C38.438,41.2,38.32,39.236,39.485,37.339Z"/><path class="cls-2" d="M49.371,22.219c-.037.155-.081.308-.117.462a52.55,52.55,0,0,0-1.1,7.121,17.548,17.548,0,0,1-1.561,5.232c-.764,1.757-1.634,3.473-2.244,5.293a11.909,11.909,0,0,0-.628,4.018,24.966,24.966,0,0,0,5.651-22.126Z"/><circle class="cls-3" cx="54.424" cy="27.772" r="27.772"/><circle class="cls-1" cx="54.424" cy="27.772" r="25"/></svg>