<svg id="Layer_1" data-name="Layer 1" xmlns="http://www.w3.org/2000/svg" viewBox="0 0 79.196 50"><defs><style>.cls-1{fill:#ffd119;}.cls-2{fill:#1c1c1c;}</style></defs><title>Product-Page</title><circle class="cls-1" cx="25" cy="25" r="25"/><path class="cls-2" d="M79.2,25A25,25,0,0,0,54.213,0h-.029a25,25,0,0,0,0,50h.027A25,25,0,0,0,79.2,25ZM69.274,11.374l.2-.208.083-.082a1.184,1.184,0,0,1,1.746.155,21.864,21.864,0,0,1,4.627,10.685c.01.068.02.136.037.232.241,1.341-.455,1.7-.974,1.783H56.878L69.263,11.385l-.005.01ZM56.491,3.157A21.851,21.851,0,0,1,68.008,7.928a1.168,1.168,0,0,1,.039,1.663l-.093.094L55.265,22.2V4.17A1.147,1.147,0,0,1,56.491,3.157ZM40.39,7.928A21.848,21.848,0,0,1,51.907,3.157,1.147,1.147,0,0,1,53.132,4.17V22.2L40.443,9.685l-.093-.094A1.167,1.167,0,0,1,40.39,7.928ZM32.425,22.156c.018-.1.028-.164.038-.232a21.863,21.863,0,0,1,4.626-10.685,1.184,1.184,0,0,1,1.746-.155l.083.082.2.208.017.021-.006-.01L51.519,23.939H33.4C32.881,23.852,32.184,23.5,32.425,22.156Zm4.709,16.662c-.159-.2-.316-.395-.469-.6-.046-.064-.083-.114-.113-.151a21.846,21.846,0,0,1-4.131-10.26c-.231-1.457.673-1.715,1.176-1.745h.261l.052,0-.017,0H51.529L38.848,38.918A1.176,1.176,0,0,1,37.134,38.818Zm14.909,8.038a21.847,21.847,0,0,1-11.6-4.742,1.164,1.164,0,0,1-.2-1.587l.433-.439.009-.007-.006,0L53.132,27.466v18.26A1.172,1.172,0,0,1,52.043,46.856Zm15.912-4.742a21.853,21.853,0,0,1-11.6,4.742,1.172,1.172,0,0,1-1.089-1.13V27.466L67.713,40.084l-.006,0,.01.007.433.439A1.165,1.165,0,0,1,67.955,42.114Zm3.777-3.893c-.152.2-.31.4-.469.6a1.176,1.176,0,0,1-1.714.1L56.868,26.065H74.505l-.017,0,.052,0h.26c.5.03,1.408.288,1.176,1.745a21.844,21.844,0,0,1-4.13,10.26C71.816,38.107,71.778,38.157,71.732,38.221Z"/></svg>