<svg id="Layer_1" data-name="Layer 1" xmlns="http://www.w3.org/2000/svg" xmlns:xlink="http://www.w3.org/1999/xlink" viewBox="0 0 79.304 50"><defs><style>.cls-1{fill:url(#linear-gradient);}.cls-2{fill:#1c1c1c;}</style><linearGradient id="linear-gradient" x1="3.346" y1="37.502" x2="46.654" y2="12.498" gradientUnits="userSpaceOnUse"><stop offset="0" stop-color="#e3a95b"/><stop offset="0.128" stop-color="#ecb56d"/><stop offset="0.35" stop-color="#fac788"/><stop offset="0.481" stop-color="#ffcd92"/><stop offset="0.83" stop-color="#de9f57"/><stop offset="1" stop-color="#d18c40"/></linearGradient></defs><title>Product-Page</title><circle class="cls-1" cx="25" cy="25" r="25"/><path class="cls-2" d="M78.334,23.8C59.723,19.59,55.921,1.561,55.885,1.379a1.242,1.242,0,0,0-1.149-1c-.027,0-.054,0-.082,0a1.237,1.237,0,0,0-1.175.865c-6.322,19.721-21.753,22.44-22.406,22.547a1.244,1.244,0,0,0-.049,2.449C48.769,29.787,53.409,48.512,53.454,48.7a1.238,1.238,0,0,0,1.21.957H54.7a1.253,1.253,0,0,0,1.193-1.016C59.217,30.8,78.149,26.274,78.34,26.23a1.245,1.245,0,0,0-.006-2.427Zm-4.441,1.3C68.11,27.418,58.345,32.862,54.5,44.127c-2.317-5.635-7.728-15.173-18.743-19.15C40.773,23,49.472,17.9,54.57,5.512,56.713,11.187,61.99,20.855,73.893,25.105Z"/><path d="M75.147,40.137a.959.959,0,0,0-.75-.858A5.548,5.548,0,0,1,70.3,35.2a.973.973,0,0,0-.875-.774l-.064-.168-.067.164a.961.961,0,0,0-.862.669c-1.172,3.66-3.948,4.155-4.06,4.173a.966.966,0,0,0-.817.932l-.111.043.112.041a.967.967,0,0,0,.775.885c3.18.636,4.049,3.974,4.082,4.107a.962.962,0,0,0,.9.741l.068.164.056-.165a.975.975,0,0,0,.864-.785c.595-3.19,3.961-4.035,4.1-4.068a.961.961,0,0,0,.746-.889l.179-.072Zm-3.427.114a7.355,7.355,0,0,0-2.42,2.325A7.5,7.5,0,0,0,67,40.194a7.75,7.75,0,0,0,2.315-2.412A7.31,7.31,0,0,0,71.72,40.251Z"/></svg>