<svg id="Layer_1" data-name="Layer 1" xmlns="http://www.w3.org/2000/svg" viewBox="0 0 79.304 50"><defs><style>.cls-1{fill:#8c523a;}</style></defs><title>Product-Page</title><circle class="cls-1" cx="25" cy="25" r="25"/><path d="M54.664,44.957a1.138,1.138,0,0,1-.806-.335L32.519,23.283a1.138,1.138,0,0,1,0-1.61L53.858.333a1.141,1.141,0,0,1,1.611,0l21.34,21.34a1.14,1.14,0,0,1,0,1.61L55.469,44.622A1.134,1.134,0,0,1,54.664,44.957ZM34.935,22.478,54.664,42.207,74.393,22.478,54.664,2.749Z"/><path d="M67.777,48.659a1.206,1.206,0,0,1-1.182-.968L64.842,38.95a1.207,1.207,0,0,1,.945-1.419l8.741-1.753a1.2,1.2,0,0,1,1.417.944L77.7,45.464a1.2,1.2,0,0,1-.944,1.418l-8.741,1.753A1.174,1.174,0,0,1,67.777,48.659Zm-.335-9,1.279,6.379L75.1,44.757,73.82,38.378Z"/></svg>