<svg id="Layer_1" data-name="Layer 1" xmlns="http://www.w3.org/2000/svg" viewBox="0 0 74.879 50"><defs><style>.cls-1{fill:#f25035;}.cls-2{fill:#1c1c1c;}</style></defs><title>Product-page</title><circle class="cls-1" cx="25" cy="25" r="25"/><path class="cls-2" d="M73.236,23.829c-3.749-9-11.441-5.508-15.011-4.509C58.158,15.65,58.081,5.493,54.252.7a1.692,1.692,0,0,0-.909-.458,1.445,1.445,0,0,0-1.11.38,1.014,1.014,0,0,0-.4.928.727.727,0,0,0,.281.574s3.847,3.834,3.53,17.186c-3.76-1.006-12.044-4.32-15.774,5.379,0,0-5.988,12.831,5.988,21.386s21.386.855,23.952-1.711A18.7,18.7,0,0,0,73.236,23.829Zm-5.32,19.026c-2.2,2.2-10.252,8.788-20.5,1.465s-5.126-18.308-5.126-18.308c3.661-9.52,10.3-4.471,14.646-4.394,4.444.08,10.252-5.126,13.914,3.662A16.005,16.005,0,0,1,67.916,42.855Z"/></svg>